<svg id="dd749085-e52a-49e5-b5eb-838a4b0e3021" data-name="Слой 1" xmlns="http://www.w3.org/2000/svg" viewBox="0 0 163.5 198.8"><title>avangard</title><rect x="0.5" y="0.5" width="162.5" height="197.8" fill="#fff" stroke="#000" stroke-miterlimit="10"/><path d="M162.5,98.9V2.6c0-2-.2-2.6-2.4-2.6H2.6C.3,0,0,.7,0,2.8Q.2,99,0,195c0,2.1.3,2.8,2.6,2.8q78.8-.2,157.5,0c2.2,0,2.4-.6,2.4-2.7Zm-13.7,93.4c-5.5.1-10.9-.5-16.4.3l-2.6.3H31.9l-2.5-.3c-5.1-.8-10.2-.2-15.3-.3s-4.7-.1-4.7-4.8V9.5c0-4.7,0-4.7,4.8-4.7H148.1c4.9,0,5,.1,5,5v178C153.1,192.2,153.1,192.1,148.8,192.3Z" transform="translate(0.5 0.5)" fill="#004f2f"/><path d="M150.5,183.6V13.4c0-1.2,0-2.3-.1-3.4a2.8,2.8,0,0,0-2.6-2.6H17.2c-5.1,0-5.2.1-5.2,5.3V184.4c0,5.1.2,5.3,5.3,5.2,7-.1,14,.5,20.9-.3l36.5-.2,49.6.2c7.8.7,15.7.2,23.5.3a2.5,2.5,0,0,0,2.6-2.4V187A19.3,19.3,0,0,0,150.5,183.6Zm-10.6,1H22.1c-4.9,0-4.9,0-4.9-5V98.9c0-27.2.1-54.5-.1-81.7,0-3.6,1.1-4.7,4.7-4.7,18.4.2,36.9.1,55.3.1,2.5,0,5.2-.7,5.4,3.3,0,1.5,1.7,1,2.8,1.1a61.8,61.8,0,0,1,59.3,61.5c0,33.7,0,67.5.1,101.2C144.7,183.4,143.8,184.6,139.9,184.6Z" transform="translate(0.5 0.5)" fill="#004f2f"/><path d="M20.9,125.5c0,17.1.1,34.3-.1,51.4,0,3.2.8,4.2,4.2,4.2,17.6-.2,35.2-.1,52.7,0,3.2,0,4.3-.9,4.1-4a106.5,106.5,0,0,1,0-11.3c.2-3.1-1-4-4-4.3C62.6,160,54.4,142.6,63,130c3.4-5.2,8.7-7.7,14.7-8.4,3-.4,4.2-1.3,4.2-4.7q-.3-47.7-.1-95.6c0-3.2-.7-4.2-4.2-3.9A61,61,0,0,0,20.9,78.3Z" transform="translate(0.5 0.5)" fill="#004f2f"/><path d="M82.2,142c0,5.6.1,11.2,0,16.8-.1,2.4.9,2.9,3.1,2.6a19.8,19.8,0,0,0,17-19.7,20.3,20.3,0,0,0-16.8-19.9c-2.6-.3-3.4.5-3.3,3C82.3,130.5,82.2,136.2,82.2,142Z" transform="translate(0.5 0.5)" fill="#015030"/></svg>