<?xml version="1.0" encoding="UTF-8" standalone="no"?>
<svg
   xmlns:dc="http://purl.org/dc/elements/1.1/"
   xmlns:cc="http://creativecommons.org/ns#"
   xmlns:rdf="http://www.w3.org/1999/02/22-rdf-syntax-ns#"
   xmlns:svg="http://www.w3.org/2000/svg"
   xmlns="http://www.w3.org/2000/svg"
   xmlns:sodipodi="http://sodipodi.sourceforge.net/DTD/sodipodi-0.dtd"
   xmlns:inkscape="http://www.inkscape.org/namespaces/inkscape"
   width="105.84894mm"
   height="105.75572mm"
   viewBox="0 0 105.84894 105.75572"
   version="1.1"
   id="svg3819"
   inkscape:version="0.92.3 (2405546, 2018-03-11)"
   sodipodi:docname="13.svg">
  <defs
     id="defs3813" />
  <sodipodi:namedview
     id="base"
     pagecolor="#ffffff"
     bordercolor="#666666"
     borderopacity="1.0"
     inkscape:pageopacity="0.0"
     inkscape:pageshadow="2"
     inkscape:zoom="0.85073785"
     inkscape:cx="534.60285"
     inkscape:cy="115.55466"
     inkscape:document-units="mm"
     inkscape:current-layer="layer1"
     showgrid="false"
     inkscape:window-width="1920"
     inkscape:window-height="1017"
     inkscape:window-x="-8"
     inkscape:window-y="-8"
     inkscape:window-maximized="1"
     fit-margin-top="0"
     fit-margin-left="0"
     fit-margin-right="0"
     fit-margin-bottom="0" />
  <metadata
     id="metadata3816">
    <rdf:RDF>
      <cc:Work
         rdf:about="">
        <dc:format>image/svg+xml</dc:format>
        <dc:type
           rdf:resource="http://purl.org/dc/dcmitype/StillImage" />
        <dc:title></dc:title>
      </cc:Work>
    </rdf:RDF>
  </metadata>
  <g
     inkscape:label="Layer 1"
     inkscape:groupmode="layer"
     id="layer1"
     transform="translate(-26.986245,-102.61517)">
    <path
       style="fill:#f49526;stroke-width:0.26458335"
       d="m 72.897268,208.00323 c -5.787986,-0.75879 -12.955893,-3.08324 -17.84189,-5.78587 -1.209199,-0.66885 -2.248964,-1.2161 -2.310588,-1.2161 -0.324218,0 -4.4783,-2.96944 -6.393312,-4.5701 -4.500433,-3.76168 -8.403244,-8.17447 -11.274269,-12.74748 -1.40152,-2.23236 -4.380979,-8.06497 -4.380979,-8.57623 0,-0.14084 -0.246753,-0.83149 -0.54834,-1.53477 -0.869622,-2.02793 -2.084569,-6.97866 -2.641383,-10.76325 -1.690858,-11.49255 0.791176,-24.10887 6.696644,-34.03942 1.52887,-2.57093 3.272131,-5.17628 4.139382,-6.18643 2.57299,-2.99695 4.34001,-4.83384 6.520695,-6.77852 2.398443,-2.13887 2.915867,-2.55189 4.637905,-3.70203 10.308842,-6.88522 20.618765,-9.87983 32.524265,-9.44698 5.50525,0.20015 12.31803,1.51295 15.96308,3.07604 0.70329,0.30158 1.39394,0.54833 1.53477,0.54833 0.511272,0 6.343882,2.97946 8.576242,4.38098 5.96761,3.74658 11.76994,9.35001 15.70429,15.16592 0.55343,0.81812 1.7295,2.81556 2.61349,4.43876 7.56747,13.89567 8.48652,30.34625 2.52447,45.18692 -1.47637,3.67496 -4.25731,8.85316 -4.88713,9.1 -0.12378,0.0485 -0.22504,0.22993 -0.22504,0.40317 0,0.54294 -4.11751,5.62789 -6.45071,7.96635 -2.36478,2.3701 -7.46216,6.49124 -8.02893,6.49124 -0.18537,0 -0.33703,0.0993 -0.33703,0.2206 0,0.40706 -5.87964,3.56263 -8.97489,4.81677 -4.835752,1.95937 -9.208642,3.07398 -14.440742,3.6808 -3.15566,0.36599 -9.40994,0.30261 -12.7,-0.1287 z m 15.57755,-4.75019 C 105.61622,200.1203 119.93568,187.8241 125.7704,171.2271 c 0.64625,-1.83826 1.42792,-4.91853 2.01211,-7.92897 0.48157,-2.48159 0.65173,-9.43038 0.31424,-12.83229 -1.22168,-12.3146 -7.42799,-24.00389 -17.00906,-32.03576 -2.08689,-1.74945 -4.18844,-3.32824 -5.1175,-3.84454 -0.29104,-0.16173 -1.30307,-0.73958 -2.24896,-1.28409 -4.884362,-2.81179 -10.664132,-4.83422 -16.404162,-5.74007 -1.36152,-0.21486 -4.44146,-0.62896 -7.80521,-0.62767 -4.73734,0.002 -5.9993,0.36649 -8.56232,0.88384 -2.91602,0.58864 -6.484412,1.59901 -8.106432,2.2953 -0.436563,0.1874 -1.626103,0.6817 -2.643423,1.09843 -2.518493,1.03166 -7.259085,3.88247 -10.090873,6.06826 -2.437501,1.88146 -6.387119,5.70884 -7.678783,7.44113 -0.412819,0.55365 -0.820872,1.06616 -0.906785,1.13892 -0.891887,0.75534 -4.943765,7.59925 -5.952485,10.05417 -0.388663,0.94588 -0.8588,2.07698 -1.044749,2.51354 -0.697661,1.63794 -1.706037,5.20006 -2.294788,8.10643 -0.527397,2.60349 -1.152516,3.90224 -1.14805,8.94353 0.0039,4.42727 0.662635,6.3257 1.022328,8.30014 1.048937,5.75788 3.568908,12.50688 6.24248,16.71865 0.369498,0.58208 0.79331,1.25571 0.941804,1.49696 3.370959,5.47644 10.113149,11.80833 16.632588,15.6204 5.158417,3.01625 11.968206,5.57893 18.694698,6.12957 5.624452,0.46043 6.935457,0.66834 13.85775,-0.48994 z m -12.03186,-9.9445 c -6.15878,-0.51007 -12.647995,-2.84169 -17.94261,-6.44691 -8.766191,-5.96911 -14.651413,-15.46319 -16.172582,-26.08974 -0.525693,-3.67235 -0.20334,-10.87062 0.633328,-14.14251 0.988795,-3.8668 3.701579,-10.3922 4.436441,-10.67152 0.127616,-0.0485 0.232029,-0.22994 0.232029,-0.40318 0,-0.49352 4.143973,-5.70261 5.791483,-7.28005 1.640768,-1.57099 6.194996,-5.06087 6.604333,-5.06087 0.143047,0 0.299773,-0.10441 0.348282,-0.23203 0.118216,-0.31101 3.429156,-1.95786 5.947429,-2.95823 3.970247,-1.57715 6.915237,-2.14098 11.987437,-2.29504 7.45603,-0.22647 11.84435,0.63691 17.97221,3.53596 2.16393,1.02374 5.998092,3.28909 6.382162,3.7708 0.0728,0.0913 0.54901,0.48045 1.05833,0.86487 2.32577,1.75542 5.57483,5.27462 7.5562,8.18445 7.46662,10.96544 8.67767,25.44652 3.118,37.28339 -0.94225,2.0061 -3.29778,6.06334 -3.8772,6.6782 -0.17309,0.18368 -0.77044,0.90091 -1.32745,1.59385 -1.36047,1.69248 -3.17638,3.51409 -4.94038,4.95592 -0.80036,0.65419 -1.60533,1.33159 -1.78882,1.50534 -0.61637,0.58366 -4.675022,2.93612 -6.677852,3.8706 -3.94187,1.83921 -7.74121,2.84216 -12.66188,3.34249 -2.97554,0.30254 -2.95571,0.30256 -6.67889,-0.006 z m -0.23839,-10.9604 0.13229,-4.76251 h 1.98437 1.98438 l 0.13229,4.76251 0.13229,4.7625 h 2.77813 2.77812 l 0.13229,-4.7625 0.13229,-4.76251 1.05834,-0.0641 c 2.86075,-0.17318 6.24933,-0.67962 7.70607,-1.1517 5.712522,-1.85127 8.669122,-6.1188 8.689642,-12.54257 0.007,-2.20469 -0.10183,-2.92987 -0.653,-4.34941 -0.82204,-2.11714 -2.63872,-4.02286 -5.034512,-5.28127 -0.9418,-0.4947 -1.74568,-0.92489 -1.78641,-0.95599 -0.0407,-0.0311 0.61413,-0.76273 1.45521,-1.62586 2.08821,-2.14292 2.747652,-3.56592 2.918022,-6.29675 0.17289,-2.77133 -0.24357,-4.54463 -1.448192,-6.16635 -2.08887,-2.81213 -6.48949,-4.91471 -11.5161,-5.50229 l -1.52136,-0.17784 v -4.87326 -4.87326 l -2.84427,0.0751 -2.84427,0.0751 -0.13229,4.63021 -0.13229,4.6302 h -1.98438 -1.98437 l -0.13229,-4.6302 -0.1323,-4.63021 -2.84427,-0.0751 -2.84427,-0.0751 v 4.77145 4.77146 h -5.666899 c -3.116797,0 -5.855234,0.0723 -6.085417,0.16059 -0.344572,0.13223 -0.418515,0.6476 -0.418515,2.91697 0,3.26705 -0.122719,3.15583 3.571875,3.2373 2.716192,0.0599 3.719867,0.36082 3.939945,1.18128 0.08463,0.31551 0.15285,6.94349 0.151601,14.72886 -0.0027,17.02605 0.39797,15.41269 -3.877072,15.61041 l -2.860307,0.13229 -0.233172,2.69523 c -0.128246,1.48238 -0.161748,2.88136 -0.07445,3.10886 0.137144,0.35739 0.933243,0.41362 5.85557,0.41362 h 5.696841 v 4.71841 c 0,2.59512 0.0833,4.80168 0.18507,4.90346 0.10178,0.10179 1.3817,0.15139 2.84427,0.11024 l 2.6592,-0.0748 z m 0.17639,-11.95035 c -0.097,-0.097 -0.17639,-2.96475 -0.17639,-6.37274 v -6.19635 l 5.62239,0.0995 c 4.76561,0.0844 5.80383,0.17572 6.81302,0.59939 2.72002,1.14192 3.70804,2.49772 3.69836,5.07506 -0.0129,3.42628 -1.87703,5.59522 -5.68273,6.61182 -1.3773,0.3679 -9.93733,0.52059 -10.27465,0.18327 z m 0.17367,-19.00643 c -0.28942,-0.21242 -0.34695,-1.3691 -0.28948,-5.82083 l 0.0717,-5.55573 2.51354,-0.08 c 5.0247,-0.16 8.49282,0.77245 9.82346,2.64116 0.81323,1.14208 1.00285,3.7496 0.38699,5.32173 -0.51746,1.32093 -1.02534,1.95521 -2.27291,2.83857 -0.87509,0.61961 -1.17199,0.66294 -5.39906,0.78796 -2.78722,0.0824 -4.60918,0.0324 -4.83425,-0.13282 z"
       id="path3943"
       inkscape:connector-curvature="0"
       sodipodi:nodetypes="ccsssscsssssscssccscscssccccccssccccccccccccscsccsscccsscscsccssccsccccccccccccccccccccccccccccccccccccccccccccscscccscscscssccccsccccccccccccccccc" />
  </g>
</svg>
