<svg xmlns="http://www.w3.org/2000/svg" viewBox="0 0 274.1 444.1"><title>etc</title><path d="M0,241.8c48.3,25.6,98.7,52.5,137.6,73.3l136.5-73.2c-49.4,73.4-90.6,134.5-136.5,202.2C91.7,376.5,40.9,302.1,0,241.8Zm5.3-20.2,132.5-70.7,130.8,70.2L137.9,291.9Zm132.3-93.4L0,200.7,137,.1,274.1,201.2Z" style="fill:#3ab83a"/><path d="M137.6,315.1l136.5-73.2C224.7,315.3,137.6,444,137.6,444Zm.2-164.2,130.8,70.2L137.9,291.9Zm-.2-22.7L137,0,274.1,201.1Z" style="fill:#0b8311"/><path d="M5.3,221.6l132.5,10.8L268.6,221,137.9,291.9Z" style="fill:#0b8311"/><path d="M137.8,232.4,268.6,221,137.9,291.9V232.4Z" style="fill:#146714"/></svg>