<svg id="1a730a56-f081-40a3-bc49-1f2e0c7dc9c6" data-name="Слой 1" xmlns="http://www.w3.org/2000/svg" viewBox="0 0 2510 2430"><title>gazprombank</title><ellipse cx="1255" cy="1215" rx="1250" ry="1210" fill="#fafeff" stroke="#fff" stroke-miterlimit="10" stroke-width="10"/><path d="M1198.4,675.6c604.3,3,1277.7,428.8,1277.4,652.4-.4,325.3-371.6,345.8-1218.4,308.2-735-32.6-872.4,50.4-875.9,280.3C378.3,2127,889.6,2352,1566.4,2342.4c-184.3,49.7-376.3,64.3-570.4,21.5-334.4-73.9-708.9-300.4-711.7-484-6-388.8,640.6-429.3,980.8-416.8,413.4,15.2,1035.1,35.9,1045.6-165,14.8-285-739.6-552.3-1107.1-551.3l-5.2-71.2Z" transform="translate(5 -33)" fill="#505e86" stroke="#fff" stroke-miterlimit="10" stroke-width="10"/><path d="M659.8,250.4c96-72.5,285.7-137.9,563.3-138.5,617.9-1.4,925.3,267.2,937.8,449.4,15.4,226.2-259.8,304.1-917.6,266.9-677.2-38.3-1106.4,0-1109.8,192.6-3.7,212.8,843.3,726.4,1460.6,726.4,424.8,0,661.3-80.5,789.1-143.5a1079.2,1079.2,0,0,1-78.3,174.5c-173.3,32.8-406.7,69.8-714.1,56.9C1085.1,1813.8,49.2,1368.8,49.2,1020.8s823.1-391.9,1184-391.9,802.8,77.7,782.6-135.2-414.9-283.8-654.4-304.1-506,16.9-701.6,60.8Z" transform="translate(5 -33)" fill="#505e86" stroke="#fff" stroke-miterlimit="10" stroke-width="10"/><path d="M288.7,547.4c62.6-71.7,104.4-116.2,189.5-179.6,94.9-42.5,352.8-112.9,765.9-111,631.6,3.1,1091.4,314.6,1094.8,524.5,4.4,270.4-335.2,360.9-1090.6,321.9-707.4-36.6-1082.4,9.1-1085.9,211.7-3.9,223.8,775.8,683.4,1420.3,668,313-7.5,514-48.8,652.7-95.7a1152.7,1152.7,0,0,1-132,152.3c-146.8,24.6-319.2,43.9-510.5,35.8-528.1-22.4-1541.4-431-1541.4-797S883.8,926.7,1260.6,939.2c413.4,13.7,916.8,4.1,917.7-197,1.1-257.5-671.2-401.5-947.4-400.5-440.6,1.6-665.2,81-942.2,205.7Z" transform="translate(5 -33)" fill="#505e86" stroke="#fff" stroke-miterlimit="10" stroke-width="10"/><path d="M130,800.7c27.6-55.9,47.2-95.8,83.3-149.8,250.1-120.2,553.8-176.6,966.9-174.6,604.2,3,1254.8,351.1,1254.5,574.7-.4,325.3-335.1,350.4-1181.8,312.8-735-32.7-1014,45.7-1017.5,275.7C232,1863.4,938.2,2190.4,1582.7,2175c161.9-3.9,293.8-16.8,402.7-34.9a1235.5,1235.5,0,0,1-211.7,127.2c-58.1,2.4-118.5,2.7-180.8.1C1064.8,2244.9,124.5,1969,124.5,1602.9c0-388.9,763.9-415.5,1140.6-403.1,413.5,13.7,1003.6,22.4,1004.5-178.7,1.1-257.5-716.8-474.6-1084.3-473.6C744.7,548.7,384.2,666.8,130,800.7Z" transform="translate(5 -33)" fill="#505e86" stroke="#fff" stroke-miterlimit="10" stroke-width="10"/></svg>