<?xml version="1.0" encoding="utf-8"?>
<!-- Generator: Adobe Illustrator 22.1.0, SVG Export Plug-In . SVG Version: 6.00 Build 0)  -->
<svg version="1.1" id="Vrstva_1" xmlns="http://www.w3.org/2000/svg" xmlns:xlink="http://www.w3.org/1999/xlink" x="0px" y="0px"
	 viewBox="0 0 1000 1000" style="enable-background:new 0 0 1000 1000;" xml:space="preserve">
<style type="text/css">
	.st0{fill:#E2383F;}
</style>
<g>
	<path class="st0" d="M182.3,466.6c10.7,0,22.1-7.6,22.8-26.5c0.4-9.4-2.2-19-7.3-24.5c-3.8-4.1-9.7-6.6-15.8-6.6
		c-13.6,0-22.3,12-22.3,28.3C159.8,458.8,171.7,466.6,182.3,466.6z"/>
	<path class="st0" d="M292.1,635.5c-1.1,4.6-2.4,9.3-3.7,13.9c-1.9,6.8-5.3,17.3-7.4,24.1h22.8L292.1,635.5z"/>
	<path class="st0" d="M184.1,532.4c0-11.5-8.3-11.8-13-12H152v24.3h18.6C173.8,544.7,184.1,544.4,184.1,532.4z"/>
	<path class="st0" d="M363.9,548.7c0-6.2-0.6-12.5-4.7-18.1c-6.1-8.2-14.8-8-21.6-8h-9v52.9h6.9
		C347.3,575.2,363.9,574.6,363.9,548.7z"/>
	<path class="st0" d="M0,0v1000h1000V0H0z M586.7,614.1v17.4h-44v16.3h41.1V665h-41.1v21.4h48v17.7h-70.4v-89.9H586.7z M512,634.6
		l-17.8,8.9c-1.3-2.9-2.8-6-6.7-9.3c-4.3-3.4-8.7-4.5-12.3-4.5c-14.5,0-22.1,13.5-22.1,28.6c0,19.7,10,29.5,22.1,29.5
		c11.7,0,16.4-8.2,19.5-13.4l17.7,9.1c-3.3,5.2-6.5,10.3-13.6,15.3c-3.8,2.7-12.6,7.9-25.1,7.9c-23.8,0-43-17.3-43-47.8
		c0-26.6,18.1-47.6,43.5-47.6c10.3,0,19.5,3.6,26.2,8.9C506.5,625.2,509.5,630.2,512,634.6z M500.5,521.4h-23.3v72.2h-22.5v-72.2
		h-23.4v-17.8h69.2V521.4z M361.2,393.2L361.2,393.2h66.4v17.5h-44v16.3h41.1V444h-41.1v21.4h48v17.7h-70.4V393.2z M364.7,704.1
		h-21.5v-89.9h22l19.5,33.1c7.1,12.6,9.3,16.7,13.5,24.6l-1-57.7h21.5v89.9h-22l-16.8-28.4c-8.1-13.4-9.7-16.2-15.8-28.2
		L364.7,704.1z M187.9,704.1h-21.5v-89.9h22l19.5,33.1c7.1,12.6,9.3,16.7,13.5,24.6l-1-57.7h21.5v89.9h-22L203,675.7
		c-8.1-13.4-9.7-16.2-15.8-28.2L187.9,704.1z M221.7,593.6v-89.9h66.4v17.4h-44v16.3h41.1v17.1h-41.1v21.4h48v17.7H221.7z
		 M280.8,614.1h23.4l33.1,89.9h-23.9l-4.5-14.4h-33.1l-4.4,14.4h-23.9L280.8,614.1z M305.8,593.6v-89.9h28.6
		c10.9,0.1,27.5,0.4,38.9,10.6c9.3,8.4,12.8,21,12.8,33.6c0,7.8-1.1,13.5-2.3,17.3c-8.3,27.8-33.3,28.3-42.7,28.4H305.8z
		 M399.1,593.6v-89.9h22.4v89.9H399.1z M273.5,393.2l13.7,50.4l3.2,14.4c1.3-6.2,1.4-6.9,2.4-11.1l14.4-53.8H340v89.9h-21.5
		l1.4-64.1l0.3-9l-0.8,3.2c-1.2,5.1-1.3,5.7-2.3,9.5l-16.9,60.4h-19.4l-16.3-57.8l-3.9-16c0.4,7.1,0.4,8.7,0.8,17.2l1.1,56.7h-21.8
		v-89.9H273.5z M181.9,390.4c5.3,0,10.9,0.8,16.4,2.7c27.5,9.6,29.3,39.5,29.3,45.6c0,15.5-7.1,29.6-17.1,37.6
		c-8.8,7.3-19,9.4-28.2,9.4c-28.5,0-44.7-21.9-44.7-47.9C137.6,413.4,153,390.4,181.9,390.4z M129.5,503.7h40.5
		c9.4,0.1,21.1,0.3,29.4,9.2c4.2,4.7,7.1,11.8,7.1,20c0,18.1-12.3,22.5-18.5,24.8l20.7,35.9h-24.8l-17.8-32.1H152v32.1h-22.5V503.7z
		 M124.2,614.1h22.4v89.9h-22.4V614.1z M45.4,393.2H68v32.5h32.8v-32.5h22.5v89.9h-22.5v-38.3H68v38.3H45.4V393.2z M82.2,500.9
		c10.3,0,19.5,3.6,26.2,8.9c6.2,5,9.2,9.9,11.7,14.4l-17.8,8.9c-1.3-2.9-2.8-6-6.7-9.3c-4.3-3.4-8.7-4.5-12.3-4.5
		c-14.5,0-22.1,13.5-22.1,28.5c0,19.7,10.1,29.6,22.1,29.6c11.7,0,16.4-8.2,19.5-13.4l17.7,9c-3.3,5.2-6.5,10.3-13.6,15.3
		c-3.8,2.7-12.6,7.9-25.1,7.9c-23.8,0-43-17.3-43-47.8C38.7,521.9,56.7,500.9,82.2,500.9z M44.7,614.1h69v17.3H67.1v18.8H110v17.5
		H67.1v36.3H44.7V614.1z M969.8,757.1h-19.8V319.8L834.6,277v479.9l-789.3,0.2v-20.4h577.5V304.8l211.8-52l135.1,52.6V757.1z"/>
</g>
</svg>
