<?xml version="1.0" encoding="utf-8"?>
<!-- Generator: Adobe Illustrator 25.1.0, SVG Export Plug-In . SVG Version: 6.00 Build 0)  -->
<svg version="1.1"
	 id="svg3819" xmlns:cc="http://creativecommons.org/ns#" xmlns:dc="http://purl.org/dc/elements/1.1/" xmlns:inkscape="http://www.inkscape.org/namespaces/inkscape" xmlns:rdf="http://www.w3.org/1999/02/22-rdf-syntax-ns#" xmlns:sodipodi="http://sodipodi.sourceforge.net/DTD/sodipodi-0.dtd" xmlns:svg="http://www.w3.org/2000/svg"
	 xmlns="http://www.w3.org/2000/svg" xmlns:xlink="http://www.w3.org/1999/xlink" x="0px" y="0px" viewBox="0 0 166.7 166.9"
	 style="enable-background:new 0 0 166.7 166.9;" xml:space="preserve">
<style type="text/css">
	.st0321{fill:#FFFFFF;}
	.st1234{fill:#00B1DF;}
</style>
<sodipodi:namedview  bordercolor="#666666" borderopacity="1.0" fit-margin-bottom="0" fit-margin-left="0" fit-margin-right="0" fit-margin-top="0" id="base" inkscape:current-layer="layer1" inkscape:cx="93.238977" inkscape:cy="-14.251011" inkscape:document-units="mm" inkscape:measure-end="0,0" inkscape:measure-start="0,0" inkscape:pageopacity="0.0" inkscape:pageshadow="2" inkscape:window-height="1001" inkscape:window-maximized="1" inkscape:window-width="1920" inkscape:window-x="-9" inkscape:window-y="-9" inkscape:zoom="0.70710678" pagecolor="#ffffff" showgrid="false">
	</sodipodi:namedview>
<circle class="st0321" cx="83.4" cy="83.5" r="63.2"/>
<g id="layer1" transform="translate(-98.679027,-103.19968)" inkscape:groupmode="layer" inkscape:label="Layer 1">
	<path id="path4073" inkscape:connector-curvature="0" class="st1234" d="M170.2,269.6c-43.2-6.7-73.6-44.1-71.4-87.7
		c1.8-35.1,26-65.5,60-75.3c29.9-8.7,61.1-0.4,83,22c11.3,11.5,18.3,24.5,21.9,40c2.4,10.6,2.3,28.3-0.3,38.2
		c-4.2,15.6-11.3,28.1-22.2,39c-15.5,15.5-34.5,23.7-56.3,24.3C179.2,270.2,172.7,270,170.2,269.6L170.2,269.6z M167,238.8
		c1.4-1.7,1.7-6.3,0.6-8.1c-0.4-0.6-3-2.6-5.8-4.5c-6.3-4.2-10.3-9.4-12.3-15.9c-1.4-4.5-1.5-6.6-1.3-25.5l0.2-20.6l2.4-5
		c2.7-5.6,7-10.2,12.3-13.1c5.6-3.1,6.8-7.5,3.1-11.6c-2.9-3.2-6.6-3.2-12.6,0c-13.1,7-22.7,19.7-26.6,35.3
		c-1.4,5.5-1.5,7.9-1.3,19.5c0.3,11.9,0.5,13.8,2.4,19.2c3.9,11.4,10.8,20.8,19.7,26.9C157.1,241.7,163.6,242.9,167,238.8L167,238.8
		z M210.9,238.5c10-4.8,19.3-15.1,23.9-26.6c3.5-8.6,4.1-13.5,3.3-27.8c-0.8-14.5-2-19.7-6.7-28.8c-3.9-7.5-13.7-17.2-21-20.9
		c-7.8-3.9-11.8-3.5-14.1,1.3c-1.7,3.6-0.7,7,2.8,9.2c9.3,5.9,14.1,11.9,15.7,19.2c0.6,2.6,0.8,11,0.6,24.5
		c-0.2,19.6-0.3,20.8-2,24.3c-2.2,4.9-6.4,9.8-10.2,12.3c-5.9,3.7-7.2,5.4-7.2,8.9c0,2.6,0.4,3.5,2.3,5.1
		C201.5,241.8,204.2,241.7,210.9,238.5L210.9,238.5z"/>
</g>
</svg>
