<svg id="39730a17-1504-40df-9aa2-410e4f01cd27" data-name="Слой 1" xmlns="http://www.w3.org/2000/svg" viewBox="0 0 300 300"><title>perfectmoneyvoucher</title><g id="d442822c-283a-4bc2-8943-cd9a8247fe98" data-name="Page-1"><g id="1b53b0e4-a2e6-4122-ac08-4de9ba81fd95" data-name="perfect money"><circle id="7f08a998-c199-4df8-b943-71dc1e38ba50" data-name="Oval-1" cx="150" cy="150" r="150" style="fill:#606060"/><path id="00e8d5db-9662-4858-85af-4ea5c30ae037" data-name="Combined-Shape" d="M34.5,151.9s66.8,14.4,76.2-16.6S89.4,98.6,89.4,98.6H75.9v51H61.5V100.2H48.8V95s48.2-.2,53.5.4c26.8,3.1,39.8,51.1-3.1,60.6C65.9,163.5,34.5,151.9,34.5,151.9Zm27,11v30.6s-.1,6.5-6,6.5H48.2v5.1H89.6v-5.6H80.4s-4.7-.5-4.7-5.3V162.6H61.5Zm52.9,42.5h41.7V199h-12a8.2,8.2,0,0,1-3.9-6.7V115.2l46.5,90,45.5-88.3-1,76.2s1.1,6.3-5.3,6.3a77,77,0,0,0-7.8.2v4.9h41.7v-5.8H250a3.7,3.7,0,0,1-4.1-4.1V102.1s.1-2,3.7-2h8.5V94H232.2l-42.6,88.4L147.2,94.6H124v5.3h7.4s2.6-.3,2.6,3.6-1,89.3-1,89.3.3,6.6-6.9,6.6H114.5v6Z" style="fill:#fff"/></g></g></svg>