<?xml version="1.0" encoding="utf-8"?>
<!-- Generator: Adobe Illustrator 22.1.0, SVG Export Plug-In . SVG Version: 6.00 Build 0)  -->
<svg version="1.1" id="aff6acf5-3859-4ae1-a1d5-0e06e3594da0"
	 xmlns="http://www.w3.org/2000/svg" xmlns:xlink="http://www.w3.org/1999/xlink" x="0px" y="0px" viewBox="0 0 183.1 183.1"
	 style="enable-background:new 0 0 183.1 183.1;" xml:space="preserve">
<style type="text/css">
	.st0{fill:#FFFFFF;}
	.st1{fill:#010E8C;}
</style>
<title>pochtabank</title>
<circle class="st0" cx="91.2" cy="89.4" r="85.7"/>
<g id="_x36_cec1cf9-d0c9-495b-8fa3-d479c97e3217">
	<path id="_x35_b81fb4b-a337-48b5-be00-b9d83498eed6" class="st1" d="M0,91.5V0h183.1v183.1H0V91.5z M89.8,150.8l1.1-2.1l-0.4-1
		c-0.3-0.6-0.5-1-0.7-0.9l-1.1,1.8l-1,1.7c-0.5-0.6-0.9-1.2-1.3-1.8c-0.7-1-1.4-1.8-1.5-1.7l-0.6,0.9c-0.4,0.7-0.3,0.8,1.6,3.5
		S87.8,154.4,89.8,150.8z M102.9,143l7.8-10.9c0.2-0.1,0.5,0.1,0.9,0.4l0.8,0.5c0.3-1.7,0.3-3.5,0-5.2l-2.5,0.9l-2.3,0.9l0.7,0.4
		l0.7,0.7c0,0.1-3.1,4.6-6.9,9.9c-6,8.4-6.9,9.6-7.2,9.2s-1.8-3.1-3.6-6.5c-2.8-5-3.4-5.9-3.6-5.6l-3.7,5.6l-3.3,5.1l-0.7-0.5
		l-0.8-0.5c-0.2,0.9-0.3,1.7-0.2,2.6c0,2,0.1,2.6,0.3,2.5l2.5-1l2.2-0.8l-0.7-0.6c-0.4-0.3-0.7-0.6-0.6-0.8s5-7.8,5.1-7.8
		s1.7,2.8,3.6,6.2c1.1,2.1,2.3,4.2,3.7,6.1C95.2,153.8,98.7,148.9,102.9,143L102.9,143z M104.1,150c0.1-0.9,0-1.7-0.2-2.6l-0.9,0.5
		l-0.7,0.5l-0.4-0.7c-0.6-1-0.8-1-1.4,0s-0.5,0.8-0.3,1.3s0.3,0.6-0.4,1.1l-0.7,0.6l2.3,0.9l2.5,1
		C104.1,151.7,104.2,150.9,104.1,150z M82.5,144.6l0.4-1c0-0.1-2-3.1-4.5-6.5l-4.6-6.3l0.7-0.6c0.8-0.6,0.8-0.6-1.4-1.4l-2.2-0.9
		c-0.4-0.1-0.4,0.1-0.4,2.5c-0.1,0.9,0,1.7,0.2,2.6l0.9-0.5l0.6-0.5l4.8,6.7c2.6,3.6,4.8,6.7,4.9,6.7S82.3,145,82.5,144.6
		L82.5,144.6z M98.6,144.3c0.3-0.6,0.3-0.7-1.7-3.8l-2-3.2l-0.8,1.5l-1.6,2.9l-0.7,1.3l0.5,0.9c0.3,0.5,0.6,1,0.7,1
		c0.4-0.5,0.8-1.1,1.1-1.7s0.7-1.2,1.1-1.7l1.3,1.8c0.6,1,1.3,1.8,1.4,1.7S98.3,144.7,98.6,144.3z M58.3,142.1
		c1.9-2,1.2-3.3-1.1-2.1s-2.5,1.8-2.3,2.3c0.4,0.6,1.1,1,1.8,1C57.3,143,57.9,142.6,58.3,142.1z M61.1,142.6
		c0.4-0.3,0.8-0.7,1.1-1.2c0.4-0.7,0.4-0.7-0.1-1.1c-0.3-0.2-0.7-0.3-1-0.2c-0.7,0.2-3.1,2.7-2.8,3S60.1,143.1,61.1,142.6z
		 M124.7,143c0-0.6-1.8-2.5-2.5-2.8s-0.7-0.3,0.5-0.6s2-0.8,2-1.5s-2.6-0.4-3.7,0.7s-0.5,0.5,0,0.8s0.5,0.4,0,0.6s0.9,3,3.3,3.1
		C124.5,143.3,124.7,143.2,124.7,143z M128,142.7c0.8-0.7-0.1-1.9-2.3-2.9s-1.1-0.4-1.6-0.2s-0.7,0.4-0.4,0.9c0.5,1,1.3,1.9,2.2,2.6
		C126.6,143.3,127.4,143.1,128,142.7z M56.2,140.1c1.2-0.7,1.6-1.4,1.1-1.7s-4.4-0.1-5.1,0.6s-0.3,1.1,0.5,1.9s0.6,0.6,1.5,0.2
		L56.2,140.1z M130.5,140.7c0.2-0.4,0.3-0.8,0.4-1.2c0-0.8-0.8-1.1-3.2-1.3s-2-0.1-2.1,0.3s0.4,1.2,2.1,2.1S130,141.4,130.5,140.7
		L130.5,140.7z M70.1,139.8c3.6-0.7,5.8-1.3,5.8-1.6c-0.1-0.3-0.3-0.5-0.5-0.7c-0.5-0.4-0.6-0.4-2.4,0.1c-2.7,0.8-5.4,1.2-8.2,1.3
		c-1.7,0-1.8,0-1.8,0.6c0,0.3,0.1,0.6,0.2,0.8C63.6,140.7,67.1,140.4,70.1,139.8L70.1,139.8z M120,139.6v-0.7h-1.9
		c-2.8-0.1-5.5-0.5-8.2-1.3l-1.9-0.5l-0.6,0.6l-0.6,0.6l2,0.6c2.9,0.9,5.9,1.4,9,1.5C119.8,140.3,119.8,140.3,120,139.6L120,139.6z
		 M62.2,139.3c0-0.7-1.8-1.7-3.2-1.7s-1.1,1,0.2,1.7S62.2,139.8,62.2,139.3z M63.6,136.7c1-2.8,2.4-5.5,4.1-8
		c1.4-1.9,3.2-3.4,5.4-4.3c0.5-0.1,1.1-0.4,1.5-0.7c-0.1-0.3-0.3-0.6-0.5-0.8c-0.3-0.3-0.9-0.4-1.3-0.2c-0.3,0.1-0.6,0.3-0.9,0.5
		c-0.3,0.5-0.6,0.2-0.6-0.7s-0.1-0.9-1.1-0.9c-0.7,0-1.4,0.3-1.8,0.8c-1,1.1-2.6,4.1-4.3,7.8c-0.5,1.3-1.2,2.6-1.9,3.8
		c-0.7,1-1.8,1-3.3,0c-1.7-1.1-2.7-1.2-4.1-0.5s-1.9,1.4-1.6,1.7l2.2,0.5c1.3,0.2,2.5,0.6,3.6,1.2c1.8,0.9,2.6,1.2,3.5,1.2
		S63.3,138,63.6,136.7z M123.7,137c1.2-0.7,2.5-1.1,3.9-1.3l2.2-0.5c0.3-0.3-0.3-1.1-1.5-1.7s-2.4-0.6-4.1,0.5s-3.2,0.9-4.7-2.5
		s-4.5-9.1-5.4-9.6c-0.4-0.2-0.9-0.3-1.4-0.3c-0.9,0-0.9,0.1-0.9,0.9s-0.1,1.1-0.9,0.5c-0.3-0.2-0.6-0.4-1-0.4
		c-0.5,0-1.5,0.7-1.5,1.1l1.6,0.7c2.8,1.1,4.9,3.2,7.3,7.4c0.8,1.3,1.4,2.7,1.9,4.2l0.7,2.2l1.1-0.2
		C121.9,137.8,122.8,137.4,123.7,137L123.7,137z M92.2,137.2c0.5-0.5,0.8-1,1.1-1.6l0.4-0.8H93l-1,0.3c-0.5,0.1-1,0-1.4-0.2
		c-0.6-0.1-1.1-0.2-1.2-0.1s1.7,3,2,3c0.3-0.2,0.6-0.4,0.8-0.7L92.2,137.2z M57.2,137.5c0.3-0.2,0.4-0.5,0.3-0.8
		c0-0.1-0.1-0.1-0.2-0.2l-1.8-0.3c-1.5,0.1-3-0.8-3.5-2.2c-1.2-2.3-0.6-5.1,1.4-6.7c3.3-2.7,8.1-0.7,8.7,3.8l0.2,1.2l0.6-1.3
		l0.6-1.4l-0.5-1.1c-1.7-3.5-5.9-5-9.5-3.4c-0.8,0.4-1.5,0.9-2.1,1.6c-1,1.2-1.1,0.5,0-1.7s1.6-2.9,3.2-3.7s1.1-0.7,0.8-0.7
		s-4.8-2.6-6-4.5l-0.8-1.2l-0.2,1.1c-0.1,0.6-0.6,2.4-1.1,4c-0.5,1.5-0.9,3.1-1.2,4.7c-0.3,3.1,0.9,6.4,3.5,9.5
		c0.7,0.7,1.3,1.6,1.7,2.5l0.4,0.9h5.5L57.2,137.5z M131.5,136.9c0.5-0.8,1-1.6,1.6-2.4c1-1.2,1.8-2.4,2.5-3.8
		c1.1-2.2,1.1-2.2,1.1-5.1c0.1-2.1-0.2-4.1-1.1-6c-0.5-1.4-0.9-2.8-1.1-4.2v-1.1l-0.5,1c-1.1,2.2-4.9,5.3-6.6,5.3s0,0.2,0.8,0.6
		c0.7,0.3,1.3,0.7,1.9,1.2c0.9,1.4,1.7,2.9,2.2,4.5l0.2,0.7l-1.1-1c-1.2-1.4-3-2.2-4.8-2.1c-1.1-0.2-2.3,0-3.3,0.6
		c-1.6,0.8-2.8,2.1-3.5,3.7c-0.2,0.8-0.1,1.7,0.4,2.4l0.6,1.4v-1.2c0.1-3,2.5-5.3,5.5-5.3c0.9,0,1.7,0.2,2.5,0.7
		c1.1,0.5,2,1.4,2.3,2.6c1,1.9,0.6,4.2-1,5.7c-0.9,1-1,1.1-2.6,1.1s-2.2,0.4-1.9,1s0.6,0.4,3,0.4h2.8v-0.7H131.5z M81,135.8
		c2-1.4,3.8-3,5.4-4.9c1-1.2,1.9-2.5,2.7-3.9h-0.9c-0.7,0.1-1.1,0.5-2.2,1.8c-2,2.7-4.5,4.9-7.4,6.6c-0.3,0.3-0.3,0.3,0,0.9l0.6,0.5
		C79.8,136.6,80.5,136.2,81,135.8z M104.4,136.3c0.3-0.6,0.3-0.6-1.6-1.8c-2.4-1.7-4.5-3.7-6.3-6.1c-0.7-1.1-1-1.3-1.8-1.4h-0.9
		l0.3,0.7c1.4,2.1,3,4.1,4.9,5.8c1.4,1.3,3.1,2.5,4.8,3.4C104.1,136.8,104.3,136.6,104.4,136.3L104.4,136.3z M86,135.2l1.7-1.1
		l0.8-0.6l1.4,0.5c1.1,0.6,2.5,0.5,3.6-0.1c0.7-0.4,0.8-0.3,2,0.5c1.4,0.9,3,1.6,4.6,2.1c0.4,0.1-0.6-1-2.4-2.8
		c-1.7-1.6-3.2-3.3-4.5-5.2c-0.5-0.8-1.1-1.5-1.7-2.2c-0.4,0.5-0.8,1-1.2,1.6c-1.4,1.8-2.9,3.5-4.5,5.1l-3.5,3.6l1.4-0.5
		C83.7,136.1,86,135.2,86,135.2z M82.4,129c2.2-0.9,4.4-3.8,5.5-7c0.4-1.2,0.4-1.3-0.1-2.3c-0.3-0.5-0.4-1-0.5-1.5
		c0-1-1.2-0.2-2.6,1.8c-0.8,1.1-1.8,2.1-2.9,2.9c-2,1.3-2.8,2.1-2.8,2.8s1.5,0.2,2.7-0.7c1-0.8,1.8-1.6,2.6-2.6
		c1.7-2.1,2.2-2.4,2.2-1.5s-1.4,3.3-4.6,5.8c-1,0.6-1.7,1.5-2,2.6c-0.1,0.5-0.1,0.6,0.6,0.4L82.4,129z M103,129.4
		c0-0.8-0.9-2-2.3-3.1s-4.1-3.8-4.1-5.3s0.3-0.8,1.6,0.8c0.7,0.9,1.5,1.8,2.4,2.6c1.2,1.1,3,1.9,3.4,1.5s-0.6-1.6-1.9-2.5
		c-1.7-1.3-3.3-2.9-4.7-4.5l-1.3-1.2c-0.6,1.1-1,2.2-1.3,3.4c0,0.8,1.5,3.9,2.4,5.2c1.1,1.4,2.7,2.6,4.4,3.2
		C103,130,103,129.9,103,129.4z M89.4,126.2c0.5-0.3,1-0.6,1.4-1l0.8-0.8l0.6,0.6c0.7,0.9,1.8,1.4,2.9,1.5c0.8,0,0.9-0.4,0.2-0.6
		c-0.5-0.2-0.9-0.6-1.2-1c-1-1.1-0.9-2.8,0.3-5.4s1.1-3.7,0.5-5.3s-0.7-1-1.3,1s-1.9,4.7-2.2,4.5c-0.9-1.8-1.6-3.7-2.2-5.6
		c-0.1-0.4-0.3-0.7-0.4-0.7s-0.8,1.3-0.9,2.7s0,1.6,0.8,3.4s1.2,4.1,0.3,5.4c-0.3,0.4-0.7,0.7-1.2,1c-0.3,0.1-0.5,0.2-0.4,0.4
		S88.7,126.6,89.4,126.2z M79.1,123.9c0.6-0.3,1.2-1,1.2-1.3s-0.5-0.2-1.2-0.2s-1.1-0.1-1.3-0.7s1.3-3.2,3.1-3.2h0.6l-0.6-0.5
		c-0.9-0.7-2-0.4-3.3,1.1c-0.6,0.5-1.1,1.2-1.4,1.9c-0.4,1-0.1,2.1,0.7,2.7C77.5,124.3,78.4,124.3,79.1,123.9L79.1,123.9z
		 M106.4,123.4c0.7-1.1,0.6-2.5-0.3-3.5c-1.4-1.9-3-2.7-4.2-1.8s-0.3,0.4,0.6,0.5c1.1,0.1,2.1,0.9,2.6,1.9c0.5,1.2,0,1.8-1.5,1.9
		h-1.2l0.9,0.9c0.7,0.8,0.9,0.8,1.7,0.7C105.5,123.9,106,123.7,106.4,123.4L106.4,123.4z M75.3,122c-0.5-0.7-1.9-1.4-4.7-2.2l-2-0.6
		l-0.5,0.6c-0.7,0.9-0.2,1.3,1.9,1.3s1.8,0.1,1.8,0.5s0.2,0.8,0.8,0.5c0.9-0.3,1.8,0.1,2.2,0.9c0.4,0.8,0.4,0.8,0.7,0.2
		S75.6,122.5,75.3,122z M109.3,122c0.4-0.1,0.8,0,1.2,0.1c0.4,0.2,0.5,0.2,0.6-0.3s0.2-0.6,1.9-0.6s2.4-0.4,1.9-1.4
		s-0.5-0.7-3.4,0.3s-4.1,1.7-4.1,2.7s0.3,0.9,0.8,0.1C108.5,122.5,108.9,122.2,109.3,122z M76.5,119.2c1.1-1.3,1.2-1.4,0.7-1.5
		s-1.9,0.2-3.6,1.1l-1.2,0.6l1.2,0.6l1.4,0.6C75.2,120.6,75.8,120,76.5,119.2z M109.1,120c0.9-0.4,1.1-0.6,0.9-0.8
		c-1.2-0.9-2.7-1.4-4.2-1.5h-0.7l0.6,0.5c0.5,0.4,0.9,0.9,1.2,1.4c0.3,0.5,0.6,0.9,0.8,0.9L109.1,120L109.1,120z M57.1,119.8
		c0.8-0.4,0.9-1.7,0.1-2.9c-1.3-1.9-3-3.4-5-4.5c-1.1-0.4-1.1-0.4-1.8,0.1s-0.7,3.5,2,5.7S55.9,120.4,57.1,119.8z M128.8,119.6
		c1.8-1.1,3.3-2.7,4.4-4.5c0.6-1.3,0.3-2.3-0.7-2.8c-0.6-0.2-1.3-0.2-1.9,0.2c-2,1.1-3.7,2.7-4.9,4.6
		C124.6,119.5,126.3,120.8,128.8,119.6L128.8,119.6z M73.9,118.1c1.8-0.8,4.1-2.8,3.7-3.1l-3.2,0.6c-1.4,0.2-2.8,0.8-4.1,1.5
		c-0.5,0.5-1,0.9-1,1.1c0.7,0.5,1.6,0.9,2.5,1L73.9,118.1z M112.8,118.7l1.1-0.3l-0.7-0.7l-1.5-1.2c-2.1-0.7-4.3-1.2-6.5-1.6
		c-0.1,0,0.2,0.5,0.7,1c0.8,0.8,1.7,1.5,2.7,2l2,1.1c0.2,0.2,0.4,0.2,0.7,0.2C111.3,119.2,112.8,118.7,112.8,118.7z M84.4,117.6
		c1.2-0.8,2.2-1.9,2.8-3.2c0.6-1.2,1-2.5,1.1-3.9l-1.7,1.5c-0.9,1-2.1,1.8-3.3,2.4c-2.4,1.1-3.2,2.2-2,3.1
		C82.2,118.1,83.4,118.2,84.4,117.6z M101.6,117.6c1.3-0.9,0.7-2-2-3.3c-1.3-0.6-2.5-1.4-3.4-2.5l-1.5-1.6l0.2,1.4
		C95.4,115.9,99.2,119.2,101.6,117.6z M93.5,111.9c0.4-1.6,0.1-3-1.1-5s-1.1-1.5-2.3,0.8s-1.1,3.8,0.6,8.1l0.8,2l0.9-2.3
		C92.8,114.3,93.2,113.1,93.5,111.9z M80.3,116c0.3-1,1.1-1.7,2.1-1.9c1.1-0.3,1.2-0.6,0.4-1.1s-0.7-0.1-1.6,0.3s-4,3-4,3.4
		s0.6,0.3,1.3,0.3S79.8,116.9,80.3,116z M105.4,116.2c-1-1.2-2.2-2.2-3.6-2.8c-1.3-0.6-1.3-0.7-1.9-0.2s-0.5,0.5,0.8,1
		c0.8,0.3,1.6,0.8,2,1.6c0.6,1.1,0.7,1.2,1.9,1.2h1.3L105.4,116.2z M77.7,114.2c1-0.3,2-0.6,2.9-1.1l1.5-0.8l-0.4-1.1
		c-0.2-0.4-0.4-0.8-0.5-1.2c-0.2-0.2-3.4,2.3-4.5,3.5S75.6,114.9,77.7,114.2z M106.9,113.9c-0.8-1-4.8-4.1-5-3.9s-0.3,0.6-0.5,1.2
		s-0.4,1.1,0.3,1.5c1.7,0.9,3.5,1.5,5.3,1.9C107.4,114.6,107.4,114.6,106.9,113.9z M85.9,110.6c0.1-0.9-0.1-1.8-0.6-2.5l-0.7-1.7
		l-1.1,1.4c-1.7,2.1-1.7,2.9-0.1,4.6l0.6,0.7l0.9-0.8C85.3,111.8,85.7,111.2,85.9,110.6z M100.6,111.2c0.6-1.1,0.4-1.5-0.9-3.2
		l-1.3-1.6l-0.7,1.7c-0.8,2-0.7,2.9,0.5,4.1l0.8,0.9l0.6-0.6C100,112.1,100.4,111.7,100.6,111.2z M67.1,110.4c0.7-3,1.2-6,1.3-9.1
		v-1.2l-0.6,0.6c-0.5,0.6-0.6,1.1-0.7,3c-0.4,5.2-1.6,5.4-1.6,0.2c0.1-2.2,0-2.6-0.5-3.4l-0.6-1l-0.2,1.6c-0.3,3.2-0.1,6.4,0.5,9.5
		c0.5,1.6,1.1,2.3,1.5,2C66.6,111.9,66.9,111.2,67.1,110.4L67.1,110.4z M118.4,110.7c0.6-3.2,0.7-6.5,0.5-9.7l-0.3-1.5l-0.5,1
		c-0.5,0.8-0.6,1.3-0.6,3.5s-0.2,3.7-0.6,3.7s-0.7-1.8-0.9-4.1s-0.3-2.3-0.8-2.9l-0.6-0.6l0.2,2.5c0.2,4.2,1.2,8.9,2,9.9
		S117.9,112.2,118.4,110.7z M58.7,111.8c2.2-1.5,3.2-3.2,3.9-6.4c0.5-2.8,0.8-5.6,0.9-8.5V96l-0.6,0.5c-0.5,0.4-0.7,0.9-1,3
		c-0.2,2.2-0.8,4.4-1.7,6.5c-1.4,2.9-1.2-1,0.2-5.4c0.4-0.9,0.7-1.9,0.8-2.9c-0.5-0.5-2.5,2.5-3.8,5.9s-1.4,6.7-0.5,8.4
		s0.5,0.7,1.9-0.2L58.7,111.8z M126.4,111.6c0.7-1.6,0.6-4.4-0.3-7s-3.6-7.5-4.2-6.9s0.3,1.3,0.7,2.7c1,3,1.4,5.6,1.2,6.3
		s-0.2,0.5-0.5,0c-1-2.1-1.7-4.4-2-6.7c-0.4-2.5-0.6-3.1-1-3.5s-0.6-0.5-0.7,0.2c0.1,2.9,0.4,5.8,0.9,8.6c0.5,2.6,1.1,3.9,2.4,5.2
		c0.8,0.9,1.8,1.6,2.9,2.1C125.9,112.6,126.2,112.1,126.4,111.6z M73.5,110.6c0.3-1.9,0.4-3.8,0.2-5.7c-0.2-0.4-0.5-0.8-0.9-1
		l-0.7-0.3v2c0.1,0.7,0.1,1.4,0,2.1c-0.3,0-1-1.9-1.3-3.8s-1.7-4.7-1.7-3.7c0.2,2.4,0.7,4.8,1.3,7.2c0.6,2,2,4.5,2.4,4.3
		S73.2,111.2,73.5,110.6L73.5,110.6z M111.3,110.4c1.1-2.3,1.9-4.7,2.2-7.2c0.5-3.5,0.5-3.6-0.3-2.3c-0.4,1-0.8,2-1,3.1
		c-0.5,2.1-1,3.7-1.3,3.7c-0.1-0.7-0.2-1.4-0.1-2.1l0.2-2l-0.8,0.3c-0.9,0.5-1.1,1.5-0.9,4.4s0.5,3.5,0.9,3.5
		S110.9,111.2,111.3,110.4L111.3,110.4z M49.4,109.9c2.6-1.5,4.7-3.7,6.1-6.4c0.7-1.4,1.7-3.1,2.2-3.9l0.9-1.3
		c-0.8-0.2-1.6-0.1-2.3,0.1c0,0.5-2.8,4.3-4.3,5.9s-2.4,1.8-1.3-0.6c1-2.2,2.5-4.1,4.2-5.8c1-1.2,1.9-2.2,1.9-2.3s-0.5-0.2-1.1-0.1
		s-1.3,0.3-2.3,1.4c-1.8,1.9-3.4,3.9-4.7,6.1c-1.1,2.1-1.8,4.3-2,6.6c0,1.4,0.1,1.5,0.6,1.3L49.4,109.9z M136.3,109.9
		c0-2.7-1.6-6.6-4.1-9.9s-3.8-4.4-5-4.5s-0.9-0.1-0.9,0.1c0.5,0.8,1.1,1.5,1.8,2.2c1.7,1.7,3.2,3.7,4.3,5.9c1,2.3,0.7,2.5-1.1,0.9
		s-4.5-5.7-4.5-6.2c-0.7-0.2-1.5-0.3-2.3-0.1c0.2,0.5,0.5,1,0.8,1.4l2.4,4c0.7,1.5,1.7,2.8,2.8,4c1.2,1.1,4.7,3.3,5.5,3.3
		S136.3,110.6,136.3,109.9L136.3,109.9z M89.4,107.3c1.3-2.4,1.1-5-0.5-6.4s-0.6-0.5-1.1,0.1c-0.5,0.7-1,1.4-1.3,2.2
		c-1,1.9-1,2.5,0.2,5.1l0.7,1.7l0.6-0.6C88.6,108.8,89,108.1,89.4,107.3z M97.3,105.7c0-0.9-0.2-1.8-0.7-2.5
		c-0.3-0.8-0.8-1.5-1.3-2.2c-0.5-0.6-0.6-0.6-1.1-0.1c-0.8,0.8-1.3,1.7-1.4,2.8c-0.2,1.3,0.6,3.4,1.9,5.1l0.9,1.3l0.8-1.8
		C96.8,107.5,97.1,106.6,97.3,105.7z M42,107.3c2.2-1,3.1-1.8,6.2-5.9c1.2-1.7,2.5-3.4,3.9-4.9c0.5-0.4,0.8-0.9,1.1-1.5
		c0-1.2-0.3-1.1-2.1,0.6s-7,5.7-7.4,5.3s0.3-0.8,0.9-1.5s4-3.9,6.5-5.4s2.6-2,2.3-2.2L52,91.5l-1.3-0.3l-2.1,1.7
		c-6.2,5.1-8.9,8.5-10,12.7c-0.6,2.6-0.6,2.7,0.8,2.5C40.3,107.9,41.2,107.6,42,107.3L42,107.3z M144.9,107.8c-0.4-2.1-1-4.1-2-6
		c-2.2-3.2-4.9-6-7.9-8.4c-2.8-2.2-2.8-2.2-3.7-2c-0.5,0.2-1,0.2-1.5,0.2c-0.5-0.2-0.5-0.2-0.1,0.7s0.8,0.9,1.3,1.2
		c2.9,1.5,7.2,5.1,8.1,6.9s0.2,0.7-1.6-0.4c-2.1-1.3-4-2.8-5.7-4.6l-1.9-1.7v0.8c0,0.7,0.3,1.4,0.9,1.8c0.5,0.5,2.3,2.8,3.9,4.9
		c1.3,1.8,2.7,3.4,4.3,4.9C141,107.7,144.9,108.8,144.9,107.8z M84.2,105.5c0.4-0.7,0.6-1.4,0.7-2.1c0-0.8-1.2-3.3-1.6-3.2
		s-1.7,2.2-1.9,3.3c-0.1,0.9,0.1,1.8,0.6,2.6C82.8,107.9,82.9,107.9,84.2,105.5z M101.1,105.8c0.6-1.7,0.7-2.1,0.4-2.9
		s-1.7-2.7-2.1-2.7s-1.3,2.7-1.2,3.6s1.7,3.9,2,3.9C100.6,107.1,100.9,106.5,101.1,105.8z M74.9,102.7c-0.5-1.4-1-2.8-1.3-4.2
		c-0.5-2.5-1.6-4.9-3-7c-0.6-0.7-0.6-0.7-1.1-0.3s-0.7,3.2-0.3,5.5c0.7,4.1,3,7.1,5.5,7.1h0.7C75.4,103.8,74.9,102.7,74.9,102.7z
		 M109.8,103.4c1.8-0.7,3.7-3.7,4-6.4l0.2-1.3l0.2,1.4c0.3,1.5,1,2.8,2,4c0.6,0.4,2.2-2.3,2.5-4.2c0.1-1.5-0.2-3.1-0.9-4.4
		c-0.5-0.6-0.5-0.6-1.1-0.2c-0.4,0.2-0.8,0.3-1.2,0.1c-0.7-0.2-0.7-0.2-1.1,1.6l-0.2,1.1v-1.4c-0.1-1.4-0.5-2.6-1-2.7
		s-2.3,2.9-2.9,4.8s-0.8,2.6-1.1,3.7c-0.2,1.1-0.6,2.2-1,3.2l-0.5,1.1h0.6C108.8,103.8,109.3,103.6,109.8,103.4z M33.2,102.9
		c3.6-0.7,5.2-1.7,12.4-8.3l3.7-3.3c0.6-0.5,0.8-0.8,0.6-1s-0.8,0.2-1.9,1c-3,2.4-8.8,5.8-9.2,5.4s1.8-2.4,3.5-3.7
		c1.4-1,2.8-1.8,4.4-2.5c1-0.4,1.9-0.9,2.7-1.6c0.2-0.4-8.5,3-11.7,4.6c-3.1,1.8-5.6,4.6-7,7.9C29.9,103.6,29.8,103.5,33.2,102.9z
		 M152.9,103c-0.2-0.6-0.4-1.2-0.7-1.8c-1.2-3-3.3-5.5-6-7.3c-2-1.2-12.8-5.5-12.5-5c0.8,0.7,1.7,1.2,2.7,1.6c1.5,0.7,3,1.5,4.4,2.5
		c1.7,1.3,3.7,3.5,3.5,3.7s-6.2-3-9.2-5.4c-1.2-0.8-1.7-1.2-1.9-1s0,0.5,0.6,1l5.1,4.6c4.9,4.4,5.8,5.1,7.7,6S152.9,103.6,152.9,103
		L152.9,103z M93.4,99.3c0.4-1.3,0.2-1.9-1.2-4.1L91.5,94l-1,1.5c-0.4,0.7-0.8,1.4-1.1,2.1c-0.2,0.8,0.4,2.5,1.3,3.8l0.8,1.1
		l0.7-1.1C92.7,100.8,93.1,100.1,93.4,99.3z M87.2,100.6c1.4-2.4,1.4-3.5,0-5.8c-0.5-0.8-1-1.4-1-1.5s-0.6,0.6-1.2,1.5
		c-0.7,0.8-1.1,1.8-1.1,2.9c0,0.6,0.1,1.3,0.3,1.9c0.6,0.9,1.3,1.7,2.1,2.4C86.7,101.6,87,101.1,87.2,100.6z M98.4,99.9
		c1.2-1.8,1-3.2-0.6-5.5l-0.9-1.2l-1,1.4c-1.5,2.2-1.5,3.9-0.1,6.2s0.8,1.2,1.3,0.8C97.6,101.1,98,100.5,98.4,99.9z M83.1,97
		c-0.3-0.9-0.7-1.8-1.2-2.6l-1.1-1.5l-0.7,1.5c-1,1.8-0.9,4.1,0.4,5.7l0.9,1.5l0.9-1.8C82.8,99,83.1,98,83.1,97L83.1,97z
		 M102.8,99.5c0.8-1.4,0.8-2.5,0.2-4.5c-0.2-0.7-0.4-1.3-0.7-1.9c-0.1-0.1-0.7,0.5-1.2,1.3s-1.5,3.2-0.4,5.4l0.8,1.7l0.5-0.6
		C102.3,100.5,102.6,100,102.8,99.5z M67.6,99.9c0.9-1.2,1-1.5,1-3.4s-0.3-4.3-0.7-4.3l-0.5,0.2c-0.3,0.2-0.6,0.1-1-0.1
		s-1.2-0.2-1.7,1.5c-0.5,1.5-0.5,3.1-0.1,4.6c0.4,0.9,1.7,2.8,2,2.8C67,100.8,67.4,100.4,67.6,99.9z M75.8,100.6l1.7-3.8
		c1.9-3.9,2.2-5,1.8-6.3c-0.2-0.7-0.7-1.3-1.3-1.7c-0.9-0.6-1-0.6-1.7-0.2c-0.4,0.3-0.8,0.4-1.2,0.5c-0.4,0-0.5,0.2-0.5,1
		c0,0.7-0.2,1.4-0.4,2c-0.4,0.9-0.6,1-2,0.5s-0.5-0.2-0.1,0.2c0.9,1.3,1.5,2.8,1.7,4.4C74.7,100.8,75.4,102,75.8,100.6z
		 M108.3,100.3c0.2-0.5,0.6-1.9,0.9-3.1s1-3.5,1.8-4.4s0.4-0.4-0.1-0.2s-1.7,0.4-2.1-0.5c-0.2-0.6-0.4-1.3-0.4-2c0-0.8-0.1-1-0.4-1
		c-0.4-0.1-0.9-0.2-1.2-0.5c-0.8-0.5-0.8-0.5-1.8,0.2s-1.3,1.2-1.3,2.9s0.4,2,1.7,4.8l1.9,4.1C107.5,101.5,107.9,101.4,108.3,100.3z
		 M60.7,96.8c2.2-1.1,3.8-3.2,3.8-4.9s-0.3-1.3-1.4-0.8c-0.5,0.3-1,0.5-1.5,0.6c-1.1,0-4.5,4-4.5,5.3s0,0.7,1.2,0.5
		C59.1,97.4,59.9,97.1,60.7,96.8z M126,97.2c0-1.4-3.5-5.5-4.6-5.5l-1.6-0.5c-0.5-0.3-1-0.5-1.1-0.4c-0.2,0.4-0.2,0.8-0.2,1.2
		c0,2.6,3.4,5.5,6.5,5.6C125.7,97.6,126,97.5,126,97.2z M27.8,95.8c2.8-0.4,5-1.2,10.4-3.6l7-3c2.9-1,2.8-0.9,1.8-1.2
		s-2.1-0.3-4.9,0.8s-6.5,1.9-7.5,1.8s3-2.1,7.1-3.6c1.8-0.7,3.4-1.3,3.4-1.5s-9.6,1.4-11.6,2c-3.5,1.1-6.5,3.3-8.7,6.3l-1.3,1.9h0.7
		C25.4,96,26.6,96,27.8,95.8L27.8,95.8z M159.5,95.7c0.2-0.2-1.3-2.3-2.6-3.7c-2.7-2.7-6.1-4.5-9.8-5.1c-1.7-0.4-8.2-1.4-8.7-1.4
		s-0.1,0.5,0.8,0.8c3,0.8,9.8,3.7,9.8,4.2s-5.6-0.8-9.2-2.2c-1.9-0.7-2-0.8-3.2-0.4s-1.1,0.4-0.7,0.5c3.8,1.4,5.6,2.2,9.2,3.8
		c6.3,2.9,10.1,4,13,3.7C158.1,95.9,159.5,95.7,159.5,95.7z M90.1,93.9c0.4-0.9,0.6-1.9,0.7-2.9c0.1-1.5,0.1-1.6-1-3.3
		s-1.2-1.7-1.4-1.6c-0.4,0.3-0.6,0.7-0.8,1.1c-0.8,1.6-1,3.5-0.5,5.3c0.5,1.1,1.3,2,2.2,2.8C89.7,94.9,89.9,94.4,90.1,93.9z
		 M94.9,94.2c1-1.1,1.6-2.7,1.4-4.2c-0.2-1.3-1.2-3.8-1.7-3.9s-0.7,0.7-1.4,1.6s-1.1,1.8-0.9,3.3s1,4.3,1.4,4.3S94.4,94.8,94.9,94.2
		z M56.6,94.7c1.4-0.3,3.7-2.6,3.4-3.2c-0.1-0.4-0.3-0.9-0.5-1.3c-0.3-1-0.6-1.1-2.3-0.2s-3.8,3.1-3.4,4.5S55,95.2,56.6,94.7z
		 M84.8,93.2c1.4-2.8,1.3-3.8-0.4-5.9l-1.3-1.6l-1,1.6L80.8,89c-0.4,0.2-0.3,1.1,0.4,2.5s2.3,3.5,2.6,3.5
		C84.2,94.4,84.5,93.8,84.8,93.2z M101.8,91.5c0.3-0.6,0.5-1.2,0.7-1.8c-0.2-0.6-0.5-1.2-1-1.7l-1.2-1.8c-0.3-0.5-0.5-0.3-1.7,1.2
		s-1.7,2.9-0.3,5.8l0.9,1.9l0.9-1C100.8,93.3,101.3,92.4,101.8,91.5z M129.1,94.1c0.1-1.7-1.2-3.1-3.9-4.3l-1.4-0.7l-0.5,1.4
		l-0.5,1.4l1,1.1c1.1,1.2,2.5,1.9,4.1,2C128.9,94.9,129,94.8,129.1,94.1z M73.9,91.1c0.1-0.6,0.2-1.3,0.1-1.9
		c-0.2-0.8-0.1-0.8,0.9-0.8s1.8-0.4,1.2-1.3c-0.4-0.7-0.8-1.4-1.1-2.1l-0.6-1.3L73,84.1c-2.4,0.6-4.8,0.4-7.1-0.4
		c-0.6-0.3-1-0.7-1.3-1.3c-0.2-1,0.3-3,1.5-5.7s1.6-5.5-2.4-8.5s-6.2-5.6-7.3-7.6l-0.8-1.5l-0.2,1c-0.2,2.7,0.4,5.3,1.5,7.7
		c0.7,1,1.4,1.9,2.2,2.8c0.6,0.5,1.1,1.1,1.5,1.7l-1.2-0.5c-1.5-0.7-4.1-0.8-4.9-0.3s0.9,3.6,2.7,4.7l0.8,0.5h-1.1
		c-1.1,0-3.7,1.1-3.7,1.5c0.2,0.5,0.5,0.9,0.9,1.3c1,1,2.2,1.7,3.6,2c0.2,0-0.1,0.5-0.7,1.1s-1.7,2.8-1.2,3.2s3.3,0.3,4.3-0.2
		l0.9-0.4l-0.6,1.1c-1.1,2-0.6,5.1,0.8,4.9c1.3-0.4,2.5-1.1,3.5-2.1l0.9-0.9v1c0,1.1,0.8,2.7,1.3,2.7c0.9-0.2,1.7-0.7,2.3-1.4
		l0.6-0.7l0.9,0.9C72.6,92.5,73.4,92.6,73.9,91.1L73.9,91.1z M111.1,91.6c0.5-0.3,1-0.7,1.4-1.2l0.4-0.6l0.9,0.8
		c0.4,0.4,0.9,0.8,1.5,1.1c0.9,0.4,1.5-0.2,1.9-1.9l0.3-1.3l1,1c0.7,0.6,1.5,1.1,2.3,1.4l1.3,0.5l0.4-0.6c0.7-1,0.7-2.3,0.2-3.9
		s-0.4-1.4-0.2-1.3c2.1,0.7,4.8,0.7,4.8,0c-0.2-1.1-0.7-2.2-1.5-3.1c-0.6-0.6-0.8-0.9-0.5-1l1.3-0.4c1.2-0.4,3.1-2.2,3-2.8
		s-1.8-1.4-3.4-1.6l-1-0.2c1-0.1,3.4-3.2,3.4-4.5s-2.8-1.1-4.9-0.3l-1.3,0.5l0.4-0.5l1.6-1.8c2.3-2.3,3.4-5.6,3.1-8.8V59l-0.9,1.7
		c-1.9,2.9-4.4,5.4-7.2,7.5c-4.1,3-4.4,4-2.5,8.4s1.8,5,1.5,5.9c-0.4,0.5-0.9,0.9-1.4,1.2c-1.4,0.7-5.1,0.9-7.1,0.4
		s-1.4-0.3-1.5,0.1c-0.3,0.7-0.6,1.3-1,1.9l-1,1.6l0.6,0.4c0.4,0.3,0.9,0.5,1.4,0.4c0.7-0.1,0.7-0.1,0.6,0.6s0.3,3.1,0.8,3.1
		l1.4-0.6L111.1,91.6z M56.1,90.2c1.4-0.7,3.2-2.2,3.3-3s0.1-0.6-1.9-0.6c-0.8,0.1-1.6,0-2.3-0.3c-0.2-0.2-0.6-0.1-1.4,0.5l-1.5,0.7
		c-0.5,0.2-0.9,0.4-1.3,0.7c-1.2,0.8-1.1,1.5,0.1,2.2S54.4,90.9,56.1,90.2z M132.4,90.1c0.3-0.3,0.4-0.7,0.4-1.1
		c-0.2-0.5-4.8-3-5-2.7c-0.7,0.3-1.5,0.4-2.3,0.3c-2.5,0-2.6,0.2-1,1.9S130.8,91.6,132.4,90.1L132.4,90.1z M80,88.6
		c-0.2-0.5-0.4-1-0.7-1.5l-0.7-1.3l-0.8,0.6L77.1,87l1,0.9C79,88.7,80.1,89.1,80,88.6z M104.9,88l1-0.9l-0.8-0.7l-0.7-0.7l-0.8,1.5
		c-0.8,1.6-0.8,1.6-0.3,1.6C103.9,88.7,104.4,88.4,104.9,88z M94,84.2c0-0.9-0.5-1.5-1.5-2.1s-1-0.5-2,0.1s-2,1.9-0.1,4.7l1.1,1.6
		l1.2-1.8C93.3,86,93.7,85.1,94,84.2z M82,86c0.4-0.9,0.7-1.8,0.8-2.8c0.2-1,0-2-0.7-2.8L81.2,79l-1.1,1.1L79,81.2v1.9
		c0,1.2,0.3,2.4,0.8,3.5C80.7,88.3,80.8,88.3,82,86z M103.4,86.1c0.5-1,0.7-2.2,0.7-3.3c0-1.6-0.1-1.6-1.2-2.7l-1.1-1.1l-0.4,0.6
		c-0.3,0.4-0.6,0.9-0.8,1.4c-0.8,1.2-0.1,4.2,1.3,6.5C102.4,88.2,102.5,88.1,103.4,86.1z M87.9,84.7c0.5-0.4,0.5-2.4,0-3.5
		c-0.6-1-1.4-1.8-2.4-2.4c-0.5,0-2.1,3.6-2.1,4.6s0.3,1.5,1.7,3.2l1,1.2l0.7-1.4C87.1,85.8,87.5,85.2,87.9,84.7z M98.9,85.4
		c1-1.4,1-2.5-0.2-4.8c-0.3-0.7-0.6-1.3-1.1-1.8c-0.5,0-2,1.5-2.4,2.4s-0.6,3,0,3.6c0.5,0.5,0.9,1.1,1.1,1.7l0.6,1.3l0.7-0.7
		L98.9,85.4z M51.3,87c2-0.7,3.7-2.1,4.6-4l0.7-1.2h-2.8c-3.4,0.2-5.2,0.7-6.6,2c-0.9,0.7-1.5,1.6-1.8,2.7c0,0.4,1.8,0.9,2.9,0.9
		C49.3,87.4,50.3,87.2,51.3,87L51.3,87z M136.7,87.2l0.9-0.4l-0.4-1c-0.8-2-2.1-2.9-4.9-3.6c-1.9-0.3-3.8-0.4-5.7-0.3
		c-0.3,0.3,1.8,3.3,2.8,4S134.8,88,136.7,87.2z M32.5,86.2c4-0.3,7.9-0.8,11.8-1.6c0.8-0.3,1.6-0.7,2.3-1.2l0.9-0.7l-1.3-0.3
		c-1-0.3-1.6-0.2-3.7,0.2s-11.1,1-9.8,0.4c2.5-0.8,5.1-1.3,7.7-1.4l3.2-0.4l-0.5-0.4c-0.4-0.2-2-0.2-6.4,0c-7,0.3-8.7,0.6-11.7,1.6
		s-6.7,2.8-6.5,3.1c1.4,0.4,2.9,0.7,4.4,0.8C26.1,86.5,29.3,86.5,32.5,86.2z M78.4,83.9c0.1-0.6,0.1-1.1,0-1.7
		c-0.2-0.7-0.3-0.7-1.2-0.7c-0.6,0.1-1.2,0-1.8-0.1c-0.6-0.2-0.8-0.2-0.8,0.1c0.4,1.5,1,3,1.7,4.4l0.5,0.7l0.7-0.8
		C78,85.3,78.3,84.6,78.4,83.9z M107.2,84.8c0.4-0.9,0.7-1.8,0.9-2.7l0.2-1l-0.9,0.3c-0.6,0.1-1.2,0.2-1.8,0.1h-1v1.4
		c0,0.7,0.1,1.4,0.2,2.1c0.4,0.8,1,1.6,1.4,1.6c0.4-0.5,0.8-1.1,1-1.7L107.2,84.8z M163.1,86c0.6-0.1,1.1-0.3,1.6-0.6
		c0-0.3-3.3-1.9-6.1-2.9s-5-1.3-12.3-1.7c-5.1-0.2-6-0.2-6.3,0.1s-0.1,0.4,1.5,0.5c4.9,0.5,8.6,1.2,9.6,1.8s-7.7,0-10.5-0.6
		s-2.7-0.5-3.8-0.2l-1.2,0.3l0.8,0.7c1.4,1.2,5.3,2,14,2.8C154.6,86.5,158.9,86.4,163.1,86L163.1,86z M50.9,81.7l2.3-0.6l1.1-0.5
		L53.8,80c-0.4-0.4-0.7-0.9-1-1.4c-0.3-0.7-0.6-0.9-1.9-1.2c-0.7-0.3-1.5-0.4-2.3-0.5c-1.7,0.2-3.4,0.9-4.7,2
		c-0.8,0.8-0.8,0.9-0.5,1.3c1.1,0.9,2.4,1.4,3.8,1.6C48.4,82,49.7,82,50.9,81.7z M138.3,81c1.8-0.8,1.8-1.1,0.8-2.1
		c-1.3-1.1-2.9-1.8-4.6-2c-1.5,0.1-3.7,0.8-4.2,1.4l-0.9,1.3c-0.2,0.2-0.5,0.5-0.6,0.8c0,0.4,2.5,1.2,4,1.4
		C134.7,82.1,136.6,81.8,138.3,81z M92.7,80.3c0.5-0.6,0.8-1.2,1-1.9c0.3-1.3,0.2-1.9-0.8-3.5s-0.6-0.8-1-0.4s-0.5,0.3-0.9,0
		s-0.6-0.3-1.2,0.7c-1.1,1.6-0.9,3.8,0.5,5.2C91.2,81.3,91.8,81.3,92.7,80.3z M88.8,79.6c-0.6-1.4-0.6-2.9,0-4.3
		c0.6-1,0.6-2.3,0.1-3.3c-0.2-0.3-2.1,2-2.6,3.1c-0.2,0.6-0.3,1.2-0.3,1.8c0,0.9,0.2,1.2,1.5,2.5c0.5,0.5,1.1,1,1.7,1.3
		C89.3,80.7,89.1,80.1,88.8,79.6z M79,79.9c2.3-1.8,4-4.3,4.8-7.1c0.9-2.7,0.8-3.1-0.3-1.5c-1.2,1.8-2.7,3.4-4.5,4.6
		c-1.8,1-3.4,0.5-4.1-1.3s-0.8-0.9-1.3,0.4s0.9,5.6,3.4,5.6C77.7,80.5,78.4,80.3,79,79.9z M95.5,79.4c2.1-2,2.1-3.4-0.1-6.2
		c-1.1-1.3-1.3-1.5-1.4-1c-0.4,1.2-0.3,2.4,0.2,3.5c0.7,1.2,0.7,1.9,0.1,3.6s-0.4,1.3-0.3,1.3C94.6,80.3,95.1,79.9,95.5,79.4z
		 M107.8,80.1c1.6-1.2,2.2-3.3,1.6-5.2c-0.4-1.2-0.8-1.3-1.2-0.3c-1.4,3.3-4.9,2-8.5-3.2c-1.3-1.8-1.4-1.4-0.3,1.7s3.7,6.6,5.4,7.3
		C105.8,80.7,106.9,80.6,107.8,80.1z M84.7,77.6c1.3-3,1.6-4.7,0.9-6.2s-0.5-0.9-0.5-0.8s-0.3,1.1-0.6,2.1c-0.4,1.3-0.9,2.5-1.6,3.6
		l-1.1,1.8l0.6,1.1c0.3,0.6,0.7,1.1,0.9,1C83.8,79.4,84.3,78.5,84.7,77.6z M100.7,79.2l0.6-1.2l-0.8-1.2c-1-1.6-1.8-3.3-2.3-5.1
		l-0.3-1.3l-0.4,0.9c-0.2,0.6-0.4,1.3-0.4,2c0,1.4,2.2,7,2.8,7C100.3,80,100.5,79.6,100.7,79.2z M40.3,79.6c2-0.2,2.4-0.3,2.7-0.7
		s0.4-0.6-3.2-0.9s-9.2-1.2-9.8-1.6s2.8-0.6,5.9-0.4c1.5,0.1,4.1,0.5,5.7,0.8s3.1,0.5,3.7,0.3s0.8-0.4-1.4-1
		c-6.6-2.1-13.5-3.2-20.5-3.3c-2.6,0-5.1,0.3-7.6,0.8c-0.3,0.1,0.3,0.6,1.9,1.5C24.9,79.1,30.6,80.2,40.3,79.6z M154.6,79.1
		c4.2-0.9,8.3-2.5,12-4.8c1.3-0.8,1.1-0.9-2.7-1.3c-7.8-0.5-15.5,0.4-23,2.6c-4.2,1.1-4.1,1.1-3.2,1.5c0.6,0.3,1.2,0.3,1.8,0.1
		c2.5-0.6,5-1,7.5-1.2c2.7-0.2,6.7,0.1,6.1,0.4s-10.6,1.8-13.1,1.8h-0.7l0.6,0.7c0.5,0.5,0.9,0.6,2.6,0.7
		C146.5,79.8,150.6,79.7,154.6,79.1L154.6,79.1z M54.8,76.3l1.2-0.4L55.3,75c-0.5-0.5-0.9-1.2-1.1-1.9l-0.3-1h-1.6L49,71.9
		c-2-0.2-3.6,0.2-3.6,0.9s1.4,2.2,2.5,2.8C50,76.7,52.5,77,54.8,76.3z M133.4,76.3c1.6-0.3,3-1.3,4-2.6c0.5-0.9,0.6-1,0.1-1.3
		s-2.2-0.7-4.4-0.4c-1,0.2-1.9,0.3-2.9,0.2c-0.8-0.2-0.8-0.1-1.3,1c-0.4,0.7-0.8,1.4-1.3,2l-0.6,0.7l1.1,0.4
		C129.8,76.8,131.7,76.8,133.4,76.3L133.4,76.3z M46.3,75.4c-0.5-0.5-1-1.2-1.4-1.8c-0.5-1-0.5-1-2.9-1.4c-3.5-0.6-6.9-1.6-10.1-3
		c-1.8-0.9-2-1-1.3-1s8.4,1.6,12.2,3.1c1.5,0.6,2.1,0.7,2.4,0.5l1.5-0.5l1.2-0.3l-1.1-0.5c-1.8-0.8-8.7-3.3-12.5-4.6
		c-7.5-2.4-12.2-3.4-16.6-3.4h-2.5l0.8,1.1c2,2.6,4.6,4.6,7.6,5.8c2.7,1.2,5.4,2.1,12.7,3.8c3.8,0.9,7.8,1.9,8.8,2.3
		S47.4,76.3,46.3,75.4z M146.5,73.2l8.7-2.2c5-1.5,9.8-4.5,11.6-7.1c0.3-0.4,0.6-0.8,0.8-1.3c0-0.2-4.7-0.1-6.6,0.2
		c-4.6,0.6-13.7,3.3-21.9,6.5c-3.5,1.4-4.4,2-3,2c0.5,0,0.9,0.1,1.3,0.4c0.7,0.3,0.9,0.3,3.2-0.6c4.7-1.7,12.3-3.5,12.3-2.8
		s-7.7,3.2-11.8,3.9l-2.6,0.4l-0.5,1c-0.3,0.7-0.7,1.3-1.3,1.8l-1,0.7l2.3-0.7L146.5,73.2L146.5,73.2z M80.7,73.6
		c1.5-1.3,2.1-3.2,1.8-5.1c-0.1-0.3-0.3-0.2-0.9,0.9c-0.8,1.4-2.1,2.4-3.7,2.8c-1.3,0.2-1.4,0.4-0.4,1.2
		C78.4,74.2,79.7,74.3,80.7,73.6z M105.6,73.4c0.9-0.7,0.8-1.1-0.2-1.1s-3-1.4-3.9-2.9s-0.8-1.2-0.9-0.9c-0.2,1.3,0,2.6,0.6,3.8
		C102.2,74.1,104.1,74.7,105.6,73.4z M92.5,72.9c1-1.4,0.9-2.5-0.2-4s-0.9-1.3-1.2-0.7c-0.3,0.5-0.6,0.9-0.9,1.3
		c-0.3,0.4-0.5,0.8-0.6,1.3c0,1,1.3,3,1.9,3S92.2,73.4,92.5,72.9z M88.4,70.1c1.6-2,1.9-2.8,1.4-4.2s-1.7-4-1.9-3.9
		s-1.9,5.7-2.1,6.6c-0.1,0.8,0,1.6,0.4,2.3c0.4,0.6,0.6,1.1,0.7,1.1L88.4,70.1z M96.6,71.2c0.3-0.6,0.5-1.3,0.5-2
		c0-1.2-1.7-7.2-2.1-7.2c-0.8,1.3-1.5,2.8-1.9,4.3c-0.3,1.2,0,1.9,1.4,3.7l1.3,1.8C95.8,72.2,96.1,72,96.6,71.2z M53.9,71l1.2-0.6
		l1-0.3l-2.3-1.8c-1.5-1-3-2-4.6-2.8c-2.4-1.2-5.3-2.3-5.5-2.1c0.2,0.8,0.5,1.6,0.9,2.3c1,2.1,2.6,3.9,4.6,5.1
		C50.3,71.3,53.4,71.4,53.9,71z M133.9,70.7c1.6-0.7,3.3-2.7,4.5-5.1s1.1-2.5-1.6-1.5c-3.1,1.1-6,2.8-8.5,4.9l-1.4,1.1l1.3,0.5
		C130,71.4,132.1,71.5,133.9,70.7L133.9,70.7z M85.7,66.5c0.4-1.2,0.3-2.5-0.3-3.6l-0.6-1.3l-0.7,0.9c-1,1.1-1.3,2.6-1.1,4.8
		s0.3,2.9,1.5,1.3C85,67.9,85.4,67.2,85.7,66.5z M100,66.6c0-2.2-0.3-3.5-1.2-4.4l-0.7-0.6l-0.5,1.2c-0.6,1.2-0.7,2.6-0.2,3.9
		c0.3,0.7,0.7,1.3,1.2,1.9l0.9,1.4l0.2-0.7C99.8,68.9,99.9,67.7,100,66.6z M56.2,67.9c-0.7-1.4-1.2-2.8-1.6-4.3
		c-1.1-4-1.7-5.1-3.3-6.8s-3.9-2.8-4.2-2.5c-0.2,0.8-0.2,1.6-0.2,2.4c0,3.8,1.5,6.4,5,9.3c1.7,1.4,4.7,3.3,4.8,3.1
		S56.5,68.5,56.2,67.9z M128.2,68.1c2.6-1.6,5.9-4.8,6.9-6.9c0.6-1.2,1-2.6,0.9-4c0.1-0.9,0.1-1.8-0.1-2.7c-0.4-0.5-2.6,0.6-4.1,2.2
		s-2.4,3.1-3.5,6.8c-0.3,1.5-0.8,2.9-1.5,4.3c-0.4,0.8-0.7,1.4-0.6,1.4L128.2,68.1L128.2,68.1z M44.6,67.3c-0.4-0.6-1.3-1.2-3.4-2.2
		c-3.9-1.9-7.5-4.4-10.6-7.4c-0.8-0.7-1.5-1.5-2-2.4c0.6-0.2,3.9,1.9,8.9,5.7l5.6,4.3c0.5,0.3,0.5,0.2-0.1-1.3s-0.8-1.8-2.8-3.6
		s-4.2-3.7-6.5-5.9c-5.2-5-9.8-8.4-11.9-8.9l-0.7-0.2v2.8c0.4,5.6,1.7,8.1,6.6,11.8c3,2.4,6.3,4.4,9.8,5.9c2.2,1,4.6,1.8,7,2.3h0.6
		l-0.6-0.9H44.6z M141.8,67.2c5.9-1.9,11.3-5.1,15.8-9.3c1.8-1.6,3.1-3.7,3.7-6c0.4-1.7,0.6-6,0.3-6.3s-3.3,1.3-5.7,3
		s-4.5,3.9-7.4,6.6l-6.6,6.1c-0.8,0.6-1.5,1.4-1.8,2.3c-0.2,0.6-0.4,1.1-0.6,1.7c1-0.5,1.9-1.1,2.7-1.8c3.2-2.7,6.7-5.1,10.2-7.4
		c0.6-0.4,1.2-0.6,1.9-0.7c0.3,0.3-4.7,4.9-6.9,6.4c-1.7,1.1-3.5,2.2-5.4,3.1c-2.3,1.2-3.3,1.9-3.7,2.5s-0.4,0.8,0.1,0.8L141.8,67.2
		z M93.3,63.3c0.7-0.9,0.5-2.3-0.4-3c-0.4-0.4-0.9-0.7-1.4-0.9c-1.1,0-2.6,1.9-2.3,2.9s0.7,1.4,1.2,2.3l1.1,1.8l0.7-1.2L93.3,63.3
		L93.3,63.3z M81.8,62.5c0.2-0.6,0-0.8-1.7-2.5s-2.5-2.3-3.4-2s-0.5,0.3,0.5,0.7s1.9,1.5,2.3,3.4c0.2,0.9,0.6,1.7,1,2.5l0.7,1.4
		l0.2-1.4C81.5,63.9,81.6,63.2,81.8,62.5z M102.8,63.8c0.4-0.9,0.8-2.2,1-2.8c0.4-1.2,1.4-2.2,2.6-2.5l0.6-0.2l-0.6-0.2
		c-1.2-0.4-1.3-0.3-3.3,1.7l-2.1,2l0.4,1.5c0.2,0.7,0.3,1.3,0.3,2C101.7,66.2,102.2,65.7,102.8,63.8z M48.6,63.5
		c-0.9-1.1-1.6-2.4-2-3.8c-0.2-0.7-0.7-1.2-1.3-1.6c-2.9-2.3-5.6-5-8-7.9c-1.2-1.6-2.9-4.9-2.6-5.2s3.7,3.4,7.4,8l4.1,5.2v-1.4
		c0-1.3-0.2-1.7-1.8-4.6c-3.4-6.2-7.7-11.9-12.7-17c-1.4-1.4-1.7-1.6-1.8-1.2c-0.8,3.4-0.9,6.9-0.3,10.3c1.2,4.8,6.9,12.1,12.9,16.5
		c2.2,1.5,4.6,2.9,7,4C49.6,64.8,49.1,64.2,48.6,63.5z M135.7,63.7c3-1.4,5.7-3.4,9.3-7s7.2-8.2,8.3-11.9c0.6-1.9,0.6-6.9,0.1-9.5
		l-0.4-1.8l-2.4,2.4c-4.9,5.1-9.1,10.8-12.5,17c-0.7,1.2-1.3,2.4-1.5,3.8c0,0.8,0,1.4,0.1,1.4l4.4-5.4c3.7-4.6,5.7-6.8,7-7.6
		s-1.2,3.5-2.9,5.7c-2.3,2.7-4.8,5.1-7.6,7.3c-0.5,0.4-0.9,0.9-1.2,1.5c-0.4,1.4-1.1,2.8-2.1,3.9c-0.4,0.6-0.8,1.1-0.7,1.1
		L135.7,63.7L135.7,63.7z M87.2,59.6c-0.1-1.6-0.8-3.1-2.1-4c-2.1-2-2.2-1.4-0.2,2.5c0.6,1.1,1.1,2.3,1.5,3.5l0.2,1l0.3-1
		C87.1,60.9,87.2,60.3,87.2,59.6z M98.2,58c1.9-3.7,1.9-4.1,0-2.8c-1.3,1.1-2.1,2.6-2.4,4.3c0,0.6,0.1,1.3,0.3,1.9l0.3,1.2l0.3-1.1
		C97.1,60.3,97.6,59.1,98.2,58z M84.7,60.3c0.2-0.5,0.1-0.9-0.6-2.1c-0.5-0.7-0.9-1.4-1.2-2.2c-0.3-0.6-0.5-0.7-1.1-0.7
		s-0.7,0.1-0.7,0.4s-0.2,0.3-0.7,0.2s-0.5,0.1,0.9,1.3c0.9,0.8,1.6,1.7,2.3,2.6c0.2,0.4,0.4,0.8,0.7,1.1
		C84.4,60.9,84.6,60.7,84.7,60.3L84.7,60.3z M99.7,59.5c0.6-0.9,1.2-1.7,2-2.4c1.8-1.4,1.8-1.4,1-1.2S102,56,102,55.7
		s-0.2-0.4-0.7-0.4s-0.9,0.1-1.2,0.9l-1.2,2.1c-0.6,0.9-0.8,1.3-0.6,1.9s0.2,0.7,0.3,0.7C99,60.5,99.4,60,99.7,59.5z M73.6,58.1
		c0.6-0.4,1.3-0.7,2-0.8l1.3-0.4l-1-1.1c-0.9-1-0.9-1-1.9-0.8c-0.7,0.3-1.3,0.7-1.9,1.2c-0.6,0.4-1,1.1-0.9,1.8
		c0,0.6,0.1,1.2,0.3,1.8l0.3,0.7l0.5-0.9C72.6,59,73.1,58.5,73.6,58.1z M81.5,59c-0.6-1.4-1.7-2.4-3.1-3l-1.9-0.7
		c-0.7,0,0.7,1.4,2.7,2.9c0.8,0.6,1.5,1.2,2.1,1.9c0.1,0.4,0.2,0.4,0.2,0C81.6,59.7,81.6,59.4,81.5,59z M105.4,56.8
		c0.5-0.4,1-0.9,1.4-1.5c-0.2-0.2-2.7,0.7-3.5,1.4c-1,0.7-1.7,1.7-2,2.9v0.9l1.3-1.1L105.4,56.8z M111.8,58c0-1.2-1.2-2.5-2.7-3
		s-1-0.3-2,0.8l-1,1.1l0.9,0.2c1.6,0.3,3.1,1.3,3.8,2.8l0.3,0.6l0.3-0.7C111.6,59.2,111.8,58.6,111.8,58L111.8,58z M90.5,58.6
		c-0.3-1.9-1.9-3.4-3.9-3.6H86l0.5,1c0.8,1.6,2.3,2.9,4.1,3.4C90.7,59.4,90.6,59,90.5,58.6z M95.1,57.9c0.6-0.6,1-1.2,1.4-1.9l0.6-1
		h-0.7c-1.6,0-3.5,1.7-3.9,3.5v0.9l0.9-0.3C94.1,58.8,94.6,58.4,95.1,57.9z M80.5,55c-0.1-0.5-0.1-0.5,0.6-0.4s0.8,0.2,0.6-0.5
		s-0.1-0.7,0.4-0.4s1,0.3,1-0.3s0.1-0.5,0.5-0.2c1.4,1.3,3.4,1.6,5.2,1l0.7-0.3l-1.1-0.3c-1-0.4-2-0.9-2.9-1.6
		c-0.1-0.1,0.2-0.3,0.6-0.6s0.8-1,0.1-1.3s-0.5-0.2,0.2-0.8s0.8-1-0.2-0.7l-5,0.5c-3.7,0.2-4.5,0.2-6.3-0.2l-2.3-0.3
		c0.1,1.2,0.4,2.3,0.9,3.4c0.5,1,1.2,1.9,2.2,2.4c0.9,0.4,1,0.4,1-0.2s0.1-0.4,1.5,0.3l2.3,1C80.6,55.5,80.6,55.3,80.5,55z
		 M75.4,51.7c-0.5-1-0.3-1.1,1.5-1.1s1.7,0.1,0.8,0.3c-0.5,0.2-1,0.5-1.4,0.8l-0.6,0.5L75.4,51.7z M67.9,54.9c1.2-0.5,2.5-0.5,3.7,0
		c0.5,0.3,1.1,0.3,1.7,0.1l1.1-0.5c0.5-0.2-1-1.4-2.6-2.1c-0.8-0.3-1.5-0.8-2-1.5c-0.5-0.9-1.4-1.2-2.7-0.8s-1.5,0.7-1.6,1.6
		c-0.3,1,0,2.1,0.6,2.9C66.7,55.3,67,55.4,67.9,54.9z M68.4,52.9c0-0.6,0.9-0.6,1,0.1s-0.1,0.4-0.4,0.4S68.4,53.3,68.4,52.9z
		 M104.8,54.2l1.3-0.7v0.6c0,0.6,0.1,0.6,0.8,0.3s2.7-2.3,3.2-5.2c0.2-0.9,0.2-1-0.4-0.8c-2.3,0.6-4.5,0.7-8.5,0.5l-4.7-0.6
		c-0.8-0.3-0.9,0-0.2,0.8s0.4,0.6,0,0.9s-0.3,0.4,0.4,1s0.7,0.7,0.2,1.1c-0.9,0.6-1.9,1-3,1.3c-0.4,0-0.4,0.1-0.2,0.4
		s3.5,0.7,5.1-0.5s0.9-0.6,0.9-0.1s0.3,0.6,1,0.2s0.5-0.2,0.2,0.5s-0.2,0.6,0.7,0.5s0.9-0.1,0.7,0.4s0,0.5,0.5,0.3L104.8,54.2z
		 M106.9,51.9c0-0.1-0.3-0.4-0.7-0.6l-0.7-0.4h1.2c1.2,0,1.2,0,0.9,0.6S106.9,52.4,106.9,51.9z M111.3,54.8c1.3-0.5,2.8-0.5,4.1,0.1
		c0.9,0.4,1.3,0.3,2-1c0.8-1.2,0.4-2.8-0.8-3.6c-0.4-0.2-0.8-0.4-1.2-0.4c-1.1-0.1-1.3-0.1-2.1,0.8c-0.6,0.7-1.3,1.2-2.1,1.6
		c-0.8,0.4-1.5,0.8-2.1,1.4l-0.7,0.6l1,0.5l1.1,0.4C110.8,55.1,111.1,55,111.3,54.8z M113.6,52.9c0-0.6,0.9-0.6,1,0.1
		s-0.1,0.4-0.5,0.4S113.6,53.3,113.6,52.9z M72.4,50.4c-0.4-1.5-0.9-2.1-1.4-1.7s-0.2,1.4,0.7,2.4c0.3,0.4,0.6,0.7,1,1
		C72.7,52.1,72.6,51.3,72.4,50.4z M112.2,49.7c0.2-0.9-0.2-1.3-0.9-0.9s-0.5,0.6-0.6,1.2c-0.1,0.5-0.2,1.1-0.3,1.6
		c-0.2,0.6-0.1,0.6,0.7-0.3C111.6,50.9,112,50.3,112.2,49.7z M64.4,48.6c0.6-1.8,0.4-3.7-0.4-5.4c-0.3-0.7-0.5-1.5-0.7-2.3l-0.2-1.1
		l-0.9,0.4c-1.3,0.5-1.3,1-0.2,3.4c0.5,1.2,0.8,2.6,0.7,3.9c0,1.1,0.1,2.1,0.5,3.1C63.6,51.6,63.5,51.8,64.4,48.6z M120.2,49.5
		c0.2-0.9,0.3-1.7,0.2-2.6c0-1.1,0.2-2.1,0.7-3.1c1-2.7,1-3.1-0.2-3.6l-1-0.4v1.1c-0.1,0.8-0.4,1.6-0.8,2.4c-0.8,2-0.9,3.1-0.2,5.7
		c0.1,0.8,0.4,1.5,0.8,2.2C120,50.7,120.2,50.1,120.2,49.5L120.2,49.5z M78.4,48l0.5-0.2l-0.5-0.2c-0.7-0.3-4.7-0.3-5,0
		s0.6,0.7,2.5,0.7C76.7,48.4,77.6,48.3,78.4,48z M86.2,47.7c1-0.2,2-0.8,2.6-1.7c1.1-1.5,1-1.7-0.4-1.5c-2.2,0.3-4.1,1.5-5.3,3.3
		c-0.2,0.4-0.1,0.5,0.6,0.5C84.6,48.2,85.4,48,86.2,47.7z M85.6,46.9c0.2-0.4,1.9-1.4,2.1-1.1c-0.6,0.6-1.2,1.1-2,1.5
		C85.6,47.3,85.5,47.1,85.6,46.9z M99.9,48.1c0-0.5-1.9-2.4-2.9-2.9s-3.5-0.9-3.5-0.5s1.8,2.5,3.1,3S99.9,48.5,99.9,48.1z
		 M96.2,46.5c-0.7-0.5-1.2-0.9-1.1-1s2.2,1,2.4,1.4S97.6,47.4,96.2,46.5L96.2,46.5z M109.6,48c0.1-0.1,0.1-0.3,0-0.4
		c-0.2-0.3-4.3-0.3-4.9,0l-0.5,0.2l0.5,0.2C105.5,48.4,109.4,48.3,109.6,48z M62.1,46.9c0.3-1.9-0.8-1.8-2.4,0.3l-0.6,0.7h2.8
		L62.1,46.9z M123.3,47.2c-1.5-2.1-2.7-2.2-2.3-0.3v1h2.8L123.3,47.2L123.3,47.2z M69.1,46.7c-0.6-0.9-0.5-1.3,0.6-3.6
		s1.3-3.2,0.5-4.4s-0.6-0.9-0.7-0.2c-0.3,0.9-0.8,1.8-1.3,2.6c-1.8,3.1-1.9,4.5-0.3,5.6S69.6,47.5,69.1,46.7z M114.9,46.8
		c1.6-1,1.7-2.3,0.5-4.5c-0.5-0.9-1-1.8-1.4-2.8l-0.7-1.4l-0.5,0.6c-0.9,1.1-0.9,1.7,0.3,4s1.2,3.2,0.8,4.1S114,47.4,114.9,46.8z
		 M110.3,45.2c1.1-1.9,1.1-2.6,0.1-2.6s-1.7,0.5-2.1,1.9s-0.5,2.2,0.2,2.3s0.6,0.1,0.6,0.2C109.6,46.4,110,45.8,110.3,45.2z
		 M75.1,46.3c0-1.1-0.8-3.2-1.3-3.4s-1.9-0.3-2,0.2c0.2,0.7,0.5,1.4,1,2c0.8,1.3,1.2,1.6,1.7,1.6S75.1,46.6,75.1,46.3z M79.1,45.3
		c0.4-0.6,0.7-1.4,0.9-2.1c0-0.5-0.1-0.6-0.8-0.6s-1.9,0.8-2.1,2.3s-0.2,1.1-0.3,1.4s0,0.4,0.6,0.4S78.3,46.5,79.1,45.3z M106.2,46
		c-0.6-2.9-1.1-3.5-2.3-3.4s-1.1,0.9,0,2.7s1.1,1.4,1.7,1.4S106.4,46.7,106.2,46z M92.2,45.6c0.5-0.6,0-1.3-0.8-1.3
		s-0.7,0.1-0.7,0.6c-0.2,0.4,0,0.9,0.4,1.1C91.5,46.2,92,46,92.2,45.6z M76.8,44.1c0.7-1.5,0.6-1.9-0.3-2.2s-1.3,0-1.5,0.5
		s0.8,3,1.1,3C76.4,45,76.6,44.6,76.8,44.1z M108.1,42.5c-0.2-0.6-0.8-0.8-1.6-0.6s-0.8,1.1-0.1,2.6l0.6,1.1l0.6-1.4
		C107.9,43.7,108.1,43.1,108.1,42.5z M95,43.6c2-0.7,0.3-1.3-3.5-1.3s-4.5,0.3-4,0.9c0.2,0.3,0.6,0.4,0.9,0.5
		C90.6,44,92.8,43.9,95,43.6z M89,41.4c0.2-0.1-0.4-3.5-0.9-5.1s-1.6-2.5-3-1.2s-0.4,1.1,0.9,4.6l1,2.6l1-0.4
		C88.5,41.7,89,41.5,89,41.4z M97.7,37.8c0.7-2.1,0.7-2.2,0.3-2.7c-0.6-0.6-1.4-0.8-2.2-0.5c-0.4,0.4-0.7,0.8-0.8,1.3
		c-0.3,1.1-1.1,5.5-0.9,5.6l0.9,0.4l0.9,0.4l0.6-1.2C97,40,97.4,38.9,97.7,37.8z M76.4,40.7c0-0.9,0.1-0.9,0.8-0.9s0.8-0.2,0.8-0.6
		s-0.2-0.5-0.8-0.5s-0.8-0.1-0.8-0.6s-0.1-0.7-0.5-0.7s-0.5,0.2-0.5,0.7s-0.1,0.6-0.6,0.6s-0.7,0.2-0.7,0.5s0.2,0.6,0.7,0.6
		s0.6,0.1,0.6,0.9s0.1,0.9,0.5,0.9S76.4,41.4,76.4,40.7z M90.4,40.3c-0.1-2.1-1.1-5.7-1.7-6.4S88,33.2,88,33.3
		c-0.1,0.6,0.1,1.2,0.3,1.7c0.3,1.2,0.6,2.5,0.8,3.8c0.4,2.7,0.4,2.8,0.9,2.7S90.5,41.2,90.4,40.3z M93.6,40.3
		c0.2-1.1,1-5.2,1.3-6.5l0.2-0.6l-0.7,0.7c-0.7,0.8-1,1.6-1.6,4.7s-0.4,3,0.3,3S93.5,41.2,93.6,40.3z M107.7,40.7
		c0-0.8,0.1-0.9,0.6-0.9s0.7-0.2,0.7-0.6s-0.2-0.5-0.7-0.5s-0.6-0.1-0.6-0.6s-0.2-0.7-0.7-0.7s-0.6,0.2-0.6,0.7s-0.1,0.6-0.7,0.6
		s-0.6,0.2-0.6,0.5c-0.1,0.3,0.1,0.5,0.4,0.6c0.1,0,0.2,0,0.2,0c0.6,0,0.7,0.1,0.7,0.7s0.1,1.1,0.8,1.1S107.7,41.4,107.7,40.7z
		 M65.5,40.2c0.8-0.4,1.6-0.9,2.3-1.4l1.5-1.1l-0.7-0.3c-0.6-0.2-1.2-0.2-1.8,0.1c-1.6,0.6-3.2,2-2.9,2.6
		C64.2,40.7,64.3,40.6,65.5,40.2z M119.2,40c0.1-0.3-0.3-0.8-1.1-1.4s-2.9-1.5-3.8-1.2s-0.7,0.3,1,1.5l2.3,1.4
		C118.4,40.6,119.1,40.5,119.2,40z M92.9,34.9c0.1-0.8-0.5-1.6-1-1.6s-0.2-0.1,0-0.3c0.2-0.3,0.3-0.6,0.3-1c0-0.5,0.1-0.7,0.6-0.8
		s0.9-1,0.1-1s-0.7-0.1-0.8-0.7c0.1-0.4-0.2-0.7-0.6-0.8c0,0,0,0,0,0c-0.5-0.1-0.6,0-0.6,0.7s-0.1,0.8-0.7,0.8s-0.6,0.1-0.6,0.5
		s0.2,0.5,0.6,0.5s0.6,0.2,0.7,1.1s0,1-0.2,1s-0.9,0.7-0.9,1.4c0.2,1,0.5,1.9,0.8,2.8l0.9,2.1l0.7-1.9
		C92.6,36.8,92.8,35.9,92.9,34.9z"/>
</g>
</svg>
