<svg id="bdf58b1a-ee9d-40cc-8e57-92f012dce154" data-name="Слой 1" xmlns="http://www.w3.org/2000/svg" viewBox="0 0 65 55"><defs><style>.eea3b874-3a69-4ebf-99b1-1c3c25aa65d2{fill:#8247e5;}</style></defs><path class="eea3b874-3a69-4ebf-99b1-1c3c25aa65d2" d="M49.05,16.8a4.22,4.22,0,0,0-4.08,0l-9.35,5.35-6.36,3.49L19.91,31a4.22,4.22,0,0,1-4.08,0L8.39,26.8a4,4,0,0,1-2-3.37V15.17a3.77,3.77,0,0,1,2-3.37l7.32-4.07a4.22,4.22,0,0,1,4.08,0L27.1,11.8a4,4,0,0,1,2,3.37v5.35l6.36-3.6V11.57a3.75,3.75,0,0,0-2-3.37L19.91.52a4.28,4.28,0,0,0-4.08,0L2,8.2a3.75,3.75,0,0,0-2,3.37V27a3.76,3.76,0,0,0,2,3.38l13.79,7.67a4.22,4.22,0,0,0,4.08,0l9.35-5.23,6.36-3.61L45,24a4.22,4.22,0,0,1,4.08,0l7.32,4.07a4,4,0,0,1,2,3.37v8.26a3.77,3.77,0,0,1-2,3.37l-7.32,4.19a4.22,4.22,0,0,1-4.08,0L37.66,43.2a4,4,0,0,1-2-3.37V34.48l-6.36,3.6v5.35a3.75,3.75,0,0,0,2,3.37l13.79,7.68a4.28,4.28,0,0,0,4.08,0L63,46.8a4,4,0,0,0,2-3.37V28a3.76,3.76,0,0,0-2-3.38Z"/></svg>