<svg id="a25a0ab7-ec76-463e-99c6-b80bda385f7c" data-name="Слой 1" xmlns="http://www.w3.org/2000/svg" viewBox="0 0 709 709"><title>raiffeisen</title><path d="M1542.1,913.6v709.1H833V913.6Z" transform="translate(-833 -913.6)"/><path d="M850.7,931.2h673.8V1605H850.7Z" transform="translate(-833 -913.6)" fill="#fff22d"/><path d="M1495.7,1140l-25.4-23.2-103.9,100.6-28.7-29.8,1.1-64.1-25.4,26.5v79.5l-41.2,41.4,205.1,205-82.9,84-205.1-205.8L984.1,1559.9l-82.8-84,205-205-41.2-41.4V1150l-25.4-26.5,1.1,64.1-28.7,29.8L908.2,1116.8,882.8,1140c4.1-108.1,90.1-192,171.3-134.7l106,107.1-24.3,22.1,53.4,53.4,53.5-53.4-24.4-22.1,106.1-107.1c81.2-57.3,167.2,26.6,171.3,134.7Z" transform="translate(-833 -913.6)"/></svg>