<svg id="5fa00b42-35e0-40c2-b618-d3ae43eb35f4" data-name="Слой 1" xmlns="http://www.w3.org/2000/svg" viewBox="0 0 223 138.3"><title>rncb</title><path d="M2.8,175.9c2.6-8.7,5.3-17.3,7.9-25.8,3.1-10.2,6.3-20.4,9.3-30.6.8-2.8,1.9-4,5.1-4H222c3.3,0,4.5.6,3.3,4.2q-8.4,26.4-16.3,53c-.8,2.8-2.1,3.5-4.9,3.5H5.7Z" transform="translate(-2.8 -37.9)" style="fill:#03b2ca"/><path d="M54.5,59.1c8.9-6.5,17.8-6.7,23.9-1s8.1,19.8,2.9,28.3S68.5,96,56.6,91.6c0,4.4-.2,8.7.1,12.9s-1,3.6-3.7,3.7c-13.2.3-13.2.4-13.2-12.7s.1-24.3,0-36.5c-.1-3,.8-4.2,3.9-3.9a20.9,20.9,0,0,0,5,0C51.6,54.8,53.9,55.4,54.5,59.1Zm2.2,15.2c-.9,3.7.4,6.5,4.8,6.5s5.7-3,5.7-6.7-1.4-6.7-5.6-6.8S56,70.1,56.7,74.3Z" transform="translate(-2.8 -37.9)" style="fill:#394b55"/><path d="M200.6,62.2c2.6-1,5-2.5,7.9-2.8,7.2-.7,13.4,2.9,15.8,9.5,3.1,8.4.8,17.1-5.7,21.5-14.8,10.2-33.5,1.6-35.3-16.2-2-19.7,6.9-31.2,26.3-34.2a15.7,15.7,0,0,1,3-.5c3,.2,7.3-3.1,8.6-.7s.6,7.4.5,11.2-2.1,2.9-3.9,3.3c-3.5.8-7.2,1-10.7,2s-7,2.3-6.5,7.1h-.7v.4Zm8.7,13.6c-.3-2.8-1.2-5.4-4.9-5.4s-4.8,1.9-4.9,5,.9,5.7,4.5,5.9S208.9,79.3,209.3,75.8Z" transform="translate(-2.8 -37.9)" style="fill:#394b55"/><path d="M131.4,74.1c0,5-.2,10,0,14.9.2,3-.6,4.5-3.8,4h-2.5c-3.3-.2-7.3,1.3-9.7-.7s-.7-5.9-.7-9-1.9-2.9-3.9-2.9-3.9-.3-4,2.9,1.7,7.4-1.1,9.3-6.2,0-9.3.5c-5,.7-6.5-1.1-6.3-6.2.5-9.3.3-18.6.1-27.9-.1-3.2.9-4.3,4-3.9a20.4,20.4,0,0,0,3.5,0c8.8,0,8.9,0,9.1,9,.1,2.9,1.2,3.6,3.8,3.6s4.1-.6,4.1-3.8c0-8.7.2-8.7,8.9-8.8s7.8,0,7.8,8Z" transform="translate(-2.8 -37.9)" style="fill:#394b55"/><path d="M138.3,73.5c0-4.9.1-9.9-.1-14.9-.1-2.6.7-3.8,3.4-3.5,1,.1,2,0,3,0,9.6,0,9.6,0,10.3,9.5.1,1.1-.3,2.5,1.2,2.9s2.3-.9,2.8-2.3a.8.8,0,0,1,.2-.4c4.9-10.5,5.5-10.8,17.3-9.7,2,.2,2.8.7,1.9,2.7a.8.8,0,0,1-.2.4c-6.8,10.4-3.8,20.5,1.1,30.5,1.7,3.5.9,4.9-3,4.3h-1.5c-7.8,1.6-13-1-14.5-9.4-.4-1.8-1.2-3.7-3.7-3.1s-1.5,2.6-1.6,4c-.2,8.5-.2,8.5-8.8,8.5s-7.8,0-7.8-8Z" transform="translate(-2.8 -37.9)" style="fill:#394b55"/><path d="M200.6,62.2l-.6.5v-.4h.7Z" transform="translate(-2.8 -37.9)" style="fill:#fbfcfc"/></svg>