<svg id="e9cf6157-7112-428b-8a3d-8112002b76cf" data-name="Слой 1" xmlns="http://www.w3.org/2000/svg" xmlns:xlink="http://www.w3.org/1999/xlink" viewBox="0 0 32.28 32.71"><defs><style>.eb691097-217b-47ef-a9cc-6b26d7d29af0{fill:#21a038;}.f5712ebd-83d7-4696-ab20-cd9daff96a51{fill:url(#bd895b86-6751-481d-a400-3d46acba38cf);}.adf3cc5e-4602-4be4-a747-eaeacf2cb173{fill:url(#a9ef0584-0dba-46b4-957d-34f7c611e4f3);}.a63afa9e-ff14-4004-9bb9-e575ead68545{fill:url(#f3cac6c5-03fc-4245-bb0e-5f52d0cfb6da);}.f11db2ee-6a98-43e2-9255-1fe8cc04484b{fill:url(#adec5d62-9d88-472e-acaf-5eb07f686d01);}.abe9b308-aeae-4d25-9ae5-832048e07a00{fill:url(#b01676ad-9735-4dc0-ad36-1a3387558c24);}.acda0588-eaab-4aa0-92ba-1097e6eb47d9{fill:url(#a8981e07-9fdc-4ad6-873a-852449f6b04a);}</style><linearGradient id="bd895b86-6751-481d-a400-3d46acba38cf" x1="5.51" y1="6.57" x2="1.34" y2="18.46" gradientTransform="matrix(1, 0, 0, -1, 0, 34)" gradientUnits="userSpaceOnUse"><stop offset="0.14" stop-color="#f1e813"/><stop offset="0.3" stop-color="#e6e418"/><stop offset="0.58" stop-color="#c9da26"/><stop offset="0.89" stop-color="#a2cc39"/></linearGradient><linearGradient id="a9ef0584-0dba-46b4-957d-34f7c611e4f3" x1="5.78" y1="28.57" x2="16.31" y2="32.53" gradientTransform="matrix(1, 0, 0, -1, 0, 34)" gradientUnits="userSpaceOnUse"><stop offset="0.06" stop-color="#0fa7df"/><stop offset="0.54" stop-color="#0098f8"/><stop offset="0.92" stop-color="#0290ea"/></linearGradient><linearGradient id="f3cac6c5-03fc-4245-bb0e-5f52d0cfb6da" x1="15.08" y1="3.61" x2="26.96" y2="6.26" gradientTransform="matrix(1, 0, 0, -1, 0, 34)" gradientUnits="userSpaceOnUse"><stop offset="0.12" stop-color="#a2cc39"/><stop offset="0.28" stop-color="#86c239"/><stop offset="0.87" stop-color="#219f38"/></linearGradient><linearGradient id="adec5d62-9d88-472e-acaf-5eb07f686d01" x1="15.34" y1="32.68" x2="25.51" y2="29.59" gradientTransform="matrix(1, 0, 0, -1, 0, 34)" gradientUnits="userSpaceOnUse"><stop offset="0.06" stop-color="#0290ea"/><stop offset="0.79" stop-color="#0c89ca"/></linearGradient><linearGradient id="b01676ad-9735-4dc0-ad36-1a3387558c24" x1="5.1" y1="7.1" x2="16.17" y2="3.02" gradientTransform="matrix(1, 0, 0, -1, 0, 34)" gradientUnits="userSpaceOnUse"><stop offset="0.13" stop-color="#f1e813"/><stop offset="0.3" stop-color="#eae616"/><stop offset="0.53" stop-color="#d8df1f"/><stop offset="0.8" stop-color="#bad52d"/><stop offset="0.98" stop-color="#a2cc39"/></linearGradient><linearGradient id="a8981e07-9fdc-4ad6-873a-852449f6b04a" x1="1.32" y1="17.22" x2="5.85" y2="28.86" gradientTransform="matrix(1, 0, 0, -1, 0, 34)" gradientUnits="userSpaceOnUse"><stop offset="0.07" stop-color="#a2cc39"/><stop offset="0.26" stop-color="#81c45e"/><stop offset="0.92" stop-color="#0fa7df"/></linearGradient></defs><title>sberbank</title><path class="eb691097-217b-47ef-a9cc-6b26d7d29af0" d="M28.91,6.35a17,17,0,0,1,1.93,3.26l-14.7,11L10,16.69V12l6.14,3.9Z"/><path class="f5712ebd-83d7-4696-ab20-cd9daff96a51" d="M3.73,16.35c0-.21,0-.42,0-.62L0,15.54c0,.27,0,.54,0,.82a16.59,16.59,0,0,0,1.23,6.26,16.37,16.37,0,0,0,3.5,5.3l2.64-2.68a12.53,12.53,0,0,1-2.7-4.07A12.81,12.81,0,0,1,3.73,16.35Z"/><path class="adf3cc5e-4602-4be4-a747-eaeacf2cb173" d="M16.14,3.78l.62,0L16.94,0l-.8,0A16,16,0,0,0,4.73,4.79L7.37,7.47a12.25,12.25,0,0,1,4-2.73A12.11,12.11,0,0,1,16.14,3.78Z"/><path class="a63afa9e-ff14-4004-9bb9-e575ead68545" d="M16.14,28.93h-.62l-.19,3.77.81,0a16,16,0,0,0,11.4-4.79l-2.63-2.68a12.35,12.35,0,0,1-4,2.73A12.15,12.15,0,0,1,16.14,28.93Z"/><path class="f11db2ee-6a98-43e2-9255-1fe8cc04484b" d="M23.13,6l3.14-2.34A15.89,15.89,0,0,0,16.13,0V3.78A12.19,12.19,0,0,1,23.13,6Z"/><path class="eb691097-217b-47ef-a9cc-6b26d7d29af0" d="M32.28,16.35A17,17,0,0,0,32,13.42L28.55,16v.33a12.66,12.66,0,0,1-1.07,5.11,12.53,12.53,0,0,1-3,4.22L27,28.48A16.25,16.25,0,0,0,30.89,23,16.47,16.47,0,0,0,32.28,16.35Z"/><path class="abe9b308-aeae-4d25-9ae5-832048e07a00" d="M16.14,28.93a12.29,12.29,0,0,1-9.2-4.14L4.17,27.33a16.24,16.24,0,0,0,5.42,4,16.06,16.06,0,0,0,6.55,1.4Z"/><path class="acda0588-eaab-4aa0-92ba-1097e6eb47d9" d="M7.82,7,5.31,4.23A16.41,16.41,0,0,0,1.38,9.72,16.62,16.62,0,0,0,0,16.35H3.73A12.64,12.64,0,0,1,7.82,7Z"/></svg>