<svg id="bb7085bc-53a4-4c8e-86d3-9bb8c0ee134b" data-name="Слой 1" xmlns="http://www.w3.org/2000/svg" viewBox="0 0 97.28 120"><defs><style>.ab3a197d-3848-4918-ab35-19ec41249727{fill:none;}.a2b9537c-a843-4c10-bc07-de7c2c186eff{fill:#5b57a2;}.e0c0a797-c337-46ad-918c-6c19337d7cba{fill:#d90751;}.f58881bf-53b5-4b24-b056-fb7ab3644459{fill:#fab718;}.add32108-e0b9-441a-83d8-26cb6bfe901c{fill:#ed6f26;}.a17c90b2-b63e-4b4c-89bf-f514445bd095{fill:#63b22f;}.aaba7a9a-17bc-4217-823f-618ac1b73107{fill:#1487c9;}.b12e6858-596c-4707-aa60-1233de4c93a4{fill:#017f36;}.e047499e-aa60-40a1-a8b1-3ec47c0f8d12{fill:#984995;}</style></defs><path class="ab3a197d-3848-4918-ab35-19ec41249727" d="M11.36-.32" transform="translate(-11.36 0.32)"/><path class="ab3a197d-3848-4918-ab35-19ec41249727" d="M11.36-.32" transform="translate(-11.36 0.32)"/><path class="a2b9537c-a843-4c10-bc07-de7c2c186eff" d="M11.36,25.8l14.53,26V67.62L11.38,93.55Z" transform="translate(-11.36 0.32)"/><path class="e0c0a797-c337-46ad-918c-6c19337d7cba" d="M67.16,42.33,80.77,34l27.87,0L67.16,59.37Z" transform="translate(-11.36 0.32)"/><path class="f58881bf-53b5-4b24-b056-fb7ab3644459" d="M67.08,25.65,67.16,60,52.59,51.09V-.32l14.49,26Z" transform="translate(-11.36 0.32)"/><path class="add32108-e0b9-441a-83d8-26cb6bfe901c" d="M108.64,34,80.77,34,67.08,25.65,52.59-.32,108.64,34Z" transform="translate(-11.36 0.32)"/><path class="a17c90b2-b63e-4b4c-89bf-f514445bd095" d="M67.16,93.69V77L52.59,68.23v51.45Z" transform="translate(-11.36 0.32)"/><path class="aaba7a9a-17bc-4217-823f-618ac1b73107" d="M80.74,85.42,25.89,51.78l-14.53-26,97.22,59.59-27.84,0Z" transform="translate(-11.36 0.32)"/><path class="b12e6858-596c-4707-aa60-1233de4c93a4" d="M52.6,119.68l14.56-26,13.58-8.27,27.84,0Z" transform="translate(-11.36 0.32)"/><path class="e047499e-aa60-40a1-a8b1-3ec47c0f8d12" d="M11.38,93.55,52.71,68.23,38.81,59.7,25.89,67.62Z" transform="translate(-11.36 0.32)"/><path class="e047499e-aa60-40a1-a8b1-3ec47c0f8d12" d="M11.36-.32" transform="translate(-11.36 0.32)"/><path class="e047499e-aa60-40a1-a8b1-3ec47c0f8d12" d="M11.36-.32" transform="translate(-11.36 0.32)"/><path class="e047499e-aa60-40a1-a8b1-3ec47c0f8d12" d="M11.36-.32" transform="translate(-11.36 0.32)"/><path class="e047499e-aa60-40a1-a8b1-3ec47c0f8d12" d="M11.36-.32" transform="translate(-11.36 0.32)"/><path class="e047499e-aa60-40a1-a8b1-3ec47c0f8d12" d="M11.36-.32" transform="translate(-11.36 0.32)"/><path class="e047499e-aa60-40a1-a8b1-3ec47c0f8d12" d="M11.36-.32" transform="translate(-11.36 0.32)"/><path class="e047499e-aa60-40a1-a8b1-3ec47c0f8d12" d="M11.36-.32" transform="translate(-11.36 0.32)"/></svg>