<svg id="a689aa9c-ec0e-442b-88bd-4e7f9d8541e8" data-name="Слой 1" xmlns="http://www.w3.org/2000/svg" viewBox="0 0 1993.05 2499.96"><defs><style>.f0a5d758-9431-4308-a4f7-9c64ebd8bcf0{fill:#ed8117;}.ee0d014c-3499-4c9c-ba01-389a21f20183{fill:#eebb18;}.eb997585-0b5c-4b6e-91a5-38287fed33d2{fill:#5b6a72;}.b4fac575-0a7d-429a-8c5d-f13f49a15449{fill:#dcf2f9;}.acb679d9-6867-45be-8c72-f5e6b4830469{fill:#979797;}</style></defs><path class="f0a5d758-9431-4308-a4f7-9c64ebd8bcf0" d="M870.86,1845c111.1,78.84,314.82-19.46,459.23-219.44,2-2.65,4.22-5.12,6.14-7.9,79.43-113.51,52.06-270.45-61-350.7s-269.11-53.26-348.43,60.23c-1.95,2.79-3.55,5.69-5.37,8.52C783.05,1540,759.78,1766.2,870.86,1845" transform="translate(-253.51 0)"/><path class="ee0d014c-3499-4c9c-ba01-389a21f20183" d="M984.51,1693.75c77.33,53.54,220.08-14.6,321.78-152.2,1.49-1.82,3-3.52,4.4-5.44a170.38,170.38,0,0,0-38.2-237.91c-1-.74-2-1.45-3-2.16-78.75-54.58-187.94-35.46-243.85,42.62-1.43,1.93-2.5,3.92-3.75,5.84-97.54,140.54-114.7,295.68-37.33,349.25" transform="translate(-253.51 0)"/><path class="eb997585-0b5c-4b6e-91a5-38287fed33d2" d="M504.39,1044c-11.66,15-17.41,37.6,14.27,27.74,90.39-28.11,295.3-60.92,533.15,104.06C1373.06,1398.63,1347,821.15,1347,821.15,1270.69,768.29,886.84,553.71,504.39,1044M1725.6,1914.61c1.36,32.64,20.62,19.81,30.72,4,330.68-516.78,1.45-801.48-73.6-854.6,0,0-548.87,167-232.92,391,233.94,165.76,271.85,366.55,275.8,459.61" transform="translate(-253.51 0)"/><path class="b4fac575-0a7d-429a-8c5d-f13f49a15449" d="M2127.68,28l-.38.45.25-.56c-28.75-21.25-557,14.11-754.73,355s-369.44,672.29-404.63,736.24-15.64,99,47.07,145.31c28.58,21.06,109,80.51,188.31,139.06s159.75,118,188.33,139.08h0c62.72,46.37,100.66,53.93,146.25-2.38s285.34-337.5,524.86-647.5S2156.43,49.26,2127.68,28ZM1894.06,724.54c-70.36,100.1-208.66,124.08-308.75,53.53s-124-208.82-53.6-309S1740.38,345,1840.46,415.59,1964.43,624.44,1894.06,724.54Z" transform="translate(-253.51 0)"/><path class="eb997585-0b5c-4b6e-91a5-38287fed33d2" d="M1462.59,1611.09H1460c-28.63-.78-58.48-13.58-99.8-42.83-29.06-20.55-110-77.82-190.71-135l-4.75-3.36-127-89.82-68.55-48.5c-41.25-29.23-63.31-53.12-73.64-79.9-16.16-41.9,1.25-80.33,15.72-105.59,7.58-13.23,21.47-38.24,40.68-72.85,70.61-127.24,217.5-392,379.87-660.19,58.42-96.51,147.76-177.5,265.53-240.84,62.25-33.45,166.25-79.5,307.88-108.94,56-11.63,113.37-19.52,161.59-22.23,73.9-4.15,87,5.15,93.32,9.62l.59.43c6.47,4.61,19.46,15.15,40,84.92,13.75,46.77,25.69,104,33.61,161.07,21.75,156.62,33.14,450.47-134.91,658.75-196.7,243.9-395.39,472.06-490.88,581.64-26,29.87-44.78,51.43-54.62,63.07-14.33,16.93-28.39,29.18-43,37.5a97.16,97.16,0,0,1-48.35,13M2101.9,62.34c-51.74,0-164.82,10.66-292.36,49.71-138.25,42.29-324.11,127.54-424.36,293.26-161.79,267.16-308.33,531.25-378.75,658.15-19.34,34.85-33.32,60-41.13,73.64-16.82,29.32-15,43.27-11.62,52.15,5.43,14.09,21.8,30.44,51.5,51.46l68.56,48.5,127,89.83,4.77,3.37c80.71,57.13,161.63,114.39,190.7,135,61.25,43.34,79.41,39.3,110.18,2.94,10.13-12,29-33.75,55.22-63.75,95.23-109.34,293.4-336.86,489.31-579.79,121.62-150.77,138.92-355.39,132-500.49-7.5-157.17-44.92-282.2-59.87-313.1a207.52,207.52,0,0,0-21.16-.93" transform="translate(-253.51 0)"/><path class="eb997585-0b5c-4b6e-91a5-38287fed33d2" d="M1712.45,849.88c-139.78-.41-252.77-114.06-252.36-253.85a253.06,253.06,0,0,1,46.11-144.9c80.3-114.15,237.93-141.6,352.08-61.3l.27.2c114,80.38,141.46,238.52,61.14,352.5A251,251,0,0,1,1756.2,846.07a255.6,255.6,0,0,1-43.75,3.8m.79-443.57a192.46,192.46,0,0,0-32.94,2.84,188.81,188.81,0,0,0-123,77.95c-60.42,85.85-39.78,204.92,46,265.42s204.57,40,265.12-45.84l.09-.13c60.49-85.84,39.83-204.89-46-265.42a189,189,0,0,0-109.27-34.82" transform="translate(-253.51 0)"/><path class="acb679d9-6867-45be-8c72-f5e6b4830469" d="M253.51,2481.85l351.11-494.06,25.48,18.11L279,2500Zm201.3-63,205.4-290.38,25.63,18.13L480.45,2437Z" transform="translate(-253.51 0)"/></svg>