<svg id="a854d18a-0e0d-4585-9280-d8c7d3093c26" data-name="Слой 1" xmlns="http://www.w3.org/2000/svg" viewBox="0 0 365.7 312.55"><defs><style>.ffe4bc63-f126-4501-ab05-9b6df7fba110{fill:#ff0004;}.a3855058-b126-48e9-85b8-0b4829a4b069{fill:#fff;}.b4ae2ae2-ae26-48c6-8141-ea4ec525779e{fill:#fa0;}.b1392c15-b6be-4a0a-b85b-f1d0045f66c3{fill:#004489;}</style></defs><title>visamastercard</title><path class="ffe4bc63-f126-4501-ab05-9b6df7fba110" d="M113.2,136.9c7.5-1.7,14.6-1.9,22.2-1.9,20.6-.2,41.1,9.2,56.4,22.7,37.9,33.2,29.1,39.5,28,54.2a6.08,6.08,0,0,1,.3,2.2c-5.3,12.1-5.7,28.1-.7,28.3,1.4,38.1-26.1,45.9-27.6,47.3-14,12.5-32,21-50.8,22.3-11.4,1-19.4.8-28.8-1.7a89.31,89.31,0,0,1-57.9-43.8c-15.8-28.1-14.5-65.1,3.7-91.8a89,89,0,0,1,55.2-37.8Z" transform="translate(0 -0.01)"/><path class="a3855058-b126-48e9-85b8-0b4829a4b069" d="M228.1,206.1l73-4.7L299,252.9H228.1c-14.9-10.8-16.7-36.6,0-46.8Z" transform="translate(0 -0.01)"/><path class="b4ae2ae2-ae26-48c6-8141-ea4ec525779e" d="M230.4,137.2c7.9-2.1,15-2,23-2.2a88.41,88.41,0,0,1,15.4,1.6,89.6,89.6,0,0,1,50.4,29.9,89.13,89.13,0,0,1,6.5,105.9,88.79,88.79,0,0,1-60.5,39.2c-8.7.5-16.2,1.5-26,.2-17.5-2-34.3-10.1-47.3-22,1.5-1.4,3.3-3.1,4.8-4.6h-9.1l-5-5.5,18.4.2,4-5.2-26.5-.4-3.2-4.6,32.3-.1L211,264l-38.9.2-2.4-5c13.9-.3,29.6,0,43.4-.1l2.4-5.4H167.9l-2.1-5.1,51.5-.1,2.1-5.9c-5-.1-10.4-.1-15.4,0,.3-1.7.5-3.3.8-5h12.8c4.2,8.6,15.9,11.1,24,6.9a64.81,64.81,0,0,0,1.7-6.3l.4-1.9c0,4.5,1.7,8.1,4.6,9.4,4.6,2.3,10,1,14.2-1.5l.8,2.4c2.5,0,4.9-.1,7.4-.1,1.4-7.6,3-15.2,4.3-22.7,1.1-4.4-2.5-8.3-6.5-9.4a29.66,29.66,0,0,0-16.7.5c-1.6,2.2-1.9,5-2.8,7.5,4.6-.8,9.3-1.8,14-1,1.9.2,2.1,2.3,2.3,3.9-5.5.5-10.5-.2-15.5,2.6-3.1,1.6-4.8,3.4-5.9,8-2.9,1.2-5.7,2.9-8.9,2.5-4.3,0-8.8-2.9-9.3-7.5-.5-5.6,1.3-12,5.9-15.5,4.6-3.3,10.5-1.5,15.3.2.4-2.8.8-5.6,1.1-8.5-9.3-3.3-22.2-1.8-28.1,7.2l-.2-2.3c-18.6-.1-37.1,0-55.7-.1.3-1.8.5-3.5.8-5.3l54.5.3-1.5-5.8-52.9-.1,2-5.1,49.7-.1-2.3-5.6c-13.8.1-31.9.1-45.7,0l3-4.9c13.2-.2,27.1.1,40.3-.1l-3.7-5.5c-11-.1-22.9.2-33.9-.1l3.7-4.9,27.8-.1-4.6-5.8-20.1-.2,3.8-5.2,12.7.2c-1.9-2.1-3.8-4.3-5.9-6.2a89,89,0,0,1,38.7-20.2Z" transform="translate(0 -0.01)"/><path class="b1392c15-b6be-4a0a-b85b-f1d0045f66c3" d="M212.9,4.7c16.8-6.5,35.9-6,52.8,0-1.3,8-2.7,16-4.1,24a53.08,53.08,0,0,0-29.8-5.2c-4.4.6-9.4,2.3-11.5,6.6-1.3,2.8.4,6,2.7,7.8,8.3,6.5,19,9,27.2,15.8,6.5,5,11.5,12.7,11.1,21.2.5,10.7-5.1,21.2-13.8,27.4-11.1,8-25.1,10.3-38.5,10.5-11-.6-22.2-1.6-32.4-5.9,1-8.3,2.7-16.5,4-24.7,11.4,5.5,24.2,8.8,36.9,7.1,3.9-.7,8-2,10.7-5.1a7.37,7.37,0,0,0,.6-8.9c-2.9-4-7.5-6-11.8-8.2-9.1-4.2-18.6-9.1-24.4-17.6-5.4-7.8-4.9-18.3-.8-26.5,4.2-8.8,12.4-14.8,21.1-18.3Z" transform="translate(0 -0.01)"/><path class="b4ae2ae2-ae26-48c6-8141-ea4ec525779e" d="M0,2.1H47c4,0,8.3.7,11.2,3.6,2.5,2.4,3.1,6,3.8,9.2,3.1,15.6,6.5,31.1,9.6,46.7C63.8,42.3,48.8,26.3,30.5,16.5A122.84,122.84,0,0,0,0,4.7V2.1Z" transform="translate(0 -0.01)"/><path class="b1392c15-b6be-4a0a-b85b-f1d0045f66c3" d="M103.4,2c10.6-.1,21.2,0,31.8,0C119.8,38.3,104,74.4,88.6,110.8c-10.6.2-21.2,0-31.8.1C48.1,79.4,39.1,48,30.6,16.5A90.75,90.75,0,0,1,71.7,61.6l.1.3c1,4.6,1.9,9.2,2.8,13.9C84.3,51.2,93.8,26.6,103.4,2Zm43.5-.1c9.9,0,19.9.1,29.9,0-6,36.3-12.3,72.6-18.5,108.9h-30c6.2-36.3,12.3-72.6,18.6-108.9Zm169.3.2c8.5-.3,17-.1,25.5-.1,8,36.4,16.2,72.7,24,109.1H337.9c-1.2-5.4-2.4-10.8-3.5-16.2-12.6-.3-25.3-.2-37.9-.1-2,5.5-4.1,10.8-6.1,16.3H258.9Q281,61,303.2,10.9c1.9-5.4,7.4-8.6,13-8.8Zm4.4,30.3c3.1,13.1,5.8,26.3,8.7,39.5-8,0-16,.1-24-.1,5.2-13,10.3-26.2,15.3-39.4Z" transform="translate(0 -0.01)"/><path class="a3855058-b126-48e9-85b8-0b4829a4b069" d="M51.5,246.2c2.6-13.2,4.4-26.5,7.1-39.7,4.6.1,9.3.1,13.9,0,1,7.5,1,15.1,1.3,22.6,3.5-7.9,6.5-15.2,10.1-22.6,4.9,0,9.9-.2,14.8.2-2.4,13.2-4.5,26.4-7.1,39.5-2.7-.1-5.5-.1-8.2,0,1.8-9.8,3.6-19.6,5.2-29.4-4.6,9.6-8.1,19.7-12.4,29.4H66.8l-.2-3.4c-.3-8.8-.9-17.5-1.4-26.2L60,246.2Zm267.8-38.9a57.48,57.48,0,0,1,8.3,0c-2.8,12.9-4.5,26.1-7.1,39.1h-8.2c0-.8.5-2.4.5-3.2-2.4,2-5.4,4-8.7,3.6-7.2-.5-11.2-6.6-10.9-12.7-.8-9.1,5.8-20.2,15.9-19.8,3.4,0,5.6,2,8,3.8.8-3.7,1.4-7.2,2.2-10.8ZM103,214.7c6.6-1.6,14.6-2.6,20.5,1.7,3.4,2.4,2.4,6.9,1.9,10.4-1.3,6.5-2.4,13-3.9,19.5-2.4,0-4.7,0-7.1.1,0-.7-.1-2.2-.1-2.9-4.4,3.1-10.7,4.7-15.4,1.6-4.9-3.6-4.2-11.4,0-15.2,4.7-4.7,11.6-3.9,17.7-4.1.2-1.6.2-4.1-1.8-4.5-4.7-1.6-9.6.3-14.4.7.8-2.5,1.3-5.1,2.6-7.3Zm32-.6a40,40,0,0,1,15.8-.2l-1.2,6.9c-3.9-.1-8.4-1.7-11.7.8-1.3,1.5,0,3.6,1.5,4.3,3,1.6,6.9,1.9,8.9,5,2.9,5.5-.1,13.3-6.3,14.8a37.85,37.85,0,0,1-17.7-.4c.4-2.3.9-4.6,1.4-6.9,4,.9,8.3,1.9,12.4.9a2.86,2.86,0,0,0,1.6-3.9c-3-2.9-8-2.9-10.5-6.5-3.1-5.3-.4-13.5,5.8-14.8Zm152.4,4.7c2.2-3,5.3-5.4,9.2-4.9-.5,2.4-1.1,4.8-1.5,7.1-2.5.5-5.3.8-7.1,2.7-2,1.7-2.4,4.5-2.9,6.9-1,5.1-1.4,10.3-2.9,15.3a74.83,74.83,0,0,1-8.2.2c1.6-10.8,3.5-21.5,5.5-32.2h8.2c-.1,1.8-.2,3.3-.3,4.9Z" transform="translate(0 -0.01)"/><path class="b4ae2ae2-ae26-48c6-8141-ea4ec525779e" d="M305.7,223.5a5.87,5.87,0,0,1,7.1-1.7c6.2,4-1.5,18.7-5.9,17.8-8.3-.2-5.2-11.7-1.2-16.1Zm-144.6,4.2a3,3,0,0,1,.2-1l5.5.1a40.45,40.45,0,0,0-.4,4.9h-4.6l-.7-4Zm45.4-1.1c3.3.1,6.5.1,9.8.1-.1,1.7-.1,3.3-.1,5-3.5-.1-7-.1-10.6-.1.3-1.7.5-3.3.9-5Z" transform="translate(0 -0.01)"/><path class="ffe4bc63-f126-4501-ab05-9b6df7fba110" d="M105.2,234.8c2.3-3.5,6.8-3.8,10.6-3.7-.4,2.4-.7,5.1-2.7,6.8-2,2-6.3,2.8-7.6,1.5a3.7,3.7,0,0,1-.3-4.6Z" transform="translate(0 -0.01)"/><path class="b4ae2ae2-ae26-48c6-8141-ea4ec525779e" d="M254.5,234.2c2.4-3.2,6.6-3,10.1-3.1-.3,2.4-.5,5.2-2.6,6.8-2,2.1-6.6,2.5-7.6,1.6-2.3-1.1-1.6-3.8.1-5.3Z" transform="translate(0 -0.01)"/><path class="ffe4bc63-f126-4501-ab05-9b6df7fba110" d="M205.6,231.6c3.5,0,7,0,10.6.1a31.56,31.56,0,0,0,1.4,5.9H204.8c.2-2.1.5-4,.8-6Z" transform="translate(0 -0.01)"/><path class="a3855058-b126-48e9-85b8-0b4829a4b069" d="M174.4,215.4c5.5-2.8,13-3.1,17.9.9,4.4,4.2,3.2,10.7,2.2,16-6.6,0-13.2-.1-19.9,0,.8,2.5,1.9,5.2,4.5,6.3,4.8,1.7,10,.7,14.6-1.4l-1.5,7.8c-6.5,1.6-14,2.1-20-1.5-4.1-2.4-5.8-7.4-5.9-11.9.1-1.6.2-3.3.4-4.9,1.2-4.4,3.4-9,7.7-11.3Z" transform="translate(0 -0.01)"/><path class="ffe4bc63-f126-4501-ab05-9b6df7fba110" d="M176,226.2c1.2-2.9,3.3-6.6,7-6,3.1.1,4.2,3.5,4.7,6a114.15,114.15,0,0,1-11.7,0Z" transform="translate(0 -0.01)"/><path class="a3855058-b126-48e9-85b8-0b4829a4b069" d="M156.6,206.5c2.8,0,5.5,0,8.2.2-.3,1.8-.5,3.5-.8,5.3-.1.5-.2,1.5-.3,2,1.7.1,3.3.1,5,.2-.4,2.1-.8,4.3-1.2,6.5-1.7,0-3.4-.1-5.1-.1-.5,2-.9,4.1-1.2,6.1a3,3,0,0,1-.2,1c-.7,3.8-2.4,10.6-1.7,11.6,1.3,1.4,4.4.2,6.7.3l-1.8,5.7a16.47,16.47,0,0,1-10.3.5c-2.2-.4-4-2.6-3.3-4.8,1.8-11.6,4-23,6-34.5Zm43.6,7.8a82.3,82.3,0,0,1,8.6-.2c-.2,1-.6,3.1-.7,4.2a15.34,15.34,0,0,1,10.2-5c-1.1,2.9-2.2,5.7-3.1,8.6-3.5.1-7,1.4-8.7,4.7-.3,1.7-.6,3.3-.9,5-.3,2-.6,3.9-.9,5.9-.3,1.7-.5,3.3-.8,5-.2,1.2-.5,2.4-.8,3.6a82.94,82.94,0,0,1-8.6.2c2-10.7,3.4-21.4,5.7-32Z" transform="translate(0 -0.01)"/></svg>