<svg xmlns="http://www.w3.org/2000/svg" xmlns:xlink="http://www.w3.org/1999/xlink" viewBox="0 0 2500 2500"><defs><linearGradient id="a" x1="529.97" y1="2000.86" x2="2044.6" y2="486.23" gradientUnits="userSpaceOnUse"><stop offset="0" stop-color="#cf8724"/><stop offset="1" stop-color="#fdce58"/></linearGradient></defs><title>zcash</title><circle cx="1280.8" cy="1250" r="1096" style="fill:url(#a)"/><path d="M1250,2500C562.5,2500,0,1937.5,0,1250S562.5,0,1250,0,2500,562.5,2500,1250,1937.5,2500,1250,2500Zm0-2222.1c-534.6,0-972.1,437.5-972.1,972.1s437.5,972.1,972.1,972.1,972.1-437.5,972.1-972.1S1784.6,277.9,1250,277.9Z"/><path d="M1221.1,1588.6h541.6v270.8H1443.1v229.2H1165.2V1866.5H831.8c0-90.4-13.7-180.4,7.1-263.7,7.2-41.7,55.4-83.3,90.5-125,104.2-125,208.3-250,319.6-375,41.7-48.8,83.3-90.4,132.1-145.8H860.3V686.1h305.4V457h270.8V679h333.3c0,90.5,13.8,180.4-7.1,263.8-7.1,41.6-55.4,83.3-90.4,125-104.2,125-208.4,250-319.6,375C1311,1491.5,1269.3,1539.8,1221.1,1588.6Z"/></svg>