<svg width="32" height="32" viewBox="0 0 32 32" fill="none" xmlns="http://www.w3.org/2000/svg">
<mask id="path-1-inside-1_5032_2639" fill="white">
<path d="M27.9993 2.66602H19.9993C19.6457 2.66602 19.3066 2.80649 19.0565 3.05654C18.8065 3.30659 18.666 3.64573 18.666 3.99935C18.666 4.35297 18.8065 4.69211 19.0565 4.94216C19.3066 5.19221 19.6457 5.33268 19.9993 5.33268H26.666V11.9993C26.666 12.353 26.8065 12.6921 27.0565 12.9422C27.3066 13.1922 27.6457 13.3327 27.9993 13.3327C28.353 13.3327 28.6921 13.1922 28.9422 12.9422C29.1922 12.6921 29.3327 12.353 29.3327 11.9993V3.99935C29.3327 3.64573 29.1922 3.30659 28.9422 3.05654C28.6921 2.80649 28.353 2.66602 27.9993 2.66602V2.66602ZM27.9993 18.666C27.6457 18.666 27.3066 18.8065 27.0565 19.0565C26.8065 19.3066 26.666 19.6457 26.666 19.9993V26.666H19.9993C19.6457 26.666 19.3066 26.8065 19.0565 27.0565C18.8065 27.3066 18.666 27.6457 18.666 27.9993C18.666 28.353 18.8065 28.6921 19.0565 28.9422C19.3066 29.1922 19.6457 29.3327 19.9993 29.3327H27.9993C28.353 29.3327 28.6921 29.1922 28.9422 28.9422C29.1922 28.6921 29.3327 28.353 29.3327 27.9993V19.9993C29.3327 19.6457 29.1922 19.3066 28.9422 19.0565C28.6921 18.8065 28.353 18.666 27.9993 18.666ZM15.9993 7.99935C14.9385 7.99935 13.9211 8.42078 13.1709 9.17092C12.4208 9.92107 11.9993 10.9385 11.9993 11.9993V13.3327C11.2921 13.3327 10.6138 13.6136 10.1137 14.1137C9.61363 14.6138 9.33268 15.2921 9.33268 15.9993V21.3327C9.33268 22.0399 9.61363 22.7182 10.1137 23.2183C10.6138 23.7184 11.2921 23.9993 11.9993 23.9993H19.9993C20.7066 23.9993 21.3849 23.7184 21.885 23.2183C22.3851 22.7182 22.666 22.0399 22.666 21.3327V15.9993C22.666 15.2921 22.3851 14.6138 21.885 14.1137C21.3849 13.6136 20.7066 13.3327 19.9993 13.3327V11.9993C19.9993 10.9385 19.5779 9.92107 18.8278 9.17092C18.0776 8.42078 17.0602 7.99935 15.9993 7.99935ZM14.666 11.9993C14.666 11.6457 14.8065 11.3066 15.0565 11.0565C15.3066 10.8065 15.6457 10.666 15.9993 10.666C16.353 10.666 16.6921 10.8065 16.9422 11.0565C17.1922 11.3066 17.3327 11.6457 17.3327 11.9993V13.3327H14.666V11.9993ZM19.9993 21.3327H11.9993V15.9993H19.9993V21.3327ZM3.99935 13.3327C4.35297 13.3327 4.69211 13.1922 4.94216 12.9422C5.19221 12.6921 5.33268 12.353 5.33268 11.9993V5.33268H11.9993C12.353 5.33268 12.6921 5.19221 12.9422 4.94216C13.1922 4.69211 13.3327 4.35297 13.3327 3.99935C13.3327 3.64573 13.1922 3.30659 12.9422 3.05654C12.6921 2.80649 12.353 2.66602 11.9993 2.66602H3.99935C3.64573 2.66602 3.30659 2.80649 3.05654 3.05654C2.80649 3.30659 2.66602 3.64573 2.66602 3.99935V11.9993C2.66602 12.353 2.80649 12.6921 3.05654 12.9422C3.30659 13.1922 3.64573 13.3327 3.99935 13.3327ZM11.9993 26.666H5.33268V19.9993C5.33268 19.6457 5.19221 19.3066 4.94216 19.0565C4.69211 18.8065 4.35297 18.666 3.99935 18.666C3.64573 18.666 3.30659 18.8065 3.05654 19.0565C2.80649 19.3066 2.66602 19.6457 2.66602 19.9993V27.9993C2.66602 28.353 2.80649 28.6921 3.05654 28.9422C3.30659 29.1922 3.64573 29.3327 3.99935 29.3327H11.9993C12.353 29.3327 12.6921 29.1922 12.9422 28.9422C13.1922 28.6921 13.3327 28.353 13.3327 27.9993C13.3327 27.6457 13.1922 27.3066 12.9422 27.0565C12.6921 26.8065 12.353 26.666 11.9993 26.666Z"/>
</mask>
<path d="M27.9993 2.66602H19.9993C19.6457 2.66602 19.3066 2.80649 19.0565 3.05654C18.8065 3.30659 18.666 3.64573 18.666 3.99935C18.666 4.35297 18.8065 4.69211 19.0565 4.94216C19.3066 5.19221 19.6457 5.33268 19.9993 5.33268H26.666V11.9993C26.666 12.353 26.8065 12.6921 27.0565 12.9422C27.3066 13.1922 27.6457 13.3327 27.9993 13.3327C28.353 13.3327 28.6921 13.1922 28.9422 12.9422C29.1922 12.6921 29.3327 12.353 29.3327 11.9993V3.99935C29.3327 3.64573 29.1922 3.30659 28.9422 3.05654C28.6921 2.80649 28.353 2.66602 27.9993 2.66602V2.66602ZM27.9993 18.666C27.6457 18.666 27.3066 18.8065 27.0565 19.0565C26.8065 19.3066 26.666 19.6457 26.666 19.9993V26.666H19.9993C19.6457 26.666 19.3066 26.8065 19.0565 27.0565C18.8065 27.3066 18.666 27.6457 18.666 27.9993C18.666 28.353 18.8065 28.6921 19.0565 28.9422C19.3066 29.1922 19.6457 29.3327 19.9993 29.3327H27.9993C28.353 29.3327 28.6921 29.1922 28.9422 28.9422C29.1922 28.6921 29.3327 28.353 29.3327 27.9993V19.9993C29.3327 19.6457 29.1922 19.3066 28.9422 19.0565C28.6921 18.8065 28.353 18.666 27.9993 18.666ZM15.9993 7.99935C14.9385 7.99935 13.9211 8.42078 13.1709 9.17092C12.4208 9.92107 11.9993 10.9385 11.9993 11.9993V13.3327C11.2921 13.3327 10.6138 13.6136 10.1137 14.1137C9.61363 14.6138 9.33268 15.2921 9.33268 15.9993V21.3327C9.33268 22.0399 9.61363 22.7182 10.1137 23.2183C10.6138 23.7184 11.2921 23.9993 11.9993 23.9993H19.9993C20.7066 23.9993 21.3849 23.7184 21.885 23.2183C22.3851 22.7182 22.666 22.0399 22.666 21.3327V15.9993C22.666 15.2921 22.3851 14.6138 21.885 14.1137C21.3849 13.6136 20.7066 13.3327 19.9993 13.3327V11.9993C19.9993 10.9385 19.5779 9.92107 18.8278 9.17092C18.0776 8.42078 17.0602 7.99935 15.9993 7.99935ZM14.666 11.9993C14.666 11.6457 14.8065 11.3066 15.0565 11.0565C15.3066 10.8065 15.6457 10.666 15.9993 10.666C16.353 10.666 16.6921 10.8065 16.9422 11.0565C17.1922 11.3066 17.3327 11.6457 17.3327 11.9993V13.3327H14.666V11.9993ZM19.9993 21.3327H11.9993V15.9993H19.9993V21.3327ZM3.99935 13.3327C4.35297 13.3327 4.69211 13.1922 4.94216 12.9422C5.19221 12.6921 5.33268 12.353 5.33268 11.9993V5.33268H11.9993C12.353 5.33268 12.6921 5.19221 12.9422 4.94216C13.1922 4.69211 13.3327 4.35297 13.3327 3.99935C13.3327 3.64573 13.1922 3.30659 12.9422 3.05654C12.6921 2.80649 12.353 2.66602 11.9993 2.66602H3.99935C3.64573 2.66602 3.30659 2.80649 3.05654 3.05654C2.80649 3.30659 2.66602 3.64573 2.66602 3.99935V11.9993C2.66602 12.353 2.80649 12.6921 3.05654 12.9422C3.30659 13.1922 3.64573 13.3327 3.99935 13.3327ZM11.9993 26.666H5.33268V19.9993C5.33268 19.6457 5.19221 19.3066 4.94216 19.0565C4.69211 18.8065 4.35297 18.666 3.99935 18.666C3.64573 18.666 3.30659 18.8065 3.05654 19.0565C2.80649 19.3066 2.66602 19.6457 2.66602 19.9993V27.9993C2.66602 28.353 2.80649 28.6921 3.05654 28.9422C3.30659 29.1922 3.64573 29.3327 3.99935 29.3327H11.9993C12.353 29.3327 12.6921 29.1922 12.9422 28.9422C13.1922 28.6921 13.3327 28.353 13.3327 27.9993C13.3327 27.6457 13.1922 27.3066 12.9422 27.0565C12.6921 26.8065 12.353 26.666 11.9993 26.666Z" fill="white" stroke="#3A9F64" stroke-width="0.4" mask="url(#path-1-inside-1_5032_2639)"/>
</svg>
