<svg width="32" height="32" viewBox="0 0 32 32" fill="none" xmlns="http://www.w3.org/2000/svg">
<mask id="path-1-inside-1_5032_2602" fill="white">
<path d="M10.666 8.00583H14.666C15.0196 8.00583 15.3588 7.86521 15.6088 7.61489C15.8589 7.36458 15.9993 7.02507 15.9993 6.67107C15.9993 6.31707 15.8589 5.97757 15.6088 5.72726C15.3588 5.47694 15.0196 5.33631 14.666 5.33631H10.666C10.3124 5.33631 9.97325 5.47694 9.72321 5.72726C9.47316 5.97757 9.33268 6.31707 9.33268 6.67107C9.33268 7.02507 9.47316 7.36458 9.72321 7.61489C9.97325 7.86521 10.3124 8.00583 10.666 8.00583ZM21.3327 8.00583C21.5964 8.00583 21.8542 7.92755 22.0734 7.78089C22.2927 7.63422 22.4636 7.42576 22.5645 7.18186C22.6654 6.93797 22.6918 6.66959 22.6404 6.41067C22.5889 6.15176 22.462 5.91393 22.2755 5.72726C22.089 5.54059 21.8514 5.41346 21.5928 5.36196C21.3342 5.31046 21.0661 5.33689 20.8224 5.43792C20.5788 5.53894 20.3706 5.71002 20.2241 5.92952C20.0775 6.14902 19.9993 6.40708 19.9993 6.67107C19.9993 7.02507 20.1398 7.36458 20.3899 7.61489C20.6399 7.86521 20.9791 8.00583 21.3327 8.00583ZM21.3327 13.3449C21.069 13.3449 20.8112 13.4232 20.5919 13.5698C20.3727 13.7165 20.2018 13.9249 20.1008 14.1688C19.9999 14.4127 19.9735 14.6811 20.025 14.94C20.0764 15.199 20.2034 15.4368 20.3899 15.6235C20.5763 15.8101 20.8139 15.9372 21.0726 15.9888C21.3312 16.0403 21.5993 16.0138 21.8429 15.9128C22.0866 15.8118 22.2948 15.6407 22.4413 15.4212C22.5878 15.2017 22.666 14.9436 22.666 14.6796C22.666 14.3256 22.5255 13.9861 22.2755 13.7358C22.0254 13.4855 21.6863 13.3449 21.3327 13.3449ZM27.9993 25.3577H19.7593C19.5603 24.7979 19.2392 24.2895 18.8195 23.8693C18.3998 23.4492 17.8919 23.1278 17.3327 22.9285V20.0187H22.666C23.7269 20.0187 24.7443 19.5968 25.4944 18.8459C26.2446 18.0949 26.666 17.0764 26.666 16.0144V13.3449C26.6601 12.3571 26.2897 11.4063 25.626 10.6754C26.2897 9.94439 26.6601 8.99363 26.666 8.00583V5.33631C26.666 4.27431 26.2446 3.25581 25.4944 2.50486C24.7443 1.75391 23.7269 1.33203 22.666 1.33203H9.33268C8.27182 1.33203 7.2544 1.75391 6.50426 2.50486C5.75411 3.25581 5.33268 4.27431 5.33268 5.33631V8.00583C5.33856 8.99363 5.70896 9.94439 6.37268 10.6754C5.70896 11.4063 5.33856 12.3571 5.33268 13.3449V16.0144C5.33268 17.0764 5.75411 18.0949 6.50426 18.8459C7.2544 19.5968 8.27182 20.0187 9.33268 20.0187H14.666V22.9285C14.1068 23.1278 13.5989 23.4492 13.1792 23.8693C12.7595 24.2895 12.4384 24.7979 12.2393 25.3577H3.99935C3.64573 25.3577 3.30659 25.4983 3.05654 25.7487C2.80649 25.999 2.66602 26.3385 2.66602 26.6925C2.66602 27.0465 2.80649 27.386 3.05654 27.6363C3.30659 27.8866 3.64573 28.0272 3.99935 28.0272H12.2393C12.5196 28.8003 13.0309 29.4682 13.7036 29.9402C14.3763 30.4122 15.1779 30.6654 15.9993 30.6654C16.8208 30.6654 17.6224 30.4122 18.2951 29.9402C18.9678 29.4682 19.4791 28.8003 19.7593 28.0272H27.9993C28.353 28.0272 28.6921 27.8866 28.9422 27.6363C29.1922 27.386 29.3327 27.0465 29.3327 26.6925C29.3327 26.3385 29.1922 25.999 28.9422 25.7487C28.6921 25.4983 28.353 25.3577 27.9993 25.3577ZM7.99935 5.33631C7.99935 4.98231 8.13982 4.64281 8.38987 4.39249C8.63992 4.14218 8.97906 4.00155 9.33268 4.00155H22.666C23.0196 4.00155 23.3588 4.14218 23.6088 4.39249C23.8589 4.64281 23.9993 4.98231 23.9993 5.33631V8.00583C23.9993 8.35983 23.8589 8.69934 23.6088 8.94965C23.3588 9.19997 23.0196 9.34059 22.666 9.34059H9.33268C8.97906 9.34059 8.63992 9.19997 8.38987 8.94965C8.13982 8.69934 7.99935 8.35983 7.99935 8.00583V5.33631ZM9.33268 17.3492C8.97906 17.3492 8.63992 17.2085 8.38987 16.9582C8.13982 16.7079 7.99935 16.3684 7.99935 16.0144V13.3449C7.99935 12.9909 8.13982 12.6514 8.38987 12.4011C8.63992 12.1507 8.97906 12.0101 9.33268 12.0101H22.666C23.0196 12.0101 23.3588 12.1507 23.6088 12.4011C23.8589 12.6514 23.9993 12.9909 23.9993 13.3449V16.0144C23.9993 16.3684 23.8589 16.7079 23.6088 16.9582C23.3588 17.2085 23.0196 17.3492 22.666 17.3492H9.33268ZM15.9993 28.0272C15.7356 28.0272 15.4779 27.949 15.2586 27.8023C15.0393 27.6556 14.8684 27.4472 14.7675 27.2033C14.6666 26.9594 14.6402 26.691 14.6916 26.4321C14.7431 26.1732 14.8701 25.9353 15.0565 25.7487C15.243 25.562 15.4806 25.4349 15.7392 25.3834C15.9979 25.3319 16.266 25.3583 16.5096 25.4593C16.7532 25.5603 16.9615 25.7314 17.108 25.9509C17.2545 26.1704 17.3327 26.4285 17.3327 26.6925C17.3327 27.0465 17.1922 27.386 16.9422 27.6363C16.6921 27.8866 16.353 28.0272 15.9993 28.0272ZM14.666 13.3449H10.666C10.3124 13.3449 9.97325 13.4855 9.72321 13.7358C9.47316 13.9861 9.33268 14.3256 9.33268 14.6796C9.33268 15.0336 9.47316 15.3731 9.72321 15.6235C9.97325 15.8738 10.3124 16.0144 10.666 16.0144H14.666C15.0196 16.0144 15.3588 15.8738 15.6088 15.6235C15.8589 15.3731 15.9993 15.0336 15.9993 14.6796C15.9993 14.3256 15.8589 13.9861 15.6088 13.7358C15.3588 13.4855 15.0196 13.3449 14.666 13.3449Z"/>
</mask>
<path d="M10.666 8.00583H14.666C15.0196 8.00583 15.3588 7.86521 15.6088 7.61489C15.8589 7.36458 15.9993 7.02507 15.9993 6.67107C15.9993 6.31707 15.8589 5.97757 15.6088 5.72726C15.3588 5.47694 15.0196 5.33631 14.666 5.33631H10.666C10.3124 5.33631 9.97325 5.47694 9.72321 5.72726C9.47316 5.97757 9.33268 6.31707 9.33268 6.67107C9.33268 7.02507 9.47316 7.36458 9.72321 7.61489C9.97325 7.86521 10.3124 8.00583 10.666 8.00583ZM21.3327 8.00583C21.5964 8.00583 21.8542 7.92755 22.0734 7.78089C22.2927 7.63422 22.4636 7.42576 22.5645 7.18186C22.6654 6.93797 22.6918 6.66959 22.6404 6.41067C22.5889 6.15176 22.462 5.91393 22.2755 5.72726C22.089 5.54059 21.8514 5.41346 21.5928 5.36196C21.3342 5.31046 21.0661 5.33689 20.8224 5.43792C20.5788 5.53894 20.3706 5.71002 20.2241 5.92952C20.0775 6.14902 19.9993 6.40708 19.9993 6.67107C19.9993 7.02507 20.1398 7.36458 20.3899 7.61489C20.6399 7.86521 20.9791 8.00583 21.3327 8.00583ZM21.3327 13.3449C21.069 13.3449 20.8112 13.4232 20.5919 13.5698C20.3727 13.7165 20.2018 13.9249 20.1008 14.1688C19.9999 14.4127 19.9735 14.6811 20.025 14.94C20.0764 15.199 20.2034 15.4368 20.3899 15.6235C20.5763 15.8101 20.8139 15.9372 21.0726 15.9888C21.3312 16.0403 21.5993 16.0138 21.8429 15.9128C22.0866 15.8118 22.2948 15.6407 22.4413 15.4212C22.5878 15.2017 22.666 14.9436 22.666 14.6796C22.666 14.3256 22.5255 13.9861 22.2755 13.7358C22.0254 13.4855 21.6863 13.3449 21.3327 13.3449ZM27.9993 25.3577H19.7593C19.5603 24.7979 19.2392 24.2895 18.8195 23.8693C18.3998 23.4492 17.8919 23.1278 17.3327 22.9285V20.0187H22.666C23.7269 20.0187 24.7443 19.5968 25.4944 18.8459C26.2446 18.0949 26.666 17.0764 26.666 16.0144V13.3449C26.6601 12.3571 26.2897 11.4063 25.626 10.6754C26.2897 9.94439 26.6601 8.99363 26.666 8.00583V5.33631C26.666 4.27431 26.2446 3.25581 25.4944 2.50486C24.7443 1.75391 23.7269 1.33203 22.666 1.33203H9.33268C8.27182 1.33203 7.2544 1.75391 6.50426 2.50486C5.75411 3.25581 5.33268 4.27431 5.33268 5.33631V8.00583C5.33856 8.99363 5.70896 9.94439 6.37268 10.6754C5.70896 11.4063 5.33856 12.3571 5.33268 13.3449V16.0144C5.33268 17.0764 5.75411 18.0949 6.50426 18.8459C7.2544 19.5968 8.27182 20.0187 9.33268 20.0187H14.666V22.9285C14.1068 23.1278 13.5989 23.4492 13.1792 23.8693C12.7595 24.2895 12.4384 24.7979 12.2393 25.3577H3.99935C3.64573 25.3577 3.30659 25.4983 3.05654 25.7487C2.80649 25.999 2.66602 26.3385 2.66602 26.6925C2.66602 27.0465 2.80649 27.386 3.05654 27.6363C3.30659 27.8866 3.64573 28.0272 3.99935 28.0272H12.2393C12.5196 28.8003 13.0309 29.4682 13.7036 29.9402C14.3763 30.4122 15.1779 30.6654 15.9993 30.6654C16.8208 30.6654 17.6224 30.4122 18.2951 29.9402C18.9678 29.4682 19.4791 28.8003 19.7593 28.0272H27.9993C28.353 28.0272 28.6921 27.8866 28.9422 27.6363C29.1922 27.386 29.3327 27.0465 29.3327 26.6925C29.3327 26.3385 29.1922 25.999 28.9422 25.7487C28.6921 25.4983 28.353 25.3577 27.9993 25.3577ZM7.99935 5.33631C7.99935 4.98231 8.13982 4.64281 8.38987 4.39249C8.63992 4.14218 8.97906 4.00155 9.33268 4.00155H22.666C23.0196 4.00155 23.3588 4.14218 23.6088 4.39249C23.8589 4.64281 23.9993 4.98231 23.9993 5.33631V8.00583C23.9993 8.35983 23.8589 8.69934 23.6088 8.94965C23.3588 9.19997 23.0196 9.34059 22.666 9.34059H9.33268C8.97906 9.34059 8.63992 9.19997 8.38987 8.94965C8.13982 8.69934 7.99935 8.35983 7.99935 8.00583V5.33631ZM9.33268 17.3492C8.97906 17.3492 8.63992 17.2085 8.38987 16.9582C8.13982 16.7079 7.99935 16.3684 7.99935 16.0144V13.3449C7.99935 12.9909 8.13982 12.6514 8.38987 12.4011C8.63992 12.1507 8.97906 12.0101 9.33268 12.0101H22.666C23.0196 12.0101 23.3588 12.1507 23.6088 12.4011C23.8589 12.6514 23.9993 12.9909 23.9993 13.3449V16.0144C23.9993 16.3684 23.8589 16.7079 23.6088 16.9582C23.3588 17.2085 23.0196 17.3492 22.666 17.3492H9.33268ZM15.9993 28.0272C15.7356 28.0272 15.4779 27.949 15.2586 27.8023C15.0393 27.6556 14.8684 27.4472 14.7675 27.2033C14.6666 26.9594 14.6402 26.691 14.6916 26.4321C14.7431 26.1732 14.8701 25.9353 15.0565 25.7487C15.243 25.562 15.4806 25.4349 15.7392 25.3834C15.9979 25.3319 16.266 25.3583 16.5096 25.4593C16.7532 25.5603 16.9615 25.7314 17.108 25.9509C17.2545 26.1704 17.3327 26.4285 17.3327 26.6925C17.3327 27.0465 17.1922 27.386 16.9422 27.6363C16.6921 27.8866 16.353 28.0272 15.9993 28.0272ZM14.666 13.3449H10.666C10.3124 13.3449 9.97325 13.4855 9.72321 13.7358C9.47316 13.9861 9.33268 14.3256 9.33268 14.6796C9.33268 15.0336 9.47316 15.3731 9.72321 15.6235C9.97325 15.8738 10.3124 16.0144 10.666 16.0144H14.666C15.0196 16.0144 15.3588 15.8738 15.6088 15.6235C15.8589 15.3731 15.9993 15.0336 15.9993 14.6796C15.9993 14.3256 15.8589 13.9861 15.6088 13.7358C15.3588 13.4855 15.0196 13.3449 14.666 13.3449Z" fill="white" stroke="#3A9F64" stroke-width="0.4" mask="url(#path-1-inside-1_5032_2602)"/>
</svg>
