<svg id="3d968adf-b0e1-465e-a57f-fb5b31453b27" data-name="Слой 1" xmlns="http://www.w3.org/2000/svg" viewBox="0 0 293.2 451.2"><title>capitalist</title><path d="M146.5,0H62.1C56.4,0,51.2,1,46.6,4.5S40.2,12,41,17.5q7.2,48.2,14.5,96.2c1.1,7.2,3,8.7,10.2,8.7H226.6c7.5,0,8.9-1.4,10-8.7,4.8-31.3,9.6-62.5,14.5-93.8,1.4-9.5-1.5-14.7-10.3-18.4C237.3,0,233.6,0,230,0Zm-.1,138.3H69c-6.9,0-9.1,2.6-8.1,9.3,1.8,13,4,26,5.7,39a19.4,19.4,0,0,0,10.1,15.1,66.8,66.8,0,0,0,18.8,6.6c27.5,5.9,55.1,8.8,83.2,3.1,11.5-2.4,23.4-3.3,34.2-8.5,7.4-3.7,11.9-9.1,12.9-17.6,1.4-12.2,3.4-24.4,5.2-36.6,1.2-8.3-.6-10.4-9.2-10.4ZM267,403.8c-2.3.2-3.4,1.6-4.6,2.6-17.8,13.3-36.4,14.7-56.3,4.8a91,91,0,0,1-28.5-23.1c-6.3-7.4-12.7-7.8-20.5-2a42.8,42.8,0,0,0-8.5,8.5c-1.3,1.7-2.3,2.1-3.7.1a24.2,24.2,0,0,0-2.5-3.1c-10.1-10.7-18.6-14.1-29.9.2-9.7,12.3-22.9,19.5-37.7,24.2-11.4,3.6-22.3,2.9-32.8-3-5.3-2.9-10.5-6-15.9-9.1,2.6,22.3,19.6,40.5,43.6,45.3,28,5.6,52.7-1.8,74.1-20.5,1.6-1.4,2.6-3.3,5.1-.8a78,78,0,0,0,34.4,19.6c23.1,6.5,45.1,5,65-9.9C259.6,429.2,265.4,417.8,267,403.8ZM151.2,258c11.7-.4,23.3-1,34.8-3.1a273.9,273.9,0,0,0,82.3-29.5c7.1-3.8,14.2-7.5,20.5-12.5s5.8-11.2,1.7-18.1-8.1-6.9-14.7-4.6c-4.9,1.7-9,4.9-13.4,7.6C215.6,227,164.7,236,110.5,227.7c-32.2-5-61.7-17.1-88.8-35.4-7.6-5.2-15.6-3.8-19.6,2.8S.1,210.6,7.4,215c12.7,7.7,25.5,15,39.1,21C79.9,250.5,114.6,258.6,151.2,258ZM92.6,274.6c-22.4-.7-39.8,11.3-46.2,28.5a44.8,44.8,0,0,0,14,50.5c13.5,10.7,28.6,13,44.2,6.3s25.8-19.6,27.2-37.6c.3-4.2,1.8-6.3,5.9-7.1a53.1,53.1,0,0,1,16.4-.5c4.4.5,6.7,2.4,7,7.7,1.3,21.3,18.9,39,39.8,40.7,22.4,1.9,42.3-12.2,47.6-33.6a44.5,44.5,0,0,0-84.2-27.9c-.8,2-.7,4.7-4.5,3.6-8.7-2.5-17.5-2.1-26.2.3-2.9.8-3.6-.2-4.6-2.6C121.6,284.7,107.5,275.7,92.6,274.6Z" fill="#fefefd"/><path d="M146.5,0H230c3.6,0,7.3,0,10.8,1.5,8.8,3.7,11.7,8.9,10.3,18.4-4.9,31.3-9.7,62.5-14.5,93.8-1.1,7.3-2.5,8.7-10,8.7H65.7c-7.2,0-9.1-1.5-10.2-8.7Q48.2,65.7,41,17.5c-.8-5.5,1.3-9.7,5.6-13S56.4,0,62.1,0Z" fill="#80bb1e"/><path d="M146.4,138.3h75.4c8.6,0,10.4,2.1,9.2,10.4-1.8,12.2-3.8,24.4-5.2,36.6-1,8.5-5.5,13.9-12.9,17.6-10.8,5.2-22.7,6.1-34.2,8.5-28.1,5.7-55.7,2.8-83.2-3.1a66.8,66.8,0,0,1-18.8-6.6,19.4,19.4,0,0,1-10.1-15.1c-1.7-13-3.9-26-5.7-39-1-6.7,1.2-9.3,8.1-9.3Z" fill="#80bb1e"/><path d="M267,403.8c-1.6,14-7.4,25.4-18.7,33.8-19.9,14.9-41.9,16.4-65,9.9a78,78,0,0,1-34.4-19.6c-2.5-2.5-3.5-.6-5.1.8-21.4,18.7-46.1,26.1-74.1,20.5-24-4.8-41-23-43.6-45.3,5.4,3.1,10.6,6.2,15.9,9.1,10.5,5.9,21.4,6.6,32.8,3,14.8-4.7,28-11.9,37.7-24.2,11.3-14.3,19.8-10.9,29.9-.2a24.2,24.2,0,0,1,2.5,3.1c1.4,2,2.4,1.6,3.7-.1a42.8,42.8,0,0,1,8.5-8.5c7.8-5.8,14.2-5.4,20.5,2a91,91,0,0,0,28.5,23.1c19.9,9.9,38.5,8.5,56.3-4.8C263.6,405.4,264.7,404,267,403.8Z" fill="#81bc20"/><path d="M151.2,258c-36.6.6-71.3-7.5-104.7-22-13.6-6-26.4-13.3-39.1-21-7.3-4.4-9.5-13.2-5.3-19.9s12-8,19.6-2.8c27.1,18.3,56.6,30.4,88.8,35.4,54.2,8.3,105.1-.7,151.9-29.9,4.4-2.7,8.5-5.9,13.4-7.6,6.6-2.3,11.5-.8,14.7,4.6s3.7,13.8-1.7,18.1-13.4,8.7-20.5,12.5A273.9,273.9,0,0,1,186,254.9C174.5,257,162.9,257.6,151.2,258Z" fill="#81bc20"/><path d="M92.6,274.6c14.9,1.1,29,10.1,36.4,28.3,1,2.4,1.7,3.4,4.6,2.6,8.7-2.4,17.5-2.8,26.2-.3,3.8,1.1,3.7-1.6,4.5-3.6a44.5,44.5,0,0,1,84.2,27.9c-5.3,21.4-25.2,35.5-47.6,33.6-20.9-1.7-38.5-19.4-39.8-40.7-.3-5.3-2.6-7.2-7-7.7a53.1,53.1,0,0,0-16.4.5c-4.1.8-5.6,2.9-5.9,7.1-1.4,18-11,30.7-27.2,37.6s-30.7,4.4-44.2-6.3a44.8,44.8,0,0,1-14-50.5C52.8,285.9,70.2,273.9,92.6,274.6Zm-5.3,78.1a34.1,34.1,0,0,0,34.6-33.3c.4-18.8-14.9-34.5-33.8-34.9s-33.9,14.9-34.3,33.8A33.8,33.8,0,0,0,87.3,352.7Zm118.1,0a33.6,33.6,0,0,0,33.7-34.1c-.1-18.9-15.4-34.2-33.9-34.1s-33.7,15.5-33.7,34.3A33.6,33.6,0,0,0,205.4,352.7Z" fill="#81bc20"/><path d="M87.3,352.7a33.8,33.8,0,0,1-33.5-34.4c.4-18.9,15.9-34.1,34.3-33.8s34.2,16.1,33.8,34.9A34.1,34.1,0,0,1,87.3,352.7Z" fill="#fefefd"/><path d="M205.4,352.7a33.6,33.6,0,0,1-33.9-33.9c0-18.8,15.1-34.2,33.7-34.3s33.8,15.2,33.9,34.1A33.6,33.6,0,0,1,205.4,352.7Z" fill="#fefefd"/></svg>