<svg id="3f13d5c5-a0d1-40dd-8bbe-1f3b1635341d" data-name="Layer 1" xmlns="http://www.w3.org/2000/svg" xmlns:xlink="http://www.w3.org/1999/xlink" viewBox="0 0 2500 2500"><defs><clipPath id="b7790ce7-ad1e-4e89-b229-13f46d01ea1c"><circle cx="1250" cy="1250" r="1184.5" style="fill:none"/></clipPath></defs><title>dogecoin</title><circle cx="1250" cy="1250" r="1250" style="fill:#988430"/><circle cx="1250" cy="1250" r="1210" style="fill:#7a6a2a"/><circle cx="1250" cy="1250" r="1184.5" style="fill:#ba9f33"/><g style="clip-path:url(#b7790ce7-ad1e-4e89-b229-13f46d01ea1c)"><path d="M951.1,1739.5l-39.7-75.1,23.1-93.8,164.4-63.5-70-143.6,34.6-145.1,64.9-129.8,200.7-31.6,147.4-140.5,318.4,24,62.5,340.4-120.3,428.6-68.6,221.9-277.9,10.5-129.1-89.4-151.1-63.1Z" style="fill:#e2cc85"/></g><g style="clip-path:url(#b7790ce7-ad1e-4e89-b229-13f46d01ea1c)"><path d="M1438.5,1737.1s-38.4,17.6-104,13.5c-19-25.5-151.9-37.4-151.9-37.4s-16.5-5.1-45.9,7.1-57.4,10.5-83.5,17-52-27.6-72-34.6-46.5-25.5-46.5-25.5l-56.1-5.5-112.4-47.5-178.6-178-48.6,76-14.9,94.1,54,111.5,145.4,132.4,283.6,72,168.1-49.5,210.5-89,52.8-56.6Z" style="fill:#f1d789"/></g><g style="clip-path:url(#b7790ce7-ad1e-4e89-b229-13f46d01ea1c)"><path d="M431,1108l36-109,42.9-70.4,138.2-11.5L606.6,1038,491.1,1243.5,539,1427l-84.9,42.5L428,1429.4l-21-91.8-1.5-103.2Z" style="fill:#f4ecb4"/></g><g style="clip-path:url(#b7790ce7-ad1e-4e89-b229-13f46d01ea1c)"><path d="M586,1729.6l-26.5-37s-7.1-17.6-3.1-33,3.5-16.6,1.4-22.5-19-26.1-18-43.5-1.4-23.4,11.6-37.4,9.5-37,9.5-37l17.6,10.9,4-6s6.5,5,6.5,12.9c1.4-10.9-4.5-61.5,8.9-73s37,54,37,54l-14.6-95.1-37.4-97.5-66.5-89-4.1-98.1v-8.4s-30.5,46.9-39,83.9c-6.1,25.5,8.5,56.4,5.5,93s-5.5,33.6,3.4,48,30.5,44.1,22,65.5c-7.4,18.4-32.9,5.5-32.9,5.5s-5.1,14.9-12,20.4c-2.4-8.9-5-14.6-9.9-20-.4,3.4-1.4,8.1-1.4,8.1s-4.4-14-8.9-31.6c-6-23.5-12.5-54.4-18.4-71-2.4,9.5-8.5,38.4-8.5,38.4l3.5,44.5,16.5,61.1,16,40.1,15.6,48.9,13.5,33,11,25.1,9.5,56.4,45.9,48.6,24.5,10.9,17.8-9.1Z" style="fill:#f3e19d"/></g><g style="clip-path:url(#b7790ce7-ad1e-4e89-b229-13f46d01ea1c)"><path d="M455.1,1019s-33,56-42.5,112.5-18,116.1-11.9,192.9,17.6,125,26.9,159c16,56.4,57.4,134.9,57.4,134.9l1.4-3s-10.9-20-16.5-41.5-7.5-46.9-12.6-58.4-11.9-21.5-15.6-35.6-4-35-14.5-51c-4.5-6.5-9.9-23.5-11.5-40.5-2.1-25.4,1-54-1.5-77.4-4.4-39.1-7.4-65.6-3.4-86s25.1-78.5,38-124.6c8.5-29.5,3.5-54.4,19-80.1s25.1-47.9,28.6-63.5-41.3,62.3-41.3,62.3Z" style="fill:#f2e8b0"/></g><g style="clip-path:url(#b7790ce7-ad1e-4e89-b229-13f46d01ea1c)"><path d="M611.4,996.6s-16.9,5-25,13.9-11.6,15.6-22.5,30-11.5,26-20.4,44-28.5,44.1-31,53.6-6.4,54.1-11.5,75.1,5.1,46.9,5.1,46.9l11.5-2.4s0,15,11.5,25.1,13.6-33.6,13.6-33.6l43.1-145.4,64.9-44.1,7.1-35.6Z" style="fill:#f5eec0"/></g><g style="clip-path:url(#b7790ce7-ad1e-4e89-b229-13f46d01ea1c)"><path d="M643,1062.5s-30.5,2-45.5,12.9c-6.1,4.5-8.5,8.1-15,13.6-11.9,9.9-24,19-29.9,32s-13.6,32.5-18.4,69.5c-2,15.6-2,30-3.5,42.5-2,17-5,30.6-3.4,40.1,2,19.4,22.1,29.5,24.1,51.5l41.4-21,39.1-153.9,82.9-52-46.9-52.6L643,1062.5Z" style="fill:#e6db9d"/></g><g style="clip-path:url(#b7790ce7-ad1e-4e89-b229-13f46d01ea1c)"><path d="M649.5,2436.5l-185.1,4.4-98.1-7.4s6.1-72.1,7.5-89c3.4-10.6,15-40.5,18.4-46,2.4-8,5.5-28.5-1.4-53.6,4.4-7,18.4-10.9,34-150.4,6-52,7-91.5,11.5-116.1,6.5-35,10.9-48,9.9-61.1-1.4-21.1-3-36.4-1-52.6,3-21.5,24.1-46.9,23.4-64.5-.4-14-7.4-23.1-13.5-31.6s-10.9-15.6-10.9-15.6,41.4-28.5,41-143.4a10.7,10.7,0,0,1,2.5,1l20.4,58.1,13.9,17,53.6,99.9,69,66.9,102,68.6,63.9,69.6,6.4,185.5-83.5,108.4-83.9,151.9Z" style="fill:#e5cb7a"/></g><g style="clip-path:url(#b7790ce7-ad1e-4e89-b229-13f46d01ea1c)"><path d="M679.4,2276.5s1.4-23.1,20.4-38c3.1,5,5.1,9.9,4.5,13.5,3.4-6,27.5-44.9,81.9-55s67.6-49.5,67.6-49.5l115.5-105,132-121.6,160.6-56.4,75.1-18.4s1.4,5.4-1.4,17.6c13.9-1,44.9-8.1,77-19.4,13-5.1,25.1-7.1,31.6-.4,9.5,8.9,10.9,29.9,11.5,42.4,15.6-3.4,33.6-18.4,47.9-17,23.1,2.5,43.5,29.6,67,29.6,30.9,0,44.9-19,66.5-34,13-8.9,31.6-20,42.1-27.5,25.1-18.4,290.5-99.5,290.5-99.5l93,6,15,100-8.1,262.5-426,222.5L972.1,2431.8l-273.5-69.9-19.2-85.4Z" style="fill:#d8c173"/></g><g style="clip-path:url(#b7790ce7-ad1e-4e89-b229-13f46d01ea1c)"><path d="M395.4,2437.1s24.5-55.4,36-135.5c9.5-65.6,1-80.5,3.5-101.6,3.4-31.5,39-93,42-104.9,2.5,24.4,9.5,116.9,35,137.5-5.4,8.1-14.5,36,18,57.4-5.4,11.6-16.6,25.5-9.5,46.6s15.6,50.9,11.6,83.9c-11.6,2.4-24.1,7.5-34,17s-102.6-.4-102.6-.4Z" style="fill:#f1d789"/></g><g style="clip-path:url(#b7790ce7-ad1e-4e89-b229-13f46d01ea1c)"><path d="M814.9,2398.5,964,2357l6.5,2s3.4,2,3.4,8.9c9.5-5.4,17.6-4.4,23.5-8.1,3,6.5,6,27.9,19.4,30.6s28.9-6.1,44.1-17.6,31.9-26.9,44.9-33a246.3,246.3,0,0,1,12.5,26.9c17-13.5,46.5-68.6,88.6-67.5a159.3,159.3,0,0,1,58.5-70.6c39-26.5,63.5-28.6,94-26.1a161.1,161.1,0,0,1,44.1-39.5c5.1,2,19,10.5,36.4,2.5s37.4-39.5,63.5-43.5a61,61,0,0,1,40.5,8.5s76-75.5,128.4-100.6c-2-6-6-28.9,55.5-79.5,3.4,3.1,1,11.6,3.4,12s16-6.5,35-21.1c23.4-17.6,51.6-36,68.5-41,32-9.5,66,9.9,66,9.9a31.2,31.2,0,0,1,9.5-4.5c8.1-1.4,14-2.4,18.4-4-.4,10.5,5.5,28.5,0,44.1a102.6,102.6,0,0,0,20,8.5c-3.4,7.5-10.9,26.5-23.4,35.6,10.5,5,11.9,10.9,26.9,16-6.1,8.5-16,23-20.5,31.9s-20.4,49-27.5,63.9-17.6,42.5-22.4,48-22.5,28.9-36,40.4c11.9-4.4,61.1-19.4,81.9-25.1-12.6,18.5-128.4,190.6-128.4,190.6l-233.5,69.6-114.4,19.4-596.5-.4-52.6-26.1Z" style="fill:#e0cd81"/></g><g style="clip-path:url(#b7790ce7-ad1e-4e89-b229-13f46d01ea1c)"><path d="M648.1,1057s-17.6,0-21.1,2.5,17.6,7.4,24.1,9.9,20.4,13.5,24.1,22.4,126.4,58.1,126.4,58.1l87-4.5,29.9-41.4-57.1-50,40.1-117.9-53,8.5-127.4,76-63.9,24.5-9.1,11.9Z" style="fill:#dfc57c"/></g><g style="clip-path:url(#b7790ce7-ad1e-4e89-b229-13f46d01ea1c)"><path d="M839,1096.1a13.6,13.6,0,0,0,11.9,6.4c18,0,34.6,4.5,41.5,13.6,11.5,14.6,43.5,61.1,43.5,61.1l76.4,27.5,5.1-90-83.5-58.1-95.1,35v4.5Z" style="fill:#e5cc7c"/></g><g style="clip-path:url(#b7790ce7-ad1e-4e89-b229-13f46d01ea1c)"><path d="M824,1129.4s14,1.1,31.6-5.4,46.5-20.4,59-15c17.6,7.5,14,31,33,52,11.5,12.9,32.6,12.5,44.5,26.5s53,7.5,53,7.5l15.6,83.9L998.2,1359l-20.4,99.5H893.2L815.9,1428l-38-92,19-93.1Z" style="fill:#d2c281"/></g><g style="clip-path:url(#b7790ce7-ad1e-4e89-b229-13f46d01ea1c)"><path d="M987.5,1133.5a22.7,22.7,0,0,0,6.4,1c-2.4,2-7.5,6.5-5.4,18s8.5,26.1,3,35c2.4,3,6.1,6.5,9.5,16.6s4.5,19,26.9,20.4a48,48,0,0,0-8.9,7.1s15.6,13.5,23.5,26.1c8.1-.4,29.5-7.1,29.5-7.1l4.5,3,9.5-4s-8.9-3.4-2.5-25.1c6.1-19,11.6-18,12-19.4s4.4-21.4,4.4-29.5c3.1-10.6,5.5-42.5,5.5-42.5l-6.5-70.6-36.4-22-29.5-28.6-27.9,52.6-18.4,18.4-1.5,45.5,2.3,5.1Z" style="fill:#e2c270"/></g><g style="clip-path:url(#b7790ce7-ad1e-4e89-b229-13f46d01ea1c)"><path d="M1075,1074.4s6.5,18.4,8.9,32.6a30,30,0,0,0,1.5-8.5s5,27.9,6,39.4c2-.4,4.1-1,4.5,1.1s5,24.4,4,37c2.4-4.5,14-22.1,34-34,8.1-5.1,17.6-10.5,27.5-10.9,15.6-.4,26.9,9.9,45.5,9.9,44.9,0,85.6-33,115.5-43.1,22.1-7.5,41.1-12.9,54.4-25.1,6.5-5.4,18-17.6,28.5-35.6,14-24.1,28.6-44.9,43.1-47.5a91.5,91.5,0,0,1-20,1.4s4.4-4.4,11.9-10.5,16.6-13.6,29.6-13.6c23,0,34.5,3.5,47.5,3.5s20.4-3.5,20.4-3.5,13.6,9.5,44.1,9.5,51,3.1,67,4.5,69.5-4.5,84.9-4.1a73.6,73.6,0,0,1,28.9,7.1l-49.5-144-178-155.5-106,75-163,163L1108.4,981l-33,37v56.4Z" style="fill:#ccb360"/></g><g style="clip-path:url(#b7790ce7-ad1e-4e89-b229-13f46d01ea1c)"><path d="M1429,991.9s4.5-4.4,11.9-10.5,16.6-13.6,29.6-13.6c23,0,34.6,3.5,47.5,3.5s20.4-3.5,20.4-3.5,13.6,9.5,44.1,9.5,51,3.1,67,4.5,69.6-4.5,84.9-4a74.5,74.5,0,0,1,28.9,7l-22.4-64.9-26.1-49.6-74.4-81.5-90-53c-.4-.4-31-8.5-31-8.5l-80.9,49-73.4,189.9-1.4,40.1,47.5,22.4c11.9-20,25.1-36,37.4-38C1437.5,991.9,1429,991.9,1429,991.9Z" style="fill:#d5b457"/></g><g style="clip-path:url(#b7790ce7-ad1e-4e89-b229-13f46d01ea1c)"><path d="M1428,1005.5c-7.1.4-13-1.1-14.6-6.1-6-17-10.9-19.4-15.9-19.4s-12,10.9-16,11.9-8.9-12.5-8.9-12.5l-4.5-2.1s-26.1,17-44.5,37.1-48.5,54-62.1,60-60,8.1-76,11.6-33.6,14.9-36,17.6,7.1,5.4,8.5,8.1-15.6,1.4-17,4,4,13.5,6.5,19.4a33.1,33.1,0,0,1,13.9-3.4c15.6-.4,26.9,9.9,45.5,9.9,44.9,0,85.6-33,115.5-43.1,22.1-7.5,41.1-12.9,54.4-25.1,6.5-5.4,18-17.6,28.5-35.6,7.7-12.3,15.2-23.8,22.7-32.3Z" style="fill:#d2b257"/></g><g style="clip-path:url(#b7790ce7-ad1e-4e89-b229-13f46d01ea1c)"><path d="M784,2006.5s-4.1-15-41.1-53.6c-10.5-11-17-20.1-24-26.5-17.6-16.6-28-21.1-40.5-30.6-27.5-20.4-57.4-20.4-80.5-45.5s-50-73-68.6-121.9-23.4-64.6-23.4-66,5-10.9,11.5-9.5,6.5,14,8.1,17c.4,1,5,7.5,10.9,14,9.5,10.9,23.1,24,29.9,43.4-1.4-16.5-7-34.9-7-34.9s35.6,22.4,65.9,45.9,43.1,31.5,52,46.5,29.9,54.4,40,65.9,148.1,55,148.1,55l65.5,49,32.6,71.4-25.5,40L889,2076.7l-79.5-35.6L784,2006.5Z" style="fill:#d2b159"/></g><g style="clip-path:url(#b7790ce7-ad1e-4e89-b229-13f46d01ea1c)"><path d="M607.4,1760.5s16.6,26.5,57,51.6c36.4,22,94.1,42.1,145.5,54,29.5,7.1,59,12.5,85.5,12.9,71.4,1.1,120.6-19.4,181.5-26,32.9-3.5,73.4-6.1,115.5-16,54-13,85.9-27.5,129.4-48,31.6-14.5,60.5-25.4,83.9-39.4,33-19.4,57.1-41.1,85-47.5-3.4,9.5-7.1,26.5-34.6,44.1,14.6-.4,34.6-1.5,34.6-1.5s-19.4,11.6-53.6,37.5c-21,15.9-49,43-77.5,61-18.4,11.6-38.4,20.1-51.5,26.9-32,17.6-45,26.5-66,48,7.5-.4,8.1,0,8.1,0s-26.5,3.4-45.5,13.5c-4.1,0-10.9-1.4-23.1,2.1-9.5,3-22,9.9-35,13.5-18.4,5.5-24.4,3-24.4,3l3,6.1s-24.1-.4-32,.4c1.5.4,1.1,1,1.1,1s-1.1,0-4.1,1.4a39.4,39.4,0,0,1-12.5,5.5c-2.5.4-4.5.4-7.5,1,1,2.4,8.9,16,12.5,24.1-3,2-48.5,36.4-48.5,36.4a34,34,0,0,1,3.4,7.1c1.4,4.4,2,10.9,3.5,13.9,3.4,6.1,5.4,7.1,5.4,7.1s-5.4,1-14.9,3.4-18,5.5-32,7.5c-4,.4-8.5,1-12.9,1,2,4.5,10.9,21.5-5.5,41.1s-21.5,22.5-26.5,35a64.1,64.1,0,0,0-8.1-5.1c-5.5-2.4-12.9-6-15.6-10.9a132.8,132.8,0,0,1-6,19c-5.1,13.6-12.6,26.9-14,37-5.5-6-15.6-18-29.5-15.5s-25.1,21.4-27.5,26.9c0-3.5-2.5-6.1-3.1-2.1s-8.1,51-50.9,88.6c-.4-9.5-.4-30.5-1.5-37.4-4,4.1-8.9,9.9-38,22.5s-24.1,25.1-24.1,25.1-2.4-20.1,13-41.1,25.1-31,25.1-32.6a8.9,8.9,0,0,0-2-4.4c-2.1-2-6.1-4.5-6.1-6.1,2.4-1,26.5-12.5,25.1-36.4-1.5-21.4-10.6-32.6-17-40.5-1-1,9.5-8.4,8.1-10.9s-14-10.9-15.6-16a49.3,49.3,0,0,1,2-8.9c1.4-4.4,2.4-7.4,2-10.5-1-5-6.4-19-8.1-20.4,1.5.4,11.6,0,11.6,0s-8.1-12.9-9.5-19-4.5-22.1-6.1-25.1c3.4.4,11.9,1,11.9,0,.4-3-7.5-8.1-4-11.9,2.4.4,7.1,2.4,11.5,8.1-2.4-6.5-6.5-19-15-24.1,4.1-1.4,17.6-5.1,29.6,2s16,17,16,17,7,5.5,18,13.6c12.5,9.9,28.5,24,54,33.9,5.4,3.1,19.4,3.1,29.5,1.1a47.1,47.1,0,0,0,12.5-5.1,24.9,24.9,0,0,1,4.5-2,106.2,106.2,0,0,0-7.5-12.6c3.4,0,7.5.4,7.5.4s2.4-5.4-8.5-15.9c2.4-2.5,5.5-4.1,5.5-8.1-3.5-.4-9.6-5.5-11-7.5,2.1-1.4,5.1-6.1,8.5-7.5-3-2.4-10.5-12.5-13.9-13.6,3.4-1,9.5-4.4,9.5-4.4s-17-4.5-22.5-8.1-13.5-10.9-18.4-12.9-13.9-3.1-17.6-7.1c3.5,1,8.9,0,13,0s4.4.4,5.4.4-.4-4.5,7.5-5.5,10.9-3.4,10.9-3.4-7.5-.4-15.9-8.5-15.6-14.6-20.5-15.6-14.5,3.5-20.4,3.1c-8.1-1.1-11.5-5.1-11.5-5.1s-26.9,2.4-86.6-34c-51.6-31.5-74-59.5-74-59.5a89.1,89.1,0,0,1-14-6.4c-19.4-10.1-46.3-31.2-45.5-58.7Z" style="fill:#c2a44d"/></g><g style="clip-path:url(#b7790ce7-ad1e-4e89-b229-13f46d01ea1c)"><path d="M1351.5,546.5a26.2,26.2,0,0,1,12,8.1c9.5,10.9,15.5,31.6-6.1,53.6,8.5,3,11.9,4.1,19.4,3-7.5,8.9-24.5,28-25.5,44.5-1,13.6,7.5,17.6,7.5,17.6s-12.9,15-13.5,40.1a162.5,162.5,0,0,1,20-19c15-12,35.6-25.5,49.5-34a27.6,27.6,0,0,0,1.5,10.5s26.1-21.4,47.9-11.9c9.9,4.4,5.5,18.4,5.5,18.4s13.5-5.1,23,4.4,23.1,34,30,43.5c3,4.5,10.9,13,19,26.1a331,331,0,0,1,27.5,58.1c.4-10.6,3-26.9,32.9-16.6s64,32.5,92.5,76,35.6,92.5,49.9,111.1,29.6,47.9,30.6,60.5-4.5,52.9,25.5,162.4c8.5-34,21.4-109.5,21.4-109.5l7.1-66.5,8.1-205.9-215-178.6-168.1-122-109.4,10.5,6.8,15.6Z" style="fill:#caa13e"/></g><g style="clip-path:url(#b7790ce7-ad1e-4e89-b229-13f46d01ea1c)"><path d="M1751,853s-3-20.1-53.6-54.1-90-33.5-126.4-62c-27.9-22.5-57-74.1-76.1-91.1s-21.4-65.3-21.4-65.3l62.1-52L1628,395l78.1-85.9,37.4,51.9,52,61.1,28.9,122.6L1835,724.1,1751,853Z" style="fill:#b59544"/></g><g style="clip-path:url(#b7790ce7-ad1e-4e89-b229-13f46d01ea1c)"><path d="M1813.5,1068s3.4-39.1-9.9-80.5-42.5-115.1-56-142.6c-5.5-30.6-1.4-33,4.4-36.4s27.9-16,40.1-60.1,49.5-45.5,49.5-45.5l23.1-17,35,87.6,30.5,79,9.5,60.5,7.1,51.6-16.6,109-81.9,74.1-34.8-79.7Z" style="fill:#c89d3a"/></g><g style="clip-path:url(#b7790ce7-ad1e-4e89-b229-13f46d01ea1c)"><path d="M649.5,2436.5s-18.4-34-19.4-48.6,5-23,5-23-7.1-10.5-13.5-13c1.4-7,4-15.5,9.5-21.4s15.9-15,18-18,3-7.1,8.9-8.1,12.5-1,12.5-8.9v-14.6a18.5,18.5,0,0,0,4.5-4c1.4-2,2.4-4.4,3.4-5.1s11.5-4,16.6-3,18.4,6.5,25.5,6.1c14.5-.4,31.5-11.6,58.4-6.5,40.5,7.5,50,35,73.4,50.6,16,10.9,32.6,6,35,6h5.5c1,0,8.5-8.5,12.5-8.1,8.1.5,8.9,7.1,14,7.5,11.9,1.4,35-6,46.5-3,5.5,1.4,12.6,7.1,14.6,14.6s.4,17-5.5,22.4c-12.5,11.5-24.5,22.5-26.9,32a109.4,109.4,0,0,1,9.5,8.1s-5.4,5-15.6,9.9c-4.4,2-11.5,5.4-19.4,6.4-14.9,1.5-33.5,3.5-44.5,19.5s-48.5,7-48.5,7l-180-4.8Z" style="fill:#ceb052"/></g><g style="clip-path:url(#b7790ce7-ad1e-4e89-b229-13f46d01ea1c)"><path d="M1747.6,1879s31.5-42,42.4-62.9-34.5-293.4-34.5-293.4l91.4-299.6-2.4-97.5s4.4-90,14.9-129c12.6,22.4,51.6,49.5,60.1,63.9,4-27.5,17.6-85.6,15.6-147.5,7.5,11.6,25.5,127.5,25.5,127.5l18,78,23.4,83,26.1,87.5,15.6,60.5,8.9,14.6,7.5,25.5,7.1,27.5,20.4,64.5,11.9,53,9.5,96.1a141.3,141.3,0,0,1,4.5,22.4c.4,10.5-1.4,16.6-1.4,18.4s3.4,23.1,2,39.1-2,28.5-14.6,40-20.4,80.1-20.4,80.1l-22.5-15s4.5-20.4-6-39-31-22.5-42.5-19.4-34.6,6-42.1,12.5-24.5,26.5-40.4,35.6c-20.1,12-52.6,13-70,17s-37,16-57.5,29.9-42.6,23.7-50.5,26.7Z" style="fill:#cca847"/></g><g style="clip-path:url(#b7790ce7-ad1e-4e89-b229-13f46d01ea1c)"><path d="M1747.6,2321s17.6,11.5,49.9,19.4,115.1,55.4,115.1,55.4l69.6,42.5,86,6.5,75.4-10.5s2.4-32-2.4-151.1-8.9-136.6-8.9-145.5-3.1-160.6-6.5-193.5-1-66.6-2-86-11.9-98.5-17-118.9-16-30.6-17.6-30.6-9.9,38.5-9.9,48-2,32.5-2,38.4c-1.5-.4-2.1-4-2.1-5.5-2,5.1-4.4,14-5.4,15s1.4-8.5,0-10.5-4.1-1-3.5-6.1a51.6,51.6,0,0,1,1.5-8.9s-6.1,8.9-10.6,31.6-4.4,23-6,25.1-9.5,10.5-9.9,13.5c-.4,5.5,7.4,10.9,8.1,14,.4,5-7.1,28.5-9.6,40s-1.4,34-4,45.5-4,16.6-10.9,21.1c5,1,9.9,2.4,9.9,2.4s7.1,29.9-10.9,55.4c-6.5,8.9-8.1,13-15,21-13.6,15-24.1,32-25.1,43.1a70.3,70.3,0,0,1-1.4-9.9s-21,24.5-29.9,38.4c-11.6,18.1-27.5,17-32,21.5s-5.5,12.5-4,19c-4.1,1-11.6,2.4-16.6,18-2.4,8.1-8.5,16-18,21.4s-21.1,7.1-26.9,8.5c5,1.5,7.1,1.5,9.5,3.1-3.1,5-17,12.9-32.6,23s-23,23.5-26.9,32.6-9.9,14-19.4,15c4,2.4,9.9,8.1,12.9,9.9-4.4,1-11.9,1-25.4,12.5s-19.1,15.2-25.5,16.2Z" style="fill:#c39d3c"/></g><g style="clip-path:url(#b7790ce7-ad1e-4e89-b229-13f46d01ea1c)"><path d="M1447,2433.1s12.5-19.5,44.1-31.6,64.9-15,78.1-19,22.4-9.5,38-12.6c-1.4,12-2,21.5-5.5,29.6,11.6,2,40.5-20.5,56.1-25.5s50.9-12.6,54-15,9.5-17,11.5-17.6,7.5,3.1,10.9,3.1c6.5,0,52-42.1,88-41.5s76.1,29.9,70,56.4c9.5-5.4,19.4-10.5,27.5-8.5a49.8,49.8,0,0,0-1.4,7.5s19.4-4.4,24.5,2,2.4,12.6,15.5,27.9c10.6,13,7.5,16,5.5,20.5,5.1,1.4,29.9,9.9,53,31.5s-184.1,8.1-184.1,8.1l-382.1-3.4-3.6-11.9Z" style="fill:#d2ba6b"/></g><g style="clip-path:url(#b7790ce7-ad1e-4e89-b229-13f46d01ea1c)"><path d="M2047.9,1585s-6.4,34.9-18,57-24,52.6-24,52.6a96.8,96.8,0,0,1,2.4-20.4c-14.6,8.4-50,28.9-60.1,38s-25.5,23.4-29.5,30.5c9.5-27.9,19.4-53,21-64.5-14.5,10.5-82.5,66.5-117.9,103.6L1711.6,1871a380.8,380.8,0,0,1-39.1,18.4c-19,8.1-41.4,14.9-58,21.4,4.4-11.9,11.5-22.5,21.4-32.6s42.1-44.1,46.9-60,5.5-26.5-.4-40.5c-5.4,1.4-18,2-26.5,4.5s-17.6,11.5-17.6,11.5,6.5-37,20.5-72c-10.5.4-28.5,3.4-28.5,3.4s25-42,67.9-71.4a219,219,0,0,0-38.4,12c-25.1,10.5-52.6,26-73,34.5,11.5-15.9,92.4-131.4,140.5-239s66-134.9,76.5-192.6c5.5-28.5,4-70.6,5.5-108.4s6-71,3-93.5c12.5,15.6,59.5,59.5,61.1,157.6s-44.9,230.6-94.1,302c12,3.4,43.1,7.5,75.1-47.9s31.5-71,43.1-94.1c1.4,11.5,1,15.6,1,15.6s46.5-56.5,68.5-127.4c4.5,30.5,17.6,57.4-3,113.4-18.4,50.6-42.5,62.9-42.5,62.9s12-2,29.6-12.5c3,7.5,2.4,16,7.4,19s12,8.1,13,12.9c5.4-8,13.9-18.4,16.6-26-2.1,15.9-3.5,85.9,4,121.5,15.6-1.4,31.6-2.4,42.5-30.5-7.5,27.5-7.5,44.1-2.4,67.5,8.3-5.6,15.7-15.7,15.7-15.7Z" style="fill:#c0993a"/></g><g style="clip-path:url(#b7790ce7-ad1e-4e89-b229-13f46d01ea1c)"><path d="M1522.5,470.1s-15.6,6.4-42.1,6.4c-23.1,0-16.6-8.9-52.6-8.9-55.4,0-249,32-283,31.6-22-.4,74.5,9.5,74.5,9.5l246.5,3.4,49.6-4,18.4-37.4Z" style="fill:#a88f33"/></g><g style="clip-path:url(#b7790ce7-ad1e-4e89-b229-13f46d01ea1c)"><path d="M883.1,952.1s-31.6,24-44.9,42.4-20.4,30.6-35.6,45.5a28.7,28.7,0,0,0,10.5-1.4s0,4.1-2.4,5.1a14.2,14.2,0,0,1,11.5,4c-4.4,2.5-16.6,14.6-7.1,29,7.1,10.9,22.1,11.9,22.1,11.9s-3.5,9.9,10.9,8.9c30.9-1.4,65.5-15,81.5-11.5s25.1,5.4,36.4,25,22.5,22.5,22.5,22.5,7.1-18,5.4-44.9a133.8,133.8,0,0,0,9.5-45.5l-10.5-77.5-45.9-58-59.5,32.9-4.4,11.6Z" style="fill:#e3c571"/></g><g style="clip-path:url(#b7790ce7-ad1e-4e89-b229-13f46d01ea1c)"><path d="M939.5,940.5s4.5,10.6,23.1,11.6c-2,4.4-2,5-1.4,8.5l1,8.5a21,21,0,0,0,5.4-4.1c1,4.5-1,11.5,0,16.6a33.8,33.8,0,0,0,3.1,8.9,15.8,15.8,0,0,1,1-2c.4-1,4,10.9,13.9,20a8.2,8.2,0,0,1,1.1-4.1,14.1,14.1,0,0,0,2.4,7.1,7.3,7.3,0,0,1-2-1.4s1,32,6.4,48.6c1.4-2.1,2.1-2.5,2.5-3.5s-.4,8.9-1.5,16-.4,17-.4,17a52.3,52.3,0,0,1,12-7.1c6-2.4,15.9-9.9,22-26.5a174,174,0,0,0,8.1-28.9s3.4,6.5,4.1,11.9,9.9,2.4,9.9,2.4l2-22,11.9-50,10.9-30.9,52.6-81.9,95.1-73,82.9,19,70-95.1-120.5-72.4L1141,645.6,1037.4,789,954.5,919.1l-15,21.4Z" style="fill:#d8b65b"/></g><g style="clip-path:url(#b7790ce7-ad1e-4e89-b229-13f46d01ea1c)"><path d="M1537,733s-7.1,1.4-27.5,11.9-34.6,14-42.5,29.6-8.5,27.9-8.5,27.9,14-6.1,22.1-8.1,18-1.4,17,2-4.1,6.5-4.1,6.5,16-.4,15.6,7.5-3,16.6-6.1,20.4-15.5,9.9-17,14.6c-3.4,9.5,1.5,9.9-.4,17.6s-8.1,22-29.9,47.5-32,43.5-32,43.5-10.9-20.4-16.5-38c-4.1,2-25.5,13.9-25.5,13.9l-49.8-173.3,1-11.6s4.5-5.4,5.5-15.5c-7.5-2.5-8.5-4.5-18.4-14s-18-21-34.6-28.9c-2.4-4.5-5.5-10.5-17.6-13s-19.4-4.4-19.4-4.4,6.5-2.4,9.5-7.5c-7.5,1-13.6,3.4-29.9,3s-18.5-1-27.6.4-20,5.5-24-8.4c-4.5-3.5-14-.5-22.1,11.5s-10.9,21.4-26.5,26.1a54.7,54.7,0,0,1-7,19.4c-4.5,7.5-11.6,15-21.1,26.1-15,17.6-12.5,46.5-36.4,68.6s4.1-61.1,4.1-61.1l38.4-92.1,109.4-107,169.9-11.5,16.6,88,82.9,28.5L1537,733Z" style="fill:#d3ae4d"/></g><g style="clip-path:url(#b7790ce7-ad1e-4e89-b229-13f46d01ea1c)"><path d="M1563.9,752.4l-71.4-102.9L1442.6,611s-35.6-65.5-38.1-67.5-35.6-5.1-57-6.5l4,9.9a26.2,26.2,0,0,1,12,8.1c9.5,10.9,15.5,31.6-6.1,53.6,8.5,3.1,11.9,4.1,19.4,3.1-7.5,8.9-24.5,27.9-25.5,44.4-1,13.6,7.5,17.6,7.5,17.6s-12.9,15-13.5,40.1a162.5,162.5,0,0,1,20-19c15-12,35.6-25.5,49.5-34a27.6,27.6,0,0,0,1.5,10.5s26.1-21.4,47.9-11.9c9.9,4.4,5.5,18.4,5.5,18.4s13.5-5.1,23,4.4,23.1,34,30,43.5c3,4.5,10.9,13,19,26.1a331,331,0,0,1,27.5,58.1c.4-8.1,2-19.4,16-19.4Z" style="fill:#caa13e"/></g><g style="clip-path:url(#b7790ce7-ad1e-4e89-b229-13f46d01ea1c)"><path d="M493.5,1044.9s-5-12.5,0-37,13-36,15.6-72S535.2,855,535.2,855l64.9-29.6L646,838l13.6,61.5-58.1,31.9s-3,13.6-19.4,24.5-39,19.4-44.5,30.5a94.8,94.8,0,0,0-7.1,21.5s-16.5-3.5-26.5,7.5-10.1,21-10.5,29.5Z" style="fill:#f4efc8"/></g><g style="clip-path:url(#b7790ce7-ad1e-4e89-b229-13f46d01ea1c)"><path d="M624.6,1028.5s-5.5,3.5-9.5,12c-4.1-6.5-13.6-44.9-14-79.5s-2.4-43.1,5.5-55.1,39.4-24.4,35-45.9-23.1-28.9-45.9-23c-16,4-27.9,38-44.5,55-12.6,12.9-27.5,10.9-31.6,18-5.4,9.5-.4,19-2,25.1-.4,2-5.5,12.9-14.6,26.1-18.4,26.5-49.5,63.9-53.6,97.5,1.4-19.1.4-19.5,5.5-40.5l-3-5.1,20-65.5,12.9-54,29-90.4,50.9-92.4,49.6-55.5,51.6,3.5,6,77.4,29.6,145.5,62.1,76.4-99.6,67-39.4,3.4Z" style="fill:#ebcc73"/></g><g style="clip-path:url(#b7790ce7-ad1e-4e89-b229-13f46d01ea1c)"><path d="M655.5,1056s-8.5,2.1-11.5.4-6.1-3.4-5-5.4,6.4-5.5,6.4-7.1-.4-5.5-5-6.1-6.1,2.5-6.1,2.5-4.4-3.5-8.1-4.1a57.9,57.9,0,0,1,6.5-.4,65.8,65.8,0,0,0-17.6-5.1c5-3,15-11.9,21.4-11.9s10.5-1,9.5-4.4-6-8.5-11.5-10.6c2-2.4,3.4-6-1.4-15.9s-3-16.6-1.4-19,6.4-8.5,8.9-12,4.4-8.1,8.5-10.5c2-1.4,8.5-4,14.9-6.5s13-5.4,17-2.4,2.5,7.1,2.5,7.1,13.9-5.1,26.5,1.4,43,9.9,43,9.9L764,978l-72.5,62-29.9,15Z" style="fill:#e5c66b"/></g><g style="clip-path:url(#b7790ce7-ad1e-4e89-b229-13f46d01ea1c)"><path d="M756.1,954.5s-22.5,15-27.5,20.4c3,.4,8.1,2.4,6,5.5s-17,13.5-25.1,23.4-16.5,22.5-19.4,28.6-26.1,21.4-34,23.4c16.6,0,50-20.4,62.5-20.4-.4,6.1,3.5,12.9,10.6,13.5s27.5,4.5,55-12.5,18.4-28.9,29.9-37c22.1-14.6,31-27.5,43.1-35.6s18.4-9.9,18.4-9.9.4-6.1,4.1-5.5a5.4,5.4,0,0,1,4.4,3.5s21-15,47.9-19.1a2.8,2.8,0,0,1-1.4-1.4,7,7,0,0,0,2.5-2s1.4-2,2.4-1,2.4,8.5,4.4,11.5c4.5-2,13-21,13-21l20.4-58.5V807l-16,3.1L837.4,861l-72.8,75.5-8.5,18Z" style="fill:#e6bd62"/></g><g style="clip-path:url(#b7790ce7-ad1e-4e89-b229-13f46d01ea1c)"><path d="M1101.5,692.6s10.6-2.5,18.4-7.5c-2.4,6.4-2.4,13.5-12.9,28.9s-10.9,17.6-19.4,33.6-9.5,40.4-17.6,50.9a37.5,37.5,0,0,1,11.5-3.4s-8.1,7.1-11.5,14.6-9.5,23-24.5,32.5-34,15.6-54.4,38.1-41.5,49.9-52,60c5.5-9.5,13-28.5,15-41s-.4-27.5,3-44.1,3.5-28.5,20-57.5S1022,668.3,1022,668.3l61.1-19.4,18.4,43.7Z" style="fill:#b6933f"/></g><g style="clip-path:url(#b7790ce7-ad1e-4e89-b229-13f46d01ea1c)"><path d="M1057.4,655.5s-18.4,26.5-23.4,50-.4,21.4-3.5,33a43.4,43.4,0,0,0,0,21.4,76.1,76.1,0,0,1,25.5-25.1c17.4-10.5,31.6-18,40.1-26.9s15.6-25.1,34-37c-7.5-1-18-4.4-20.1-4,7.5-8.5,30-21.5,52.6-37s21.1-22.5,57.5-38.5c-12,2-17.6-1-27.5,0,4-8.5,18-12.5,31.9-26.5s-8.9-34.6-8.9-34.6L1109,594.9l-51.6,60.6Z" style="fill:#c49937"/></g><g style="clip-path:url(#b7790ce7-ad1e-4e89-b229-13f46d01ea1c)"><path d="M768,607.4l2.4-19.4L801,539l31.9-85.9V335.6l-2.4-68,5.1-44.5,3.8-14.2,4-5.4L869.5,217l36,49,3.5,94.4L874,509.5l-99.9,109Z" style="fill:#dfc068"/></g><g style="clip-path:url(#b7790ce7-ad1e-4e89-b229-13f46d01ea1c)"><path d="M847.5,198s-16,.4-19.4,67-5.1,101.5-7.5,134.5-8.1,53-10.9,72.4-4.5,45.9-13.6,62.1c-4,7.5-12.5,30.9-32.5,48.5-22.5,19.4-56.1,33-61.1,34-8.9,2-54,6.5-72.4,16.6-6.5,3.4-17.6,7.5-30,19-24.5,22.1-57,61.5-80.5,109-36,71-72,271.5-72,271.5l8.1-13.6s1-18,19-49.5,12.6-67,37-127.5c9.5-23,21.5-53,36-78.4,23.1-41.5,51-77.1,79.1-96.5,45.9-31.6,96.5-38.5,96.5-38.5l54.4-36s9.5-18.4,22.1-39.4c17.6-29.5,40-62.5,44.9-110.4,7.4-71-10.6-117.6-9.5-159.6s1.4-73,9.9-80.5,2.4-4.7,2.4-4.7Z" style="fill:#a88f33"/></g><g style="clip-path:url(#b7790ce7-ad1e-4e89-b229-13f46d01ea1c)"><path d="M847.5,515.6s24.1-59.1,35-111.5c2-10.5,6.1-21,7.1-29.5,5-49.6,6.4-70,0-97.1-5.1-20-24.5-38-34.6-52s-14.6-20-12.6-23,9.9-8.1,17.6-7.5,26.9,2,43.1,20S931,294.1,931,294.1l13,80.5,32.9,101.5L847.5,515.6Z" style="fill:#c99e3d"/></g><g style="clip-path:url(#b7790ce7-ad1e-4e89-b229-13f46d01ea1c)"><path d="M1073,454.1s-4.4,2-12.5,0a18.1,18.1,0,0,1-8.1,17c-8.5-3.5-88,3.4-88,3.4s-37-6.5-48.5-55.4c-8.1-32.6,6-77.5,1.4-107-7.1-43.5-17-52-18-65.5s-2.1-17-2.1-25.5c-4.4-1-7-2.5-11.5-2.5-1-4,1-7.4-3.4-14.5,2.4,1,19,3,38.4,21.4,16,15,16,20.5,18.4,23.5s27.5,24.1,38,44.9,31,87.6,35.6,98.5c1.5,4.4,4.5,8.9,12,19,11.7,14.6,28.9,38.6,48.3,42.7Z" style="fill:#b58634"/></g><g style="clip-path:url(#b7790ce7-ad1e-4e89-b229-13f46d01ea1c)"><path d="M941.9,250a547,547,0,0,1,33,61.5c12,26.9,19,48.9,34,66.9-8.1-23.4-22.5-69.5-30.9-85.9s-29-36-36.1-42.5Z" style="fill:#a88f33"/></g><g style="clip-path:url(#b7790ce7-ad1e-4e89-b229-13f46d01ea1c)"><path d="M804.4,582.5S784,587.6,746,607.6c-12.6,6.5-24.5,11.9-36,17-30,13.5-62.1,26.1-87.6,33,2,2.4,3,3.4,3,3.4s0,9.9,5.5,15.6c-3.1,3-43.5,30.5-31.6,122.6,8.1-3.1,17.6-7.1,19-7.1s3.1,7.1,6.1,7.1,12.9-4.1,23.5-17.6c-.4,5.4-6.5,60.4,26,97.4,6.1-7,21.5-30.5,21.5-30.5l.4-7.5s1.4-26.1,9.9-49.9,25.1-41.5,25.1-41.5L817.4,626l-13-43.5Z" style="fill:#e6c367"/></g><g style="clip-path:url(#b7790ce7-ad1e-4e89-b229-13f46d01ea1c)"><path d="M723.5,764a49,49,0,0,1-12.9,6.4c-1.5-5-3.5-22.4,8.5-39.4,13.9-20.4,44.5-46.9,52.9-68,5.5-13.5,3.1-47.5,51.6-91s67.6-58.4,67.6-58.4l78.5-39.5,96.4,38L1018.2,700,981,788,832.9,760.1,723.5,764Z" style="fill:#dcba5a"/></g><g style="clip-path:url(#b7790ce7-ad1e-4e89-b229-13f46d01ea1c)"><path d="M779.9,713l18.4-23.1V673.5s20.5-5.4,42.5-27.9,52.6-65.5,79.5-62.9,29.5,58.5,30.5,74.1,4.5,50.9,10,69.9-65.6,91.1-65.6,91.1l-48.5,37Z" style="fill:#e9ce77"/></g><g style="clip-path:url(#b7790ce7-ad1e-4e89-b229-13f46d01ea1c)"><path d="M837,904.9s14.9-23.4,4-28.5c6.5-14.5,18.4-29.9,18.4-29.9s8.5-21.1,36-46.9,44.5-43.1,49-60.5a161.3,161.3,0,0,0,4.4-34.6,77,77,0,0,0,9.5,6.5c4.5,2,25.5,19.4,22.5,54.4s-16,49.5-16,49.5-12.5,12.6-21.4,19-13,14-29,14.6a20.2,20.2,0,0,1,5.5-3s-16.6-2.1-25.5,6-27.9,33-37.4,40.5l-20,12.9Z" style="fill:#cdae50"/></g><g style="clip-path:url(#b7790ce7-ad1e-4e89-b229-13f46d01ea1c)"><path d="M1509.5,511.5s-32-12.9-74.4-14.5-104.6,1-165.5,1.4c-65.5.4-125-22.5-207.5-26.5-13.6-8.1-47.9-43.5-155.5,31.5,6.4-.4,78-16.5,102.9,14.6s18,83.5,14.6,96.1c-6.5,27.9-27.5,68.5-36,97.1s-6.5,43.5-12.6,63.5-19.4,29.9-11.5,53c10.5-6.5,16-6.5,33.6-45.9s13.9-67.6,43.1-101,76-79.5,94-91,161.4-86,311.5-15c36.2-3.8,63.3-63.3,63.3-63.3Z" style="fill:#d2a83e"/></g><g style="clip-path:url(#b7790ce7-ad1e-4e89-b229-13f46d01ea1c)"><path d="M967,484a18.1,18.1,0,0,0-1-4.4,31.2,31.2,0,0,0-5.4-8.1S925,465,907,467c-31.6,3.5-60.1,42.5-73.5,62.5s-29.9,51-47.9,67a6.9,6.9,0,0,0-1-4.5s1,1.4-1,3.5-2,3-1,4l3,3c1,0,28.9-12.5,66.9-47.9,40.5-37,71.4-56,87.6-62.5,12.4-5.7,26.9-8.1,26.9-8.1Z" style="fill:#c29637"/></g><g style="clip-path:url(#b7790ce7-ad1e-4e89-b229-13f46d01ea1c)"><path d="M1657.6,331.9s-6.5,8.1-14.6,17c-18,19-41.5,40.5-61.5,62.5s-40.4,37.4-64.5,64.9-52,58.1-59.1,67-11.5,23.4-11.5,30.9c-3.4-2.4-7.5-5-7.5-5a51.2,51.2,0,0,0,6.1,8.9c5,7.1,12.9,16,17,21.4,6.4,8.9,9.9,19.4,10.5,23.1,2.4.4,18,3.4,37.4-28.5s44.9-67,44.9-67l40.5-60.1,25.5-50.9,31.9-57.1,4.9-27.1Z" style="fill:#ac8132"/></g><g style="clip-path:url(#b7790ce7-ad1e-4e89-b229-13f46d01ea1c)"><path d="M1699,291.1s-24.4,20-34,31.9-31.9,43.5-31.9,43.5l8.1-1,41-36.4,16-28.5.8-9.5Z" style="fill:#a88f33"/></g><g style="clip-path:url(#b7790ce7-ad1e-4e89-b229-13f46d01ea1c)"><path d="M1691.5,1898.5s-.4-16.6,8.9-26.5,33.6-24.5,57.1-79.1,26.1-67,26.1-67-42.1,36-68,44.5c6.1-12.5,9.5-21.4,12.6-27.9-3.5-3-18-6.5-19.5-8.1,8.1-8.1,12.6-27.9,29-41,21-16,59.4-43.5,89.4-68s88.6-81.5,96-98.1c4.5,6.5,5.5,10.5,5.5,10.5s-29.5,38.5-44.9,62.9c-13.6,21.1-12.5,33-12.5,33l27.9-11.9s8.1,29.9-28.5,75.4c15.9-6.1,22.4-2.4,31.5-7.5-15,9.5-35.6,22.5-55,58.1s-44.9,77-88.6,102.9-67,47.8-67,47.8Z" style="fill:#a67a2e"/></g><g style="clip-path:url(#b7790ce7-ad1e-4e89-b229-13f46d01ea1c)"><path d="M1581.9,532.6s-16.6,34.6-19,61.5c-.4,6.4-2,11.5-2,19-.4,24,1.4,50.9-4.1,63.5-2-5.1-3-8.5-5-10.5-3.1,8.5-8.5,35-13,44.9-2-6.5-6.4-29-6-55.5s1-31.5,1-37c-1,8.1-6.5,19-8.5,25.5-3.1-5.4-6.5-12.5-10.5-18.4-2.5,4.1-5.5,9.9-8.1,13-.4-2.5-1.4-8.9-2-18s-1.1-24.1-.5-27c1.1-5.4,9.6-26.9,27.6-46.5,21.4-23.4,43.4-68.5,49.9-82.5s34-72,34-72h21l-30.5,69.6s-18.4,38-27.9,52-29.6,54-38.5,69.5c6.5-8.5,12-12.9,18.5-21,6.2-5.7,23.6-30.1,23.6-30.1Z" style="fill:#8c6228"/></g><g style="clip-path:url(#b7790ce7-ad1e-4e89-b229-13f46d01ea1c)"><path d="M1699.4,288.4a86.8,86.8,0,0,1-15.9,29c-12.6,14.9-39.5,34.9-52.6,50.9s-36,58.1-25.1,108.4c4-10.9,11.5-32.5,31.5-57s41.5-52.6,52-74.4,12-39.5,12-39.5l4-5-2.4-11.6-3.5-.8Z" style="fill:#cba94c"/></g><g style="clip-path:url(#b7790ce7-ad1e-4e89-b229-13f46d01ea1c)"><path d="M2109,1630.1s-8.1-22.1-10.5-42.1,4-24.1-3.4-46.9c-4.5-14-12.6-12-14.6-14s-3.4-23.1-3-34.6-.4-26.5-2.5-33c-3-2.4-5-4.4-9.5-19.4s-7.4-22.4-9.9-26.9-9.5-8.5-9.5-12.9c0-8.9,8.1-13.6,8.1-16-.4-5.1-6.5-1-8.1-2.4s5.1-17,2.4-19c-1-1-8,7.4-9.9,5s-4.4-26.5-8.1-42.5-7-26.9-7.4-31.5-28-82.9-34.6-102a468.9,468.9,0,0,1-13.6-48.9c-2-9.5-3.4-28.9-4.4-26.9s-.4,11.9-2.1,11.5-6.4-35-8-40.4-10-24.1-12-37.4-6.4-49-9.5-73.1-4.4-33.9-4.4-40a245.4,245.4,0,0,0-2.5-44.1c-4-25.5-11.9-56.4-19-74.4-13.5-34-49.5-121-56-142.6,0-5.5,7.1-2.5,7.1-2.5s17.6,44.1,30.5,78.1,24.5,63.9,27.5,67,21.5,36.4,30,91,11.5,105,16.5,138.5c2.5,16,4.5,33,9.6,50s13.9,37.4,25,66.5c9.5,24.5,16.6,44.9,20.5,62.5,4.4,22.5,4.4,39.5,7,50.6,2.5,9.5,6.1,28.5,14.6,56s21,62.9,29.5,85c16.6,44.1,24.1,80.9,26.5,100.5s9.7,90.2,7.7,111.3Z" style="fill:#a88f33"/></g><g style="clip-path:url(#b7790ce7-ad1e-4e89-b229-13f46d01ea1c)"><path d="M1700.4,286l-1,2.4s3.1,1,2.5,5.1a112,112,0,0,1-1.1,16.6c-1,7.1-3,12.5-3.4,17,0,9.5,1.4,20.4-11.9,47.5-4.1,7.5-6.5,14-8.5,18.4-5.1,10.9-6.1,12.5-10.5,17.6,7-4,32.5-20,45.5-17.6-8.9,5.1-22.5,15-31,27.9,2.1.4,10.5,2,24.1,0,22.4-3.4,47.5-11.5,69.6-9.9,24,1.4,14.5-28.9,14.5-28.9L1761.3,321l-52.6-37-8.3,2Z" style="fill:#be9c44"/></g><g style="clip-path:url(#b7790ce7-ad1e-4e89-b229-13f46d01ea1c)"><path d="M1837.6,743.5s-23.5-23.4-33-103.9-7.5-200.1-7.5-200.1l-19-46.5s-4-30.9-13.9-42.5-29.6-30.9-38.5-40.4-19-22.5-25.1-24.5c3.1-5.1,16.6-33.6,68.6-34s68,28.5,73.4,39.1,30,56,39.1,142.6,8.9,93,7.5,122.9c-1.1,16.6-6.5,55-16,96.1-8.7,34.8-18.2,73.6-35.6,91.2Z" style="fill:#a17c34"/></g><g style="clip-path:url(#b7790ce7-ad1e-4e89-b229-13f46d01ea1c)"><path d="M1764,812.5a39.5,39.5,0,0,0,22.4-5.1c7.5-.4,34.6,3.1,55.4-23.4,1.4,6,5.1,22.4-4.4,37,5-5.1,12.5-7.1,13.5-8.5.4,7.5,7.5,30.5-22.4,86.6,8.1-8.9,17.6-8.5,26.1-9.5.4,10.5,6,45.9-8.9,64.9-9.9,12.9-26.1,8.9-26.1,8.9a52.8,52.8,0,0,0,0-8.5c-.4-5.5-2.4-10.9-1-14.6-2.1-1-10.5-4.4-21.1-14.5-17.6-16.6-40.4-44.9-42-66-2.1-23.4,19-28.5,19-28.5a20.9,20.9,0,0,1-4.5-5.5c-1-3.4-2-8.9-6-13.3Z" style="fill:#8c6228"/></g><g style="clip-path:url(#b7790ce7-ad1e-4e89-b229-13f46d01ea1c)"><path d="M1608,558.1s-1-1.5-6.5,5c1-6.5,2.1-12.5,2.5-18.4a63.2,63.2,0,0,1,9.9-15,117.1,117.1,0,0,0-5.1,11.6s7.5-14,18.4-22.5c7.5-6.1,17-8.9,21.1-14.6s3.4-7,4.4-8,9.9-6.5,25.1-25.5c2-2.5,5-5.1,7.1-7.5s11.5-5.1,21-9.9,21-13,27.9-16c13.6-6.1,27.9-5.5,34.6-15,5.1-1.4,10.5-16.6,9.5-29.5,7.5,3,45.9,26.9,59.1,79.1,9.5,37-7.5,94-14.6,121.5s-8.1,48-18,60.5c-12.5,16.6-53,40.1-62.9,51.6-8.5,9.5-34,33.6-33,51,1,12.9,17,20,20.5,22.4s3.4,5.5,9.9,4.1,8.9-4.5,11.5-4.5,3,1,4.5,1a14.6,14.6,0,0,0,3-.4s-1,18.4-44.1,24.1c-3,.4-6.1,1.4-9.9,2,5-2.4,8.1-2.4,13.5-9.9-6-1-23.4-2-27.9-3.4,1.4-2.5,6.1-8.9,9.9-12s-.4-4-3.4-2.4a175.1,175.1,0,0,0-15,11.5c-5,4.5-9.5,10.6-17.6,16-2.4-8.1-2-23.4,7.5-34.6-2.4.4-7.1,7.5-11.5,6.1a65.4,65.4,0,0,1,1.4-22.1c2.4-9.1,15.6-25,15.6-25l63.5-113.5,13.5-86L1608,558.1Z" style="fill:#92723a"/></g><g style="clip-path:url(#b7790ce7-ad1e-4e89-b229-13f46d01ea1c)"><path d="M1604.6,562.9s-3.5,2.4,3.4,7.1c-1,1.4-3.4,6.5-6.5,9.9s-7,6.5-8.5,9.9c-3,7.1-5.4,11.9-5.4,15s-1,22.4-9.5,35c-3.1,4.4-6.5,11.9-8.9,17-5.1,8.9-9.5,15.9-10.5,20-2.1,7.1-3.5,26.5-3.5,26.5l6.1-7.5c-2.4,5-5.1,10.5-8.9,14.6,2.4-2.1,9.5-7.1,21.4-17.6,16.6-14,42.5-37.5,74.1-56.1-9.6,3.5-17.6,3.5-24.1,4.5,5-5.1,50.6-58.5,74.4-63.5a9.7,9.7,0,0,0,2-6.5l-20.4-2-41.5,8.9-6-32-27.7,16.8Z" style="fill:#b18e3e"/></g><g style="clip-path:url(#b7790ce7-ad1e-4e89-b229-13f46d01ea1c)"><path d="M1670.5,744.9s-5.5,5.5-10.5,19.1a65,65,0,0,1-9.9-13.6c-7.5-12.5-19-28.5-45.9-19.4-.4-8.5-1-13,0-19,4.4-1,18-12,31.5-27.9,9.5-11,18.4-23.5,24.5-39.5,4-3,10.9-8.1,20-13.9,13-8.9,28.5-21.1,31-34.6-6.1,2.4-19,8.5-38.5,7.5,7.5-3.5,19-7.1,17.6-22.1l5.5-3.4a20.1,20.1,0,0,0-7.1-1c-.4-1.5-1-3.5-4.4-2.5s-4.1,1-4.5,2.5-6.1,0-9.5,2.4-12.9,10.5-16.6,11.9l3.5-6s-10,1-17,4c-13,4.5-27.9,12.5-43.1,20.4,1.4-2.4,2-4,3-4.4s3.5-1,3.5-1.4-1.1-4.1-.4-5.5,8.9-18,15.9-27.5,8.5-23.1,8.5-23.1l31-15.5,87-20.1,56.4,3.5-7.1,39L1761.5,623,1733,685.1l-32.6,38-29.9,21.8Z" style="fill:#543e26"/></g><g style="clip-path:url(#b7790ce7-ad1e-4e89-b229-13f46d01ea1c)"><path d="M1811.5,576.1s-34,42-43.5,48.5c6.1-12.9,43.5-90,57-111.5-3-2.4-7-2.4,2.5-40-8.1,19-11,28.9-17.6,34s-7.5,3.4-12,3.4a7.6,7.6,0,0,0,1-5s-28.5-3.5-47.9-3.5-58,10.5-79.5,19c-17,7.1-26.5,7.1-32.5,11.6s-9.6,10.5-12.6,11.9-13.9,5.1-16.6,8.9-6.4,8.5-6.4,9.5-1.1,2.4,2,1.4c1-.4,8.5-4.4,17-9.5,11.5-6.5,25.5-13.9,35.6-18.4,28.9-11.5,38-9.5,50.9-11.9s33-8.1,46-8.1,37.4,0,43,1c-2.4,2-4.4,4.4-3.4,12.9,0,2.5-2,5.1-4,11-6.1,16.5-17.6,44.1-24.1,58-8.9,19-19,35-24.1,44.9s-16,36-26.9,50-16.6,22.4-20,25.5-27.9,21-26.1,27.5c4.4-1.4,32.6-12,53-35s24.5-37,40.4-49.6,28.6-33.6,36-50.9,4.9-21.3,12.8-35.6Z" style="fill:#806031"/></g><g style="clip-path:url(#b7790ce7-ad1e-4e89-b229-13f46d01ea1c)"><path d="M1079.1,890s-4.5,18.4-14.6,27.5S1037,934.1,1035,949s17.6,22.5,17.6,22.5-10.9,18-10.9,31.5-.4,16.6,1,30a14.4,14.4,0,0,0-4.1,4s1,13,11,21.1S1068,1071,1073,1069a47.1,47.1,0,0,1,2,5s7.5-19,12.6-35.6,9.5-14.5,11.5-37.4,24.1-62.1,24.1-62.1l14.9-33.6-24.4-19-34.6,3.7Z" style="fill:#b6903c"/></g><g style="clip-path:url(#b7790ce7-ad1e-4e89-b229-13f46d01ea1c)"><path d="M1124.6,922.9a149.3,149.3,0,0,0-14,16.6c-6.4,8.9-11.5,17-21,20.5s-15.6,3.4-15,12.9,9.5,13.5,14.6,18.4,9.9,13.6,7.5,23.1c3-1.5,8.5-3.1,13.5-14s40.5-77.5,40.5-77.5Z" style="fill:#685026"/></g><g style="clip-path:url(#b7790ce7-ad1e-4e89-b229-13f46d01ea1c)"><path d="M1264,769.4s3-8.1,0-13.9-21.5-8.1-30.6-15-21-11.9-30.5-8.9c1.4-3.4,7.1-10.9,2.4-12.5s-21,6-25.5,9.5-14.5,7.4-16.6,9.9-5.4,7.1-7.5,5-3-5-6.4-3-20.1,15.6-23.1,23.5-9.9,25.4-30.5,45.5-29.6,32.9-23.5,40.4,8.9,2,9.9,8.5a54.7,54.7,0,0,1-1,19c-2.4,10.5-6.5,20.5-1,22.5,14,4.4,27.5-4.1,30.5-1.4,6.1,5.4-3.4,25,11,28.9s28.9-3.5,28.9-3.5l53-28.5,51-26.9,26-51.6-13.9-43-2.6-4.5Z" style="fill:#d4b968"/></g><g style="clip-path:url(#b7790ce7-ad1e-4e89-b229-13f46d01ea1c)"><path d="M1214,892.6s-8.9-13.6,2-25.5,26.5-17,32.6-24.5a9.3,9.3,0,0,0-4.5-3,40.7,40.7,0,0,1,17.6-16.6c-3-3-7-5.4-11.5-5.4-9.9,0-16,6-25.1,6s-9.9-4.4-9.9-4.4,15-1.4,13.6-8.1-4.1-7.1-4.1-7.1,28.9-11.9,34-18.4,4.4-14,5.5-17c3.4,0,23.4-10.5,31.5-6.1s2.4,16.6,2.4,16.6,24.5-18.4,37.1-36.4c10.9,1,15.9-7.5,24-7.5,9.9,0,25.5,13.6,28.5,42.5,2.1,16.6,5.1,26.1,2.1,55.4-1.5,16.6-1,52,4,69.6,3.4,14,11.5,12.6,11.5,12.6a23,23,0,0,1-7,10.9c-5.5,5-6.1,18.4-5.5,23.4a101.6,101.6,0,0,0,3,11s-6.4,7.4-8.1,12.5-8,8.5-12.9,8.5-2.4-.4-8.9,0-8.5,1.4-12.5,0-7.1-3-5.5-16-50-43.1-50-43.1L1214,892.6Z" style="fill:#cca849"/></g><g style="clip-path:url(#b7790ce7-ad1e-4e89-b229-13f46d01ea1c)"><path d="M1117.5,1020.4s18.4,24.5,94.1,24.5c36,0,48.5-3.4,56-5.5s38.4-13.9,69-49.9c27.5-32.6,21.4-45.9,21.4-45.9l-16-2.5-52,7.1-153.9,65.6-18.6,6.6Z" style="fill:#585136"/></g><g style="clip-path:url(#b7790ce7-ad1e-4e89-b229-13f46d01ea1c)"><path d="M1173.9,1026.5s-65.5,14.6-65.5-26.9,40.5-82.9,50.6-90.4,35.6-16,35.6-16h60.5l11.5,30.5-5.1,66-87.6,36.8Z" style="fill:#252211"/></g><g style="clip-path:url(#b7790ce7-ad1e-4e89-b229-13f46d01ea1c)"><path d="M1234.4,905.5s-12.5-11.5-41,4.1-51.6,47.9-53,77.5c-1.4,26,21.4,45.5,57,46.5,26.5,1,42.5-2,50.6-4.1l-12.6-15.5-1-108.5Z" style="fill:#c3b378"/></g><g style="clip-path:url(#b7790ce7-ad1e-4e89-b229-13f46d01ea1c)"><path d="M1222.1,912s-3-2.4-11.9,2.4-18.5,14.6-26.9,22.1c-5.5,4.4-8.9,6.5-12,9.9-12.5,15-23,39.4-17,51.6s26.1,26.1,77.1,16.6L1222.1,912Z" style="fill:#e6d89c"/></g><g style="clip-path:url(#b7790ce7-ad1e-4e89-b229-13f46d01ea1c)"><path d="M1205.5,937.1s-8.1,12.5-8.1,32.6,11.5,53,54,55.4c32.6,2,54.4-46.9,78.1-66,18-14.5,28.9-14.9,28.9-14.9s-18.4-20-67.5-45.9-103-29.6-132.5,10.5c13.9-1,59-12.6,59-12.6l22.1,7.1Z" style="fill:#252211"/></g><g style="clip-path:url(#b7790ce7-ad1e-4e89-b229-13f46d01ea1c)"><path d="M1269,963.6c-1.4-3-2.4-7.1,3.5-8.1s8.4-.4,10.5,4,4,8.1,1,10S1273.1,969.5,1269,963.6Zm-9.5-28.5s-2,1.4-1-1.4,3-9.5,9.5-8.1,5.1,8.5,4,10.5-6.4,5.4-10.5,4S1259.5,935.1,1259.5,935.1Z" style="fill:#6f674d"/></g><g style="clip-path:url(#b7790ce7-ad1e-4e89-b229-13f46d01ea1c)"><path d="M712,948s16,12,34.6,11.5,42-19.4,53-31.5c6.4-7.1,11.9-14.6,18-20.4s8.5-7.5,10.9-11,7.1-11.5,8.9-13.9c-4.5,3.4-10.9,9.5-17.6,13.5s-20.4,11.6-26.1,13.6-62.1,31.9-62.1,31.9L712,948Z" style="fill:#ac924c"/></g><g style="clip-path:url(#b7790ce7-ad1e-4e89-b229-13f46d01ea1c)"><path d="M736.4,798.5s8.9-6,26.1-9.9,50-7,50-7L840,793.5,850.9,835l-20,43-25.5,16-28.9-46.5-40.1-49Z" style="fill:#9f8e57"/></g><g style="clip-path:url(#b7790ce7-ad1e-4e89-b229-13f46d01ea1c)"><path d="M700.4,835.6l-9.5,7s2.5-4.4,4.5-18,12.5-46.5,27.9-65.5,15-18,15-18a10.2,10.2,0,0,0-8.1,2c2-4.4,14.9-20.4,27.9-28.5s18-10.5,31.5-4,17,9.9,26.9,9.5,18.5-11,18.5-11,2,6.5-5.5,21.5-37,45.5-37,45.5L731,818.2l-30.6,17.4Z" style="fill:#eac970"/></g><g style="clip-path:url(#b7790ce7-ad1e-4e89-b229-13f46d01ea1c)"><path d="M746,793.5s44.5,6.1,58-6.5c.4,1.4,2,1.4,2,2.4a3.5,3.5,0,0,1-1,2.1,32.2,32.2,0,0,1,4.5-.4c2,.4,3.4,1,5.4,1a34.3,34.3,0,0,0,4.5-.4,7.3,7.3,0,0,1-3.1,5c2.1,0,4.1.4,4.1,2s.4,6.5-2,7.5a9.2,9.2,0,0,1-6.1-.4,24.9,24.9,0,0,0,3,10.9c4.1,7.5,12.6,16,24.1,13.6,0,0,6.1,14.6-19.4,46.9-3.5,4.5-7.1,10.5-11.5,15.6-3.5,8.1-4.1,11.9-4.1,11.9s43.1-16.6,55.4-54.4,15-75.4,12.6-110.4c-.4-9.9-2.1-17-4.5-22.1-6-12.5-23-10.5-29.9-3.4-9.9,9.9-26.5,34.6-49.6,51.6S764,786,746,793.5Z" style="fill:#d7bc6b"/></g><g style="clip-path:url(#b7790ce7-ad1e-4e89-b229-13f46d01ea1c)"><path d="M692.6,848.1s-8.5,5.1-13,24.1,4.1,43.1,8.9,50.5,16,27.9,39,29a43.1,43.1,0,0,0,16.6-3.5c8.1-3.4,16-8.9,22.5-13.9,9.9-7.5,18-14,17-14.6s-61.1-49.6-61.1-49.6l-22.1-24.6Z" style="fill:#585136"/></g><g style="clip-path:url(#b7790ce7-ad1e-4e89-b229-13f46d01ea1c)"><path d="M748,928.6s11.9-1,19-5.5-41.5-52.5-41.5-52.5l3.5,51.9Z" style="fill:#453a25"/></g><g style="clip-path:url(#b7790ce7-ad1e-4e89-b229-13f46d01ea1c)"><path d="M696.4,844.5s-6.1,11.5-6.1,14.5c-1,9.9,2.1,41.1,4.5,51s15.6,26.5,32.5,26.5c10.6,0,25.1-6.5,25.1-8.1s-14.9-4-19-11.5c-2.4-4.1-3.4-14-4-24.1-.4-6.5-.4-13.6,2-16,5.5-6,6.5-23.4,6.5-23.4l19.4-36H731.8l-30.5,19-4.9,8.1Z" style="fill:#84754b"/></g><g style="clip-path:url(#b7790ce7-ad1e-4e89-b229-13f46d01ea1c)"><path d="M688.9,855.6s20-26.5,38-32.6,26.1-2.4,26.1-2.4l-10.5,26.9-15,16.6,1.1,8.5s-2.5,22.4,12.5,38,26.1,15,32.6,15,25-5.5,34.6-27.9,15.5-48-1.5-75.1-45.9-27.9-51.5-27.9S705.1,796.9,688.9,855.6Z" style="fill:#252211"/></g><g style="clip-path:url(#b7790ce7-ad1e-4e89-b229-13f46d01ea1c)"><path d="M1202.5,945.6c-7.5-3.4-.4-24.5,7-31s17-13.9,33.6-14.9c6.1-.4,12,3.4,10.9,7.5-1.4,7.4-11.9,18-21.4,25.4-13.1,10.4-21.6,16.8-30.1,13Z" style="fill:#f7f7e7"/></g><g style="clip-path:url(#b7790ce7-ad1e-4e89-b229-13f46d01ea1c)"><path d="M797.9,830.9c5.5-.4,12.6,4.1,14,9.9s-3.4,19.4-14,19.4c-8.5,0-12.9-10.5-12.9-13.5a15.5,15.5,0,0,1,2-7.1C787.4,839,788.4,831.9,797.9,830.9Z" style="fill:#f8f6de"/></g><g style="clip-path:url(#b7790ce7-ad1e-4e89-b229-13f46d01ea1c)"><path d="M719.1,835.6s-14,6.4-20.5,20a53.5,53.5,0,0,0-4,31.9c1,5.1,6,17.6,9.5,22.1s8.1,7.5,11.5,7.1,10.5-9.5,10.5-15,.4-28.5,7.1-41.1-14.1-25-14.1-25Z" style="fill:#d4c38b"/></g><g style="clip-path:url(#b7790ce7-ad1e-4e89-b229-13f46d01ea1c)"><path d="M721.1,834.5c-2.5,1.5-6.5,3.5-5.5,6.1s9.5,4.1,12.6,9.9,3.4,12.6,2.4,15.6a24.4,24.4,0,0,0,7.1-5.1c4.4-5,9.9-11.9,14.5-11.9,3.1,0,6.1,1.4,8.9,1.4,4.5,0,8.9-1.4,9.5-6s-8.5-11.6-13.9-10.6c1-4,2.4-9.9-2-13.9s-18.5,3-21.5,5-12.1,9.5-12.1,9.5Z" style="fill:#e2d59d"/></g><g style="clip-path:url(#b7790ce7-ad1e-4e89-b229-13f46d01ea1c)"><path d="M1042.5,1259.5l29.9-8.9,8.5,6.1s6.1,12.9,15.6,14.5c-3.1,6.5-10.9,12-10.5,16.6s4.4,8.1,4.4,8.1-26.9,44.5,26.1,89.4c-12.5,5.1-28.5,11.9-37,16,6.1,1.4,19,4,24.5,8.9s5.4,6.5,10.5,9.5,8.1,7.1,7.1,8.9c-3.5-2-15-8.1-17-2.4s-50,3.4-50,3.4l-80.9,15.6s3-8.1-5.5-15.6-22,.4-34.9-9.5c-17-12.9-17.6-27.9-23.1-33.6,5.5-3.4,16.6-8.5,43.1-11.9-1-2-4.5-8.1-2.5-13.6s12.6-11.5,9.6-20c4.4-1,6.4-1,17.6-14.9s16.9-17,25-18,13,0,27.9-14c10.6-9.9,7.1-18.4,7.1-18.4S1044.9,1273.5,1042.5,1259.5Z" style="fill:#cbac5a"/></g><g style="clip-path:url(#b7790ce7-ad1e-4e89-b229-13f46d01ea1c)"><path d="M954.1,1264c.4-2.1,2-3.1,12.9-2.1s80.1-6.4,98.9-7.5,86-.4,118.6,6.5,65.5,15,81.5,19,21,6.1,20.4,8.1-4,4.1-6.1,3.5-55-16.6-71.4-20.1-73-12.5-103.9-11.9c-28.9.4-40.5-.4-65,2.4s-64.9,7.1-77,5.5-9.5-1.4-8.9-3.4Z" style="fill:#d6bc6f"/></g><g style="clip-path:url(#b7790ce7-ad1e-4e89-b229-13f46d01ea1c)"><path d="M1116.9,1422.5s41.5,22.5,56.4,50c11,20.4-6.4,30.5-6.4,30.5s23.4,0,20.4,13c-1.4,8.1-40.5,29.9-66.5,41.4s-25.5,11-38.5,13-46.9-4.1-54,6.1-4,20.4-2,22,18.4,3.4,18.4,3.4-3.4,9.5-37.4,10.6-42.5,3.4-44.5,7,6.5,1.5,22,4.1,37.4,4,37.4,4-7,6.1-25.4,11c-21.1,5.4-54,10.5-64,16.5,5.1,3.5,12.6,8.5,16,8.9-8.5,2.1-20.4,6.5-22.4,8.1,3,2.1,7.1,4.5,7.1,4.5s-17,20.4-26.9,25.5-67,31.5-86.6,26.5c-49-13-55-66.6-67-70.6-18-6.1-26.5,6-42.4-2.5,7-5,10.9-8,18.4-11.5-8.1-4-50-30.5-50-30.5a307.3,307.3,0,0,0-14.6-27.9c-8-14-20-32.6-28.9-49-19.4-36-20.4-52.6-38-73,3-4.1,13.5-3.4,13.5-3.4l147.5,48.5,261.5,7.5,68-97.1,28.9,3.4Z" style="fill:#dfc677"/></g><g style="clip-path:url(#b7790ce7-ad1e-4e89-b229-13f46d01ea1c)"><path d="M729.6,1570.6a22.5,22.5,0,0,0,5.4,4.4c5.1,3.5,12.6,7.5,17.6,13.6,2.1-3,7.1-8.5,16,0s20,2.4,26.9,4.4,7.5,3.5,7.5,3.5,4-3.5,12.9-7.1c5.5-2,12-3.4,19.1-5.5s13.5-3.4,18.4-3.4c4.4,3,20.4,20,84.5-5.1,60.5-23.4,74.4-26,84.6-22.4,1-2.4,2-7.1,17.5-6.5,0-6.5-12.9-28.5-12.9-28.5l-71.4-24.5h-39L799.6,1515l-65,37-5,18.6Z" style="fill:#c4a859"/></g><g style="clip-path:url(#b7790ce7-ad1e-4e89-b229-13f46d01ea1c)"><path d="M690.5,1529.5s1.4,11,17.6,22.5,21.1,18.4,21.1,18.4,3-4.1,5.4-8.1,4.5-9.5,8.5-10.9c8.1-3.5,26.5,3,30.6,2s2.4-8.1,6-8.1c8.5-.4,14,5.5,17,5.5s10.5-.4,11.6-2.1,1.4-18.4,12.9-26.5,27.9-5,32-3c0,3,.4,10.5,8.5,10.9s8.9-1,15.9,1.5,15.6-.5,19.4,11.5c3.5-1,11.6-2,9.6-13.6,4-3,7.4-5,15.9-17,2.1-3,5.5-6.4,8.1-10.9,7.1,0,15.6-1.4,26.9,8.5-3.4,2.4-5.4,4.1-6.4,6.5a67,67,0,0,1,8,9.5c3.1,4,5.1,8.9,8.9,9.9,8.5,2.4,22.5-1,38.1,0s27.5,6.5,32.9,9.9c2.1-1,2.1-1.4,7.1-.4s8.9,1.4,3.5-5c3,1.4,6.4,4.4,9.5,1.4s5.4-7.5,13.9-8.5,11.5.4,15-8.5c4.4-10.9-10.9-10.9-10.9-10.9s7-6.5,14.9-15c9.5-8.9,20.5-20.4,23.1-34.6,4.4-26.1-21-29.5-21-29.5l-123.6,38-151.1-7.5-128.9,64.1Z" style="fill:#927d49"/></g><g style="clip-path:url(#b7790ce7-ad1e-4e89-b229-13f46d01ea1c)"><path d="M579.5,1172.5s-4.1,5.1-6.5,17-1.4,10.5-3.4,19-26.9,93.1-17.6,121.6,25.5,39,35.6,62.1c2,5,4,8.1,5,12.5,3.5,15,.4,26.5,4.5,41.5,1.4,5.1,5,10.9,10.5,17,11.9,12.5,31.6,24.5,40.1,33,11.9,12.5,28.9,38,50.5,40.4,11.5,1.4,27.9-3.4,41.5-11.5,11.9-7.5,19.4-18,31.9-24.1,8.9-4.4,18.4-6.1,26.9-8.1,17.6-3.4,33.6-4,43.1-2,14.6,3,49,13.6,68,13.6a188.2,188.2,0,0,0,44.1-6.1c28.9-8.5,63.9-23.1,87-29.5,13.5-4.1,24.4-5.1,35.6-7.5,19-4.5,34.9-10.6,44-22.1-6-7.1-13.5-18-54-17.6-45.9,1-98.9,26.5-125,30.6s-37.4,7.4-66.5-3.1-29.5-17.6-29.5-17.6-30-21-42.5-74.4,0-92.4,32.6-129.4c8.5-9.6,6.4-18.1,6.4-18.1s21.5-28.9,15.6-56-47.9-21.4-47.9-21.4l-230,40.2Z" style="fill:#6e6342"/></g><g style="clip-path:url(#b7790ce7-ad1e-4e89-b229-13f46d01ea1c)"><path d="M614.1,1262.5s-3.1,5.5-2.4,11,2,12.5,18.4,28.5c13.9,13.9,10.9,29.5,10.9,29.5s7.1,1.4,26.1-7.5c14.9-7.1,20,5.5,20,5.5a44.5,44.5,0,0,1,14-4.5c8-1,12.5-4,12.5-4s17.6,18,33,26.5,22,12.5,28.9,7.5,6.5-13.6,6.1-17.6a54.9,54.9,0,0,0-6.1-10.5c-4.5-6.5-11.5-14-11.9-20.1-1.1-13.9,10.5-30.5,8-34.6s-11.5-5-33.9,3.1-123.6-12.8-123.6-12.8Z" style="fill:#39331f"/></g><g style="clip-path:url(#b7790ce7-ad1e-4e89-b229-13f46d01ea1c)"><path d="M667.1,1353s-11.6-11-7.5-64c6.1-.4,14.6,1.5,14.6,1.5s6.2,41-7.1,62.5Z" style="fill:#292311"/></g><g style="clip-path:url(#b7790ce7-ad1e-4e89-b229-13f46d01ea1c)"><path d="M585,1132.1a28.5,28.5,0,0,0,4.4-4.1c-4,7.5-22.5,37.5-7.5,84.6s52.6,81.9,98.9,83.5,70.6-21,98.5-55c11-13.6,23.5-30.5,34.6-42.1,16.6-18,29.5-23,29.5-40.4,0-35.6-36.4-51.6-90-67.6s-101.9-13.9-127-3-35,24.5-41.4,44.1Z" style="fill:#252211"/></g><g style="clip-path:url(#b7790ce7-ad1e-4e89-b229-13f46d01ea1c)"><path d="M757.1,1368.9l4-2s1-16,7.5-15.6,9.5,9.5,8.9,12.6-2,8.1-8.5,7.5C760.5,1371.6,757.1,1368.9,757.1,1368.9Z" style="fill:#3f3824"/></g><g style="clip-path:url(#b7790ce7-ad1e-4e89-b229-13f46d01ea1c)"><path d="M739.1,1301s4-1.4,8.9,3.4c4,0,21.4-2,26.9,1.4s7.1,6.5,7.1,6.5-20.5,4.4-31.6,0-11.3-11.3-11.3-11.3Z" style="fill:#2d2815"/></g><g style="clip-path:url(#b7790ce7-ad1e-4e89-b229-13f46d01ea1c)"><path d="M829.1,1304c0-1-10.9-8.5-22.5-10.9-2-.4-2.4,1-4,1s-1.4-3.4-1.4-3.4l-6.5,3.4s-1,1.4,2.4,4,8.1,4.5,9.5,8.5,1.5,5.5,2.1,6.1,7.4,0,10.9-2S829.5,1305.4,829.1,1304Z" style="fill:#82764f"/></g><g style="clip-path:url(#b7790ce7-ad1e-4e89-b229-13f46d01ea1c)"><path d="M726.9,1345.1s2.1-14,15.6-14.6,16.6,12.5,16.6,12.5l-8.1,8.1c0-.2-6.1-8.7-24.1-6Z" style="fill:#2d2816"/></g><g style="clip-path:url(#b7790ce7-ad1e-4e89-b229-13f46d01ea1c)"><path d="M814.9,1285s-7.5,8.1-24,10.5c-1.5-2-4.5-6.1,0-12.5s9.5-8.5,14.5-6.5,8.5,4.4,9.5,8.5Z" style="fill:#574f35"/></g><g style="clip-path:url(#b7790ce7-ad1e-4e89-b229-13f46d01ea1c)"><path d="M845.5,1294.9c.4-2-1-2.4,0-3.4s6.4-3.1,7.5-2.1,0,2.1,0,4.1,0,4-1.1,5.4-5.4,3.1-7.4,2.5-2.5-3.5-2.5-4.1S845.5,1295.9,845.5,1294.9Zm34.6-21.8c0-1.1,3.4-3.1,5.4-3.1s3.1,2.5,3.5,3.1,1-.4,2,1.4,2.4,5,1.4,7.1-5.1,3.4-6.1,3-5.8-10.1-6.2-11.5Z" style="fill:#82764f"/></g><g style="clip-path:url(#b7790ce7-ad1e-4e89-b229-13f46d01ea1c)"><path d="M810.5,1299.6s4.4,1,10.5,6c-2,1.4-5.1,3.1-5.1,3.1S815.5,1304,810.5,1299.6Z" style="fill:#6e6342"/></g><g style="clip-path:url(#b7790ce7-ad1e-4e89-b229-13f46d01ea1c)"><path d="M800.6,1255.1c-1-1.1,3-3.5,5.4-3.1s3.5,2,6.1,2.4,3-1,4-2,4.5-.4,5.1,0a10,10,0,0,1,1,1.4,5.5,5.5,0,0,1,2-4,6.5,6.5,0,0,1,5.5-1c.4,1.4,2.4,6.5,2,7.5s-6.5,2.4-7.5,1.4c1,2.4,5.5,7.5,6.1,8.5s-4.5,3.4-6.5,3-20.2-10.3-23.2-14.1Zm26.5-33.6a4.6,4.6,0,0,0-2.1-2.4c-1.4-.5-6,0-6,2.4s4,16,8.5,23,8.5,13,11.9,14.6a4.8,4.8,0,0,0,6.1-2c.4-1,1.4-8.5,1-26.1s-1-34.6-2-35.6-5.1-1-6.5,1-10.5,22-10.9,25.1Z" style="fill:#585136"/></g><g style="clip-path:url(#b7790ce7-ad1e-4e89-b229-13f46d01ea1c)"><path d="M809.1,1325s-7.1-4.4-14-1.4-6.1,15-6.1,15a9.7,9.7,0,0,0,8.9-1C802.4,1334.5,808.1,1329.5,809.1,1325Z" style="fill:#574f35"/></g><g style="clip-path:url(#b7790ce7-ad1e-4e89-b229-13f46d01ea1c)"><path d="M822.4,1341c-.4-4-4-4-4-6a4.5,4.5,0,0,1,4.4-3.5c2,0,4.1,2.4,6.5,4.1s6.1,4,6.5,7-4.1,11.6-8.9,11.6-3.5-9.1-4.5-13.2Zm39-5.4s-8,2.4-7.4,0,2.4-3.1,5-3.1a8.2,8.2,0,0,1,5.1-2.4,4.4,4.4,0,0,1,3,1s5.5-2.4,7.1-1,.4,1.4,1.4,3,2.4,4.5,2.4,6.1-6,5.1-10.9,4.4-4.6-7-5.7-8Zm47.2-9.1s2.4,1.4.4,3-8.5,4-14.6,4.4-11.5,1.1-11.5-1,5-6,8.1-7.1a6.4,6.4,0,0,1,5-2.4c2.5,0,12-1,14.6-1.4s4.4,1,3,3S908.6,1326.5,908.6,1326.5Zm13.9-62.5s-3,6.4-6.4,6.4-3.5-1.4-3.5-2.4,3.5-5.1,3.1-6.1-3.5,0-3.1-2.4,3.5-4.4,6.5-4a12.6,12.6,0,0,1,8.1-3.1c3.4,0,6.5,1,6.5,3.1s-4.1,6.4-5.5,7.4S924.6,1265.6,922.5,1264Zm-46.1,119.5s-4,.4-4,2.4,1,1,2.4.4a10.9,10.9,0,0,0,2.4-.4c.4.4.4,2.4,3.5,2.4,1.4,0,4.4-1,7-2.4s4.5-2,4.5-4-3-5.1-6.1-5.1a8,8,0,0,0-4.4,1s-1-2-4.5,0-3,2.1-2,3.1,1.2,2.6,1.2,2.6Zm-22.8,21c0-1,5-3,6.4-2.4s5.5,8.1,5.5,8.9-5.1,3.4-7.1,3.4-5.4-3.4-5.4-4,2.4-1,2.4-1.4-1.8-3.5-1.8-4.5Zm-16-29.5c1-.4,1-1.4,2.4-2.4a3.4,3.4,0,0,1,3-.4,5.2,5.2,0,0,1,3.5-2.5c2.4-.4,4.4,0,4,1.1,0,3,2,5,2,7.4s-1.4,5.5-6.4,7.5-12,1.4-13,1-2-4.4-1-6.4,3.9-4.3,5.5-5.3Z" style="fill:#82764f"/></g><g style="clip-path:url(#b7790ce7-ad1e-4e89-b229-13f46d01ea1c)"><path d="M844.1,1376.4s-3.5,2-3.5,3a9.7,9.7,0,0,0-.4,3.1c0,.6,4.5-.4,5.1-1s-1.2-4.1-1.2-5.1Z" style="fill:#6e6342"/></g><g style="clip-path:url(#b7790ce7-ad1e-4e89-b229-13f46d01ea1c)"><path d="M813.9,1366.9c2,.4,5.5,0,8.1,1s3.4,3.1,1.4,5.5-4,6-8.5,5.4-9.9-3-9.9-5,1-5.5,2.4-7.1,3.1-.6,6.5.2Z" style="fill:#585136"/></g><g style="clip-path:url(#b7790ce7-ad1e-4e89-b229-13f46d01ea1c)"><path d="M811.5,1368.9s-6.5,5.1-8.1,7.5-11.9,15-15,17.6a35.2,35.2,0,0,1,3.5-5,20.4,20.4,0,0,0-8.5,10.9c-2.5,7.5,13.5,11.5,24,14.5s14.6,4.1,14.6,4.1a109.5,109.5,0,0,1-9.9-18.4c-4-9.5-6.1-10.5-3.4-15s5-7.5,5-10.9-2.2-5.3-2.2-5.3Z" style="fill:#574f35"/></g><g style="clip-path:url(#b7790ce7-ad1e-4e89-b229-13f46d01ea1c)"><path d="M580.9,1384.9a12.5,12.5,0,0,0,4.5,0c3-.4,34.5-11.9,67.5-9.9a358.2,358.2,0,0,1,73,11.9c41.5,11,93.1,32.6,126.4,44.9,8.9,3.5,17.6,9.5,24.1,12,25.5,9.9,26.5,9.9,41.5,12.5,17.6,2.4,35.6-3.4,54.4-7.5,23-5,62.5-7.5,97.1-12.5a192.1,192.1,0,0,0,32.9-7.5s-27.5,27.5-93.4,37.4a287.6,287.6,0,0,1-80.5,1c-21-2-35-5-45.5-8.1s-36.4-12.5-66.6-20c-21-5.4-44.5-9.5-71.4-14.5C678.6,1412.4,606.6,1398.5,580.9,1384.9Z" style="fill:#252211"/></g><g style="clip-path:url(#b7790ce7-ad1e-4e89-b229-13f46d01ea1c)"><path d="M546.5,1128.4,378,971.1" style="fill:none"/></g><g style="clip-path:url(#b7790ce7-ad1e-4e89-b229-13f46d01ea1c)"><path d="M546.5,1116.5c-7.1-6.5-14.5-12.9-21.4-19.4s-14-13-21.1-19.4l-21-20.1c-3.4-3.4-7.1-6.4-10.5-9.9s-7.5-6.4-10.9-9.5c-27.9-26.5-56.1-53-83.6-79.5,28.6,26.1,56.5,52,85,78.5l9.9,9.9c3.4,3.5,7.1,6.5,10.5,9.9l21,19.5c7.1,6.4,14,12.9,21.1,20s13.9,13.5,21,20Zm-370.5-4s101.5,10.5,151.1,17.6c45.9,6.4,189.5,28.5,189.5,28.5M176,1112.5c28.5,2.4,57,5.4,85.5,8.5,14.6,1.4,28.5,3,42.5,4.4l21.4,2.4,21.1,3.1,84.9,13.5,42.5,7.1c14,2.4,27.9,5.1,42.5,7.5-14-1.4-28.5-3.5-42.5-5.5l-42.5-6-84.9-12.6c-7.1-1-14-2.4-21.1-3.4L304,1129c-14-1.4-28.5-3.4-42.5-5C233,1120.6,204.5,1116.9,176,1112.5Zm330.5,72.6s-108.4,27.5-145.1,38-145,43.1-145,43.1" style="fill:#cfb66c"/></g><g style="clip-path:url(#b7790ce7-ad1e-4e89-b229-13f46d01ea1c)"><path d="M506.5,1185.1c-24.1,7.1-48,13.9-72.4,20.4l-72.4,19.4L289.6,1246l-36,9.9c-11.9,3.4-24,6.4-36.4,9.9,12-4.1,24.1-8.1,36-11.6l36-11.5c24.1-7.5,48-14.5,72-22s48.6-12.6,73.1-18.4,47.7-11.8,72.2-17.2ZM231.6,1332.9c11.9-4.4,149.5-68.5,181.4-83.5,16-7.5,62.5-24.1,62.5-24.1" style="fill:#cfb66c"/></g><g style="clip-path:url(#b7790ce7-ad1e-4e89-b229-13f46d01ea1c)"><path d="M231.6,1332.9c10.5-4,20.4-8.9,30.5-13.5l30-14,60-28.9c20.1-9.5,39.5-20,60.1-28.9,10.5-4.5,21.1-8.1,31.6-11.6l15.9-5c5.5-1.4,10.6-3,16-4.5-20,9.5-41,17.6-61.1,26.9s-40.4,18-61,26.9l-61.1,26.9c-20.5,8.3-40.5,17.2-60.9,25.7Zm13.3,56.1s124.6-73.1,167.5-96.5c22.5-12.6,95.1-48.6,95.1-48.6" style="fill:#cfb66c"/></g><g style="clip-path:url(#b7790ce7-ad1e-4e89-b229-13f46d01ea1c)"><path d="M244.9,1389c21.1-13,42.5-26.1,64-39.5l31.9-19.4c10.9-6.5,21.5-12.5,32.6-19s21.4-13,32.5-19a113.3,113.3,0,0,1,16.6-8.5l17-8.5c22.5-10.9,44.9-22.1,68.6-31.6-21.4,13.6-43.5,25.1-65.5,37-11,6.1-22.1,11.6-33,17.6s-21.5,12.6-32.6,18.4-21.4,12.6-32.5,18.5l-33,18-66.6,36Zm261.6-129.1s-77.5,59.5-102.6,78.5-98.9,72.4-98.9,72.4" style="fill:#cfb66c"/></g><g style="clip-path:url(#b7790ce7-ad1e-4e89-b229-13f46d01ea1c)"><path d="M506.5,1259.9c-16,13.6-33,26.5-49.6,39L407,1337.4c-17,12.5-33.6,25.5-50.6,38s-34,24.5-52,36c16-13.5,33-26.1,50-38.4s34.6-24.5,50.9-37l50-38.5C472.5,1285,489.1,1272,506.5,1259.9Zm-88.4,141.6s18-15,40.4-36c27.9-26.1,62.1-59.5,73.1-65.5" style="fill:#cfb66c"/></g><g style="clip-path:url(#b7790ce7-ad1e-4e89-b229-13f46d01ea1c)"><path d="M418.1,1401.5c8.9-8.9,18.4-17.6,27.9-26.1l14.6-12.5c4.4-4.1,9.5-8.5,13.9-13,8.9-8.9,17.6-18.4,26.5-27.5a172.5,172.5,0,0,1,14-12.9,33,33,0,0,1,8.1-5.5c2.4-1.4,5-4,8.5-4.4-2.1,3-4.5,4.4-6.5,7s-4.5,4.5-6.5,6.5c-4.4,4.5-9.5,8.5-13.9,12.5-9.6,8.1-19.5,16-29,24.5s-18.4,17.6-27.9,26.1-19.8,17.2-29.7,25.3ZM539,1320.6s-65.9,64.5-79.5,75" style="fill:#cfb66c"/></g><g style="clip-path:url(#b7790ce7-ad1e-4e89-b229-13f46d01ea1c)"><path d="M539,1320.6a205.5,205.5,0,0,1-19,19.4l-20,19c-6.5,6.5-12.5,13-19.4,19.4s-13.6,12-21.1,17.6l19.5-19c6.4-6.4,13.5-11.9,20.4-18.4l19.4-19c6.7-6.7,13.2-13.1,20.2-19Zm3.1,35a421.1,421.1,0,0,1-21.5,49.5c-17,34-42.4,76.5-53.6,98.1" style="fill:#cfb66c"/></g><g style="clip-path:url(#b7790ce7-ad1e-4e89-b229-13f46d01ea1c)"><path d="M542.1,1355.6c0,7.5-2.1,13.9-4.5,20.4a169.4,169.4,0,0,1-8.1,19c-3,6.1-6.4,12.6-9.9,18.4s-7.5,12-10.5,18l-20.4,36c-7.1,12-14,24.1-21.5,35.6,5.1-12.9,12-25,18.4-37s13.6-24.1,20.1-36.4c3-6.1,6-12.5,8.5-19s6-12.5,8.5-18.4,5.4-12.5,8.4-18.4S537.4,1361.4,542.1,1355.6Z" style="fill:#cfb66c"/></g><g style="clip-path:url(#b7790ce7-ad1e-4e89-b229-13f46d01ea1c)"><path d="M614.1,1521.4s-20,26.5-18,60.1C601.5,1563.9,608.4,1537,614.1,1521.4Zm19,26.5s-7.1,72-13,107.4C628.4,1614.5,630.1,1617.9,633.1,1547.9Zm132.5,111.7s-30,88-30.6,112.4C741.5,1747,754,1695.6,765.6,1659.6Z" style="fill:#dec270"/></g><g style="clip-path:url(#b7790ce7-ad1e-4e89-b229-13f46d01ea1c)"><path d="M835.6,1516s48.5,80.1,84.9,148.4C910.6,1630.1,887.9,1566.9,835.6,1516Z" style="fill:#cbaf59"/></g><g style="clip-path:url(#b7790ce7-ad1e-4e89-b229-13f46d01ea1c)"><path d="M966,1633.9a1478.2,1478.2,0,0,1,72,145.4C1034,1744.9,1023.1,1686.1,966,1633.9Z" style="fill:#e3c677"/></g><g style="clip-path:url(#b7790ce7-ad1e-4e89-b229-13f46d01ea1c)"><path d="M1349.5,1752c8.1-5,24.1-32.5,38-39.4s24.5-8.5,37.1-22.5,15.9-23.4,43.4-35c38.5-16.5,12-38,12-38a114,114,0,0,1,13.5-11.5c9.9-7.5,21.5-16.6,20.5-32.6-1.5-26.9-6.5-65.9-28.6-88.6,21.5-4.4,62.5-7.5,88-13.9,29.6-7.5,43.1-18,43.1-18s-17-29,10.5-58.1,50-46.5,66.6-79.1c-19-2.4-48-12.5-122,15.6a83.6,83.6,0,0,1,11.5,6.5s-45.5,12.5-62.1,26.5c-28.9,24.4-32.5,44.5-63.9,59.4s-62.9,11-89,23.1-29.9,22.5-39.4,26.9c2,2.4-.4,6.5,3.4,9.9-2.4,3.5-16.6,26.5-30.9,26.5,1.4,5.5,13.5,9.5,13.5,9.5s-8.9,6.5-31.5,8.1c11.5,11.9,22.4,25.1,52.6,44.1-2.5,5.1-12.6,12.5-8.5,22s15.9,22.5,62.1,33c-23.5,1-51,6.5-88,1.4s-43.1-7-66-1.4c2.5,2.4,8.9,2.4,14.6,8.9-6.1.4-44.1-4.4-57,12.6s-19.5,46.5-18.4,65.9c-7.1,3.4-14,9.5-10.6,22s21.5,16.6,33,24.5,12.5,11.5,23.5,9.5,28.5-13.9,38.4-13.9,17,7.4,17,7.4,26.9-12.9,29.5-10.5.4,18,3.1,20.5,32.9-16.2,41-21.3Z" style="fill:#ecd592"/></g><path d="M1937.5,942.6c-126.4-326.5-438.9-387-438.9-387H607l3.4,332.5H788v742.6H607v331.9h866.9c208.9,0,376.4-210,376.4-210C2118.5,1372,1937.5,942.6,1937.5,942.6Zm-458.9,586.3s-68,98.1-142,98.1H1188.5l-3.4-738H1375s88,18.4,149.5,192.5C1524.5,1081.5,1606,1330.9,1478.6,1528.9Z" style="fill:#fff;opacity:0.800000011920929;isolation:isolate"/></svg>