<svg id="af264dd1-8d52-4996-86da-ded72a97bc95" data-name="Layer 1" xmlns="http://www.w3.org/2000/svg" viewBox="0 0 82.7 82.7"><title>litecoin</title><circle cx="41.3" cy="41.3" r="33.1" fill="#fff"/><path d="M41.3,0A41.4,41.4,0,1,0,82.7,41.3h0A41.3,41.3,0,0,0,41.3,0ZM42,42.7,37.7,57.2h23a1.2,1.2,0,0,1,1.2,1.2.4.4,0,0,1-.1.3l-2,6.9a1.6,1.6,0,0,1-1.5,1.2H23.2l5.9-20.1-6.5,2L24,44l6.6-2,8.3-28.2a1.5,1.5,0,0,1,1.5-1.1h8.9a1.1,1.1,0,0,1,1.2,1.1v.4L43.5,38,50,36l-1.4,4.8Z" transform="translate(0)" fill="#a5a8a9"/></svg>