<svg id="72081ffe-9ccc-4d6f-be49-29194c9f58a6" data-name="Слой 1" xmlns="http://www.w3.org/2000/svg" xmlns:xlink="http://www.w3.org/1999/xlink" viewBox="0 0 369 369">
    <defs>
        <linearGradient id="26e0c822-1783-4380-99d3-e9dfd771fc23" x1="184.5" y1="0.5" x2="184.5" y2="368.5" gradientUnits="userSpaceOnUse">
            <stop offset="0" stop-color="#515467" />
            <stop offset="1" stop-color="#343643" />
        </linearGradient>
        <linearGradient id="7d37695c-1c83-4801-9582-9296f72fc484" y1="184.5" x2="369" y2="184.5" gradientUnits="userSpaceOnUse">
            <stop offset="0" stop-color="#999" />
            <stop offset="1" />
        </linearGradient>
    </defs>
    <title>monobank</title>
    <rect x="0.5" y="0.5" width="368" height="368" rx="19.5" ry="19.5" style="stroke-miterlimit:10;fill:url(#26e0c822-1783-4380-99d3-e9dfd771fc23);stroke:url(#7d37695c-1c83-4801-9582-9296f72fc484)" />
    <path d="M23.4,159.1c.4-1.1,1.5-1,2.3-1.3h13c2.8,1.8.1,5,1.8,7.1,13.1-12,27.8-11.1,37.7,2.2,10.2-13.4,34.7-16,39.3,3l.3,3c.1,15,.1,30,.1,45-.2,1.3-.2,2.5-2.2,2.4-4-.1-8-.1-12,.1s-2.5-1.8-2.6-3.7c0-7.3-.1-14.6-.2-21.9a4.4,4.4,0,0,0,0-3.2,40.2,40.2,0,0,0,0-9.8c.2-7.2-2.3-10.5-8.3-10.9s-13.3,4.5-13.5,10V216c-.1,1.4-.1,2.7-.2,4.1a.7.7,0,0,0-.5.7h.1c-4.4-.1-8.8-.5-13.2.2l-3-.8-.3-2v-1a8.5,8.5,0,0,0,0-5c.5-10.7.5-21.3,0-32-.6-6.7-2.7-8.7-9.4-8.8l-1.8.2c-7,1.6-10.3,4.7-10.5,9.6-.4,11.2-.6,22.5,0,33.8a6.7,6.7,0,0,0,0,4.2l-.5,1.3-2.1.6h-13c-1.7-1.7-1-3.8-1-5.7-.2-14.5-.2-28.9-.3-43.4Z" style="fill:#fafafa" />
    <path d="M144.9,161.1c9.2-4.7,18.9-6,29-3.1,16.5,4.8,26.4,23.1,21.2,39.6-1.2,3.8-1,8.4-4.5,11.4-11.8,14-26.5,15.9-42.9,9.9-5.3-2.9-9.4-7.3-13.3-11.8-.3-1-.5-2-.8-2.9C126.7,187,130.4,172.6,144.9,161.1Zm2.5,28.2c0,13.3,10.4,21.4,21.6,17,6.3-2.4,10.2-8.8,10.2-16.9s-3.8-14.8-10.3-17.3C157.7,167.8,147.3,176.1,147.4,189.3Z" style="fill:#fafafa" />
    <path d="M292,215.9c-10.6-9.2-14.5-20.8-11.6-34.5s10.5-20.8,22.9-23.7,24.8-.7,34.3,9.4l2.9,3.4c5.3,9.9,6.6,20.2,3.3,31.1-.8,2.5-3.1,3.8-3.3,6.4l-4,5-1.9,1.8a45.3,45.3,0,0,1-16.9,7.2C308.5,222.6,299.8,221.1,292,215.9Zm4.6-26.6c0,10.7,6.4,18,15.8,18.1s16.2-7.5,16.2-18.2-6.7-18-15.9-18.1S296.6,178.4,296.6,189.3Z" style="fill:#fafafa" />
    <path d="M267.2,218.1c-.2,1.3-.5,2.5-2.3,2.4-4.8-.2-9.5.6-14.3-.4V183.6c-.1-7.3-2.1-10.6-7.4-12s-15,1.4-17.8,6.2c-.8,1.5-.5,2.9-.5,4.4-.1,11.3-.2,22.6,0,33.9.1,3.3-.5,4.6-4.2,4.6-12.3-.1-12.3,0-12.3-12,0-15.5.1-31-.1-46.4,0-3.6.9-4.7,4.4-4.4a83.4,83.4,0,0,0,10-.1c4.3,1.2.8,4.9,2.7,7.4,6.5-5.9,14.1-9.2,23.1-8.7s15.8,5.2,18.3,14.6l.4,44.9Z" style="fill:#fafafa" />
</svg>