<svg id="fff2ab8a-0b7a-4dbd-b434-ff0bd53cf9be" data-name="e473a7cd-e62c-40e8-8cd3-b5bf29068522" xmlns="http://www.w3.org/2000/svg" viewBox="0 0 512.2 512.2"><title>mtsbank</title><rect x="0.1" width="454.9" height="512.1" fill="#fff"/><path d="M.1,192.1V.1H507.6c3.7,0,4.6.8,4.6,4.6q-.2,251.6,0,503c0,3.7-.9,4.6-4.6,4.6H4.6c-3.8,0-4.6-.9-4.6-4.6Q.2,394.5.1,281.1l138.5.2c3,0,3.5-1.2,3.5-3.8-.1-14.7-.1-29.4-.1-44V212.3a11.3,11.3,0,0,1,2.1,4.6q8.1,30,16.1,60.2c.8,3,1.9,4.3,5.3,4.2,7.7-.3,15.3-.2,23,0,2.9.1,4-1,4.7-3.7,2.2-8.9,4.6-17.7,6.9-26.5,3.4-12.8,6.8-25.6,10.3-38.3h.9V218c0,19.7.1,39.3,0,59-.1,3.3.8,4.3,4.1,4.2,6.5-.3,13-.2,19.5,0,2.7,0,3.4-.8,3.4-3.4q-.2-41.2,0-82.5c0-2.7-.8-3.4-3.4-3.4q-20.2.3-40.5,0c-2.7,0-3.7,1-4.3,3.5-1.9,7.6-4,15.1-6.1,22.6l-7.3,27c-4.7-17.4-9.1-33.3-13.1-49.2-.8-3.1-2-3.9-5-3.9-12.9.2-25.7.2-38.5,0-3.8-.1-5.1.8-5,4.9.2,18.1.1,36.3.1,54.4,0,1.5.6,3.1-.8,4.8-5.4-20-10.8-39.7-15.8-59.5-1-3.6-2.4-4.6-6-4.6C61.8,192.2,30.9,192.1.1,192.1Zm394,0c-11.3.1-22.7-.7-33.9,2-14.9,3.5-27.2,10.7-33.2,25.7-10.1,25.5,2.8,51.1,29.5,58.3,19.7,5.3,39.8,2.2,59.7,3,2.4.1,2-1.6,2-3.1,0-5.8-.1-11.6.1-17.4.1-3-1.1-3.6-3.7-3.5h-34a59.2,59.2,0,0,1-11.9-1c-11.1-2.1-17.5-9.4-17.4-19.8s6.6-17.3,17.6-19.1a85.2,85.2,0,0,1,12.4-1h33.5c2.5.1,3.6-.4,3.5-3.2-.2-5.8-.2-11.7,0-17.5.1-3-1.1-3.5-3.8-3.5C407.7,192.2,400.9,192.1,394.1,192.1Zm-110.4,0c-11.5,0-23,.1-34.5-.1-3.3-.1-4.2,1-4,4.2q.3,8.3,0,16.5c-.2,3,1,3.6,3.7,3.5,5.5-.1,11,.2,16.5-.1,3.9-.3,5,.9,4.9,4.9-.2,18.6,0,37.3-.2,55.9,0,3.6,1.1,4.5,4.5,4.4a135.2,135.2,0,0,1,18,0c3.9.3,4.5-1.2,4.5-4.8-.2-18.6,0-37.3-.2-55.9,0-3.4.7-4.7,4.4-4.5,5.8.3,11.6,0,17.4.1,2.7.1,3.5-.8,3.4-3.4-.2-5.6-.3-11.3,0-17,.2-3.2-1-3.8-3.9-3.8C306.7,192.2,295.2,192.1,283.7,192.1ZM214.4,310.8c-6.2,0-12.3.1-18.5-.1-2.3,0-3.2.6-3.2,3.1.1,15.8.1,31.6.1,47.5,0,1.9.2,3.1,2.6,3.1,10.2-.2,20.4.2,30.5-.4s13.9-7.3,13.9-17-4.8-15.1-13.6-16a125.2,125.2,0,0,0-15-.4c-2.8,0-3.3-1.1-3.3-3.5s.3-3.7,3.2-3.6c5.4.2,10.7,0,16,0,9.3,0,9.1,0,9-9.2,0-3-1-3.6-3.7-3.6C226.4,310.9,220.4,310.8,214.4,310.8Zm142,26.3c0-6.8-.3-13.7.1-20.5.4-4.9-1.2-6.1-6-5.9-9.5.4-9.5.1-9.5,9.7s0,9.9-9.7,9.9c-7.7,0-7.7,0-7.7-8,0-12.5,0-12.5-12.8-11.6-2.1.2-2.8.8-2.8,2.9.1,16,.1,32,.1,48,0,1.4-.2,2.8,1.9,2.7,4.3-.1,9.2,1,12.7-.7s.5-6.5.9-9.9v-2c0-8,0-8,8.2-8s9.2,0,9.2,9c0,12.1,0,12,12,11.7,3-.1,3.5-1.2,3.5-3.8-.2-7.9-.1-15.7-.1-23.5Zm61.9,27.2c-6.1-8.8-11.5-16.7-17.1-24.5-1.8-2.5-2-4.3-.1-6.9,5.2-7,10.1-14.2,15.2-21.5-10.2-2.2-18.5-1.2-23,9.2a14.6,14.6,0,0,1-2.9,4.1c-1.8,1.8-2.3,6.4-5.6,5.1s-.9-4.8-.9-7.3c-.2-12.4-.1-12.3-12.6-11.8-2.7.1-3.2,1-3.2,3.5.1,15.6.1,31.3-.1,46.9,0,4,2.5,3.8,4.5,3.1,3.7-1.2,9.6,3.7,11.1-2.9,1.1-4.4.2-9.3.2-13.9.1-1.3-.6-3,1.1-3.5s2.2,1.4,2.9,2.4c3.5,5,7.1,10.1,10.5,15.2,1.3,1.9,2.7,3,5.2,2.9C408,364.2,412.5,364.3,418.3,364.3Zm-146-53.5a40.1,40.1,0,0,1-6-.1c-3.9-.5-5.7.9-6.9,4.9-3.7,13.1-7.9,26-11.9,39-3.1,10-3.1,9.9,7.5,9.7,1.9,0,3.6.3,4.5-2.5,2.6-7.7,2.8-7.7,11-7.7,2.3,0,4.7.2,7,0s3.8.5,4.1,3c.6,6.2,4,8.4,10,7.3a20.9,20.9,0,0,1,5,0c3.3.4,3.4-1,2.5-3.7-4.1-13-8-26-12-39C283.7,310.8,283.7,310.8,272.3,310.8Z" transform="translate(0 -0.1)" fill="#e20611"/><path d="M214.4,310.8c6,0,12,.1,18-.1,2.7,0,3.7.6,3.7,3.6.1,9.2.3,9.2-9,9.2-5.3,0-10.6.2-16,0-2.9-.1-3.2,1.2-3.2,3.6s.5,3.5,3.3,3.5a125.2,125.2,0,0,1,15,.4c8.8.9,13.6,6.7,13.6,16s-5.1,16.5-13.9,17-20.3.2-30.5.4c-2.4,0-2.6-1.2-2.6-3.1,0-15.9,0-31.7-.1-47.5,0-2.5.9-3.1,3.2-3.1C202.1,310.9,208.2,310.8,214.4,310.8Zm.5,31.1c-8.1.1-6.4-.5-7,4.6s1.2,6.6,5.9,5.8a38.8,38.8,0,0,1,5.9-.1c2.7-.1,3.8-1.7,4.2-4.1C224.6,343.3,222.6,341.9,214.9,341.9Z" transform="translate(0 -0.1)" fill="#fefbfb"/><path d="M356.4,337.1c0,7.8-.1,15.6.1,23.5,0,2.6-.5,3.7-3.5,3.8-12,.3-12,.4-12-11.7,0-9,0-9-9.2-9s-8.2,0-8.2,8v2c-.4,3.4,1.5,8.7-.9,9.9s-8.4.6-12.7.7c-2.1.1-1.9-1.3-1.9-2.7,0-16,0-32-.1-48,0-2.1.7-2.7,2.8-2.9,12.8-.9,12.8-.9,12.8,11.6,0,8,0,8,7.7,8,9.7,0,9.7,0,9.7-9.9s0-9.3,9.5-9.7c4.8-.2,6.4,1,6,5.9C356.1,323.4,356.4,330.3,356.4,337.1Z" transform="translate(0 -0.1)" fill="#fefdfd"/><path d="M418.3,364.3c-5.8,0-10.3-.1-14.8.1-2.5.1-3.9-1-5.2-2.9-3.4-5.1-7-10.2-10.5-15.2-.7-1-1.3-2.8-2.9-2.4s-1,2.2-1.1,3.5c0,4.6.9,9.5-.2,13.9-1.5,6.6-7.4,1.7-11.1,2.9-2,.7-4.5.9-4.5-3.1.2-15.6.2-31.3.1-46.9,0-2.5.5-3.4,3.2-3.5,12.5-.5,12.4-.6,12.6,11.8,0,2.5-1.5,6.4.9,7.3s3.8-3.3,5.6-5.1a14.6,14.6,0,0,0,2.9-4.1c4.5-10.4,12.8-11.4,23-9.2-5.1,7.3-10,14.5-15.2,21.5-1.9,2.6-1.7,4.4.1,6.9C406.8,347.6,412.2,355.5,418.3,364.3Z" transform="translate(0 -0.1)" fill="#fefbfb"/><path d="M272.3,310.8c11.4,0,11.4,0,14.8,10.9,4,13,7.9,26,12,39,.9,2.7.8,4.1-2.5,3.7a20.9,20.9,0,0,0-5,0c-6,1.1-9.4-1.1-10-7.3-.3-2.5-1.7-3.2-4.1-3s-4.7,0-7,0c-8.2,0-8.4,0-11,7.7-.9,2.8-2.6,2.5-4.5,2.5-10.6.2-10.6.3-7.5-9.7,4-13,8.2-25.9,11.9-39,1.2-4,3-5.4,6.9-4.9A40.1,40.1,0,0,0,272.3,310.8Zm-.6,13.6h-1l-3,9.9c-2.7,8.8-2.7,8.7,6.7,8,2.4-.1,2.6-.8,1.9-2.9-1.7-4.9-3.1-10-4.6-15Z" transform="translate(0 -0.1)" fill="#fefbfb"/><path d="M214.9,341.9c7.7,0,9.7,1.4,9,6.2-.4,2.4-1.5,4-4.2,4.1a38.8,38.8,0,0,0-5.9.1c-4.7.8-6.5-.9-5.9-5.8S206.8,342,214.9,341.9Z" transform="translate(0 -0.1)" fill="#e20611"/><path d="M271.7,324.4c1.5,5,2.9,10.1,4.6,15.1.7,2.1.5,2.8-1.9,2.9-9.4.7-9.4.8-6.7-8l3-9.9Z" transform="translate(0 -0.1)" fill="#e20611"/></svg>