<?xml version="1.0" encoding="UTF-8" standalone="no"?>
<svg
   xmlns:dc="http://purl.org/dc/elements/1.1/"
   xmlns:cc="http://creativecommons.org/ns#"
   xmlns:rdf="http://www.w3.org/1999/02/22-rdf-syntax-ns#"
   xmlns:svg="http://www.w3.org/2000/svg"
   xmlns="http://www.w3.org/2000/svg"
   xmlns:sodipodi="http://sodipodi.sourceforge.net/DTD/sodipodi-0.dtd"
   xmlns:inkscape="http://www.inkscape.org/namespaces/inkscape"
   width="67.09388mm"
   height="67.150261mm"
   viewBox="0 0 67.093877 67.150259"
   version="1.1"
   id="svg3819"
   inkscape:version="0.92.2 (5c3e80d, 2017-08-06)"
   sodipodi:docname="Payeer.svg">
  <defs
     id="defs3813" />
  <sodipodi:namedview
     id="base"
     pagecolor="#ffffff"
     bordercolor="#666666"
     borderopacity="1.0"
     inkscape:pageopacity="0.0"
     inkscape:pageshadow="2"
     inkscape:zoom="0.70710678"
     inkscape:cx="70.615546"
     inkscape:cy="45.39114"
     inkscape:document-units="mm"
     inkscape:current-layer="layer1"
     showgrid="false"
     inkscape:window-width="1920"
     inkscape:window-height="1001"
     inkscape:window-x="-9"
     inkscape:window-y="-9"
     inkscape:window-maximized="1"
     fit-margin-top="0"
     fit-margin-left="0"
     fit-margin-right="0"
     fit-margin-bottom="0"
     inkscape:measure-start="0,0"
     inkscape:measure-end="0,0" />
  <metadata
     id="metadata3816">
    <rdf:RDF>
      <cc:Work
         rdf:about="">
        <dc:format>image/svg+xml</dc:format>
        <dc:type
           rdf:resource="http://purl.org/dc/dcmitype/StillImage" />
        <dc:title></dc:title>
      </cc:Work>
    </rdf:RDF>
  </metadata>
  <g
     inkscape:label="Layer 1"
     inkscape:groupmode="layer"
     id="layer1"
     transform="translate(-104.66481,-110.70293)">
    <path
       style="fill:#0198dd;stroke-width:0.26458332"
       d="m 132.90392,177.46321 c -4.22384,-0.64465 -9.84381,-2.82472 -13.26847,-5.14703 -9.50733,-6.44705 -14.97064,-16.67674 -14.97064,-28.0315 0,-12.86033 7.11005,-24.37685 18.54251,-30.03429 9.58077,-4.74112 20.47555,-4.72945 30.02326,0.0322 8.0604,4.01985 14.16238,11.11577 16.94925,19.7101 2.10515,6.492 2.10515,14.09207 0,20.58407 -2.82094,8.69939 -9.27125,16.09875 -17.4147,19.97698 -6.12161,2.91534 -13.11271,3.93948 -19.86121,2.90951 z m 1.45521,-19.55248 v -8.0698 h 3.77726 c 4.72245,0 7.87614,-0.38165 9.58482,-1.15994 2.63874,-1.20193 4.99004,-4.38323 5.80969,-7.86051 0.44972,-1.90788 0.53332,-6.11833 0.16052,-8.0841 -0.72924,-3.84527 -2.75379,-6.79731 -5.68912,-8.29544 l -1.81442,-0.92605 -9.48625,-0.0866 -9.48625,-0.0866 v 21.31945 21.31945 h 3.57188 3.57187 z m 0,-21.29869 v -6.1654 l 4.07619,0.14877 c 3.24358,0.11838 4.31593,0.25482 5.2499,0.66796 1.91763,0.84826 2.84907,2.6377 2.83894,5.45403 -0.01,2.7468 -1.39203,4.81657 -3.62881,5.43418 -0.53479,0.14766 -2.67422,0.34889 -4.75428,0.44717 l -3.78194,0.1787 z"
       id="path4047"
       inkscape:connector-curvature="0" />
  </g>
</svg>
