<?xml version="1.0" encoding="utf-8"?>
<!-- Generator: Adobe Illustrator 22.1.0, SVG Export Plug-In . SVG Version: 6.00 Build 0)  -->
<svg version="1.1" id="Слой_1" xmlns="http://www.w3.org/2000/svg" xmlns:xlink="http://www.w3.org/1999/xlink" x="0px" y="0px"
	 viewBox="0 0 53.6 53.6" style="enable-background:new 0 0 53.6 53.6;" xml:space="preserve">
<style type="text/css">
	.st0{fill:#FFFFFF;}
	.st1{fill:#4D63A9;}
	.st2{fill:#D86A43;}
</style>
<title>psbank</title>
<rect x="9.6" y="9.5" class="st0" width="34.5" height="34.5"/>
<path class="st1" d="M53.6,13c0-7.2-5.8-13-13-13l0,0H22.1C16.3,0,11.2,3.9,9.6,9.5h22.3c8.5,0,12.2,4,12.2,13.4V44
	c5.6-1.6,9.5-6.7,9.5-12.6V13z"/>
<path class="st2" d="M0,40.5c0,7.2,5.8,13,13,13c0,0,0.1,0,0.1,0h18.4c5.8,0,10.9-3.9,12.5-9.5H21.8c-8.6,0-12.2-4-12.2-13.3V9.5
	C3.9,11.1,0,16.2,0,22.1V40.5z"/>
<path class="st1" d="M37.3,20.6L37.3,20.6c1.5-0.4,2.5-1.8,2.4-3.4c0-2.6-2-3.8-4.9-3.8h-5v6.1h-2.9c-3.9,0-4.7,2.8-4.7,4.3
	s1.2,3,3.5,4.2s3,1.1,3,2.6s-0.7,1.9-2.4,1.9h-3.1c0.4-0.7,0.7-1.6,0.7-2.4c0-1-0.4-4.9-5.8-4.9h-4.4v15.1h3v-6.7l1.2,1.2h8.3
	c3.9,0,5.7-2,5.7-4.3c0-0.7-0.1-1.4-0.4-2.1h3.1c4.8,0,5.9-2.4,5.9-4.3C40.5,22.3,39.1,20.8,37.3,20.6z M18.1,32.4h-1.4v-5h1.4
	c1.3-0.2,2.4,0.7,2.6,2c0,0.1,0,0.3,0,0.4c0.1,1.4-1,2.5-2.4,2.6C18.2,32.4,18.2,32.4,18.1,32.4z M29.8,23v3.7
	c-0.8-0.5-1.6-0.9-2.4-1.2c-1-0.4-2-0.9-2-2.2s0.4-1.5,2.2-1.5H31L29.8,23z M32.9,15.7h1.3c2.4,0,2.5,1.4,2.5,1.9s-0.4,1.8-2.4,1.8
	h-1.4L32.9,15.7z M34.6,26h-1.7v-4.2h1.7c2.1,0,2.7,1,2.7,2.1S36.5,26,34.6,26L34.6,26z"/>
</svg>
