<?xml version="1.0" encoding="UTF-8" standalone="no"?>
<svg
   xmlns:dc="http://purl.org/dc/elements/1.1/"
   xmlns:cc="http://creativecommons.org/ns#"
   xmlns:rdf="http://www.w3.org/1999/02/22-rdf-syntax-ns#"
   xmlns:svg="http://www.w3.org/2000/svg"
   xmlns="http://www.w3.org/2000/svg"
   xmlns:sodipodi="http://sodipodi.sourceforge.net/DTD/sodipodi-0.dtd"
   xmlns:inkscape="http://www.inkscape.org/namespaces/inkscape"
   width="138.94135mm"
   height="145.50507mm"
   viewBox="0 0 138.94135 145.50507"
   version="1.1"
   id="svg8"
   inkscape:version="0.92.2 (5c3e80d, 2017-08-06)"
   sodipodi:docname="qiwi.svg">
  <defs
     id="defs2" />
  <sodipodi:namedview
     id="base"
     pagecolor="#ffffff"
     bordercolor="#666666"
     borderopacity="1.0"
     inkscape:pageopacity="0.0"
     inkscape:pageshadow="2"
     inkscape:zoom="0.98994949"
     inkscape:cx="459.21638"
     inkscape:cy="345.45298"
     inkscape:document-units="mm"
     inkscape:current-layer="layer1"
     showgrid="false"
     fit-margin-top="0"
     fit-margin-left="0"
     fit-margin-right="0"
     fit-margin-bottom="0"
     inkscape:window-width="1920"
     inkscape:window-height="1001"
     inkscape:window-x="-9"
     inkscape:window-y="-9"
     inkscape:window-maximized="1" />
  <metadata
     id="metadata5">
    <rdf:RDF>
      <cc:Work
         rdf:about="">
        <dc:format>image/svg+xml</dc:format>
        <dc:type
           rdf:resource="http://purl.org/dc/dcmitype/StillImage" />
        <dc:title></dc:title>
      </cc:Work>
    </rdf:RDF>
  </metadata>
  <g
     inkscape:label="Layer 1"
     inkscape:groupmode="layer"
     id="layer1"
     transform="translate(-39.963917,-85.663006)">
    <path
       style="fill:#df8501;stroke-width:0.26458332"
       d="m 177.09614,229.39152 c -1.90417,-3.20499 -6.37705,-7.78413 -10.77318,-11.0291 -9.30911,-6.87147 -20.01479,-10.28411 -32.27917,-10.2896 -5.47981,-0.002 -7.46793,0.25474 -12.96458,1.6772 -8.85069,2.29043 -17.09978,2.64795 -26.981145,1.1694 -9.60943,-1.43786 -20.13616,-5.22243 -27.88157,-10.02398 -9.073963,-5.62516 -15.399065,-12.57906 -20.129487,-22.13062 -8.378945,-16.91859 -8.148376,-37.0156 0.629579,-54.8759 3.632148,-7.39025 7.786732,-13.09198 13.711048,-18.817 10.9465,-10.578248 24.35479,-17.029488 39.52828,-19.018558 4.002255,-0.52465 12.347875,-0.51958 16.413385,0.01 9.22991,1.20224 19.03006,4.75743 26.40574,9.57918 17.59713,11.503888 27.82319,31.298178 27.03117,52.323478 -0.19,5.04393 -0.68149,8.53851 -1.88003,13.36741 -1.94889,7.85206 -5.73711,15.95198 -10.67649,22.82833 l -1.48295,2.0645 -0.82913,-2.62127 c -1.64411,-5.19779 -4.32938,-8.90549 -8.98757,-12.4096 -3.25942,-2.45189 -7.45961,-4.02883 -10.82409,-4.06385 -1.409,-0.0147 -1.52827,-0.0537 -0.94987,-0.31055 1.13481,-0.50403 6.7766,-0.40194 8.59896,0.15559 1.75756,0.5377 5.03363,2.10324 5.75631,2.75077 0.25555,0.22898 0.52317,0.3578 0.5947,0.28627 0.26938,-0.26938 1.18305,-4.29026 1.57559,-6.93386 0.47159,-3.17599 0.53743,-9.84927 0.12961,-13.1363 -1.35308,-10.90589 -6.29262,-22.1625 -13.5229,-30.81704 -15.16259,-18.14944 -38.858725,-25.349958 -56.215665,-17.0822 -12.94465,6.16602 -21.26333,19.32459 -22.59143,35.73532 -1.018318,12.58296 3.15065,26.9709 10.72342,37.00865 2.03711,2.7002 6.3527,7.05122 8.99203,9.06585 8.96737,6.84489 19.57443,10.94742 31.061305,12.01369 l 1.95713,0.18166 -0.18168,-0.62607 c -0.75565,-2.60396 -1.11847,-5.63877 -1.00274,-8.3873 l 0.0483,-1.14664 1.30761,1.94039 c 3.00605,4.46075 5.38016,6.63363 10.36611,9.48749 4.51953,2.58688 7.46193,3.467 16.28041,4.86974 8.09723,1.28802 10.24334,1.76672 14.38766,3.20927 3.46909,1.20751 6.02653,2.499 9.51654,4.80579 7.54494,4.98698 12.91908,10.76738 15.87494,17.07502 1.77793,3.79401 1.21775,5.40308 -0.73613,2.11444 z m -39.41992,-34.3238 c -1.1038,-0.50006 -2.35532,-1.77251 -2.73633,-3.04421 -0.64019,-2.13677 0.85138,-4.5023 2.83891,-4.5023 2.64469,0 4.88073,2.65507 4.51739,5.36395 -0.28348,2.11352 -2.65797,3.07141 -4.61997,2.18256 z m 13.06861,-5.76087 c -0.86392,-1.13266 -1.73922,-3.20544 -1.92454,-4.55749 -0.11346,-0.82778 -0.0419,-1.17378 0.30169,-1.45895 0.38845,-0.32237 0.54708,-0.32086 1.15279,0.011 1.42694,0.78182 2.84507,4.80092 2.19635,6.22469 -0.39821,0.874 -0.94544,0.80449 -1.72629,-0.21925 z"
       id="path3710"
       inkscape:connector-curvature="0"
       sodipodi:nodetypes="ccccsssssscsssccssccccssscsssscccccscscsscccsscccscccc" />
  </g>
</svg>
