<svg id="ec955650-517c-453d-ba80-ea553a208bb2" data-name="Слой 1" xmlns="http://www.w3.org/2000/svg" xmlns:xlink="http://www.w3.org/1999/xlink" viewBox="0 0 2312.5 2500"><defs><linearGradient id="0040133f-99e7-41f6-831e-00d7342eb184" x1="167.25" y1="1298" x2="2017.25" y2="1298" gradientTransform="matrix(1.25, 0, 0, -1.25, -209.06, 2872.49)" gradientUnits="userSpaceOnUse"><stop offset="0" stop-color="#11aae2"/><stop offset="0.59" stop-color="#0880b7"/><stop offset="1" stop-color="#016197"/></linearGradient></defs><title>ripple</title><path d="M1528.7,67.3c-164.3,96.5-261.6,270.7-261.6,454.5,0,96.5,38.8,193.7,87.3,280.5,38.8,77.5,57.7,212.8-77.5,280.5-96.5,57.8-222.8,19.3-280.5-77.5-57.8-77.5-125.5-155-212.8-212.8-164.3-96.5-358-96.5-522.3,0S0,1063.7,0,1247.6s96.5,358,261.3,454.7,358,96.5,522.3,0c87.2-48.5,155-125.5,203-212.7,38.7-67.8,145.2-155,280.5-77.5,96.5,57.7,125.5,184,77.5,280.5-48.5,87.2-77.5,184-77.5,280.5,0,184,96.5,358,261.5,454.5s358.1,96.5,522.3,0,261.6-270.7,261.6-454.5-96.8-358-261.5-454.8c-87.3-48.5-184-67.7-290.3-67.7-87.3,0-203-57.8-203-203,0-116.3,87.2-203.1,203-203.1,96.5,0,203-19.2,290.3-67.7,164.2-96.5,261.5-270.8,261.5-454.5s-96.8-358-261.5-454.5C1973.5,19.3,1877,0,1789.7,0s-184,19.3-261,67.3" style="fill:url(#0040133f-99e7-41f6-831e-00d7342eb184)"/></svg>