<svg id="1135694b-d633-4a7a-8329-20192ffe2d4e" data-name="Слой 1" xmlns="http://www.w3.org/2000/svg" viewBox="0 0 152.2 181.9"><title>rshb</title><path d="M307.7,329.7c41.3,0,75-34.2,75-76.1s-33.7-76.2-75-76.2-75,34.2-75,76.2,33.7,76.1,75,76.1Z" transform="translate(-231.6 -149)" fill="#008a52"/><path d="M307.7,176.2c-41.9,0-76.1,34.7-76.1,77.3s34.2,77.4,76.1,77.4,76.1-34.8,76.1-77.4-34.2-77.3-76.1-77.3ZM293.7,305v22.2a66.6,66.6,0,0,1-7.7-1.9V258.1h11.1c2.8,0,4.8.5,6,1.7s1.7,3,1.7,5.9v31.7c0,2.8-.6,4.8-1.7,5.9s-5,1.8-7.7,1.8Zm14,23.6a73.4,73.4,0,0,1-10.6-.8V308.3c5.1,0,8.4-1.8,9.9-5.3v19.5a13.8,13.8,0,0,0,1.2,6.1Zm21-46.1h-7.6V265.2h-3.3v58.5h3.3V285.8h7.6v36.7a14.2,14.2,0,0,1-.3,3.1,70.4,70.4,0,0,1-16.6,2.9c-1.4-1.6-1.5-4-1.5-5.9V266.3c0-2.9.6-5,1.7-6.1s3.1-1.8,5.9-1.8,7-.4,9.2,1.8,1.6,3.2,1.6,6.1v16.2ZM353,312.7a73.1,73.1,0,0,1-8.1,5.6V286.1h-3.5v34.1a74.3,74.3,0,0,1-8.1,3.7V287.1c0-3.4.8-6,4.3-7.1l-3.8-20.9h7.6l1.3,22.8h1l1.2-22.8H353L348.7,280c3.6,1.2,4.3,3.4,4.3,7.1v25.6Zm-21-32.8v-13l2.2,11.6a6.9,6.9,0,0,0-2.2,1.4Zm23.7,2.1a6.2,6.2,0,0,0-3.6-3.5l3.6-18.7V282Zm25.1-18c-.1.3-.1.7-.2,1H368.2v3h1.9c3.6-.1,7.6-.1,9.5,2.5a77.3,77.3,0,0,1-7.6,19.9V274.1h-3.8v22.3a81.3,81.3,0,0,1-8.4,10.2l-.4.4V258.9h21.4V264Zm-51-8.1.8,3.7c-1.7-3-4.9-4.5-9.5-4.5h-3.3q-8.2,0-10.2,6.6c-1.2-4.6-4.7-6.9-10.6-6.9H282.7v69.3a74.4,74.4,0,0,1-27.2-17.5,75.9,75.9,0,0,1,0-106.1,72.8,72.8,0,0,1,104.3,0,75.4,75.4,0,0,1,21.7,53,19.3,19.3,0,0,1-.1,2.4Zm-36.1,42.6h3.4V264.6h-3.4v33.9Z" transform="translate(-231.6 -149)" fill="#fff"/><polygon points="12.5 63.8 12.7 66.3 13 68.6 13.6 70.8 14.2 73 15.1 75 16.1 77 17.2 78.9 18.4 80.7 19.7 82.5 21.1 84.2 24.2 87.6 27.4 90.8 30.7 94 34 97.1 37.2 100.3 40.2 103.7 41.7 105.4 43 107.2 44.3 109 45.3 110.9 46.4 112.9 47.2 115 47.8 117.1 48.4 119.4 48.7 121.7 48.9 124.1 48.7 144.6 48.6 142.2 48.3 139.8 47.7 137.6 47.1 135.4 46.2 133.4 45.2 131.3 44.1 129.5 42.9 127.6 41.6 125.9 40.1 124.1 37.1 120.8 33.9 117.5 30.6 114.4 27.3 111.3 24 108 21.1 104.6 19.6 103 18.3 101.1 17.1 99.3 16 97.4 15 95.4 14.1 93.4 13.5 91.2 12.9 89 12.6 86.6 12.4 84.2 12.5 63.8" fill="#fff"/><polygon points="9.1 89.7 9.3 92.3 9.7 94.8 10.3 97.2 11 99.4 12 101.6 13.1 103.7 14.2 105.8 15.6 107.7 17 109.6 18.6 111.4 21.9 114.9 25.4 118.3 29.1 121.7 32.6 125.1 36.1 128.5 39.4 132 41 133.9 42.4 135.7 43.8 137.7 44.9 139.7 46.1 141.8 47 144 47.7 146.3 48.3 148.6 48.7 151.1 48.9 153.7 48.7 175.4 48.6 172.8 48.2 170.3 47.6 167.9 46.9 165.7 46 163.5 44.8 161.4 43.7 159.3 42.4 157.4 40.9 155.6 39.3 153.7 36.1 150.2 32.5 146.7 28.9 143.4 25.3 140 21.8 136.6 18.5 133 16.9 131.2 15.5 129.3 14.1 127.3 12.9 125.3 11.9 123.2 10.9 121.1 10.2 118.7 9.6 116.4 9.3 114 9.1 111.3 9.1 89.7" fill="#fff"/><path d="M380.6,226.9h-48c-.5-1.2-1.2-2-2.1-2s-1.5.8-2,2h-1.8c-.4-1.2-1.2-2-2-2s-1.6.8-2.1,2h-1.3a8.7,8.7,0,0,0-7.1-13.7c-5.2,0-9.5,3.9-9.5,8.8,0,2.2,1.7,4.2,2.2,5.7a1.9,1.9,0,0,0-1.5,1.9,2,2,0,0,0,1.7,2c-.5,1.8-2.4,3.2-2.4,6.2,0,4.8,4.3,8.7,9.5,8.7a8.6,8.6,0,0,0,7.1-13.6h1.3c.5,1.2,1.3,1.9,2.1,1.9s1.6-.7,2.1-1.9h1.7c.5,1.2,1.2,1.9,2,1.9s1.6-.7,2.1-1.9h35.2v2h-1.6v3.9h1.6l1.6,2.2-3.2-.5v5.3h3.2v-2.4h4.7v2.4h3.2v-5.3l-3.2.5,1.6-2.2h1.6v-3.9h-1.6v-2h4.9a2.2,2.2,0,0,0,2.2-2.3v-1.4a2.2,2.2,0,0,0-2.2-2.3Zm-64.8-.7c1.5.1,2.7,1.6,2.7,3.6s-1.2,3.5-2.7,3.5l-.8,2c2.1,0,4.5.2,4.5,2.7a5.1,5.1,0,0,1-5.3,5.3c-3.3,0-6.1-2.4-6.1-5.3s.9-2.7,3.2-3.4l-.7-1.4,1.5-1.3a2.5,2.5,0,0,1-1.4-2.2,2.2,2.2,0,0,1,1.4-2.1l-1.3-1,.5-1.4c-2.3-.8-3.2-1.1-3.2-3.4s2.8-5.4,6.1-5.4a5.1,5.1,0,0,1,5.3,5.4c0,2.4-2.1,2.7-4.5,2.7l.8,1.7Z" transform="translate(-231.6 -149)" fill="#ffca38"/><path d="M304.3,237.8c0-2.9,1.7-4.4,2.3-6a2.3,2.3,0,0,1-1.6-2.2,2.3,2.3,0,0,1,1.4-2.1c-.6-1.4-2.1-3.3-2.1-5.5,0-5.1,4.5-9.2,9.9-9.2a9.2,9.2,0,0,1,7.9,13.7h.3c.5-1.2,1.3-2,2.3-2s1.8.8,2.3,2h1.2c.5-1.2,1.3-2,2.3-2a2.7,2.7,0,0,1,2.4,2h47.7v.8H332.3V227c-.4-1.1-1.1-1.7-1.7-1.7s-1.2.6-1.6,1.7l-.2.3h-2.2V227c-.5-1.1-1.1-1.7-1.7-1.7s-1.2.6-1.7,1.7v.3h-2.4l.5-.7a7.5,7.5,0,0,0,1.5-4.6c0-4.7-3.2-8.4-8.3-8.4s-9.1,3.8-9.1,8.4c0,2,1.6,4,2.2,5.6l.2.4H307a1.5,1.5,0,0,0,.1,3h.5v.4c-.6,2.1-2.4,3.4-2.4,6.1,0,4.6,4.1,8.4,9.1,8.4a8.1,8.1,0,0,0,8.3-8.4,7.5,7.5,0,0,0-1.5-4.6l-.5-.7h2.4v.3c.5,1.1,1.1,1.7,1.7,1.7s1.2-.6,1.7-1.7v-.3h2.2l.2.3c.4,1.1,1.1,1.7,1.6,1.7s1.3-.6,1.7-1.7v-.3h35.9v2.8h-1.6v3.2H368l2.3,3.1-3.7-.6v4.4H369v-2.4h5.5v2.4h2.4v-4.4l-3.7.6,2.3-3.1h1.4v-3.2h-1.6v-2.8h5.3a1.8,1.8,0,0,0,1.8-1.9v-1.4a1.9,1.9,0,0,0-1.8-1.9v-.8a2.7,2.7,0,0,1,2.6,2.7v1.4a2.7,2.7,0,0,1-2.6,2.7h-4.5v1.2h1.6v4.8h-1.8l-.9,1.2,2.7-.4v6.2h-4v-2.5h-3.9v2.5h-4V240l2.7.4-.9-1.2h-1.8v-4.8h1.6v-1.2H332.9c-.5,1.2-1.3,2-2.3,2a2.7,2.7,0,0,1-2.4-2H327c-.5,1.2-1.2,2-2.3,2s-1.8-.8-2.3-2h-.3a9,9,0,0,1,1.3,4.5,8.9,8.9,0,0,1-9.2,9.2c-5.4,0-9.9-4-9.9-9.1Zm9.9,5.9c-3.5,0-6.4-2.5-6.4-5.7a3.3,3.3,0,0,1,.8-2.6,5,5,0,0,1,2.2-1.1l-.6-1.2,1.3-1.2a2.7,2.7,0,0,1-1.2-2.2,3,3,0,0,1,1.1-2.2l-1-.8.4-1.3a6.5,6.5,0,0,1-2.2-1.1,3.3,3.3,0,0,1-.8-2.6c0-3.2,2.9-5.7,6.4-5.7a5.4,5.4,0,0,1,4.2,1.7,5.7,5.7,0,0,1,1.5,4,2.8,2.8,0,0,1-1.6,2.7,7.7,7.7,0,0,1-2.7.4l.5,1a3.9,3.9,0,0,1,2.8,4c0,1.9-1.2,3.7-2.8,3.9l-.5,1.1a9.2,9.2,0,0,1,2.5.5,2.5,2.5,0,0,1,1.7,2.6,6.2,6.2,0,0,1-1.4,4.1,5.4,5.4,0,0,1-4.2,1.7Zm-5.6-22c0,1.2.2,1.7.6,2a6.1,6.1,0,0,0,2.3,1.1h.4l-.6,1.5,1.6,1.3-.6.2a2,2,0,0,0,0,3.6l.6.2-1.7,1.6.7,1.5-.5.2a6.3,6.3,0,0,0-2.3,1,3,3,0,0,0-.5,2c0,2.7,2.4,4.9,5.6,4.9A4.5,4.5,0,0,0,319,238a1.7,1.7,0,0,0-1.2-1.9,6.1,6.1,0,0,0-2.8-.4h-.6l1.1-2.8h.3c1.2,0,2.3-1.3,2.3-3.1s-1.1-3.1-2.3-3.1v-.4l.4-.2-.4.2v.4h-.3l-1.2-2.6h.7a8.4,8.4,0,0,0,3-.4,1.8,1.8,0,0,0,1-1.9c0-2.8-1.7-5-4.8-5s-5.6,2.3-5.6,4.9Z" transform="translate(-231.6 -149)" fill="#fff"/><polygon points="50.1 91.9 50.1 103.9 68 86.3 68 74.4 50.1 91.9" fill="#ffca38"/><path d="M281.2,240.9v-.2l18.7-18.2v13l-18.7,18.3V240.9Zm.8,11,17.1-16.7V224.4L282,241.1v10.8Z" transform="translate(-231.6 -149)" fill="#fff"/><polygon points="50.1 48 50.1 60 68 42.5 68 30.6 50.1 48" fill="#ffca38"/><path d="M281.2,197v-.2l18.7-18.2v13L281.2,210V197Zm.8,11.1,17.1-16.8V180.5L282,197.2v10.9Z" transform="translate(-231.6 -149)" fill="#fff"/><polygon points="35.7 25.3 35.7 0 37.7 0 37.7 0.6 37.7 0 38.5 0 38.5 25.3 35.7 25.3" fill="#fff"/><polygon points="50.1 62.6 50.1 74.7 68 57.1 68 45.2 50.1 62.6" fill="#ffca38"/><path d="M281.2,211.6h0l18.7-18.3v13l-18.7,18.4v-13Zm.8,11.1,17.1-16.8V195.1L282,211.8v10.9Z" transform="translate(-231.6 -149)" fill="#fff"/><polygon points="41.8 30 41.8 0 43.7 0 43.7 0.6 43.7 0 44.5 0 44.5 30 41.8 30" fill="#fff"/><polygon points="37.7 0.6 36.6 0.6 36.6 24.6 37.7 24.6 37.7 0.6" fill="#ffca38"/><polygon points="43.7 0.6 42.6 0.6 42.6 29.3 43.7 29.3 43.7 0.6" fill="#ffca38"/><polygon points="47.8 33.1 47.8 0 49.7 0 49.7 0.6 49.7 0 50.6 0 50.6 33.1 47.8 33.1" fill="#fff"/><polygon points="50.1 77.3 50.1 89.3 68 71.7 68 59.8 50.1 77.3" fill="#ffca38"/><path d="M281.2,226.3v-.2l18.7-18.3v13.1l-18.7,18.3V226.3Zm.8,11,17.1-16.8V209.8L282,226.4v10.9Z" transform="translate(-231.6 -149)" fill="#fff"/><polygon points="49.7 0.6 48.6 0.6 48.6 32.5 49.7 32.5 49.7 0.6" fill="#ffca38"/><polygon points="53.9 30.6 53.9 0 55.8 0 55.8 0.6 55.8 0 56.6 0 56.6 30.6 53.9 30.6" fill="#fff"/><polygon points="48.3 91.9 48.3 103.9 30.4 86.3 30.4 74.4 48.3 91.9" fill="#ffca38"/><path d="M261.6,235.5v-13l18.6,18.1-.3.3.3-.3h.1v13.2l-18.7-18.4Zm.8-.3,17.1,16.7V241.1l-17.1-16.7v10.8Z" transform="translate(-231.6 -149)" fill="#fff"/><polygon points="59.9 25.9 59.9 0 61.9 0 61.9 0.6 61.9 0 62.7 0 62.7 25.9 59.9 25.9" fill="#fff"/><polygon points="55.8 0.6 54.7 0.6 54.7 29.9 55.8 29.9 55.8 0.6" fill="#ffca38"/><polygon points="65.6 21.5 65.6 0 67.5 0 67.5 0.6 67.5 0 68.3 0 68.3 21.5 65.6 21.5" fill="#fff"/><polygon points="61.9 0.6 60.7 0.6 60.7 25.3 61.9 25.3 61.9 0.6" fill="#ffca38"/><polygon points="67.5 0.6 66.4 0.6 66.4 20.9 67.5 20.9 67.5 0.6" fill="#ffca38"/><polygon points="48.3 48 48.3 60 30.4 42.5 30.4 30.6 48.3 48" fill="#ffca38"/><path d="M261.6,191.6v-13l18.6,18.1-.3.3.3-.3h.1V210l-18.7-18.4Zm.8-.3,17.1,16.8V197.2l-17.1-16.7v10.8Z" transform="translate(-231.6 -149)" fill="#fff"/><polygon points="48.3 62.6 48.3 74.7 30.4 57.1 30.4 45.2 48.3 62.6" fill="#ffca38"/><path d="M261.6,206.3V193.2l18.6,18.2-.3.2.3-.2h.1v13.1l-18.7-18.3Zm.8-.4,17.1,16.8V211.8l-17.1-16.7v10.8Z" transform="translate(-231.6 -149)" fill="#fff"/><polygon points="48.3 77.3 48.3 89.3 30.4 71.7 30.4 59.8 48.3 77.3" fill="#ffca38"/><path d="M261.6,220.9V207.8L280.2,226l-.3.3.3-.3h.1v13.1l-18.7-18.3Zm.8-.4,17.1,16.8V226.4l-17.1-16.6v10.7Z" transform="translate(-231.6 -149)" fill="#fff"/><polygon points="30 21.4 30 0 32 0 32 0.6 32 0 32.8 0 32.8 21.4 30 21.4" fill="#fff"/><polygon points="32 0.6 30.9 0.6 30.9 20.7 32 20.7 32 0.6" fill="#ffca38"/><polygon points="50.1 33.4 50.1 45.4 68 27.8 68 15.9 50.1 33.4" fill="#ffca38"/><path d="M281.2,182.4v-.2L299.9,164v13l-18.7,18.4v-13Zm.8,11,17.1-16.7V165.9L282,182.6v10.8Z" transform="translate(-231.6 -149)" fill="#fff"/><polygon points="48.3 33.4 48.3 45.4 30.4 27.8 30.4 15.9 48.3 33.4" fill="#ffca38"/><path d="M261.6,177V164l18.6,18.1-.3.3.3-.3h.1v13.2L261.6,177Zm.8-.3,17.1,16.7V182.6l-17.1-16.7v10.8Z" transform="translate(-231.6 -149)" fill="#fff"/></svg>