<svg id="3d968c0d-1581-4eb6-a3b0-881488e3e0b6" data-name="Ğ¡Ğ»Ğ¾Ğ¹ 1" xmlns="http://www.w3.org/2000/svg" viewBox="0 0 114.1 114"><title>russtandart</title><path d="M1.1,64.1v-12c1.1-.5.6-1.5.8-2.3C6.6,25.4,20.7,9.7,44.7,2.9c2.4-.7,5.1-.5,7.4-1.8h12c.2.8.8.6,1.4.7,26.3,3,47.3,24.9,49.4,51.6S99.7,105.7,74,112.8c-2.8.8-5.8.7-8.4,2.3H49.8c-.8-1.4-2.4-1.1-3.6-1.4-22.7-5.6-37-19.8-43.3-42.3C2.2,69,2.5,66.3,1.1,64.1Zm107.9-6C109,30.2,86,7.4,58.1,7.4S7.3,30.5,7.4,58.2,30.5,109,58.3,108.9,109.1,85.8,109,58.1Z" transform="translate(-1.1 -1.1)" style="fill:#4e4420"/><path d="M59.9,83.1,62,81.6c1.8,7-1.9,13.5-8.6,15.4-9.2,2.6-16.5-.9-23.9-7.5,7.1.1,13.3.4,19.4-1.9-4.6-1.7-9.3-1-13.7-2.4a35.8,35.8,0,0,0-5.4-1.4c-7.6-1-9.9-6.7-11.7-12.8-.1-.6-.6-1.2-.1-1.8s1.4.1,1.9.5a53,53,0,0,0,10.5,5.6c1.1.4,2.1,1.4,3.7.3A104.2,104.2,0,0,1,21,63.9c-5.6-6.1-5.1-12.3-2.1-19.6,2.4,4.4,3.8,8.9,7.4,12.1-.9-5.2-2-10.4-2.6-15.6s1.8-9.7,6.6-13.5V40.5c2.2-5.5,4.1-10.8,6.8-16s5.2-5.7,9.7-6.2l-3.1,5.3c1.1,1.2,1.7.1,2.3-.3,7.4-5.4,16.1-8,24.6-10.8,2-.6,3.5-.4,3.1,2.4s2.6,2.7,4,3.3c4.8,1.8,7.6,5.3,8.1,10.1s1.8,6.7,5.6,8.4c1.2.6,3.7.8,2.8,3.5s-1.4,5.1-5.2,5.2-5.5-2-8.9-.3c1.8,1,2.6,2.6,4.5,3.2a2.5,2.5,0,0,1,1.7,3.4c-.7,1.9-2.1,1.3-3.4.9-8.7-2.8-17.4-4.9-26.5-2.7-2.9.7-6.7,0-7.7,4.5-.3,1.3-2.8,1.1-4.3,1.6-6.7,2.1-8.7,4.7-8.7,10.8,5.3-2.7,10.1-3.4,14.4-2-1.4,1.4-3.7.1-4.5,2,1.2,1.1,3.3-.4,4.4,1.5L39,71c1.2,1.4,2.7,1.3,4.1,1.3h7.8c7.7.1,10.2,3.2,8.6,10.6l-.5.4C59.3,83.6,59.6,83.4,59.9,83.1Zm1.4-53.8a25.9,25.9,0,0,0-8.5,12.3l-.4.4h.3v-.5c1.4.8,2.4-1.3,3.8-.4-1.3,7.3-1.3,7.3,4.4,6.2-3.3-1.7-2.2-4.1-1.4-6.4s1-3.6-2.3-2.8c1.4-3.2,2.7-6,4-8.8v.2Zm3.6-8.1c3.1.3,3.9-1,3.6-3.7A8.6,8.6,0,0,0,64.9,21.2Z" transform="translate(-1.1 -1.1)" style="fill:#4e4420"/><path d="M53.2,57c-1,.2-2.2,1-3-.3s.2-1.7.5-2.5,1.6-.6,2.7-.5a67.8,67.8,0,0,0,8.7-.4c-2.2,2.6-5.1,3.9-6.8,7.1,10.5.6,19,4.4,24.7,13.1-2.5.8-4.2.4-6.2-1.8-4.7-5.2-10.9-8.2-17.6-10.1-2.2-.6-3.3-1.6-2-3.9l.2-.9Z" transform="translate(-1.1 -1.1)" style="fill:#4e4420"/><path d="M94.9,80.6A34.9,34.9,0,0,0,81.4,64.4c1.6-.9,2.7-.2,3.9.4,3.4,1.8,6.5,4.1,9.7,6.2s3.7,3.8,1.5,6.7A28.5,28.5,0,0,0,94.9,80.6Z" transform="translate(-1.1 -1.1)" style="fill:#4e4420"/><path d="M82,93.3a21,21,0,0,0-4.3-16.9c.7-.7,1.4-.3,1.9.2,2.1,2.5,4.5,4.8,6.3,7.4,3.4,4.8,2.1,7.5-4,9.2Z" transform="translate(-1.1 -1.1)" style="fill:#4e4420"/><path d="M100.6,63.5a137.3,137.3,0,0,0-13.4-10h5.7c1,0,1.8-.2,1.1,1.5s1.6,1.1,2.5,1.4C101.5,58,101.6,57.9,100.6,63.5Z" transform="translate(-1.1 -1.1)" style="fill:#4e4420"/><path d="M73.5,83.5a29.1,29.1,0,0,1-.2,10.6c-1.2,5.5-2.3,6.3-8.4,5.7C70.7,95.8,72.1,89.7,73.5,83.5Z" transform="translate(-1.1 -1.1)" style="fill:#4e4420"/><path d="M81.9,93.2l.2.5h-.3a.8.8,0,0,0,.2-.4Z" transform="translate(-1.1 -1.1)" style="fill:#4e4420"/><path d="M52.8,41.6a25.9,25.9,0,0,1,8.5-12.3h-.1l-4,8.8c3.3-.8,3,.7,2.3,2.8s-1.9,4.7,1.4,6.4c-5.7,1.1-5.7,1.1-4.4-6.2-1.4-.9-2.4,1.2-3.8.4Z" transform="translate(-1.1 -1.1)" style="fill:#fafaf9"/><path d="M64.9,21.2a8.6,8.6,0,0,1,3.6-3.7C68.8,20.2,68,21.5,64.9,21.2Z" transform="translate(-1.1 -1.1)" style="fill:#fafaf9"/><path d="M61.3,29.3l-.2.2v-.2Z" transform="translate(-1.1 -1.1)" style="fill:#fafaf9"/><path d="M52.7,41.5V42h-.3l.4-.4Z" transform="translate(-1.1 -1.1)" style="fill:#fafaf9"/><path d="M59.9,83.1c-.3.3-.6.5-.9.1l.5-.4Z" transform="translate(-1.1 -1.1)" style="fill:#fafaf9"/><path d="M53.2,57l1.2-.2-.2.9Z" transform="translate(-1.1 -1.1)" style="fill:#fafaf9"/></svg>