<svg xmlns="http://www.w3.org/2000/svg" xmlns:xlink="http://www.w3.org/1999/xlink" id="svg" version="1.1" width="268" height="284" viewBox="54, 0, 280,284"><g xmlns="http://www.w3.org/2000/svg" id="svgg"><ellipse xmlns="http://www.w3.org/2000/svg" id="svg_1" fill="#fff" rx="128" ry="128" cx="196" cy="143"/><path id="path0" d="M187.633 14.225 C 183.208 14.471,177.114 15.031,176.546 15.243 C 176.311 15.330,174.904 15.579,173.419 15.796 C 171.933 16.013,169.886 16.375,168.870 16.601 C 167.854 16.826,166.127 17.207,165.032 17.447 C 163.937 17.687,162.338 18.075,161.478 18.308 C 160.618 18.541,158.912 19.001,157.687 19.329 C 155.486 19.919,149.575 21.974,148.618 22.482 C 148.346 22.626,147.988 22.743,147.821 22.743 C 147.653 22.743,146.916 23.009,146.182 23.333 C 144.191 24.211,143.248 24.615,142.163 25.051 C 141.179 25.447,133.482 29.148,132.241 29.821 C 131.480 30.235,131.090 29.785,141.001 39.943 C 143.747 42.758,147.207 46.346,148.690 47.918 C 151.836 51.252,151.852 51.264,152.715 50.906 C 154.405 50.205,164.059 47.376,166.453 46.880 C 175.471 45.012,181.625 44.318,193.169 43.866 C 199.526 43.618,212.581 44.743,219.900 46.170 C 224.398 47.046,225.032 47.180,226.013 47.461 C 226.560 47.617,228.287 48.064,229.851 48.454 C 231.414 48.843,234.100 49.614,235.819 50.167 C 237.538 50.720,238.965 51.173,238.991 51.173 C 239.017 51.173,240.293 49.670,241.827 47.832 C 243.361 45.995,245.067 43.970,245.620 43.332 C 246.172 42.694,247.264 41.415,248.045 40.489 C 250.010 38.163,254.655 33.126,256.403 31.425 C 257.201 30.649,257.853 29.882,257.852 29.719 C 257.849 29.371,253.067 27.003,246.624 24.162 C 243.997 23.004,243.347 22.743,243.082 22.743 C 242.915 22.743,242.556 22.622,242.285 22.473 C 240.178 21.320,227.475 17.704,221.180 16.466 C 210.580 14.381,198.867 13.599,187.633 14.225 M301.683 68.740 C 301.507 69.320,300.857 71.841,300.238 74.343 C 299.007 79.318,298.069 82.772,296.766 87.136 C 296.299 88.699,295.655 90.874,295.334 91.969 C 295.014 93.063,293.931 96.421,292.927 99.431 L 291.102 104.903 291.635 105.969 C 291.928 106.556,293.266 109.148,294.608 111.728 C 299.173 120.508,302.524 129.113,304.327 136.689 C 304.725 138.361,305.171 140.178,305.318 140.725 C 307.178 147.653,308.454 159.263,308.488 169.581 C 308.498 172.708,308.375 175.906,308.213 176.688 C 307.494 180.171,307.292 180.945,306.597 182.879 C 306.191 184.008,305.742 185.316,305.598 185.785 C 304.950 187.902,301.497 194.361,299.215 197.726 C 295.437 203.298,294.143 204.931,289.530 209.950 C 288.236 211.357,286.945 212.772,286.659 213.094 C 284.845 215.142,276.236 222.517,272.779 224.983 C 262.216 232.521,252.460 238.151,241.917 242.794 C 238.269 244.401,229.860 247.619,229.311 247.619 C 229.186 247.619,228.681 247.799,228.188 248.019 C 227.075 248.516,223.493 249.609,222.976 249.609 C 222.766 249.609,222.371 249.726,222.100 249.869 C 221.639 250.112,219.490 250.635,214.357 251.753 C 213.184 252.009,211.449 252.398,210.501 252.619 C 209.553 252.840,208.337 253.021,207.800 253.022 C 207.263 253.023,205.544 253.222,203.980 253.463 C 195.923 254.707,184.549 253.717,173.703 250.828 C 171.380 250.209,165.685 248.464,165.032 248.171 C 164.719 248.031,163.824 247.706,163.042 247.450 C 155.706 245.044,138.893 237.180,133.268 233.525 C 132.685 233.146,132.135 232.836,132.044 232.836 C 131.954 232.836,130.910 232.196,129.725 231.414 C 128.539 230.633,127.531 229.993,127.485 229.993 C 126.886 229.993,117.251 223.081,112.864 219.504 C 104.304 212.525,101.156 209.498,94.232 201.595 C 93.017 200.207,89.837 195.988,89.837 195.763 C 89.837 195.689,89.251 194.774,88.535 193.728 C 87.818 192.682,87.158 191.618,87.067 191.364 C 86.976 191.110,86.672 190.571,86.392 190.166 C 81.336 182.856,80.262 175.473,81.869 159.062 C 82.336 154.293,84.111 143.852,84.985 140.725 C 86.522 135.231,88.035 130.160,88.418 129.211 C 88.545 128.898,88.860 127.954,89.118 127.114 C 89.729 125.123,92.371 118.391,93.538 115.849 C 94.041 114.755,95.212 112.223,96.141 110.223 C 98.350 105.468,98.352 105.204,96.248 99.502 C 94.001 93.416,92.343 88.361,91.538 85.146 C 91.421 84.677,91.040 83.269,90.692 82.018 C 89.590 78.060,88.707 74.342,88.075 70.992 C 87.684 68.919,87.713 68.903,85.286 72.596 C 81.378 78.543,77.105 86.372,74.946 91.543 C 74.652 92.246,74.060 93.596,73.630 94.543 C 73.200 95.490,72.759 96.672,72.650 97.170 C 72.540 97.667,72.333 98.147,72.189 98.237 C 72.044 98.326,71.926 98.596,71.926 98.837 C 71.926 99.077,71.747 99.678,71.528 100.170 C 70.485 102.516,68.821 108.401,66.935 116.418 C 65.626 121.983,64.689 129.906,64.065 140.683 C 63.793 145.393,64.870 158.016,66.106 164.606 C 66.881 168.732,67.981 173.622,68.665 175.977 C 70.736 183.109,71.162 184.397,72.392 187.250 C 72.605 187.743,72.779 188.288,72.779 188.462 C 72.779 188.636,72.903 189.000,73.055 189.272 C 73.206 189.543,73.860 191.045,74.507 192.608 C 80.959 208.199,93.040 224.986,106.657 237.281 C 111.727 241.859,114.160 243.768,121.535 248.954 C 123.294 250.191,127.532 252.772,130.775 254.583 C 132.704 255.660,142.343 260.412,142.599 260.412 C 142.731 260.412,143.342 260.671,146.269 261.968 C 147.960 262.718,153.787 264.678,158.920 266.225 C 180.161 272.623,207.981 272.798,229.851 266.669 C 231.102 266.318,232.552 265.930,233.073 265.805 C 233.595 265.680,234.362 265.449,234.779 265.291 C 235.196 265.133,236.496 264.718,237.669 264.369 C 238.842 264.021,239.993 263.639,240.227 263.521 C 240.462 263.402,241.294 263.086,242.075 262.818 C 242.857 262.550,243.881 262.164,244.350 261.961 C 244.819 261.758,246.354 261.110,247.761 260.522 C 260.689 255.119,274.237 246.388,284.708 236.711 C 289.828 231.980,292.398 229.323,296.966 224.040 C 297.933 222.922,302.140 217.336,304.384 214.191 C 311.831 203.755,318.782 188.438,322.566 174.129 C 327.054 157.157,327.700 133.519,324.103 117.839 C 323.959 117.214,323.564 115.423,323.224 113.859 C 322.884 112.296,322.435 110.441,322.226 109.737 C 320.445 103.730,320.016 102.344,319.634 101.350 C 319.394 100.725,319.029 99.765,318.824 99.218 C 316.427 92.817,313.113 85.484,310.729 81.308 C 307.736 76.066,305.000 71.684,303.325 69.451 L 302.002 67.686 301.683 68.740 M263.042 121.312 C 263.472 121.378,264.176 121.378,264.606 121.312 C 265.036 121.247,264.684 121.194,263.824 121.194 C 262.964 121.194,262.612 121.247,263.042 121.312 M231.201 149.734 C 231.475 149.806,231.923 149.806,232.196 149.734 C 232.470 149.662,232.246 149.604,231.699 149.604 C 231.151 149.604,230.928 149.662,231.201 149.734 " stroke="none" fill="#f30504" fill-rule="evenodd"/><path id="path1" d="M90.634 6.764 C 85.661 10.043,82.344 26.694,83.865 40.742 C 84.021 42.179,84.273 44.954,84.426 46.908 C 84.903 52.995,85.677 58.975,86.581 63.539 C 86.797 64.634,87.061 66.361,87.167 67.377 C 87.273 68.394,87.452 69.289,87.566 69.367 C 87.679 69.446,87.911 70.213,88.081 71.073 C 88.824 74.824,89.631 78.209,90.692 82.018 C 91.040 83.269,91.421 84.677,91.538 85.146 C 92.343 88.361,94.001 93.416,96.248 99.502 C 98.352 105.204,98.350 105.468,96.141 110.223 C 95.212 112.223,94.041 114.755,93.538 115.849 C 92.371 118.391,89.729 125.123,89.118 127.114 C 88.860 127.954,88.545 128.898,88.418 129.211 C 88.035 130.160,86.522 135.231,84.985 140.725 C 84.507 142.437,83.320 148.729,82.572 153.518 C 81.949 157.515,80.917 168.574,81.146 168.803 C 81.203 168.860,82.191 168.763,83.340 168.587 C 87.627 167.929,90.139 167.768,96.233 167.763 C 103.219 167.757,106.573 168.094,112.631 169.409 C 123.107 171.684,135.441 178.843,143.984 187.607 C 145.726 189.394,145.580 189.413,146.547 187.278 C 154.690 169.302,164.258 158.850,177.825 153.111 C 186.447 149.464,198.510 148.868,208.955 151.573 C 222.937 155.194,234.773 166.176,241.078 181.379 C 241.564 182.552,242.082 183.767,242.229 184.080 C 242.376 184.392,242.826 185.538,243.230 186.626 C 243.633 187.715,244.031 188.715,244.114 188.849 C 244.197 188.983,245.115 188.282,246.155 187.291 C 252.812 180.946,258.894 176.982,268.453 172.757 C 269.045 172.495,269.665 172.281,269.832 172.281 C 269.998 172.281,270.538 172.102,271.030 171.883 C 273.667 170.710,278.714 169.495,284.435 168.655 C 289.842 167.862,305.635 168.183,308.031 169.136 C 308.792 169.438,308.562 162.645,307.488 153.092 C 306.978 148.561,306.142 143.793,305.318 140.725 C 305.171 140.178,304.725 138.361,304.327 136.689 C 302.524 129.113,299.173 120.508,294.608 111.728 C 293.266 109.148,291.928 106.556,291.635 105.969 L 291.102 104.903 292.927 99.431 C 293.931 96.421,295.014 93.063,295.334 91.969 C 295.655 90.874,296.299 88.699,296.766 87.136 C 298.079 82.739,299.012 79.297,300.234 74.343 C 300.851 71.841,301.538 69.218,301.761 68.515 C 302.166 67.236,302.484 65.861,303.242 62.118 C 304.571 55.559,305.277 51.450,305.757 47.477 C 305.975 45.679,306.300 42.992,306.479 41.507 C 306.892 38.077,306.917 25.182,306.515 22.743 C 305.758 18.152,305.570 17.277,304.885 15.180 C 303.079 9.648,301.113 6.442,299.658 6.658 C 299.103 6.740,298.010 6.888,297.228 6.987 C 295.947 7.148,293.986 7.622,290.263 8.669 C 281.580 11.112,267.383 20.149,259.715 28.115 C 259.097 28.757,258.425 29.282,258.222 29.282 C 258.020 29.282,257.854 29.447,257.854 29.648 C 257.854 29.850,257.201 30.649,256.403 31.425 C 254.655 33.126,250.010 38.163,248.045 40.489 C 247.264 41.415,246.172 42.694,245.620 43.332 C 245.067 43.970,243.361 45.995,241.827 47.832 C 240.293 49.670,239.017 51.173,238.991 51.173 C 238.965 51.173,237.538 50.720,235.819 50.167 C 234.100 49.614,231.414 48.843,229.851 48.454 C 228.287 48.064,226.560 47.617,226.013 47.461 C 225.032 47.180,224.398 47.046,219.900 46.170 C 212.581 44.743,199.526 43.618,193.169 43.866 C 181.625 44.318,175.471 45.012,166.453 46.880 C 164.059 47.376,154.405 50.205,152.715 50.906 C 151.852 51.264,151.836 51.252,148.690 47.918 C 147.207 46.346,143.747 42.758,141.001 39.943 C 132.815 31.553,131.614 30.246,131.839 29.971 C 131.957 29.827,131.937 29.805,131.793 29.922 C 131.649 30.040,130.684 29.336,129.649 28.359 C 119.219 18.515,111.580 12.811,104.196 9.351 C 98.815 6.829,92.392 5.604,90.634 6.764 M189.130 14.134 C 189.562 14.200,190.202 14.198,190.551 14.130 C 190.901 14.063,190.547 14.010,189.765 14.012 C 188.984 14.014,188.698 14.069,189.130 14.134 M146.904 94.788 C 155.413 97.053,161.486 108.724,156.238 112.727 C 153.319 114.953,142.951 115.998,135.185 114.847 C 128.505 113.858,127.568 104.135,133.618 98.581 C 137.532 94.986,142.414 93.593,146.904 94.788 M248.517 94.823 C 257.625 97.184,262.315 107.576,256.824 113.230 C 253.597 116.552,235.361 115.786,232.046 112.189 C 230.777 110.812,230.047 108.104,230.573 106.721 C 230.723 106.327,230.846 105.737,230.846 105.411 C 230.846 104.346,232.343 101.728,233.936 100.007 C 238.364 95.224,243.296 93.471,248.517 94.823 M265.746 122.672 C 266.543 125.554,266.642 126.463,266.654 130.965 L 266.667 135.562 264.748 137.304 C 260.844 140.847,256.890 143.028,249.893 145.496 C 246.018 146.863,244.892 147.177,238.380 148.700 C 234.150 149.690,226.964 150.137,223.316 149.637 L 221.961 149.451 222.138 147.760 C 222.541 143.898,225.996 139.975,233.121 135.286 C 240.890 130.174,245.347 127.695,253.873 123.744 C 256.903 122.340,261.679 121.138,263.949 121.208 L 265.353 121.251 265.746 122.672 M131.912 122.152 C 134.311 122.648,136.005 123.177,137.882 124.016 C 141.079 125.445,145.712 127.803,148.969 129.659 C 150.924 130.774,153.209 132.062,154.047 132.523 C 164.006 137.996,169.995 143.721,170.004 147.775 C 170.019 154.286,137.295 146.753,127.221 137.927 C 124.124 135.214,123.532 128.832,125.860 123.241 C 126.730 121.152,126.914 121.119,131.912 122.152 M65.169 125.657 C 65.169 126.205,65.228 126.429,65.299 126.155 C 65.371 125.881,65.371 125.434,65.299 125.160 C 65.228 124.886,65.169 125.110,65.169 125.657 M325.871 129.495 C 325.874 130.121,325.933 130.343,326.001 129.990 C 326.069 129.636,326.066 129.124,325.995 128.852 C 325.924 128.581,325.868 128.870,325.871 129.495 M64.032 138.166 C 64.032 138.714,64.090 138.937,64.162 138.664 C 64.233 138.390,64.233 137.942,64.162 137.669 C 64.090 137.395,64.032 137.619,64.032 138.166 M326.477 142.004 C 326.477 143.881,326.523 144.611,326.579 143.628 C 326.635 142.644,326.634 141.109,326.578 140.216 C 326.522 139.323,326.476 140.128,326.477 142.004 M64.032 147.548 C 64.032 148.095,64.090 148.319,64.162 148.045 C 64.233 147.772,64.233 147.324,64.162 147.050 C 64.090 146.777,64.032 147.001,64.032 147.548 M325.871 155.650 C 325.874 156.276,325.933 156.498,326.001 156.145 C 326.069 155.791,326.066 155.279,325.995 155.007 C 325.924 154.736,325.868 155.025,325.871 155.650 M308.535 170.860 C 308.535 171.564,308.591 171.851,308.658 171.500 C 308.726 171.148,308.726 170.572,308.658 170.220 C 308.591 169.869,308.535 170.156,308.535 170.860 M103.767 211.603 C 103.767 211.652,104.183 212.068,104.691 212.527 L 105.615 213.362 104.780 212.438 C 104.001 211.577,103.767 211.383,103.767 211.603 M283.564 215.849 L 282.729 216.773 283.653 215.938 C 284.161 215.479,284.577 215.063,284.577 215.014 C 284.577 214.795,284.343 214.988,283.564 215.849 M98.792 229.709 C 99.402 230.334,99.966 230.846,100.044 230.846 C 100.123 230.846,99.687 230.334,99.076 229.709 C 98.465 229.083,97.902 228.571,97.823 228.571 C 97.745 228.571,98.181 229.083,98.792 229.709 M105.899 236.816 C 106.510 237.441,107.073 237.953,107.152 237.953 C 107.230 237.953,106.794 237.441,106.183 236.816 C 105.573 236.190,105.009 235.679,104.931 235.679 C 104.853 235.679,105.288 236.190,105.899 236.816 M282.996 238.308 L 282.161 239.232 283.085 238.397 C 283.593 237.938,284.009 237.522,284.009 237.473 C 284.009 237.254,283.774 237.447,282.996 238.308 M194.957 254.075 C 195.311 254.143,195.822 254.140,196.094 254.069 C 196.366 253.998,196.077 253.942,195.451 253.945 C 194.826 253.948,194.603 254.007,194.957 254.075 M187.989 271.127 C 188.262 271.199,188.710 271.199,188.984 271.127 C 189.257 271.056,189.033 270.997,188.486 270.997 C 187.939 270.997,187.715 271.056,187.989 271.127 " stroke="none" fill="#fba10b" fill-rule="evenodd"/><path id="path2" d="M126.591 121.758 C 125.063 123.813,124.020 130.663,124.792 133.585 C 124.941 134.150,125.131 134.948,125.214 135.357 C 125.532 136.922,129.787 140.207,134.725 142.700 C 144.581 147.675,163.983 151.572,168.743 149.531 L 170.085 148.956 169.928 147.435 C 169.547 143.736,166.160 140.142,158.303 135.098 C 156.790 134.128,155.481 133.333,155.392 133.333 C 155.303 133.333,153.854 132.519,152.171 131.524 C 145.750 127.726,138.864 124.276,135.437 123.140 C 131.852 121.952,127.010 121.195,126.591 121.758 M260.839 121.577 C 255.489 122.689,248.231 126.021,238.954 131.624 C 226.955 138.871,222.620 143.074,222.117 147.951 L 221.959 149.477 225.256 149.683 C 238.137 150.488,256.776 144.611,264.890 137.186 L 266.667 135.560 266.654 130.964 C 266.642 126.559,266.560 125.781,265.780 122.743 L 265.434 121.393 263.420 121.426 C 262.313 121.444,261.151 121.512,260.839 121.577 M185.643 167.319 C 181.878 168.494,180.245 173.482,181.366 180.384 C 182.227 185.684,188.622 191.539,196.233 193.994 C 196.678 194.137,196.731 194.607,196.731 198.399 L 196.731 202.645 195.770 203.212 C 195.241 203.523,194.389 204.400,193.876 205.159 C 193.363 205.918,192.902 206.589,192.853 206.650 C 192.408 207.208,181.964 206.749,177.825 205.991 C 175.545 205.573,168.841 205.383,168.497 205.727 C 168.397 205.827,168.694 206.343,169.159 206.872 C 170.370 208.252,171.001 209.643,171.552 212.154 L 172.036 214.357 173.160 214.357 C 174.401 214.357,174.412 214.372,175.267 217.200 C 175.845 219.109,177.494 222.697,178.214 223.613 L 178.743 224.286 179.279 223.092 C 179.753 222.037,179.810 221.230,179.770 216.181 L 179.725 210.465 181.192 210.584 C 181.998 210.649,183.810 210.824,185.217 210.972 C 193.563 211.852,203.889 211.852,211.230 210.972 C 212.402 210.831,214.346 210.635,215.548 210.536 L 217.734 210.356 217.680 215.839 C 217.629 221.026,217.660 221.386,218.262 222.511 C 218.921 223.743,219.474 224.299,219.474 223.727 C 219.474 223.546,219.660 222.995,219.887 222.502 C 220.115 222.009,220.870 220.135,221.567 218.337 L 222.833 215.068 224.337 214.611 L 225.841 214.154 226.738 210.901 C 227.230 209.112,227.723 207.174,227.831 206.596 L 228.029 205.544 223.822 205.550 C 220.357 205.555,219.414 205.648,218.466 206.078 C 216.780 206.845,214.470 207.044,209.918 206.817 L 205.867 206.614 204.574 204.949 C 203.826 203.985,202.976 203.206,202.557 203.101 L 201.833 202.920 201.912 198.619 L 201.990 194.318 203.127 193.793 C 211.848 189.766,214.448 185.914,214.480 176.972 C 214.504 170.173,213.648 168.612,209.196 167.339 C 206.985 166.707,187.655 166.691,185.643 167.319 M186.363 214.996 C 186.629 216.248,187.130 216.751,188.848 217.490 L 190.306 218.118 191.248 217.090 C 192.889 215.300,194.195 215.817,196.009 218.977 C 197.164 220.988,198.584 220.603,201.350 217.531 C 202.625 216.114,202.526 216.121,204.112 217.323 L 205.382 218.286 206.434 217.530 C 207.664 216.646,207.958 216.229,208.231 214.987 L 208.432 214.072 197.299 214.072 L 186.167 214.072 186.363 214.996 " stroke="none" fill="#060505" fill-rule="evenodd"/></g></svg>