<?xml version="1.0" encoding="utf-8"?>
<!-- Generator: Adobe Illustrator 25.1.0, SVG Export Plug-In . SVG Version: 6.00 Build 0)  -->
<svg version="1.1" id="Слой_1" xmlns="http://www.w3.org/2000/svg" xmlns:xlink="http://www.w3.org/1999/xlink" x="0px" y="0px"
	 viewBox="0 0 2000 2000" style="enable-background:new 0 0 2000 2000;" xml:space="preserve">
<style type="text/css">
	.tethetnew{fill:#53AE94;}
</style>
<g>
	<path class="tethetnew" d="M1123.5,884v166.1c-7,0.6-45.1,3.8-121,3.8c-63.2,0-108.9-2.7-124.9-3.8V884C633.4,894.8,451,937.3,451,988.2
		s182.3,93.4,426.6,104.3v-0.2c15.7,0.8,60.4,2.6,123.9,2.6c79.4,0,115.1-2.1,122-2.6v0.1l0-0.1c243.7-10.9,425.7-53.5,425.7-104.2
		S1367.3,894.9,1123.5,884z"/>
	<path class="tethetnew" d="M1000,0C447.7,0,0,447.6,0,1000s447.8,1000,1000,1000s1000-447.7,1000-1000S1552.3,0,1000,0z M1123.5,1132.8
		v476.5h-246v-476.5c-276.4-12.8-484.4-67.5-484.4-133.1S601,879.3,877.5,866.6V718H537.3V491.3h926.3V718h-340.2v148.8l0.1,0
		c276,12.7,483.5,67.5,483.5,133S1399.5,1120.1,1123.5,1132.8z"/>
</g>
</svg>
