<svg id="6756a050-23ca-4a06-858e-b55e669f45f0" data-name="Слой 1" xmlns="http://www.w3.org/2000/svg" viewBox="0 0 544.1 482.9"><title>tinkoff</title><path d="M537,225.9l7.1-22.5-23.4.7a55.4,55.4,0,0,1-30.2-10.4l3.1.3c14.4,0,28.2-8.6,33.8-20.9l10-22.1a198.4,198.4,0,0,1-24.1-1.4c-.1-.1-9.2-1.2-19.7-11.9-7.5-7.6-16.8-11.7-26.9-11.7a38.4,38.4,0,0,0-11.8,1.9,33.9,33.9,0,0,0,1.3-5.5c3.3-20.7-10.2-36.6-10.2-36.5L428.5,64.2,417.6,89.6c-.1.1-2.8,6.1-7.7,9a47.2,47.2,0,0,0-13-23.9C382.2,59.6,364.3,57.3,355,57.3a55.6,55.6,0,0,0-8.2.6l-21.2,4.2a69.7,69.7,0,0,1,8.6-20.3l11.7-18.2L316.4,27,307,7.2l-18.1,9.3L272.1,0,255.3,16.5,237.1,7.2,227.8,27l-29.5-3.4,11.8,18.2A72.6,72.6,0,0,1,218.6,62l-20.2-3.9-.7-.2a64.6,64.6,0,0,0-8.4-.6c-9.4,0-27.3,2.3-42,17.4a46.9,46.9,0,0,0-12.9,23.9c-4.9-2.9-7.6-8.8-7.6-8.8L115.9,64.3,98,86.1c-2.2,2.8-12.9,17.6-10,36.3a49,49,0,0,0,1.3,5.5,37.8,37.8,0,0,0-11.7-1.8c-10.1,0-19.4,4-27,11.6-10.5,10.7-19.5,11.9-19.4,11.9A137.6,137.6,0,0,1,6.9,151l10,22.1C22.4,185.4,36.3,194,50.6,194c1.1,0,2.1-.2,3.2-.3a55,55,0,0,1-30,10.5L0,203.4l7.2,22.5c3.6,11.5,15.7,30.7,38.9,32.8C43.6,269.2,38,281,25.7,286L8,293.3,17.7,310c5.4,9.1,18.2,19.6,36.5,19.6a53.8,53.8,0,0,0,11.4-1.2,108.9,108.9,0,0,0,3.5,12.4c5.4,16,.7,27.2.7,27.4L61,386.4l19.6,5.1a52.5,52.5,0,0,0,13.5,1.7,42.1,42.1,0,0,0,9.6-1.1,37.9,37.9,0,0,0,6.5-2.1,53.4,53.4,0,0,0,9.2,12.3c12.5,12.8,30.2,19.3,52.7,19.3h.1l16-.2-33.1,13.7,25.2,12a302.3,302.3,0,0,0,31,13.7l-3.2,8.5,8.7,4c.8.3,17.5,7.7,45.2,9.3,0,0,6.7.3,10.4.3s10.3-.3,10.3-.3c27.5-1.6,44-9,44.8-9.3l8.7-4-3.2-8.5a342.9,342.9,0,0,0,31.4-13.9L389.1,435,356,421.3l16.1.2c22.5,0,40.3-6.4,52.8-19.2a65.8,65.8,0,0,0,9.2-12.3,37.9,37.9,0,0,0,6.5,2.1,42.2,42.2,0,0,0,9.6,1,62.4,62.4,0,0,0,13.4-1.6l19.6-5.2-8.6-17.8c-.2-.5-4.8-11.7.6-27.8,1.4-4.1,2.5-8.2,3.5-12.3a54,54,0,0,0,11.5,1.2,42.8,42.8,0,0,0,36.5-19.8l9.6-16.5L518.5,286c-12.3-5.1-17.9-16.8-20.4-27.3C521,256.7,533.3,237.5,537,225.9ZM220.2,69.8h-.3l.2-.2Z" fill="#fff"/><path d="M272.1,68.8c-18.7,0-32.8,6.1-35.9,13.3l35.9,14.1L308,82.1C305,74.9,290.9,68.8,272.1,68.8Z" fill="#fff"/><path d="M272.5,441.5h-.7c-11.4,0-27.1-2.3-34.6-4.5l-9.1,24.4c6,2.2,26.3,6.2,44,6.2s38.1-4.1,44-6.2l-9-24.4C299.5,439.2,283.9,441.5,272.5,441.5Z" fill="#fff"/><path d="M341.2,417.2c-6.8,3.8-21.9,9.5-30.6,12.1l7.3,20.2A188,188,0,0,0,352,436.9l-15.3-5Z" fill="#fff"/><path d="M203.1,417.2l4.5,14.7-15.3,5a186.8,186.8,0,0,0,34,12.6l7.4-20.2C224.9,426.7,209.8,421,203.1,417.2Z" fill="#fff"/><path d="M272.1,45.4c14.2,0,28,3.4,38.7,9.3A110.6,110.6,0,0,1,315,43.4l-4,.5-4.3.4L305,40.5l-5.4-11.3-9.9,5.1-3.8,1.9-3.1-3L272.2,22.7,261.5,33.2l-3.1,3-3.8-1.9-9.9-5.1-5.3,11.3-1.8,3.8-4.3-.4-4-.5a110.6,110.6,0,0,1,4.2,11.3C244.2,48.8,258,45.4,272.1,45.4Z" fill="#fff"/><path d="M488.1,176.4a17.7,17.7,0,0,0,5.6.9c8,0,15.7-5.2,18.4-11.1,0,0-14.7-.8-30.5-16.8-5-5.1-10.3-6.7-14.9-6.7a23.3,23.3,0,0,0-12.4,3.8C473.4,156.5,477.3,172.7,488.1,176.4Z" fill="#fff"/><path d="M50.6,177.3a17.6,17.6,0,0,0,5.5-.9C67,172.7,70.9,156.5,90,146.5a23.8,23.8,0,0,0-12.4-3.8c-4.6,0-9.9,1.6-15,6.7-15.7,16-30.4,16.8-30.4,16.8C34.8,172.1,42.6,177.3,50.6,177.3Z" fill="#fff"/><path d="M493.3,242.1h.9c20,0,26.8-21.2,26.8-21.2h-.4a72.7,72.7,0,0,1-54.4-27.4c-13.8-17.4-25.1-32.8-47.5-38.8l-2.2-.4-.5-2.2c-.6-3.4,1.8-6.6,7.1-10C453.9,122,433,96.4,433,96.4s-8.8,20.5-28.5,20.5H403a49.3,49.3,0,0,1-6.6-.7l-3.6-.7s5.6-15.2-8-29.2A41.1,41.1,0,0,0,355,74a30.6,30.6,0,0,0-5.9.5c6.8,8.9,11.7,23.5,3.8,32.6s-23.4,8.2-23.4,19.8c0,4.9,4.7,10.6,13,15.8,24.9,15.6,49.7,36.4,60,64.2,12.9,34.6-1.6,57.6-22.3,70.8a28.8,28.8,0,0,0,15.9,6.7l5.5.3c19.9,0,30.2-9.3,30.2-9.3a52.3,52.3,0,0,1-12,24.7c-9.6,11-22.1,17.4-41.2,17.7,0,0-.7,8.8,7.8,16.5,5.4,4.8,17.9,6.4,17.9,6.4s-23.4,4.7-26,39.1c-1.4,18.6-6.2,25.1-6.2,25.1h.5c54.3,0,52.9-46.4,52.9-46.4a26.4,26.4,0,0,0,19,17.3,21.5,21.5,0,0,0,5.6.7,38.5,38.5,0,0,0,9.2-1.2s-8-16.6-.1-39.9c6.5-19.3,5.5-33.6,5.5-33.6s7.3,11,25.5,11.1h.1a25.6,25.6,0,0,0,21.8-11.4c-36.3-15-32.7-63.2-32.7-63.2S484.1,241.8,493.3,242.1Zm-10.9,50.4c-14.8-7.2-24.1-26.4-26.4-33.3-2.4,38-21.1,64.4-42.9,89.8-11.4,13.2-15.3,26-15.3,26s2.2-14.5,12-26.3c20.4-24.3,39.7-54.6,41.2-89.6,1-24.5-5.4-44.3-15.3-60.6,5.6,17,4.8,37.8-14,57.3,0,0,37.4-44.5-14.8-90-20.9-17.4-43.7-28.1-55.5-35.6,42.5,13.7,63.2-1.4,63.2-1.4-13.5,11.7-31.1,11.5-42,9.8,3,1.4,6,2.9,9.4,4.7,35.8,19.3,68,51.1,73.5,95.2v-.4C463.8,281.4,482.4,292.5,482.4,292.5Z" fill="#fff"/><path d="M139.9,340.7s12.5-1.6,17.9-6.4c8.5-7.7,7.9-16.5,7.9-16.5-19.1-.2-31.7-6.7-41.3-17.7a53.5,53.5,0,0,1-12-24.7s10.3,9.3,30.2,9.3l5.5-.3a28.9,28.9,0,0,0,16-6.7c-20.7-13.2-35.3-36.2-22.4-70.8,10.3-27.8,35.1-48.6,60.1-64.2,8.3-5.2,12.9-10.9,12.9-15.8,0-11.6-16.6-12-23.4-19.8s-2.9-23.8,3.9-32.6a30.6,30.6,0,0,0-5.9-.5,41.5,41.5,0,0,0-29.9,12.3c-13.6,14-7.9,29.2-7.9,29.2l-3.7.7a46.2,46.2,0,0,1-6.5.7h-1.5c-19.7,0-28.5-20.5-28.5-20.5s-21,25.6,9.9,45.7c5.3,3.4,7.6,6.6,7,10l-.5,2.2-2.2.4c-22.4,6.1-33.7,21.4-47.5,38.8a72.6,72.6,0,0,1-54.3,27.4h-.4S30,242.1,50,242.1h1c9.2-.3,13.9-3.8,13.9-3.8s3.5,48.2-32.7,63.2a25.6,25.6,0,0,0,21.7,11.4h.2c18.2-.1,25.5-11.1,25.5-11.1s-1.1,14.3,5.4,33.6c7.9,23.3,0,39.9,0,39.9a38.1,38.1,0,0,0,9.1,1.2,22.2,22.2,0,0,0,5.7-.7,26.4,26.4,0,0,0,18.9-17.3s-1.4,46.4,53,46.4h.4s-4.8-6.5-6.2-25.1C163.3,345.4,139.9,340.7,139.9,340.7Zm-8.7,8.3c-21.9-25.4-40.5-51.8-43-89.8-2.3,6.9-11.5,26.1-26.3,33.3,0,0,18.5-11.1,26.9-54.4v.4c5.5-44.1,37.7-75.9,73.5-95.2,3.3-1.8,6.4-3.3,9.3-4.7-10.9,1.7-28.4,1.9-42-9.8,0,0,20.7,15.1,63.2,1.4-11.7,7.5-34.6,18.2-55.4,35.6-52.2,45.5-14.9,90-14.9,90-18.8-19.5-19.5-40.3-14-57.3-9.9,16.3-16.2,36.1-15.2,60.6,1.4,35,20.8,65.3,41.1,89.6,9.9,11.8,12.1,26.3,12.1,26.3A82.4,82.4,0,0,0,131.2,349Z" fill="#fff"/><path d="M231.9,171.2a38.8,38.8,0,0,1,2.6,3.1l.6.7a37.1,37.1,0,0,1,2.3,3.2,3.5,3.5,0,0,1,.5.8c1,1.4,1.8,2.8,2.7,4.2,7.8,13.5,20.4,21.5,31.5,21.5s23.7-8,31.6-21.5c.8-1.5,1.7-2.9,2.6-4.3l.4-.6,2.5-3.3a1.8,1.8,0,0,1,.5-.7,40,40,0,0,1,2.7-3.1l.4-.4a31.9,31.9,0,0,1,15-8.9l-2.8-1.6h-.2l-11-6.4-11.3-6.4-30.3,16.4H272l-30.3-16.4-11.3,6.4-11,6.4h-.2l-2.8,1.6a32.6,32.6,0,0,1,15,8.8C231.6,170.9,231.7,171.1,231.9,171.2Zm27.9-1.3h25.7v8.8c-3-3.7-8.9-3-8.9-3v12.6s.2,6.2,2.4,8.9H266.3c2.2-2.6,2.4-8.9,2.4-8.9V175.7s-5.8-.7-8.9,3Z" fill="#fff"/><path d="M269.5,153V101.8l-32.8-11,8.7,49.6Zm-7-38.6v8.2l-1.6-.7a21.8,21.8,0,0,1-6.5-3.8c-6.7-5.2-6.8-10-6.8-10Z" fill="#fff"/><path d="M298.9,140.4l8.6-49.6-32.8,11V153Zm-17.1-26,14.9-6.2s-.1,4.7-6.9,9.9a22.2,22.2,0,0,1-6.4,3.8l-1.6.7v-8.2Z" fill="#fff"/><path d="M223.1,271.6a31,31,0,0,0,9.1,1.4l.3-1a8,8,0,0,0,.4-1.8,41.7,41.7,0,0,0,.8-8.1,11.7,11.7,0,0,1-4.3-4.5c-1.2-2.5-2.9-3.7-5.5-3.7s-6.8,2-8.3,2.9C214.4,263.9,219.6,270.3,223.1,271.6Z" fill="#fff"/><path d="M295.6,244.4c-6.1,6.6-18,18-18.5,18.6l-.8.8-37.6-.6a35.8,35.8,0,0,1-1.2,9.1l-.3,1.2,44.8,8c4.6-3.2,17.4-12.5,22.4-16.2a21,21,0,0,1-3.1-15.8A26.1,26.1,0,0,1,295.6,244.4Z" fill="#fff"/><path d="M300.7,199.4c-8.6,8.6-17,11.7-24.4,12.5l-4.1.2H272l-4.1-.2a19.8,19.8,0,0,1-4-.7,15.5,15.5,0,0,0,.6,9.8c1.6,3.5,4.8,6,9.5,7.7l1.5.6V231c0,.5.3,11.4,12.3,14.4,1.9-2,3.7-3.8,5-5.3-2.4-5.7-1.2-11.5,2.4-14.4-.2.6-1.7,14.9,9.8,20.2l1.9.9-.6,2c-.2.6-4,14.4,9.9,19.6l2.5.9-1.1,2.4c-.3.5-5.7,13.1,7.2,20.2h27.9V269.8c-9.9-1.2-14.1-9.1-15.2-14.7a16.6,16.6,0,0,1-10.7-6c-5.8-7.7-.8-14.7-.7-15.1s0,7.5,4.6,12.1a14.1,14.1,0,0,0,9.2,4.4h2l.2,2.1c0,.5,1.2,10.6,10.6,12.2V219.8c0-6.9,2.1-14,4.5-20.4Z" fill="#fff"/><path d="M225.5,220.1l-.7,28.6,3.3.5,8-27.5-4.1-8.4Z" fill="#fff"/><path d="M313.9,351.6h.8c5,1.4,6.3,19.3,15,20.9a10.6,10.6,0,0,0,2.4.2c2.5,0,4-1.1,5.6-3,0,0-4.4-6.8-7.7-11.5s-7.7-13.4-15.9-13.4h-.6a8.2,8.2,0,0,0-4.3,1.5,16.8,16.8,0,0,0-9.2-2.8c-5.1,0-9.1,2.3-11,2.3h-.1l-18.2-1.7c-2.9-.3-5.1-3.2-5.9-4.3l-.3-.5a7.1,7.1,0,0,0-.1-1.4c-.6-14.8-12.1-21.1-16.2-21.2,0,0,.5-2.8-.6-3.9l-4,4.8-13.2-6.5,9.4,10.9-8,8.8a2.4,2.4,0,0,0-.4,3l3.4,3,4.3-2.6a2,2,0,0,1,1.1-.2c1.2,0,3.1.3,4.7.3s3.3-.4,3.5-2.1c-.6,5.5-5.7,15.1-2.3,22.5l2.5,5.7-16.1-2.3L225,370.8c-2.4,4.2-2.7,8.8-.5,11.2l2.8,3.5s4-4.1,4.9-6.9l-1.3-1.4c-1.1-1.1-1-2.2-.4-3.5l4.7-7.7,19,4.4,1-1.7a5.7,5.7,0,0,1,5.2-2.8l2.6.3a81.1,81.1,0,0,0,15.1,1.6c6.4,0,12.7-1.1,16-4.9,6.9,10.2,20.9,11.8,19.8,16.9l-3.7,17.4c2.4-.1,4.8-.3,7-.6l3.5-18.1c.4-1.9.7-4.6.7-4.6s-4.6-4.2-6.4-7.7-1.1-7.1-3.4-13.2A2.7,2.7,0,0,1,313.9,351.6Zm-71-25.4a1.6,1.6,0,1,1,1.8-1.5A1.7,1.7,0,0,1,242.9,326.2Z" fill="#fff"/><path d="M217,368s6.3-2.5,6.8-4.4l-.8-2.1a2.9,2.9,0,0,1,.6-3.6l6.8-4.7,11.4,2.2a9.6,9.6,0,0,1-1.9-6l-10.8-2.3-10.2,6.2a9.9,9.9,0,0,0-3.3,11.7Z" fill="#fff"/><path d="M297.3,397.4H304s5.8-17,6.2-17.5a116.1,116.1,0,0,1-12.7-6.7c1.7,2.6,5.9,5.6,5.1,7.8Z" fill="#fff"/><path d="M352.9,296.8H191.4v60.3c0,24.7,18,40.2,44.5,40.2,22.2,0,28,.8,36.2,9,5.7-5.7,10.4-7.8,20.1-8.6l.2-.9,5.1-15.6-8.6-9.8c-3.3,1.1-6.1,1.3-10.8,1.3a98.2,98.2,0,0,1-16-1.6,5,5,0,0,0-1.7-.2c-.7,0-.7,0-.9.4l-1,1.6-1.9,3.1-3.5-.8-15.5-3.6-2.1,3.4.4.4,1.8,2.1-.8,2.7c-1.1,3.5-4.8,7.6-6,8.7l-3.8,4.1-3.5-4.4-2.7-3.3c-2.8-3.1-3.4-7.8-1.9-12.8h-.1l-4.4,1.8-2-4.3-1.4-3a14.7,14.7,0,0,1,4.9-17.7l12.5-7,11.9,2.3c.3-1.1.7-5.2,1-6.2h-.6l-6.9,2.5-6.6-4.5s-2.5-2.5-.2-4.9l6.4-9.6-16.2-20.2,24.9,10.1,1.6-2,3.4-4,3.8,3.6a6.8,6.8,0,0,1,2,3.6c6.8,2.6,19.1,10.5,20.2,23.2l-3.8,1.5h0a3.5,3.5,0,0,0,1.8,1.5l17.7,1.8,1.7-.5a27.4,27.4,0,0,1,9.4-1.8,21.8,21.8,0,0,1,9.3,2.1,14.1,14.1,0,0,1,4-.8h.8c9.5,0,14.3,7.1,18,12.7l2,2.8c3.3,4.7,7.6,11.5,7.8,11.8l2,3-2.5,2.8a11.8,11.8,0,0,1-9.3,4.6l-3.3-.3a13.1,13.1,0,0,1-2.8-.9,26.8,26.8,0,0,1-.5,3l-3.1,16.2c18.6-4.6,30.4-18.6,30.4-38.5Z" fill="#ffdd2d"/><path d="M191.4,291.9H317c-6.3-6.4-6.2-14.6-4.6-19.9a19.9,19.9,0,0,1-4.7-3c-4.9,3.6-19.9,14.4-23.8,17.1l-.8.6-49.3-8.8h-1l-4.8-.3a4.7,4.7,0,0,1-4.6,3.7h-.8a4.7,4.7,0,0,1-3.2-1.9,4.3,4.3,0,0,1-.8-3.6v-1.1c-5.1-3.5-9.7-11.5-7.7-19.8l.2-.9.8-.5a14,14,0,0,1,2.2-1.4l-3.6-.6a2.3,2.3,0,0,1-2-2.8,2.4,2.4,0,0,1,2.8-2l8.5,1.4.8-29.9,12.7-13.3,7.9,16.5L232.9,250l7.6,1.2a2.5,2.5,0,0,1,2,2.8,2.4,2.4,0,0,1-2.4,2h-.4l-6.1-1c0,.2.2.3.2.5a6.9,6.9,0,0,0,3,2.7l37.6.6,9.5-9.4a20.4,20.4,0,0,1-13.1-16.7c-5.2-2.2-8.8-5.5-10.7-9.7a20.1,20.1,0,0,1-.9-13.2,44,44,0,0,1-15.7-10.4H186.9c2.4,6.5,4.5,13.5,4.5,20.5Z" fill="#ffdd2d"/><path d="M243.1,323a1.6,1.6,0,0,0-.2,3.2,1.7,1.7,0,0,0,1.8-1.5A1.6,1.6,0,0,0,243.1,323Z"/><path d="M352.6,432.4l-9.3-3.5,2.6-9.6,2.8-10.4A222.1,222.1,0,0,1,309,424.5a108.6,108.6,0,0,1-11.6,2.7v7.1a170.7,170.7,0,0,1-24.9,2.1h-.7a171.2,171.2,0,0,1-25-2.1v-7.1a108.6,108.6,0,0,1-11.6-2.7,222.1,222.1,0,0,1-39.7-15.6l2.8,10.4,2.6,9.6-9.3,3.5-10.3,3.9c11.8,5.6,28.2,13.9,43.3,18L221,464s19.1,8.6,50.9,8.7h.4c31.9-.1,50.9-8.7,50.9-8.7l-3.6-9.7c15.1-4.1,31.6-12.4,43.4-18Zm-160.3,4.5,15.3-5-4.5-14.7c6.7,3.8,21.8,9.5,30.6,12.1l-7.4,20.2A186.8,186.8,0,0,1,192.3,436.9Zm79.8,30.7c-17.7,0-38-4.1-44-6.2l9.1-24.4c7.5,2.2,23.2,4.5,34.6,4.5h.7c11.4,0,27-2.3,34.6-4.5l9,24.4C310.2,463.6,289.9,467.6,272.1,467.6Zm45.8-18.1-7.3-20.2c8.7-2.6,23.8-8.3,30.6-12.1l-4.5,14.7,15.3,5A188,188,0,0,1,317.9,449.5Z"/><path d="M272.1,51.4c18.9,0,34.1,6.2,42.5,12.8a82.7,82.7,0,0,1,10.9-28L310.3,38l-8-16.9L287,29,272.1,14.4,257.3,29,242,21.1,234,38l-15.3-1.8a84.2,84.2,0,0,1,11,28C238.1,57.6,253.2,51.4,272.1,51.4Zm-38.8-7.5,4.2.4,1.9-3.8,5.3-11.3,9.9,5,3.8,2,3.1-3,10.6-10.5,10.7,10.5,3.1,3,3.8-2,9.8-5,5.4,11.3,1.8,3.8,4.3-.4,4-.5a91,91,0,0,0-4.2,11.3c-10.7-5.9-24.6-9.2-38.7-9.2s-27.9,3.3-38.7,9.2a107.8,107.8,0,0,0-4.1-11.3Z"/><path d="M494.2,248.6c24.5,0,32.7-24.7,33-25.8l2.7-8.7-9.1.3h-.1a65.9,65.9,0,0,1-49.4-24.9l-1.8-2.3c-12.5-15.8-24.4-30.8-45.6-37.7l2.7-2c11.3-7.3,17.8-16.3,19.5-26.6,2.4-15.7-7.6-28.1-8.1-28.6l-6.8-8.4-4.3,9.9c-.2.7-7.4,16.6-22.5,16.6h-1.1l-3-.2c.5-7.1-.8-18.1-10.8-28.4-12-12.4-26.8-14.2-34.5-14.2a55.8,55.8,0,0,0-7.2.5l-10.3,2,6.4,8.3c5,6.4,9.5,18.3,4.1,24.5-1.7,1.9-5.2,3.5-8.6,5.1-6.9,3.2-16.4,7.6-16.4,18.9,0,7.2,5.7,14.8,16,21.3,30.5,19.1,49.3,39,57.4,60.9,12.6,33.8-3.8,53-19.7,63.1l-7.2,4.6,6.3,5.7a35.7,35.7,0,0,0,19.7,8.4l6.2.3a63.9,63.9,0,0,0,18.4-2.7,52.9,52.9,0,0,1-5.2,7.4c-9.1,10.4-20.3,15.2-36.4,15.4h-6l-.5,6c0,1.2-.5,12.3,10.1,21.7a24.4,24.4,0,0,0,5.6,3.6c-7.2,6.4-14.5,17.5-15.9,36.6-1.1,15.9-5,21.8-5,21.9l-6.6,10,11.9.2c19.8,0,34.9-5.5,45.4-16.2a50.7,50.7,0,0,0,11.8-19.8,32.6,32.6,0,0,0,13.7,6.8,32.2,32.2,0,0,0,7.1.8,49.1,49.1,0,0,0,10.8-1.3l7.6-2.1-3.3-7c-.3-.6-6.7-14.8.2-35.1a108.1,108.1,0,0,0,5.2-22.7,41.6,41.6,0,0,0,19.6,4.6,32.6,32.6,0,0,0,27.6-14.6l3.7-6.4-6.9-2.9c-22.5-9.3-27.5-34.2-28.5-47.7a43.7,43.7,0,0,0,7,.8Zm17.9,52.9a25.6,25.6,0,0,1-21.8,11.4h-.1c-18.2-.1-25.5-11.1-25.5-11.1s1,14.3-5.5,33.6c-7.9,23.3,0,39.9,0,39.9a37.1,37.1,0,0,1-9.1,1.2,21,21,0,0,1-5.6-.7,26.4,26.4,0,0,1-19-17.3s1.4,46.4-53,46.4h-.4s4.8-6.5,6.2-25.1c2.6-34.4,26-39.1,26-39.1s-12.5-1.6-17.9-6.4c-8.4-7.7-7.8-16.5-7.8-16.5,19.1-.2,31.6-6.7,41.2-17.7a52.3,52.3,0,0,0,12-24.7s-10.3,9.3-30.2,9.3l-5.5-.3a28.8,28.8,0,0,1-15.9-6.7c20.7-13.2,35.2-36.2,22.3-70.9-10.3-27.7-35.1-48.5-60-64.1-8.3-5.2-13-10.9-13-15.8,0-11.7,16.6-12,23.5-19.8s2.9-23.8-3.9-32.6A30.6,30.6,0,0,1,355,74a41.1,41.1,0,0,1,29.8,12.3c13.6,14,8,29.2,8,29.2l3.6.7a49.1,49.1,0,0,0,6.6.6h1.5c19.7,0,28.5-20.4,28.5-20.4s21,25.6-9.9,45.6c-5.3,3.5-7.6,6.7-7,10.1l.5,2.2,2.2.4c22.3,6,33.6,21.3,47.5,38.8,20.9,26.5,50.6,27.3,54.3,27.3h.4s-6.8,21.3-26.8,21.3h-.9c-9.2-.4-13.9-3.9-13.9-3.9S475.8,286.5,512.1,301.5Z"/><path d="M451.2,152.2c9.1,4.8,14.4,11.3,19.1,17.1s8.9,11,15.7,13.2a24.6,24.6,0,0,0,7.6,1.2c10.3,0,20.5-6.2,24.4-14.8l3.9-8.6-9.5-.6c-.4,0-12.6-1.1-26.1-14.9-5.6-5.6-12.3-8.6-19.6-8.6a30.2,30.2,0,0,0-16.2,4.9l-8.7,6.1Zm15.5-9.5c4.6,0,9.9,1.6,14.9,6.7,15.8,16,30.5,16.8,30.5,16.8-2.7,5.9-10.4,11.1-18.4,11.1a18.2,18.2,0,0,1-5.6-.9c-10.8-3.7-14.7-19.9-33.8-29.9A23.3,23.3,0,0,1,466.7,142.7Z"/><path d="M455.5,238.1v.4c-5.5-44.1-37.7-75.9-73.5-95.3l-9.4-4.6c10.9,1.6,28.5,1.8,42-9.9,0,0-20.7,15.2-63.2,1.4,11.8,7.6,34.6,18.3,55.5,35.7,52.2,45.5,14.8,89.9,14.8,89.9,18.8-19.4,19.5-40.2,14-57.2,9.9,16.3,16.2,36.1,15.2,60.5-1.4,35.1-20.8,65.3-41.1,89.7-9.8,11.8-12,26.3-12,26.3s3.9-12.8,15.3-26c21.8-25.4,40.5-51.8,42.9-89.8,2.3,6.9,11.6,26.1,26.3,33.3C482.4,292.5,463.8,281.4,455.5,238.1Z"/><path d="M177.5,401.1c-.1,0-3.9-5.9-5.1-21.8-1.4-19.1-8.6-30.2-15.8-36.6a24.4,24.4,0,0,0,5.6-3.6c10.5-9.5,10.1-20.5,10-21.7l-.4-6h-6c-16.1-.2-27.3-5-36.4-15.5a47,47,0,0,1-5.2-7.3,63.3,63.3,0,0,0,18.4,2.7l6.1-.3a36.2,36.2,0,0,0,19.8-8.4l6.2-5.7-7.1-4.6c-16-10.1-32.3-29.4-19.8-63.1,8.2-22,26.9-41.8,57.5-60.9,10.3-6.5,15.9-14.1,15.9-21.4,0-11.2-9.4-15.6-16.4-18.8-3.4-1.6-6.9-3.2-8.6-5.1-5.4-6.2-.8-18.1,4.2-24.5l6.3-8.3-10.3-2a34.5,34.5,0,0,0-7.2-.6,48,48,0,0,0-34.5,14.3c-10,10.3-11.3,21.3-10.8,28.4l-3,.2h-1.1c-15.1,0-22.3-15.9-22.5-16.6L113,83.9l-6.9,8.4c-.4.5-10.4,12.9-8,28.5q2.6,15.6,19.5,26.7l2.7,2c-21.2,6.9-33.1,21.9-45.6,37.7l-1.8,2.3a65.8,65.8,0,0,1-49.4,24.9l-9.3-.3,2.8,8.7c.4,1.1,8.5,25.8,33,25.8h1.2a46.6,46.6,0,0,0,7-.8c-1,13.4-6,38.4-28.5,47.7l-6.9,2.8,3.7,6.5a32.7,32.7,0,0,0,27.6,14.6,43.5,43.5,0,0,0,19.6-4.6,109.5,109.5,0,0,0,5.2,22.7c6.8,20.3.4,34.5.2,35l-3.4,7.1,7.7,2a42.8,42.8,0,0,0,10.7,1.3,32.4,32.4,0,0,0,7.2-.8,31.5,31.5,0,0,0,13.7-6.8,49.8,49.8,0,0,0,11.8,19.9q15.8,16.1,45.3,16.1h12Zm-5.8,3.8c-54.4,0-53-46.4-53-46.4a26.4,26.4,0,0,1-19,17.3,21,21,0,0,1-5.6.7,37.1,37.1,0,0,1-9.1-1.2s7.9-16.6,0-39.9c-6.5-19.3-5.4-33.6-5.4-33.6s-7.3,11-25.5,11.1h-.2a25.6,25.6,0,0,1-21.7-11.4c36.2-15,32.7-63.2,32.7-63.2s-4.7,3.5-14,3.8H50c-20,0-26.8-21.2-26.8-21.2h.5A72.7,72.7,0,0,0,78,193.5c13.8-17.4,25.1-32.7,47.5-38.8l2.2-.4.5-2.2c.6-3.4-1.7-6.6-7-10-30.9-20.1-9.9-45.7-9.9-45.7s8.8,20.5,28.5,20.5h1.5a46.2,46.2,0,0,0,6.5-.6l3.7-.7s-5.7-15.2,7.9-29.2A41.5,41.5,0,0,1,189.3,74a30.6,30.6,0,0,1,5.9.5c-6.8,8.8-11.8,23.5-3.9,32.6s23.4,8.1,23.4,19.8c0,4.9-4.6,10.6-12.9,15.8-25,15.6-49.8,36.4-60.1,64.1-12.9,34.7,1.6,57.7,22.4,70.9a28.9,28.9,0,0,1-16,6.7l-5.5.3c-19.9,0-30.2-9.3-30.2-9.3a52.3,52.3,0,0,0,12,24.7c9.6,11,22.2,17.5,41.3,17.7,0,0,.6,8.8-7.9,16.5-5.4,4.8-17.9,6.4-17.9,6.4s23.4,4.7,26,39.1c1.4,18.6,6.2,25.1,6.2,25.1Z"/><path d="M50.6,183.7a21.6,21.6,0,0,0,7.6-1.2c6.8-2.2,11.2-7.6,15.8-13.2s9.9-12.2,19-17.1l9.4-5-8.7-6.1a31.4,31.4,0,0,0-16.1-4.8A26.8,26.8,0,0,0,58,144.9c-13.6,13.7-25.7,14.9-26.2,14.9l-9.4.5,3.8,8.7C30.1,177.5,40.4,183.7,50.6,183.7Zm12-34.2c5.1-5.2,10.4-6.7,15-6.7a23.6,23.6,0,0,1,12.3,3.7c-19,10.1-22.9,26.2-33.8,29.9a17.6,17.6,0,0,1-5.5.9c-8,0-15.8-5.2-18.4-11C32.2,166.2,46.9,165.4,62.6,149.5Z"/><path d="M93.3,259.1c-1-24.5,5.3-44.3,15.2-60.6-5.5,17-4.8,37.8,14,57.3,0,0-37.3-44.5,14.9-90,20.8-17.4,43.7-28.1,55.4-35.6-42.5,13.7-63.2-1.4-63.2-1.4,13.6,11.7,31.1,11.5,42,9.8l-9.3,4.6c-35.9,19.4-68,51.2-73.6,95.3v-.4c-8.3,43.3-26.8,54.4-26.8,54.4,14.7-7.2,24-26.4,26.3-33.3,2.4,38,21.1,64.4,42.9,89.8a81.7,81.7,0,0,1,15.4,26s-2.2-14.5-12.1-26.3C114.1,324.4,94.7,294.1,93.3,259.1Z"/><path d="M259.8,169.9v8.8c3.1-3.7,8.9-3,8.9-3v12.7s-.2,6.1-2.4,8.8H279c-2.2-2.6-2.4-8.8-2.4-8.8V175.7s5.9-.7,8.9,3v-8.8H259.8Z"/><path d="M254.4,118.1a20.5,20.5,0,0,0,6.5,3.8l1.5.7v-8.2l-14.9-6.2S247.7,112.9,254.4,118.1Z"/><path d="M289.8,118.1c6.8-5.2,6.9-9.9,6.9-9.9l-14.9,6.2v8.2l1.6-.7A20.8,20.8,0,0,0,289.8,118.1Z"/><path d="M316.7,84.6c0-12.5-21.2-23.7-44.5-23.7H272c-23.3,0-44.5,11.2-44.5,23.7l.5,3.1,9.3,53.1-9.3,5.4-24.3,14.1h.1s-5.4,2.8-8,4.5c-9.2,6.4-11.1,15.6-5.8,19.5,1.4-7.6,7.4-15.5,18.7-15.5,8.1,0,14.3,4.2,19.3,10.4a46.7,46.7,0,0,1,3.6,5.1c1.4,2.3,2.8,4.3,4.2,6.2H173.4c4.6,9.2,9,18.9,9,29.4V357.1c0,33.3,25.7,49.1,53.5,49.1,21.5,0,24.4-1,36.2,10.8,11.8-11.8,14.7-10.8,36.2-10.8,27.9,0,53.5-15.8,53.5-49.1V219.9c0-10.5,4.4-20.2,9-29.4H308.4c1.4-1.9,2.8-3.9,4.2-6.2a46.7,46.7,0,0,1,3.6-5.1c5.1-6.3,11.2-10.4,19.3-10.4,11.3,0,17.3,7.9,18.7,15.5,5.3-3.9,3.4-13.1-5.9-19.5-2.5-1.7-7.9-4.5-7.9-4.5h0l-24.2-14.1-9.3-5.4,9.3-53.1Zm-80,6.2,32.8,11V153l-24.1-12.7Zm6.8,108.6c5.4,5.4,10.6,8.7,15.7,10.5a19.2,19.2,0,0,0,.9,13.1c1.9,4.3,5.5,7.5,10.7,9.7a20.1,20.1,0,0,0,13.1,16.7c-4,4.1-8,7.9-9.6,9.4l-37.5-.5a7.2,7.2,0,0,1-3-2.8c-.1-.2-.2-.3-.2-.5l6.1,1h.4a2.4,2.4,0,0,0,2.4-2,2.5,2.5,0,0,0-2-2.8l-7.6-1.1,8.4-28.7-7.9-16.6-12.7,13.3-.8,29.9-8.5-1.3a2.4,2.4,0,0,0-2.8,2,2.5,2.5,0,0,0,2,2.8l3.6.5-2.2,1.4-.8.5-.2.9c-2,8.4,2.7,16.3,7.7,19.9l-.2,1a4.6,4.6,0,0,0,.9,3.6,5,5,0,0,0,3.1,2h.8a4.9,4.9,0,0,0,4.7-3.7l4.8.3h1l49.3,8.8.8-.5L307.7,269a18.3,18.3,0,0,0,4.7,3.1A19.9,19.9,0,0,0,317,292H191.4V219.9c0-6.9-2.1-14-4.5-20.4h56.6Zm60.9,65.9c-5,3.7-17.8,13-22.5,16.2l-44.7-8,.3-1.2a35.8,35.8,0,0,0,1.2-9.1l37.6.6.7-.8c.6-.5,12.5-12,18.6-18.6a25.3,25.3,0,0,0,5.6,5.1A21.6,21.6,0,0,0,304.4,265.3Zm-75-7.7a11.7,11.7,0,0,0,4.3,4.5,41.7,41.7,0,0,1-.8,8.1c-.1.7-.3,1.3-.4,1.8l-.3,1a31,31,0,0,1-9.1-1.4c-3.5-1.3-8.7-7.7-7.5-14.8,1.5-.9,5-2.9,8.3-2.9S228.2,255.1,229.4,257.6Zm-4.6-8.9.7-28.6,6.5-6.8,4.1,8.4L228,249.2ZM304,397.3l-6.7.2,5.3-16.5c.8-2.3-3.4-5.3-5.1-7.8a136.5,136.5,0,0,0,12.7,6.6C309.8,380.4,304,397.3,304,397.3Zm16.7-18.7-3.5,18c-2.2.3-4.5.5-7,.6l3.7-17.3c1.1-5.2-12.8-6.8-19.7-16.9-3.4,3.7-9.7,4.8-16.1,4.8a81.1,81.1,0,0,1-15.1-1.6l-2.6-.2a5.3,5.3,0,0,0-5.1,2.8l-1.1,1.6L235.3,366l-4.8,7.8a2.8,2.8,0,0,0,.4,3.5l1.3,1.4c-.9,2.7-4.8,6.9-4.8,6.9l-2.9-3.5c-2.2-2.5-1.8-7.1.5-11.3l7.5-12.6,16.1,2.3-2.5-5.7c-3.4-7.4,1.8-17,2.3-22.5-.2,1.7-1.7,2.1-3.5,2.1s-3.4-.3-4.6-.3-.9,0-1.1.2l-4.4,2.6-3.4-3a2.5,2.5,0,0,1,.4-3l8-8.8-9.4-10.9,13.2,6.5,4-4.8c1.1,1.1.6,3.9.6,3.9,4.1.1,15.6,6.4,16.2,21.2a6.1,6.1,0,0,1,.1,1.4l.3.5c.8,1.1,3,4,5.9,4.2l18.2,1.8h.1c2,0,5.9-2.3,11-2.3a16.8,16.8,0,0,1,9.2,2.8,8.2,8.2,0,0,1,4.3-1.5h.6c8.2,0,11.6,7.3,16,13.4,3.3,4.6,7.7,11.5,7.7,11.5-1.7,1.9-3.2,3-5.7,3l-2.3-.2c-8.8-1.6-10.1-19.5-15-20.9H314a2.9,2.9,0,0,0-2.4,1.4c2.3,6.1,1,8.5,3.4,13.2a32.1,32.1,0,0,0,6.5,7.7C321.5,374,321.1,376.6,320.7,378.6ZM223,361.5l.8,2.1c-.5,1.8-6.8,4.4-6.8,4.4l-1.4-2.9a10,10,0,0,1,3.3-11.8l10.2-6.2,10.8,2.3a9.3,9.3,0,0,0,1.9,6l-11.4-2.2-6.8,4.7A2.9,2.9,0,0,0,223,361.5Zm99.4,34.2,3.1-16.2c.2-.9.4-2.1.6-3a11.5,11.5,0,0,0,2.8.9l3.2.3c4.8,0,7.5-2.5,9.4-4.6l2.4-2.8-2-3c-.2-.3-4.5-7.1-7.8-11.8a27.5,27.5,0,0,1-1.9-2.8c-3.8-5.6-8.5-12.7-18.1-12.7h-.8a13.9,13.9,0,0,0-4,.9,21.8,21.8,0,0,0-9.3-2.1,27.4,27.4,0,0,0-9.4,1.8,5.9,5.9,0,0,1-1.7.4l-17.7-1.7a4.9,4.9,0,0,1-1.9-1.5h0l3.9-1.5c-1.1-12.8-13.4-20.6-20.2-23.2a7.6,7.6,0,0,0-2-3.6l-3.9-3.6-3.3,4-1.7,2-24.8-10.1,16.1,20.2-6.3,9.6c-2.4,2.4.2,4.9.2,4.9l6.6,4.5,6.8-2.5h.7c-.3,1-.8,5-1,6.2l-11.9-2.3-12.5,7a14.5,14.5,0,0,0-4.9,17.7l1.4,3,2,4.2,4.3-1.8h.2c-1.6,4.9-.9,9.7,1.9,12.8l2.6,3.3L227,393l3.9-4.1c1.1-1.1,4.8-5.2,6-8.8l.8-2.7-1.9-2-.3-.4,2.1-3.5,15.5,3.7,3.5.8,1.8-3.1,1.1-1.6c.1-.4.2-.4.9-.4h1.7a87.3,87.3,0,0,0,16,1.7c4.7,0,7.4-.2,10.7-1.3l8.7,9.7-5.1,15.7-.3.9c-9.6.8-14.3,2.9-20,8.5-8.2-8.1-14.1-9-36.2-9-26.6,0-44.5-15.4-44.5-40.1V296.8H352.8v60.3C352.9,377.1,341.1,391.1,322.4,395.7Zm34.9-196.3c-2.4,6.5-4.5,13.5-4.5,20.5v45c-9.4-1.6-10.5-11.7-10.6-12.1l-.2-2.1-2-.2a14.5,14.5,0,0,1-9.1-4.3c-4.7-4.6-4.7-12.1-4.7-12.2s-5.1,7.4.8,15.1c2.4,3.2,6,5.2,10.6,6,1.1,5.6,5.3,13.5,15.2,14.8v22H324.9c-12.9-7.1-7.4-19.7-7.1-20.2l1-2.4-2.4-.9c-14-5.1-10.1-19-9.9-19.6l.5-2-1.8-.9c-11.6-5.3-10-19.6-9.9-20.2-3.5,2.9-4.8,8.7-2.3,14.4l-5.1,5.3A15.6,15.6,0,0,1,275.6,231v-1.7l-1.5-.6c-4.7-1.7-7.9-4.3-9.5-7.7a15.5,15.5,0,0,1-.6-9.8,27.9,27.9,0,0,0,4,.7l4.1.2h.2l4.1-.2c7.4-.8,15.7-4,24.4-12.5Zm-43.5-45.5,11.1,6.4h.1l2.8,1.6a32.4,32.4,0,0,0-15,8.9l-.4.4a40,40,0,0,0-2.7,3.1l-.5.6a26.2,26.2,0,0,0-2.4,3.4l-.4.6c-1,1.4-1.8,2.8-2.7,4.3-7.9,13.5-20.4,21.5-31.6,21.5s-23.6-8-31.5-21.5c-.8-1.4-1.7-2.9-2.6-4.2l-.5-.8-2.4-3.2-.6-.8-2.6-3-.5-.5a32.6,32.6,0,0,0-15-8.8l2.9-1.6h.1l11-6.4,11.3-6.4L272,163.9h.2l30.3-16.4Zm-14.9-13.5L274.7,153V101.8l32.8-11ZM272.1,96.2,236.2,82.1c3.1-7.2,17.1-13.3,35.9-13.3S305,74.9,308,82.1Z"/></svg>