<svg id="dbe48b68-e2b9-48e2-99e2-9c736549f23f" data-name="Слой 1" xmlns="http://www.w3.org/2000/svg" viewBox="0 0 2498.2 2497.8"><title>tron</title><path d="M1233.6,1234c-175-215.4-355-426.8-532-640.6,160.1,467,345,925.7,501.3,1393.9,13.7-128,25.2-256.3,39.7-384.3q9.2-81.6,17.6-163.2c4.1-38.9,8-77.7,12.2-116.5C1277.2,1279,1261.7,1267.8,1233.6,1234Z" transform="translate(-1.2)" fill="#ff0013"/><path d="M805.7,611.1q256.2,306.3,509.9,614.7c138.8-148.2,276.3-297.7,415.1-445.9C1403.3,700.3,1074.2,625.4,748,541,767.2,564.3,785.8,588.3,805.7,611.1Z" transform="translate(-1.2)" fill="#ff0013"/><path d="M1375.4,1295.9c-37.5,22.5-33.3,24.1-37.9,70.5-2,19.6-4.5,39.1-6.6,58.6-5.9,57.1-11.3,114.2-17.4,171.3-13.5,127.4-28.3,254.8-38.9,382.4,221.3-329.2,448-655.1,673.3-981.6C1757.2,1097,1566.1,1196,1375.4,1295.9Z" transform="translate(-1.2)" fill="#ff0013"/><path d="M1250,0C729.5,0,251.6,334.8,74.3,824.4c-178,491.7-22.9,1056.4,379.7,1389.3s989.6,378.2,1438.3,108.9,687-807.4,582.8-1322C2358.6,425.1,1836.6,0,1250,0Zm843.4,939.3c-4.8,32.6-49.4,76.2-68.3,103.7q-40.6,59.1-81.2,118.4-94.7,138.3-189.4,276.4l-201.1,293.1-176.8,257.9c-33.3,48.5-65.1,115.9-107.8,157.1-68,65.8-95-35.8-114.4-89.7q-60.3-167.8-120.7-335.5-109.1-302.9-218-605.8c-72.8-202.4-157-404.2-218.9-610.2-12.2-40.3-18.1-76.4,34.1-84.8,33.4-5.3,82.9,16.8,114.3,24.4l167.6,40.8,703.3,171.2c89,21.6,180.9,31.3,256.6,84.4C1931.1,781.7,2100.3,859.2,2093.4,939.3Z" transform="translate(-1.2)" fill="#ff0013"/><path d="M1802.9,804.9c-108.2,127.8-230.1,246.4-344.3,368.9,166.8-86.5,332.6-175,500-260.3C1906.4,877.8,1855,840.8,1802.9,804.9Z" transform="translate(-1.2)" fill="#ff0013"/></svg>