<?xml version="1.0" encoding="utf-8"?>
<!-- Generator: Adobe Illustrator 25.1.0, SVG Export Plug-In . SVG Version: 6.00 Build 0)  -->
<svg version="1.1" id="Слой_1" xmlns="http://www.w3.org/2000/svg" xmlns:xlink="http://www.w3.org/1999/xlink" x="0px" y="0px"
	 viewBox="0 0 332.5 265.3" style="enable-background:new 0 0 332.5 265.3;" xml:space="preserve">
<style type="text/css">
	.st97845{fill:#1F52CC;}
</style>
<path class="st97845" d="M250.7,132.9H45.3c0,0,6.3,19.5,13.4,29.4h182.8c0,0,35.1,26.8,51.6,73.7H101c-33.3-26.5-58.2-62.5-71.1-103.2
	c1.7-5.1,3.4-10,5.3-14.8h215.4c16.8-11.4,33.6-29.4,33.6-29.4H50.4c3.2-4.9,6.6-9.7,10-14.6h236.1c6.1-7.3,18.7-29.4,18.7-29.4
	H86.4c5.3-5.1,11.2-10,17.3-14.6h218.6c5.8-14.1,10.2-29.4,10.2-29.4H95.2C49.7,32.2,15.6,78.4,0,132.9
	c15.3,53.8,49.2,100.5,94.9,132.4h236.9C331.8,265.3,327.7,194.9,250.7,132.9L250.7,132.9z"/>
</svg>
