<svg width="32" height="32" viewBox="0 0 32 32" fill="none" xmlns="http://www.w3.org/2000/svg">
<path d="M22.4 5.6V5.7H22.5H25.1C26.1078 5.7 27.0744 6.10036 27.787 6.81299C28.4996 7.52563 28.9 8.49218 28.9 9.5V25.1C28.9 26.1078 28.4996 27.0744 27.787 27.787C27.0744 28.4996 26.1078 28.9 25.1 28.9H6.9C5.89218 28.9 4.92563 28.4996 4.21299 27.787C3.50036 27.0744 3.1 26.1078 3.1 25.1V9.5C3.1 8.49218 3.50036 7.52563 4.21299 6.81299C4.92563 6.10036 5.89218 5.7 6.9 5.7H9.5H9.6V5.6V4.3C9.6 3.98174 9.72643 3.67652 9.95147 3.45147C10.1765 3.22643 10.4817 3.1 10.8 3.1C11.1183 3.1 11.4235 3.22643 11.6485 3.45147C11.8736 3.67652 12 3.98174 12 4.3V5.6V5.7H12.1H19.9H20V5.6V4.3C20 3.98174 20.1264 3.67652 20.3515 3.45147C20.5765 3.22643 20.8817 3.1 21.2 3.1C21.5183 3.1 21.8235 3.22643 22.0485 3.45147C22.2736 3.67652 22.4 3.98174 22.4 4.3V5.6ZM5.6 15.9H5.5V16V25.1C5.5 25.4713 5.6475 25.8274 5.91005 26.09C6.1726 26.3525 6.5287 26.5 6.9 26.5H25.1C25.4713 26.5 25.8274 26.3525 26.09 26.09C26.3525 25.8274 26.5 25.4713 26.5 25.1V16V15.9H26.4H5.6ZM26.4 13.5H26.5V13.4V9.5C26.5 9.1287 26.3525 8.7726 26.09 8.51005C25.8274 8.2475 25.4713 8.1 25.1 8.1H22.5H22.4V8.2V9.5C22.4 9.81826 22.2736 10.1235 22.0485 10.3485C21.8235 10.5736 21.5183 10.7 21.2 10.7C20.8817 10.7 20.5765 10.5736 20.3515 10.3485C20.1264 10.1235 20 9.81826 20 9.5V8.2V8.1H19.9H12.1H12V8.2V9.5C12 9.81826 11.8736 10.1235 11.6485 10.3485C11.4235 10.5736 11.1183 10.7 10.8 10.7C10.4817 10.7 10.1765 10.5736 9.95147 10.3485C9.72643 10.1235 9.6 9.81826 9.6 9.5V8.2V8.1H9.5H6.9C6.5287 8.1 6.1726 8.2475 5.91005 8.51005C5.6475 8.7726 5.5 9.1287 5.5 9.5V13.4V13.5H5.6H26.4Z" fill="white" stroke="#3A9F64" stroke-width="0.2"/>
</svg>
