<svg width="32" height="32" viewBox="0 0 32 32" fill="none" xmlns="http://www.w3.org/2000/svg">
<mask id="path-1-inside-1_5022_2707" fill="white">
<path d="M27.4795 25.5867C28.3151 24.4667 28.8885 23.1733 29.1574 21.802C29.4264 20.4307 29.3839 19.0165 29.0333 17.6638C28.6826 16.3111 28.0327 15.0544 27.1315 13.9864C26.2302 12.9184 25.1007 12.0665 23.8262 11.4934C23.5486 9.89621 22.9105 8.3833 21.9606 7.06963C21.0107 5.75597 19.7738 4.67611 18.3439 3.91211C16.9141 3.14811 15.329 2.72008 13.7089 2.66052C12.0889 2.60097 10.4765 2.91146 8.99448 3.56842C7.51241 4.22537 6.19959 5.2115 5.15576 6.45187C4.11193 7.69225 3.36455 9.15423 2.97042 10.7267C2.5763 12.2992 2.54578 13.9409 2.8812 15.527C3.21662 17.113 3.90915 18.6018 4.90617 19.8801L3.05283 21.7201C2.86782 21.9076 2.74249 22.1457 2.69266 22.4043C2.64283 22.663 2.67073 22.9306 2.77283 23.1734C2.87286 23.4169 3.04272 23.6253 3.26102 23.7724C3.47931 23.9196 3.73627 23.9988 3.9995 24.0001H11.5862C12.3417 25.5929 13.5329 26.9391 15.0218 27.883C16.5108 28.8269 18.2366 29.3297 19.9995 29.3334H27.9995C28.2627 29.3321 28.5197 29.2529 28.738 29.1058C28.9563 28.9587 29.1261 28.7502 29.2262 28.5067C29.3283 28.2639 29.3562 27.9963 29.3063 27.7377C29.2565 27.479 29.1312 27.2409 28.9462 27.0534L27.4795 25.5867ZM10.6662 20.0001C10.668 20.4466 10.7037 20.8923 10.7728 21.3334H7.21283L7.6795 20.8801C7.80447 20.7561 7.90366 20.6087 7.97135 20.4462C8.03905 20.2837 8.0739 20.1094 8.0739 19.9334C8.0739 19.7574 8.03905 19.5831 7.97135 19.4206C7.90366 19.2582 7.80447 19.1107 7.6795 18.9867C6.93224 18.2477 6.33983 17.3671 5.9369 16.3964C5.53398 15.4257 5.32862 14.3844 5.33283 13.3334C5.33283 11.2117 6.17569 9.17684 7.67598 7.67655C9.17627 6.17626 11.2111 5.3334 13.3328 5.3334C14.9884 5.32345 16.6055 5.83258 17.9567 6.78922C19.308 7.74586 20.3255 9.10191 20.8662 10.6667C20.5728 10.6667 20.2928 10.6667 19.9995 10.6667C17.5241 10.6667 15.1502 11.6501 13.3998 13.4004C11.6495 15.1507 10.6662 17.5247 10.6662 20.0001ZM24.7195 26.6667L24.7862 26.7334H19.9995C18.4573 26.7306 16.9637 26.1933 15.7733 25.2129C14.5828 24.2324 13.7691 22.8696 13.4707 21.3565C13.1723 19.8434 13.4078 18.2737 14.1369 16.9148C14.8661 15.5558 16.0439 14.4917 17.4696 13.9037C18.8953 13.3157 20.4808 13.2401 21.9559 13.69C23.4311 14.1398 24.7047 15.0872 25.5597 16.3707C26.4147 17.6542 26.7983 19.1944 26.6451 20.729C26.4919 22.2636 25.8114 23.6976 24.7195 24.7867C24.4683 25.0329 24.3245 25.3684 24.3195 25.7201C24.3202 25.8965 24.356 26.071 24.4246 26.2335C24.4933 26.396 24.5935 26.5433 24.7195 26.6667V26.6667Z"/>
</mask>
<path d="M27.4795 25.5867C28.3151 24.4667 28.8885 23.1733 29.1574 21.802C29.4264 20.4307 29.3839 19.0165 29.0333 17.6638C28.6826 16.3111 28.0327 15.0544 27.1315 13.9864C26.2302 12.9184 25.1007 12.0665 23.8262 11.4934C23.5486 9.89621 22.9105 8.3833 21.9606 7.06963C21.0107 5.75597 19.7738 4.67611 18.3439 3.91211C16.9141 3.14811 15.329 2.72008 13.7089 2.66052C12.0889 2.60097 10.4765 2.91146 8.99448 3.56842C7.51241 4.22537 6.19959 5.2115 5.15576 6.45187C4.11193 7.69225 3.36455 9.15423 2.97042 10.7267C2.5763 12.2992 2.54578 13.9409 2.8812 15.527C3.21662 17.113 3.90915 18.6018 4.90617 19.8801L3.05283 21.7201C2.86782 21.9076 2.74249 22.1457 2.69266 22.4043C2.64283 22.663 2.67073 22.9306 2.77283 23.1734C2.87286 23.4169 3.04272 23.6253 3.26102 23.7724C3.47931 23.9196 3.73627 23.9988 3.9995 24.0001H11.5862C12.3417 25.5929 13.5329 26.9391 15.0218 27.883C16.5108 28.8269 18.2366 29.3297 19.9995 29.3334H27.9995C28.2627 29.3321 28.5197 29.2529 28.738 29.1058C28.9563 28.9587 29.1261 28.7502 29.2262 28.5067C29.3283 28.2639 29.3562 27.9963 29.3063 27.7377C29.2565 27.479 29.1312 27.2409 28.9462 27.0534L27.4795 25.5867ZM10.6662 20.0001C10.668 20.4466 10.7037 20.8923 10.7728 21.3334H7.21283L7.6795 20.8801C7.80447 20.7561 7.90366 20.6087 7.97135 20.4462C8.03905 20.2837 8.0739 20.1094 8.0739 19.9334C8.0739 19.7574 8.03905 19.5831 7.97135 19.4206C7.90366 19.2582 7.80447 19.1107 7.6795 18.9867C6.93224 18.2477 6.33983 17.3671 5.9369 16.3964C5.53398 15.4257 5.32862 14.3844 5.33283 13.3334C5.33283 11.2117 6.17569 9.17684 7.67598 7.67655C9.17627 6.17626 11.2111 5.3334 13.3328 5.3334C14.9884 5.32345 16.6055 5.83258 17.9567 6.78922C19.308 7.74586 20.3255 9.10191 20.8662 10.6667C20.5728 10.6667 20.2928 10.6667 19.9995 10.6667C17.5241 10.6667 15.1502 11.6501 13.3998 13.4004C11.6495 15.1507 10.6662 17.5247 10.6662 20.0001ZM24.7195 26.6667L24.7862 26.7334H19.9995C18.4573 26.7306 16.9637 26.1933 15.7733 25.2129C14.5828 24.2324 13.7691 22.8696 13.4707 21.3565C13.1723 19.8434 13.4078 18.2737 14.1369 16.9148C14.8661 15.5558 16.0439 14.4917 17.4696 13.9037C18.8953 13.3157 20.4808 13.2401 21.9559 13.69C23.4311 14.1398 24.7047 15.0872 25.5597 16.3707C26.4147 17.6542 26.7983 19.1944 26.6451 20.729C26.4919 22.2636 25.8114 23.6976 24.7195 24.7867C24.4683 25.0329 24.3245 25.3684 24.3195 25.7201C24.3202 25.8965 24.356 26.071 24.4246 26.2335C24.4933 26.396 24.5935 26.5433 24.7195 26.6667V26.6667Z" fill="white" stroke="#3A9F64" stroke-width="0.4" mask="url(#path-1-inside-1_5022_2707)"/>
</svg>
