<svg width="47" height="172" viewBox="0 0 47 172" fill="none" xmlns="http://www.w3.org/2000/svg">
<path opacity="0.15" fill-rule="evenodd" clip-rule="evenodd" d="M-126.384 58.9662C-122.128 42.0245 -111.004 27.6498 -97.1061 17.0398C-83.4836 6.64043 -66.8389 1.78943 -49.7297 0.448198C-32.2181 -0.924572 -14.5692 1.05359 0.913316 9.35584C17.3808 18.1863 31.8511 31.1293 39.3483 48.2149C47.0578 65.7841 48.489 86.009 42.5449 104.231C36.7794 121.905 21.9734 134.191 7.49069 145.874C-6.98316 157.55 -22.1082 169.504 -40.6402 171.337C-59.6648 173.218 -79.376 167.708 -94.452 155.955C-108.846 144.734 -114.573 126.567 -120.272 109.257C-125.688 92.8076 -130.6 75.7489 -126.384 58.9662Z" fill="#3A9F64"/>
</svg>
