<svg width="32" height="32" viewBox="0 0 32 32" fill="none" xmlns="http://www.w3.org/2000/svg">
<mask id="path-1-inside-1_5022_2722" fill="white">
<path d="M9.32292 19.3356C9.14782 19.3356 8.97441 19.37 8.81263 19.437C8.65084 19.504 8.50383 19.6022 8.38001 19.7261C8.25619 19.8499 8.15798 19.9969 8.09099 20.1587C8.024 20.3205 7.98955 20.4939 7.98959 20.669V23.0453C6.27099 21.1018 5.32253 18.5967 5.32292 16.0023C5.32268 15.6102 5.34616 15.2184 5.39323 14.8291C5.41482 14.655 5.40184 14.4784 5.35504 14.3094C5.30824 14.1403 5.22854 13.9821 5.12051 13.8439C5.01247 13.7057 4.87823 13.5902 4.72547 13.504C4.57271 13.4178 4.40443 13.3626 4.23029 13.3415C4.05615 13.3204 3.87956 13.3339 3.71064 13.3812C3.54173 13.4285 3.3838 13.5087 3.24593 13.6171C3.10805 13.7256 2.99293 13.8601 2.90716 14.0132C2.82139 14.1662 2.76665 14.3346 2.7461 14.5088C2.6857 15.0043 2.6557 15.5031 2.65626 16.0023C2.65807 19.1838 3.80153 22.2591 5.87875 24.669H3.98959C3.63597 24.669 3.29683 24.8094 3.04678 25.0595C2.79673 25.3095 2.65626 25.6487 2.65626 26.0023C2.65626 26.3559 2.79673 26.6951 3.04678 26.9451C3.29683 27.1952 3.63597 27.3356 3.98959 27.3356H9.32292C9.53145 27.333 9.73634 27.2806 9.92052 27.1828C10.1047 27.0849 10.2628 26.9445 10.3818 26.7732C10.3973 26.7527 10.4172 26.7375 10.4316 26.7159C10.4405 26.7026 10.4408 26.6869 10.4491 26.6734C10.5126 26.5661 10.5602 26.45 10.5904 26.329C10.6101 26.261 10.6241 26.1915 10.6323 26.1211C10.6361 26.08 10.6563 26.0445 10.6563 26.0023V20.669C10.6563 20.4939 10.6219 20.3205 10.5549 20.1587C10.4879 19.9969 10.3897 19.8499 10.2659 19.7261C10.142 19.6022 9.99504 19.504 9.83324 19.437C9.67145 19.37 9.49804 19.3356 9.32292 19.3356V19.3356ZM11.3229 8.0023H8.9463C10.89 6.28377 13.3951 5.33533 15.9896 5.33563C16.3815 5.33469 16.7731 5.35817 17.1621 5.40595C17.336 5.42707 17.5124 5.41372 17.6811 5.36669C17.8498 5.31965 18.0077 5.23983 18.1456 5.1318C18.2835 5.02377 18.3987 4.88963 18.4848 4.73705C18.5709 4.58447 18.626 4.41643 18.6471 4.24254C18.6683 4.06864 18.6549 3.89228 18.6079 3.72354C18.5608 3.5548 18.481 3.39697 18.373 3.25907C18.265 3.12117 18.1308 3.00591 17.9782 2.91985C17.8257 2.83379 17.6576 2.77863 17.4837 2.75751C16.9879 2.6977 16.489 2.66813 15.9896 2.66896C12.8081 2.67069 9.73281 3.81407 7.32292 5.89122V4.0023C7.32292 3.64867 7.18245 3.30954 6.9324 3.05949C6.68235 2.80944 6.34321 2.66896 5.98959 2.66896C5.63597 2.66896 5.29683 2.80944 5.04678 3.05949C4.79673 3.30954 4.65626 3.64867 4.65626 4.0023V9.33563C4.66464 9.42376 4.68221 9.51077 4.70867 9.59524L4.70899 9.59687C4.74137 9.76094 4.80529 9.91716 4.89722 10.0569L4.91244 10.0794C5.00055 10.2075 5.11097 10.3188 5.23844 10.4079C5.25302 10.4185 5.26026 10.4349 5.27539 10.445C5.29444 10.4577 5.316 10.4617 5.33546 10.4732C5.41107 10.5187 5.4912 10.5562 5.57455 10.5852C5.6872 10.6244 5.80464 10.6481 5.92367 10.6557C5.94678 10.6569 5.96623 10.669 5.98959 10.669H11.3229C11.6765 10.669 12.0157 10.5285 12.2657 10.2785C12.5158 10.0284 12.6563 9.68929 12.6563 9.33567C12.6563 8.98205 12.5158 8.64291 12.2657 8.39286C12.0157 8.14281 11.6765 8.00234 11.3229 8.00234V8.0023ZM27.2702 22.4077C27.2378 22.2436 27.1739 22.0873 27.0819 21.9476L27.0668 21.9252C26.9786 21.797 26.8681 21.6857 26.7406 21.5966C26.726 21.5861 26.7188 21.5696 26.7038 21.5595C26.6894 21.55 26.6723 21.5497 26.6576 21.5407C26.4885 21.4467 26.3032 21.3854 26.1113 21.3601C26.0692 21.3561 26.0328 21.3356 25.9896 21.3356H20.6563C20.3026 21.3356 19.9635 21.476 19.7134 21.7261C19.4634 21.9761 19.3229 22.3153 19.3229 22.6689C19.3229 23.0225 19.4634 23.3617 19.7134 23.6117C19.9635 23.8618 20.3026 24.0022 20.6563 24.0022H23.0328C21.0891 25.7208 18.5841 26.6692 15.9896 26.6689C15.5976 26.6694 15.206 26.6455 14.8171 26.5973C14.4659 26.5546 14.1121 26.6532 13.8336 26.8714C13.5551 27.0896 13.3747 27.4095 13.332 27.7607C13.2894 28.1119 13.388 28.4657 13.6062 28.7442C13.8244 29.0227 14.1442 29.2031 14.4954 29.2457C14.9912 29.3055 15.4902 29.3355 15.9896 29.3356C19.1711 29.3338 22.2464 28.1905 24.6563 26.1133V28.0023C24.6563 28.3559 24.7967 28.6951 25.0468 28.9451C25.2968 29.1952 25.636 29.3356 25.9896 29.3356C26.3432 29.3356 26.6824 29.1952 26.9324 28.9451C27.1824 28.6951 27.3229 28.3559 27.3229 28.0023V22.669C27.3145 22.5808 27.297 22.4938 27.2705 22.4094L27.2702 22.4077ZM27.9896 7.33563C28.3432 7.33563 28.6824 7.19515 28.9324 6.9451C29.1824 6.69506 29.3229 6.35592 29.3229 6.0023C29.3229 5.64867 29.1824 5.30954 28.9324 5.05949C28.6824 4.80944 28.3432 4.66896 27.9896 4.66896H22.6563C22.5695 4.67733 22.4837 4.69462 22.4005 4.72056L22.3916 4.72235C22.2297 4.75474 22.0755 4.8179 21.9373 4.90839L21.9112 4.92604C21.7837 5.01401 21.6729 5.12409 21.5841 5.25108C21.5737 5.26548 21.5575 5.27256 21.5475 5.28746C21.538 5.30178 21.5377 5.31871 21.5287 5.33327C21.4336 5.50339 21.3719 5.69016 21.3469 5.88348C21.3431 5.92467 21.3229 5.96015 21.3229 6.0023V11.3356C21.3229 11.6893 21.4634 12.0284 21.7134 12.2784C21.9635 12.5285 22.3026 12.669 22.6563 12.669C23.0099 12.669 23.349 12.5285 23.5991 12.2784C23.8491 12.0284 23.9896 11.6893 23.9896 11.3356V8.95846C25.7081 10.9024 26.6565 13.4076 26.6563 16.0022C26.6565 16.3944 26.633 16.7861 26.5859 17.1754C26.5437 17.5264 26.6424 17.8798 26.8604 18.1581C27.0784 18.4363 27.3978 18.6168 27.7487 18.6598C27.8027 18.666 27.8571 18.6691 27.9115 18.6689C28.237 18.6685 28.5512 18.5489 28.7946 18.3328C29.0381 18.1167 29.1941 17.8189 29.2331 17.4957C29.2935 17.0002 29.3235 16.5015 29.3229 16.0023C29.3211 12.8207 28.1776 9.74545 26.1003 7.33563H27.9896Z"/>
</mask>
<path d="M9.32292 19.3356C9.14782 19.3356 8.97441 19.37 8.81263 19.437C8.65084 19.504 8.50383 19.6022 8.38001 19.7261C8.25619 19.8499 8.15798 19.9969 8.09099 20.1587C8.024 20.3205 7.98955 20.4939 7.98959 20.669V23.0453C6.27099 21.1018 5.32253 18.5967 5.32292 16.0023C5.32268 15.6102 5.34616 15.2184 5.39323 14.8291C5.41482 14.655 5.40184 14.4784 5.35504 14.3094C5.30824 14.1403 5.22854 13.9821 5.12051 13.8439C5.01247 13.7057 4.87823 13.5902 4.72547 13.504C4.57271 13.4178 4.40443 13.3626 4.23029 13.3415C4.05615 13.3204 3.87956 13.3339 3.71064 13.3812C3.54173 13.4285 3.3838 13.5087 3.24593 13.6171C3.10805 13.7256 2.99293 13.8601 2.90716 14.0132C2.82139 14.1662 2.76665 14.3346 2.7461 14.5088C2.6857 15.0043 2.6557 15.5031 2.65626 16.0023C2.65807 19.1838 3.80153 22.2591 5.87875 24.669H3.98959C3.63597 24.669 3.29683 24.8094 3.04678 25.0595C2.79673 25.3095 2.65626 25.6487 2.65626 26.0023C2.65626 26.3559 2.79673 26.6951 3.04678 26.9451C3.29683 27.1952 3.63597 27.3356 3.98959 27.3356H9.32292C9.53145 27.333 9.73634 27.2806 9.92052 27.1828C10.1047 27.0849 10.2628 26.9445 10.3818 26.7732C10.3973 26.7527 10.4172 26.7375 10.4316 26.7159C10.4405 26.7026 10.4408 26.6869 10.4491 26.6734C10.5126 26.5661 10.5602 26.45 10.5904 26.329C10.6101 26.261 10.6241 26.1915 10.6323 26.1211C10.6361 26.08 10.6563 26.0445 10.6563 26.0023V20.669C10.6563 20.4939 10.6219 20.3205 10.5549 20.1587C10.4879 19.9969 10.3897 19.8499 10.2659 19.7261C10.142 19.6022 9.99504 19.504 9.83324 19.437C9.67145 19.37 9.49804 19.3356 9.32292 19.3356V19.3356ZM11.3229 8.0023H8.9463C10.89 6.28377 13.3951 5.33533 15.9896 5.33563C16.3815 5.33469 16.7731 5.35817 17.1621 5.40595C17.336 5.42707 17.5124 5.41372 17.6811 5.36669C17.8498 5.31965 18.0077 5.23983 18.1456 5.1318C18.2835 5.02377 18.3987 4.88963 18.4848 4.73705C18.5709 4.58447 18.626 4.41643 18.6471 4.24254C18.6683 4.06864 18.6549 3.89228 18.6079 3.72354C18.5608 3.5548 18.481 3.39697 18.373 3.25907C18.265 3.12117 18.1308 3.00591 17.9782 2.91985C17.8257 2.83379 17.6576 2.77863 17.4837 2.75751C16.9879 2.6977 16.489 2.66813 15.9896 2.66896C12.8081 2.67069 9.73281 3.81407 7.32292 5.89122V4.0023C7.32292 3.64867 7.18245 3.30954 6.9324 3.05949C6.68235 2.80944 6.34321 2.66896 5.98959 2.66896C5.63597 2.66896 5.29683 2.80944 5.04678 3.05949C4.79673 3.30954 4.65626 3.64867 4.65626 4.0023V9.33563C4.66464 9.42376 4.68221 9.51077 4.70867 9.59524L4.70899 9.59687C4.74137 9.76094 4.80529 9.91716 4.89722 10.0569L4.91244 10.0794C5.00055 10.2075 5.11097 10.3188 5.23844 10.4079C5.25302 10.4185 5.26026 10.4349 5.27539 10.445C5.29444 10.4577 5.316 10.4617 5.33546 10.4732C5.41107 10.5187 5.4912 10.5562 5.57455 10.5852C5.6872 10.6244 5.80464 10.6481 5.92367 10.6557C5.94678 10.6569 5.96623 10.669 5.98959 10.669H11.3229C11.6765 10.669 12.0157 10.5285 12.2657 10.2785C12.5158 10.0284 12.6563 9.68929 12.6563 9.33567C12.6563 8.98205 12.5158 8.64291 12.2657 8.39286C12.0157 8.14281 11.6765 8.00234 11.3229 8.00234V8.0023ZM27.2702 22.4077C27.2378 22.2436 27.1739 22.0873 27.0819 21.9476L27.0668 21.9252C26.9786 21.797 26.8681 21.6857 26.7406 21.5966C26.726 21.5861 26.7188 21.5696 26.7038 21.5595C26.6894 21.55 26.6723 21.5497 26.6576 21.5407C26.4885 21.4467 26.3032 21.3854 26.1113 21.3601C26.0692 21.3561 26.0328 21.3356 25.9896 21.3356H20.6563C20.3026 21.3356 19.9635 21.476 19.7134 21.7261C19.4634 21.9761 19.3229 22.3153 19.3229 22.6689C19.3229 23.0225 19.4634 23.3617 19.7134 23.6117C19.9635 23.8618 20.3026 24.0022 20.6563 24.0022H23.0328C21.0891 25.7208 18.5841 26.6692 15.9896 26.6689C15.5976 26.6694 15.206 26.6455 14.8171 26.5973C14.4659 26.5546 14.1121 26.6532 13.8336 26.8714C13.5551 27.0896 13.3747 27.4095 13.332 27.7607C13.2894 28.1119 13.388 28.4657 13.6062 28.7442C13.8244 29.0227 14.1442 29.2031 14.4954 29.2457C14.9912 29.3055 15.4902 29.3355 15.9896 29.3356C19.1711 29.3338 22.2464 28.1905 24.6563 26.1133V28.0023C24.6563 28.3559 24.7967 28.6951 25.0468 28.9451C25.2968 29.1952 25.636 29.3356 25.9896 29.3356C26.3432 29.3356 26.6824 29.1952 26.9324 28.9451C27.1824 28.6951 27.3229 28.3559 27.3229 28.0023V22.669C27.3145 22.5808 27.297 22.4938 27.2705 22.4094L27.2702 22.4077ZM27.9896 7.33563C28.3432 7.33563 28.6824 7.19515 28.9324 6.9451C29.1824 6.69506 29.3229 6.35592 29.3229 6.0023C29.3229 5.64867 29.1824 5.30954 28.9324 5.05949C28.6824 4.80944 28.3432 4.66896 27.9896 4.66896H22.6563C22.5695 4.67733 22.4837 4.69462 22.4005 4.72056L22.3916 4.72235C22.2297 4.75474 22.0755 4.8179 21.9373 4.90839L21.9112 4.92604C21.7837 5.01401 21.6729 5.12409 21.5841 5.25108C21.5737 5.26548 21.5575 5.27256 21.5475 5.28746C21.538 5.30178 21.5377 5.31871 21.5287 5.33327C21.4336 5.50339 21.3719 5.69016 21.3469 5.88348C21.3431 5.92467 21.3229 5.96015 21.3229 6.0023V11.3356C21.3229 11.6893 21.4634 12.0284 21.7134 12.2784C21.9635 12.5285 22.3026 12.669 22.6563 12.669C23.0099 12.669 23.349 12.5285 23.5991 12.2784C23.8491 12.0284 23.9896 11.6893 23.9896 11.3356V8.95846C25.7081 10.9024 26.6565 13.4076 26.6563 16.0022C26.6565 16.3944 26.633 16.7861 26.5859 17.1754C26.5437 17.5264 26.6424 17.8798 26.8604 18.1581C27.0784 18.4363 27.3978 18.6168 27.7487 18.6598C27.8027 18.666 27.8571 18.6691 27.9115 18.6689C28.237 18.6685 28.5512 18.5489 28.7946 18.3328C29.0381 18.1167 29.1941 17.8189 29.2331 17.4957C29.2935 17.0002 29.3235 16.5015 29.3229 16.0023C29.3211 12.8207 28.1776 9.74545 26.1003 7.33563H27.9896Z" fill="white" stroke="#3A9F64" stroke-width="0.4" mask="url(#path-1-inside-1_5022_2722)"/>
</svg>
