<svg width="32" height="32" viewBox="0 0 32 32" fill="none" xmlns="http://www.w3.org/2000/svg">
<mask id="path-1-inside-1_5032_2937" fill="white">
<path d="M26.4912 4.30744C26.3315 4.17583 26.1448 4.08236 25.945 4.03389C25.7451 3.98542 25.5371 3.98318 25.3362 4.02736C23.867 4.34098 22.3502 4.34497 20.8794 4.0391C19.4085 3.73322 18.0147 3.12395 16.7837 2.2488C16.5536 2.08617 16.2801 1.99902 16 1.99902C15.7199 1.99902 15.4464 2.08617 15.2163 2.2488C13.9853 3.12395 12.5915 3.73322 11.1206 4.0391C9.64978 4.34497 8.13303 4.34098 6.66376 4.02736C6.46292 3.98318 6.25492 3.98542 6.05505 4.03389C5.85517 4.08236 5.6685 4.17583 5.50876 4.30744C5.34923 4.43925 5.22072 4.60579 5.13268 4.79482C5.04465 4.98385 4.99931 5.19057 5.00001 5.39979V15.833C4.99879 17.8409 5.46857 19.82 6.37024 21.6056C7.27191 23.3912 8.57938 24.9315 10.1838 26.0983L15.2025 29.7394C15.4354 29.9083 15.7141 29.999 16 29.999C16.2859 29.999 16.5646 29.9083 16.7975 29.7394L21.8162 26.0983C23.4206 24.9315 24.7281 23.3912 25.6298 21.6056C26.5314 19.82 27.0012 17.8409 27 15.833V5.39979C27.0007 5.19057 26.9554 4.98385 26.8673 4.79482C26.7793 4.60579 26.6508 4.43925 26.4912 4.30744ZM24.25 15.833C24.251 17.3942 23.886 18.933 23.1853 20.3215C22.4845 21.7099 21.4683 22.9079 20.2212 23.8155L16 26.8825L11.7788 23.8155C10.5317 22.9079 9.51548 21.7099 8.81474 20.3215C8.11399 18.933 7.74895 17.3942 7.75001 15.833V7.01029C10.6326 7.26157 13.5196 6.58039 16 5.06368C18.4804 6.58039 21.3674 7.26157 24.25 7.01029V15.833ZM18.8675 11.8622L14.4188 16.4072L13.195 15.1468C12.9361 14.8831 12.5849 14.735 12.2188 14.735C11.8526 14.735 11.5014 14.8831 11.2425 15.1468C10.9836 15.4105 10.8381 15.7682 10.8381 16.1411C10.8381 16.5141 10.9836 16.8717 11.2425 17.1355L13.4425 19.3762C13.5703 19.5074 13.7224 19.6116 13.89 19.6827C14.0575 19.7538 14.2372 19.7904 14.4188 19.7904C14.6003 19.7904 14.78 19.7538 14.9475 19.6827C15.1151 19.6116 15.2672 19.5074 15.395 19.3762L20.875 13.8368C21.1339 13.5731 21.2794 13.2154 21.2794 12.8425C21.2794 12.4695 21.1339 12.1119 20.875 11.8482C20.6161 11.5845 20.2649 11.4363 19.8987 11.4363C19.5326 11.4363 19.1814 11.5845 18.9225 11.8482L18.8675 11.8622Z"/>
</mask>
<path d="M26.4912 4.30744C26.3315 4.17583 26.1448 4.08236 25.945 4.03389C25.7451 3.98542 25.5371 3.98318 25.3362 4.02736C23.867 4.34098 22.3502 4.34497 20.8794 4.0391C19.4085 3.73322 18.0147 3.12395 16.7837 2.2488C16.5536 2.08617 16.2801 1.99902 16 1.99902C15.7199 1.99902 15.4464 2.08617 15.2163 2.2488C13.9853 3.12395 12.5915 3.73322 11.1206 4.0391C9.64978 4.34497 8.13303 4.34098 6.66376 4.02736C6.46292 3.98318 6.25492 3.98542 6.05505 4.03389C5.85517 4.08236 5.6685 4.17583 5.50876 4.30744C5.34923 4.43925 5.22072 4.60579 5.13268 4.79482C5.04465 4.98385 4.99931 5.19057 5.00001 5.39979V15.833C4.99879 17.8409 5.46857 19.82 6.37024 21.6056C7.27191 23.3912 8.57938 24.9315 10.1838 26.0983L15.2025 29.7394C15.4354 29.9083 15.7141 29.999 16 29.999C16.2859 29.999 16.5646 29.9083 16.7975 29.7394L21.8162 26.0983C23.4206 24.9315 24.7281 23.3912 25.6298 21.6056C26.5314 19.82 27.0012 17.8409 27 15.833V5.39979C27.0007 5.19057 26.9554 4.98385 26.8673 4.79482C26.7793 4.60579 26.6508 4.43925 26.4912 4.30744ZM24.25 15.833C24.251 17.3942 23.886 18.933 23.1853 20.3215C22.4845 21.7099 21.4683 22.9079 20.2212 23.8155L16 26.8825L11.7788 23.8155C10.5317 22.9079 9.51548 21.7099 8.81474 20.3215C8.11399 18.933 7.74895 17.3942 7.75001 15.833V7.01029C10.6326 7.26157 13.5196 6.58039 16 5.06368C18.4804 6.58039 21.3674 7.26157 24.25 7.01029V15.833ZM18.8675 11.8622L14.4188 16.4072L13.195 15.1468C12.9361 14.8831 12.5849 14.735 12.2188 14.735C11.8526 14.735 11.5014 14.8831 11.2425 15.1468C10.9836 15.4105 10.8381 15.7682 10.8381 16.1411C10.8381 16.5141 10.9836 16.8717 11.2425 17.1355L13.4425 19.3762C13.5703 19.5074 13.7224 19.6116 13.89 19.6827C14.0575 19.7538 14.2372 19.7904 14.4188 19.7904C14.6003 19.7904 14.78 19.7538 14.9475 19.6827C15.1151 19.6116 15.2672 19.5074 15.395 19.3762L20.875 13.8368C21.1339 13.5731 21.2794 13.2154 21.2794 12.8425C21.2794 12.4695 21.1339 12.1119 20.875 11.8482C20.6161 11.5845 20.2649 11.4363 19.8987 11.4363C19.5326 11.4363 19.1814 11.5845 18.9225 11.8482L18.8675 11.8622Z" fill="white" stroke="#3A9F64" stroke-width="0.4" mask="url(#path-1-inside-1_5032_2937)"/>
</svg>
