<svg id="adfd135f-9917-477f-b816-a21cede68c6f" data-name="Слой 1" xmlns="http://www.w3.org/2000/svg" viewBox="0 0 50.06 57.83"><defs><style>.a98f48e8-aa02-4b59-822e-e1521612f5ec{fill:#f59c21;}.ee6e8b99-ab93-4979-867e-70dc54b4a171{fill:#fff;opacity:0.3;}</style></defs><path class="a98f48e8-aa02-4b59-822e-e1521612f5ec" d="M25.28,25.55a8.37,8.37,0,0,0,3.51-.86,2.67,2.67,0,0,0,1.46-2.59A2.94,2.94,0,0,0,28,19.38a10.88,10.88,0,0,0-3.4-.48c-1.06,0-2.14.08-2.14.08v6.57S24,25.59,25.28,25.55Z"/><path class="a98f48e8-aa02-4b59-822e-e1521612f5ec" d="M30,29.79a10.84,10.84,0,0,0-3.74-.86c-1.68-.11-3.84,0-3.84,0v7.29s2.26.05,3.77-.06a10.79,10.79,0,0,0,3.84-.92,3,3,0,0,0,0-5.45Z"/><path class="a98f48e8-aa02-4b59-822e-e1521612f5ec" d="M50.06,3.62A88.28,88.28,0,0,0,0,3.62v28c0,11,9.62,21,25,26.22h0c15.41-5.17,25-15.25,25-26.22v-28ZM35.83,38.18A11.33,11.33,0,0,1,30.62,40c-.48.06-1.3.13-2.18.18V45.7H25V40.26H22.45V45.7h-3.4V40.26H12.36l.7-4.08h2c.69,0,1-.07,1.26-.34a1.39,1.39,0,0,0,.35-1V20.75a1.83,1.83,0,0,0-.48-1.57,2.84,2.84,0,0,0-1.9-.51h-2l.07-3.53h6.69V9.69h3.4v5.45H25V9.69h3.4V15.2a10.77,10.77,0,0,1,6.07,1.86,5.67,5.67,0,0,1,2,5,6.11,6.11,0,0,1-.91,2.72,7.64,7.64,0,0,1-2,1.62,8.29,8.29,0,0,1,2.82,1.22,5.46,5.46,0,0,1,2,4.67C38.34,34.51,37.88,36.75,35.83,38.18Z"/><path class="ee6e8b99-ab93-4979-867e-70dc54b4a171" d="M23.79,0c2.49.35,26.05,4.41,26.1,34a19.09,19.09,0,0,0,.17-2.4v-28A88.51,88.51,0,0,0,23.79,0Z"/></svg>