<svg width="32" height="32" viewBox="0 0 32 32" fill="none" xmlns="http://www.w3.org/2000/svg">
<mask id="path-1-inside-1_5022_2700" fill="white">
<path d="M27.9993 26.667H5.33268V25.947L11.9993 19.2803L17.066 24.347C17.3158 24.5953 17.6538 24.7347 18.006 24.7347C18.3583 24.7347 18.6962 24.5953 18.946 24.347L28.946 14.347C29.071 14.223 29.1702 14.0756 29.2379 13.9131C29.3056 13.7506 29.3404 13.5763 29.3404 13.4003C29.3404 13.2243 29.3056 13.05 29.2379 12.8876C29.1702 12.7251 29.071 12.5776 28.946 12.4537C28.6962 12.2053 28.3583 12.0659 28.006 12.0659C27.6538 12.0659 27.3158 12.2053 27.066 12.4537L17.9993 21.5203L12.946 16.4537C12.6962 16.2053 12.3583 16.0659 12.006 16.0659C11.6538 16.0659 11.3158 16.2053 11.066 16.4537L5.33268 22.1737V15.2803L11.9993 8.61366L15.7327 12.347C15.9825 12.5953 16.3204 12.7347 16.6727 12.7347C17.0249 12.7347 17.3629 12.5953 17.6127 12.347L23.9993 5.96033L26.9194 8.88033C27.1704 9.12963 27.5102 9.26898 27.8641 9.26773C28.2179 9.26648 28.5567 9.12473 28.806 8.87366C29.0553 8.62259 29.1947 8.28276 29.1934 7.92895C29.1922 7.57513 29.0504 7.2363 28.7994 6.98699L24.9194 3.13366C24.6695 2.88532 24.3316 2.74594 23.9794 2.74594C23.6271 2.74594 23.2892 2.88532 23.0394 3.13366L16.6393 9.53366L12.9193 5.80033C12.6695 5.55199 12.3316 5.4126 11.9793 5.4126C11.6271 5.4126 11.2892 5.55199 11.0393 5.80033L5.33268 11.507V4.00033C5.33268 3.6467 5.19221 3.30756 4.94216 3.05752C4.69211 2.80747 4.35297 2.66699 3.99935 2.66699C3.64573 2.66699 3.30659 2.80747 3.05654 3.05752C2.80649 3.30756 2.66602 3.6467 2.66602 4.00033V28.0003C2.66602 28.3539 2.80649 28.6931 3.05654 28.9431C3.30659 29.1932 3.64573 29.3337 3.99935 29.3337H27.9993C28.353 29.3337 28.6921 29.1932 28.9422 28.9431C29.1922 28.6931 29.3327 28.3539 29.3327 28.0003C29.3327 27.6467 29.1922 27.3076 28.9422 27.0575C28.6921 26.8075 28.353 26.667 27.9993 26.667Z"/>
</mask>
<path d="M27.9993 26.667H5.33268V25.947L11.9993 19.2803L17.066 24.347C17.3158 24.5953 17.6538 24.7347 18.006 24.7347C18.3583 24.7347 18.6962 24.5953 18.946 24.347L28.946 14.347C29.071 14.223 29.1702 14.0756 29.2379 13.9131C29.3056 13.7506 29.3404 13.5763 29.3404 13.4003C29.3404 13.2243 29.3056 13.05 29.2379 12.8876C29.1702 12.7251 29.071 12.5776 28.946 12.4537C28.6962 12.2053 28.3583 12.0659 28.006 12.0659C27.6538 12.0659 27.3158 12.2053 27.066 12.4537L17.9993 21.5203L12.946 16.4537C12.6962 16.2053 12.3583 16.0659 12.006 16.0659C11.6538 16.0659 11.3158 16.2053 11.066 16.4537L5.33268 22.1737V15.2803L11.9993 8.61366L15.7327 12.347C15.9825 12.5953 16.3204 12.7347 16.6727 12.7347C17.0249 12.7347 17.3629 12.5953 17.6127 12.347L23.9993 5.96033L26.9194 8.88033C27.1704 9.12963 27.5102 9.26898 27.8641 9.26773C28.2179 9.26648 28.5567 9.12473 28.806 8.87366C29.0553 8.62259 29.1947 8.28276 29.1934 7.92895C29.1922 7.57513 29.0504 7.2363 28.7994 6.98699L24.9194 3.13366C24.6695 2.88532 24.3316 2.74594 23.9794 2.74594C23.6271 2.74594 23.2892 2.88532 23.0394 3.13366L16.6393 9.53366L12.9193 5.80033C12.6695 5.55199 12.3316 5.4126 11.9793 5.4126C11.6271 5.4126 11.2892 5.55199 11.0393 5.80033L5.33268 11.507V4.00033C5.33268 3.6467 5.19221 3.30756 4.94216 3.05752C4.69211 2.80747 4.35297 2.66699 3.99935 2.66699C3.64573 2.66699 3.30659 2.80747 3.05654 3.05752C2.80649 3.30756 2.66602 3.6467 2.66602 4.00033V28.0003C2.66602 28.3539 2.80649 28.6931 3.05654 28.9431C3.30659 29.1932 3.64573 29.3337 3.99935 29.3337H27.9993C28.353 29.3337 28.6921 29.1932 28.9422 28.9431C29.1922 28.6931 29.3327 28.3539 29.3327 28.0003C29.3327 27.6467 29.1922 27.3076 28.9422 27.0575C28.6921 26.8075 28.353 26.667 27.9993 26.667Z" fill="white" stroke="#3A9F64" stroke-width="0.4" mask="url(#path-1-inside-1_5022_2700)"/>
</svg>
