<svg width="135" height="140" viewBox="0 0 135 140" fill="none" xmlns="http://www.w3.org/2000/svg">
<path opacity="0.15" fill-rule="evenodd" clip-rule="evenodd" d="M127.578 84.3052C123.844 98.3861 121.408 113.509 110.82 123.505C99.8166 133.893 84.5518 139.051 69.4358 139.196C54.7192 139.337 40.5729 133.423 29.0309 124.288C18.215 115.728 12.3241 103.064 7.45883 90.1459C2.62069 77.2995 -1.61448 63.8865 1.2216 50.4481C4.15388 36.554 12.3203 24.2575 23.2699 15.2272C34.2835 6.14423 47.9726 0.978983 62.2119 0.148888C76.508 -0.684517 90.4993 3.24862 102.793 10.5913C115.47 18.1626 127.701 28.0671 132.411 42.076C137.037 55.8364 131.3 70.2662 127.578 84.3052Z" fill="#3A9F64"/>
</svg>
