<svg width="28" height="28" viewBox="0 0 28 28" fill="none" xmlns="http://www.w3.org/2000/svg">
<g clip-path="url(#clip0_4362_31536)">
<path d="M18.666 12.8333L18.666 22.75C18.666 23.2141 18.4816 23.6592 18.1535 23.9874C17.8253 24.3156 17.3801 24.5 16.916 24.5C16.4519 24.5 16.0068 24.3156 15.6786 23.9874C15.3504 23.6592 15.166 23.2141 15.166 22.75L15.166 14" stroke="#C7CAC8" stroke-width="2" stroke-linecap="round" stroke-linejoin="round"/>
<path d="M15.166 14.5837L15.166 16.917C15.166 17.1468 15.1208 17.3744 15.0328 17.5867C14.9449 17.799 14.816 17.9919 14.6535 18.1544C14.491 18.3169 14.298 18.4458 14.0857 18.5338C13.8734 18.6217 13.6458 18.667 13.416 18.667C13.1862 18.667 12.9586 18.6217 12.7463 18.5338C12.534 18.4458 12.3411 18.3169 12.1786 18.1544C12.0161 17.9919 11.8872 17.799 11.7992 17.5867C11.7113 17.3744 11.666 17.1468 11.666 16.917L11.666 14.0003" stroke="#C7CAC8" stroke-width="2" stroke-linecap="round" stroke-linejoin="round"/>
<path d="M11.666 15.75C11.666 16.2141 11.4816 16.6592 11.1535 16.9874C10.8253 17.3156 10.3801 17.5 9.91602 17.5C9.45189 17.5 9.00677 17.3156 8.67858 16.9874C8.35039 16.6592 8.16602 16.2141 8.16602 15.75L8.16602 14" stroke="#C7CAC8" stroke-width="2" stroke-linecap="round" stroke-linejoin="round"/>
<path d="M8.16743 14.584C8.16743 15.0481 7.98305 15.4932 7.65487 15.8214C7.32668 16.1496 6.88156 16.334 6.41743 16.334C5.9533 16.334 5.50818 16.1496 5.17999 15.8214C4.85181 15.4932 4.66743 15.0481 4.66743 14.584L4.66743 9.33399C4.66743 7.47747 5.40493 5.69699 6.71768 4.38424C8.03044 3.07148 9.81091 2.33398 11.6674 2.33398L14.0008 2.33398L13.7581 2.33398C14.9174 2.33379 16.0585 2.62151 17.0791 3.17132C18.0998 3.72112 18.9678 4.5158 19.6054 5.48398C19.6819 5.60046 19.7582 5.71712 19.8341 5.83398C20.1981 6.39282 21.4756 8.61998 23.6678 12.5167C23.8912 12.9139 23.9509 13.3826 23.8341 13.8231C23.7174 14.2637 23.4333 14.6413 23.0424 14.8757C22.6261 15.1255 22.1382 15.229 21.6562 15.1698C21.1743 15.1106 20.726 14.8921 20.3824 14.549L18.6674 12.834" stroke="#C7CAC8" stroke-width="2" stroke-linecap="round" stroke-linejoin="round"/>
</g>
<defs>
<clipPath id="clip0_4362_31536">
<rect width="28" height="28" fill="white" transform="translate(28 28) rotate(180)"/>
</clipPath>
</defs>
</svg>
