<svg width="32" height="32" viewBox="0 0 32 32" fill="none" xmlns="http://www.w3.org/2000/svg">
<mask id="path-1-inside-1_5032_2632" fill="white">
<path d="M26.666 17.5724V14.6657C26.666 11.8367 25.5422 9.12361 23.5418 7.12322C21.5414 5.12283 18.8283 3.99902 15.9993 3.99902C13.1704 3.99902 10.4573 5.12283 8.45688 7.12322C6.45649 9.12361 5.33268 11.8367 5.33268 14.6657V17.5724C4.55462 17.8474 3.88068 18.3565 3.40327 19.0296C2.92585 19.7028 2.66833 20.5071 2.66602 21.3324V23.999C2.66602 25.0599 3.08744 26.0773 3.83759 26.8275C4.58773 27.5776 5.60515 27.999 6.66602 27.999H10.666C11.0196 27.999 11.3588 27.8585 11.6088 27.6085C11.8589 27.3585 11.9993 27.0193 11.9993 26.6657V18.6657C11.9993 18.3121 11.8589 17.9729 11.6088 17.7229C11.3588 17.4728 11.0196 17.3324 10.666 17.3324H7.99935V14.6657C7.99935 12.544 8.8422 10.5091 10.3425 9.00884C11.8428 7.50855 13.8776 6.66569 15.9993 6.66569C18.1211 6.66569 20.1559 7.50855 21.6562 9.00884C23.1565 10.5091 23.9993 12.544 23.9993 14.6657V17.3324H21.3327C20.9791 17.3324 20.6399 17.4728 20.3899 17.7229C20.1398 17.9729 19.9993 18.3121 19.9993 18.6657V26.6657C19.9993 27.0193 20.1398 27.3585 20.3899 27.6085C20.6399 27.8585 20.9791 27.999 21.3327 27.999H25.3327C26.3935 27.999 27.411 27.5776 28.1611 26.8275C28.9113 26.0773 29.3327 25.0599 29.3327 23.999V21.3324C29.3304 20.5071 29.0728 19.7028 28.5954 19.0296C28.118 18.3565 27.4441 17.8474 26.666 17.5724ZM9.33268 19.999V25.3324H6.66602C6.31239 25.3324 5.97326 25.1919 5.72321 24.9418C5.47316 24.6918 5.33268 24.3526 5.33268 23.999V21.3324C5.33268 20.9787 5.47316 20.6396 5.72321 20.3895C5.97326 20.1395 6.31239 19.999 6.66602 19.999H9.33268ZM26.666 23.999C26.666 24.3526 26.5255 24.6918 26.2755 24.9418C26.0254 25.1919 25.6863 25.3324 25.3327 25.3324H22.666V19.999H25.3327C25.6863 19.999 26.0254 20.1395 26.2755 20.3895C26.5255 20.6396 26.666 20.9787 26.666 21.3324V23.999Z"/>
</mask>
<path d="M26.666 17.5724V14.6657C26.666 11.8367 25.5422 9.12361 23.5418 7.12322C21.5414 5.12283 18.8283 3.99902 15.9993 3.99902C13.1704 3.99902 10.4573 5.12283 8.45688 7.12322C6.45649 9.12361 5.33268 11.8367 5.33268 14.6657V17.5724C4.55462 17.8474 3.88068 18.3565 3.40327 19.0296C2.92585 19.7028 2.66833 20.5071 2.66602 21.3324V23.999C2.66602 25.0599 3.08744 26.0773 3.83759 26.8275C4.58773 27.5776 5.60515 27.999 6.66602 27.999H10.666C11.0196 27.999 11.3588 27.8585 11.6088 27.6085C11.8589 27.3585 11.9993 27.0193 11.9993 26.6657V18.6657C11.9993 18.3121 11.8589 17.9729 11.6088 17.7229C11.3588 17.4728 11.0196 17.3324 10.666 17.3324H7.99935V14.6657C7.99935 12.544 8.8422 10.5091 10.3425 9.00884C11.8428 7.50855 13.8776 6.66569 15.9993 6.66569C18.1211 6.66569 20.1559 7.50855 21.6562 9.00884C23.1565 10.5091 23.9993 12.544 23.9993 14.6657V17.3324H21.3327C20.9791 17.3324 20.6399 17.4728 20.3899 17.7229C20.1398 17.9729 19.9993 18.3121 19.9993 18.6657V26.6657C19.9993 27.0193 20.1398 27.3585 20.3899 27.6085C20.6399 27.8585 20.9791 27.999 21.3327 27.999H25.3327C26.3935 27.999 27.411 27.5776 28.1611 26.8275C28.9113 26.0773 29.3327 25.0599 29.3327 23.999V21.3324C29.3304 20.5071 29.0728 19.7028 28.5954 19.0296C28.118 18.3565 27.4441 17.8474 26.666 17.5724ZM9.33268 19.999V25.3324H6.66602C6.31239 25.3324 5.97326 25.1919 5.72321 24.9418C5.47316 24.6918 5.33268 24.3526 5.33268 23.999V21.3324C5.33268 20.9787 5.47316 20.6396 5.72321 20.3895C5.97326 20.1395 6.31239 19.999 6.66602 19.999H9.33268ZM26.666 23.999C26.666 24.3526 26.5255 24.6918 26.2755 24.9418C26.0254 25.1919 25.6863 25.3324 25.3327 25.3324H22.666V19.999H25.3327C25.6863 19.999 26.0254 20.1395 26.2755 20.3895C26.5255 20.6396 26.666 20.9787 26.666 21.3324V23.999Z" fill="white" stroke="#3A9F64" stroke-width="0.4" mask="url(#path-1-inside-1_5032_2632)"/>
</svg>
