<svg width="32" height="32" viewBox="0 0 32 32" fill="none" xmlns="http://www.w3.org/2000/svg">
<mask id="path-1-inside-1_5022_2687" fill="white">
<path d="M25.4033 10.8113L26.6015 9.61308C27.1483 9.06635 27.1483 8.17993 26.6015 7.6332C26.0549 7.08659 25.1687 7.08646 24.622 7.63291L23.2207 9.03334C21.7507 8.15135 20.0371 7.63335 18.2003 7.63335C12.7978 7.63335 8.40039 12.0293 8.40039 17.4333C8.40039 22.8373 12.7978 27.2332 18.2003 27.2332C23.6029 27.2332 28.0003 22.8373 28.0003 17.4333C27.9992 14.9777 27.0718 12.613 25.4033 10.8113ZM18.2003 24.4332C14.3406 24.4332 11.2004 21.2931 11.2004 17.4333C11.2004 13.5735 14.3406 10.4333 18.2003 10.4333C22.0601 10.4333 25.2003 13.5735 25.2003 17.4333C25.2003 21.2931 22.0601 24.4332 18.2003 24.4332Z"/>
</mask>
<path d="M25.4033 10.8113L26.6015 9.61308C27.1483 9.06635 27.1483 8.17993 26.6015 7.6332C26.0549 7.08659 25.1687 7.08646 24.622 7.63291L23.2207 9.03334C21.7507 8.15135 20.0371 7.63335 18.2003 7.63335C12.7978 7.63335 8.40039 12.0293 8.40039 17.4333C8.40039 22.8373 12.7978 27.2332 18.2003 27.2332C23.6029 27.2332 28.0003 22.8373 28.0003 17.4333C27.9992 14.9777 27.0718 12.613 25.4033 10.8113ZM18.2003 24.4332C14.3406 24.4332 11.2004 21.2931 11.2004 17.4333C11.2004 13.5735 14.3406 10.4333 18.2003 10.4333C22.0601 10.4333 25.2003 13.5735 25.2003 17.4333C25.2003 21.2931 22.0601 24.4332 18.2003 24.4332Z" fill="white"/>
<path d="M25.4033 10.8113L25.2619 10.6699L25.1258 10.806L25.2566 10.9472L25.4033 10.8113ZM23.2207 9.03334L23.1178 9.20484L23.2517 9.28516L23.3621 9.1748L23.2207 9.03334ZM28.0003 17.4333H28.2003V17.4332L28.0003 17.4333ZM24.622 7.63291L24.7633 7.77438L24.622 7.63291ZM26.6015 9.61308L26.4601 9.47166L26.6015 9.61308ZM25.5447 10.9528L26.743 9.7545L26.4601 9.47166L25.2619 10.6699L25.5447 10.9528ZM24.4806 7.49145L23.0793 8.89188L23.3621 9.1748L24.7633 7.77438L24.4806 7.49145ZM23.3236 8.86184C21.8243 7.96224 20.0754 7.43335 18.2003 7.43335V7.83335C19.9989 7.83335 21.6772 8.34045 23.1178 9.20484L23.3236 8.86184ZM18.2003 7.43335C12.6873 7.43335 8.20039 11.9188 8.20039 17.4333H8.60039C8.60039 12.1398 12.9082 7.83335 18.2003 7.83335V7.43335ZM8.20039 17.4333C8.20039 22.9477 12.6873 27.4332 18.2003 27.4332V27.0332C12.9082 27.0332 8.60039 22.7268 8.60039 17.4333H8.20039ZM18.2003 27.4332C23.7133 27.4332 28.2003 22.9477 28.2003 17.4333H27.8003C27.8003 22.7268 23.4925 27.0332 18.2003 27.0332V27.4332ZM28.2003 17.4332C28.1991 14.9273 27.2527 12.514 25.55 10.6754L25.2566 10.9472C26.8908 12.7119 27.7992 15.0282 27.8003 17.4334L28.2003 17.4332ZM18.2003 24.2332C14.451 24.2332 11.4004 21.1826 11.4004 17.4333H11.0004C11.0004 21.4035 14.2301 24.6332 18.2003 24.6332V24.2332ZM11.4004 17.4333C11.4004 13.684 14.451 10.6333 18.2003 10.6333V10.2333C14.2301 10.2333 11.0004 13.4631 11.0004 17.4333H11.4004ZM18.2003 10.6333C21.9497 10.6333 25.0003 13.684 25.0003 17.4333H25.4003C25.4003 13.4631 22.1706 10.2333 18.2003 10.2333V10.6333ZM25.0003 17.4333C25.0003 21.1826 21.9497 24.2332 18.2003 24.2332V24.6332C22.1706 24.6332 25.4003 21.4035 25.4003 17.4333H25.0003ZM26.743 7.49178C26.1183 6.86708 25.1055 6.86693 24.4806 7.49145L24.7633 7.77438C25.232 7.30599 25.9916 7.3061 26.4601 7.77463L26.743 7.49178ZM26.743 9.7545C27.3678 9.12967 27.3678 8.11662 26.743 7.49178L26.4601 7.77463C26.9287 8.24325 26.9287 9.00304 26.4601 9.47166L26.743 9.7545Z" fill="#3A9F64" mask="url(#path-1-inside-1_5022_2687)"/>
<path d="M16.7999 14.6335C16.7999 13.8603 17.4267 13.2335 18.1999 13.2335C18.9731 13.2335 19.5999 13.8603 19.5999 14.6335V17.4335C19.5999 18.2067 18.9731 18.8335 18.1999 18.8335C17.4267 18.8335 16.7999 18.2067 16.7999 17.4335V14.6335ZM15.3999 4.83359C15.3999 4.06039 16.0267 3.43359 16.7999 3.43359H19.5999C20.3731 3.43359 20.9999 4.06039 20.9999 4.83359C20.9999 5.60678 20.3731 6.23358 19.5999 6.23358H16.7999C16.0267 6.23358 15.3999 5.60678 15.3999 4.83359ZM1.39999 11.8335C1.39999 11.0604 2.02679 10.4336 2.79998 10.4336H5.59997C6.37316 10.4336 6.99996 11.0604 6.99996 11.8335C6.99996 12.6067 6.37316 13.2335 5.59997 13.2335H2.79998C2.02679 13.2335 1.39999 12.6067 1.39999 11.8335ZM1.39999 23.0335C1.39999 22.2603 2.02679 21.6335 2.79998 21.6335H5.59997C6.37316 21.6335 6.99996 22.2603 6.99996 23.0335C6.99996 23.8067 6.37316 24.4335 5.59997 24.4335H2.79998C2.02679 24.4335 1.39999 23.8067 1.39999 23.0335ZM0 17.4335C0 16.6603 0.626797 16.0335 1.39999 16.0335H4.18598C4.95917 16.0335 5.58597 16.6603 5.58597 17.4335C5.58597 18.2067 4.95917 18.8335 4.18598 18.8335H1.39999C0.626797 18.8335 0 18.2067 0 17.4335Z" fill="white"/>
</svg>
