<svg width="32" height="32" viewBox="0 0 32 32" fill="none" xmlns="http://www.w3.org/2000/svg">
<path d="M16.3354 16.2096L16.2197 16.3112L16.3596 16.3756C18.126 17.1878 19.6249 18.4995 20.6769 20.1541C21.7289 21.8088 22.2895 23.7362 22.2913 25.706C22.2913 26.0231 22.1672 26.327 21.9468 26.5508C21.7264 26.7746 21.4279 26.9 21.1169 26.9C20.8059 26.9 20.5073 26.7746 20.2869 26.5508C20.0665 26.327 19.9424 26.0231 19.9424 25.7059C19.9424 23.6205 19.1266 21.6203 17.674 20.1452C16.2213 18.6702 14.2507 17.8412 12.1957 17.8412C10.1406 17.8412 8.17002 18.6702 6.71735 20.1452C5.26472 21.6203 4.44892 23.6205 4.44892 25.7059C4.44892 26.0231 4.32481 26.327 4.10439 26.5508C3.88401 26.7746 3.58545 26.9 3.27446 26.9C2.96347 26.9 2.66491 26.7746 2.44453 26.5508C2.2241 26.327 2.1 26.0231 2.1 25.7059C2.10187 23.7361 2.66239 21.8087 3.71439 20.1541C4.7664 18.4995 6.26531 17.1878 8.03173 16.3756L8.17161 16.3112L8.05597 16.2096C7.38674 15.6214 6.84986 14.8938 6.48186 14.076C6.11385 13.2583 5.92336 12.3697 5.92337 11.4706C5.92337 9.78051 6.58457 8.15996 7.76102 6.96536C8.93743 5.77081 10.5326 5.1 12.1957 5.1C13.8587 5.1 15.4539 5.77081 16.6303 6.96536C17.8068 8.15996 18.468 9.78051 18.468 11.4706C18.468 12.3697 18.2775 13.2583 17.9095 14.076C17.5415 14.8938 17.0046 15.6214 16.3354 16.2096ZM24.5336 15.7012L24.4568 15.789L24.5553 15.8515C26.1993 16.8948 27.5535 18.3478 28.489 20.0725C29.4245 21.7972 29.9102 23.7362 29.8998 25.7054V25.7059C29.8998 26.0231 29.7757 26.327 29.5553 26.5508C29.3349 26.7746 29.0364 26.9 28.7254 26.9C28.4144 26.9 28.1158 26.7746 27.8955 26.5508C27.6751 26.327 27.551 26.0233 27.5509 25.7062C27.5644 23.9612 27.0866 22.2485 26.1736 20.7698C25.2609 19.2916 23.9514 18.1087 22.3988 17.3604L22.2395 17.2734L21.7464 16.9395L21.7459 16.9392C21.5793 16.8279 21.4433 16.6752 21.3506 16.4955C21.258 16.3157 21.2119 16.1149 21.2168 15.912C21.2221 15.7074 21.279 15.5077 21.382 15.332C21.485 15.1563 21.6306 15.0106 21.8046 14.9086L21.8047 14.9086C22.3996 14.5598 22.8938 14.0587 23.2378 13.4554C23.5819 12.8521 23.7639 12.1678 23.7658 11.4709V11.4706C23.7658 10.4149 23.3528 9.40213 22.6172 8.65518C21.8815 7.90818 20.8835 7.48824 19.8424 7.48824C19.5314 7.48824 19.2329 7.3628 19.0125 7.13903C18.7921 6.9152 18.668 6.61131 18.668 6.29412C18.668 5.97693 18.7921 5.67303 19.0125 5.44921L18.9412 5.37904L19.0125 5.44921C19.2329 5.22543 19.5314 5.1 19.8424 5.1C21.0512 5.09967 22.2343 5.45408 23.2495 6.12072C24.2648 6.78738 25.0688 7.73793 25.5647 8.85813C26.0607 9.97833 26.2272 11.2203 26.0442 12.4345C25.8612 13.6487 25.3366 14.7831 24.5336 15.7012ZM10.0154 14.7814C10.6606 15.2192 11.4193 15.4529 12.1957 15.4529C13.2367 15.4529 14.2348 15.033 14.9704 14.286C15.706 13.539 16.119 12.5263 16.119 11.4706C16.119 10.6833 15.8891 9.91355 15.4582 9.2587C15.0273 8.60383 14.4146 8.09319 13.6976 7.79158C12.9805 7.48997 12.1913 7.41103 11.43 7.56481C10.6686 7.71859 9.96947 8.09813 9.42088 8.65518C8.8723 9.21222 8.49889 9.92175 8.34762 10.694C8.19635 11.4662 8.27398 12.2666 8.57073 12.9941C8.8675 13.7216 9.37015 14.3436 10.0154 14.7814Z" fill="white" stroke="#3A9F64" stroke-width="0.2"/>
</svg>
